G04 #@! TF.GenerationSoftware,KiCad,Pcbnew,(5.1.10)-1*
G04 #@! TF.CreationDate,2021-08-27T00:07:47-06:00*
G04 #@! TF.ProjectId,EncoderPad_RP2040,456e636f-6465-4725-9061-645f52503230,rev?*
G04 #@! TF.SameCoordinates,Original*
G04 #@! TF.FileFunction,Soldermask,Bot*
G04 #@! TF.FilePolarity,Negative*
%FSLAX46Y46*%
G04 Gerber Fmt 4.6, Leading zero omitted, Abs format (unit mm)*
G04 Created by KiCad (PCBNEW (5.1.10)-1) date 2021-08-27 00:07:47*
%MOMM*%
%LPD*%
G01*
G04 APERTURE LIST*
%ADD10O,2.100000X2.100000*%
%ADD11O,1.400000X1.400000*%
%ADD12C,3.400000*%
%ADD13C,2.150000*%
%ADD14C,4.400000*%
%ADD15O,1.400000X2.500000*%
%ADD16C,1.050000*%
%ADD17O,1.400000X2.000000*%
%ADD18C,44.400000*%
%ADD19C,3.900000*%
G04 APERTURE END LIST*
G36*
G01*
X65267000Y-86492000D02*
X65267000Y-85842000D01*
G75*
G02*
X65467000Y-85642000I200000J0D01*
G01*
X66527000Y-85642000D01*
G75*
G02*
X66727000Y-85842000I0J-200000D01*
G01*
X66727000Y-86492000D01*
G75*
G02*
X66527000Y-86692000I-200000J0D01*
G01*
X65467000Y-86692000D01*
G75*
G02*
X65267000Y-86492000I0J200000D01*
G01*
G37*
G36*
G01*
X65267000Y-84592000D02*
X65267000Y-83942000D01*
G75*
G02*
X65467000Y-83742000I200000J0D01*
G01*
X66527000Y-83742000D01*
G75*
G02*
X66727000Y-83942000I0J-200000D01*
G01*
X66727000Y-84592000D01*
G75*
G02*
X66527000Y-84792000I-200000J0D01*
G01*
X65467000Y-84792000D01*
G75*
G02*
X65267000Y-84592000I0J200000D01*
G01*
G37*
G36*
G01*
X63067000Y-84592000D02*
X63067000Y-83942000D01*
G75*
G02*
X63267000Y-83742000I200000J0D01*
G01*
X64327000Y-83742000D01*
G75*
G02*
X64527000Y-83942000I0J-200000D01*
G01*
X64527000Y-84592000D01*
G75*
G02*
X64327000Y-84792000I-200000J0D01*
G01*
X63267000Y-84792000D01*
G75*
G02*
X63067000Y-84592000I0J200000D01*
G01*
G37*
G36*
G01*
X63067000Y-85542000D02*
X63067000Y-84892000D01*
G75*
G02*
X63267000Y-84692000I200000J0D01*
G01*
X64327000Y-84692000D01*
G75*
G02*
X64527000Y-84892000I0J-200000D01*
G01*
X64527000Y-85542000D01*
G75*
G02*
X64327000Y-85742000I-200000J0D01*
G01*
X63267000Y-85742000D01*
G75*
G02*
X63067000Y-85542000I0J200000D01*
G01*
G37*
G36*
G01*
X63067000Y-86492000D02*
X63067000Y-85842000D01*
G75*
G02*
X63267000Y-85642000I200000J0D01*
G01*
X64327000Y-85642000D01*
G75*
G02*
X64527000Y-85842000I0J-200000D01*
G01*
X64527000Y-86492000D01*
G75*
G02*
X64327000Y-86692000I-200000J0D01*
G01*
X63267000Y-86692000D01*
G75*
G02*
X63067000Y-86492000I0J200000D01*
G01*
G37*
D10*
X133197600Y-127152400D03*
X133197600Y-129692400D03*
X133197600Y-132232400D03*
G36*
G01*
X132147600Y-135622400D02*
X132147600Y-133922400D01*
G75*
G02*
X132347600Y-133722400I200000J0D01*
G01*
X134047600Y-133722400D01*
G75*
G02*
X134247600Y-133922400I0J-200000D01*
G01*
X134247600Y-135622400D01*
G75*
G02*
X134047600Y-135822400I-200000J0D01*
G01*
X132347600Y-135822400D01*
G75*
G02*
X132147600Y-135622400I0J200000D01*
G01*
G37*
G36*
G01*
X57166800Y-91877800D02*
X57166800Y-92627800D01*
G75*
G02*
X56866800Y-92927800I-300000J0D01*
G01*
X56266800Y-92927800D01*
G75*
G02*
X55966800Y-92627800I0J300000D01*
G01*
X55966800Y-91877800D01*
G75*
G02*
X56266800Y-91577800I300000J0D01*
G01*
X56866800Y-91577800D01*
G75*
G02*
X57166800Y-91877800I0J-300000D01*
G01*
G37*
G36*
G01*
X58816800Y-91877800D02*
X58816800Y-92627800D01*
G75*
G02*
X58516800Y-92927800I-300000J0D01*
G01*
X57916800Y-92927800D01*
G75*
G02*
X57616800Y-92627800I0J300000D01*
G01*
X57616800Y-91877800D01*
G75*
G02*
X57916800Y-91577800I300000J0D01*
G01*
X58516800Y-91577800D01*
G75*
G02*
X58816800Y-91877800I0J-300000D01*
G01*
G37*
G36*
G01*
X62003900Y-62432550D02*
X62003900Y-63145050D01*
G75*
G02*
X61685150Y-63463800I-318750J0D01*
G01*
X61047650Y-63463800D01*
G75*
G02*
X60728900Y-63145050I0J318750D01*
G01*
X60728900Y-62432550D01*
G75*
G02*
X61047650Y-62113800I318750J0D01*
G01*
X61685150Y-62113800D01*
G75*
G02*
X62003900Y-62432550I0J-318750D01*
G01*
G37*
G36*
G01*
X63578900Y-62432550D02*
X63578900Y-63145050D01*
G75*
G02*
X63260150Y-63463800I-318750J0D01*
G01*
X62622650Y-63463800D01*
G75*
G02*
X62303900Y-63145050I0J318750D01*
G01*
X62303900Y-62432550D01*
G75*
G02*
X62622650Y-62113800I318750J0D01*
G01*
X63260150Y-62113800D01*
G75*
G02*
X63578900Y-62432550I0J-318750D01*
G01*
G37*
D11*
X52476400Y-84074000D03*
X52476400Y-85344000D03*
X52476400Y-86614000D03*
X52476400Y-87884000D03*
X52476400Y-89154000D03*
G36*
G01*
X51776400Y-90924000D02*
X51776400Y-89924000D01*
G75*
G02*
X51976400Y-89724000I200000J0D01*
G01*
X52976400Y-89724000D01*
G75*
G02*
X53176400Y-89924000I0J-200000D01*
G01*
X53176400Y-90924000D01*
G75*
G02*
X52976400Y-91124000I-200000J0D01*
G01*
X51976400Y-91124000D01*
G75*
G02*
X51776400Y-90924000I0J200000D01*
G01*
G37*
G36*
G01*
X128492600Y-121949000D02*
X127742600Y-121949000D01*
G75*
G02*
X127442600Y-121649000I0J300000D01*
G01*
X127442600Y-121049000D01*
G75*
G02*
X127742600Y-120749000I300000J0D01*
G01*
X128492600Y-120749000D01*
G75*
G02*
X128792600Y-121049000I0J-300000D01*
G01*
X128792600Y-121649000D01*
G75*
G02*
X128492600Y-121949000I-300000J0D01*
G01*
G37*
G36*
G01*
X128492600Y-123599000D02*
X127742600Y-123599000D01*
G75*
G02*
X127442600Y-123299000I0J300000D01*
G01*
X127442600Y-122699000D01*
G75*
G02*
X127742600Y-122399000I300000J0D01*
G01*
X128492600Y-122399000D01*
G75*
G02*
X128792600Y-122699000I0J-300000D01*
G01*
X128792600Y-123299000D01*
G75*
G02*
X128492600Y-123599000I-300000J0D01*
G01*
G37*
G36*
G01*
X127641000Y-129003000D02*
X128391000Y-129003000D01*
G75*
G02*
X128691000Y-129303000I0J-300000D01*
G01*
X128691000Y-129903000D01*
G75*
G02*
X128391000Y-130203000I-300000J0D01*
G01*
X127641000Y-130203000D01*
G75*
G02*
X127341000Y-129903000I0J300000D01*
G01*
X127341000Y-129303000D01*
G75*
G02*
X127641000Y-129003000I300000J0D01*
G01*
G37*
G36*
G01*
X127641000Y-127353000D02*
X128391000Y-127353000D01*
G75*
G02*
X128691000Y-127653000I0J-300000D01*
G01*
X128691000Y-128253000D01*
G75*
G02*
X128391000Y-128553000I-300000J0D01*
G01*
X127641000Y-128553000D01*
G75*
G02*
X127341000Y-128253000I0J300000D01*
G01*
X127341000Y-127653000D01*
G75*
G02*
X127641000Y-127353000I300000J0D01*
G01*
G37*
D10*
X54762400Y-126949200D03*
X54762400Y-129489200D03*
G36*
G01*
X53712400Y-132879200D02*
X53712400Y-131179200D01*
G75*
G02*
X53912400Y-130979200I200000J0D01*
G01*
X55612400Y-130979200D01*
G75*
G02*
X55812400Y-131179200I0J-200000D01*
G01*
X55812400Y-132879200D01*
G75*
G02*
X55612400Y-133079200I-200000J0D01*
G01*
X53912400Y-133079200D01*
G75*
G02*
X53712400Y-132879200I0J200000D01*
G01*
G37*
G36*
G01*
X138500000Y-108750000D02*
X138500000Y-109650000D01*
G75*
G02*
X138300000Y-109850000I-200000J0D01*
G01*
X136500000Y-109850000D01*
G75*
G02*
X136300000Y-109650000I0J200000D01*
G01*
X136300000Y-108750000D01*
G75*
G02*
X136500000Y-108550000I200000J0D01*
G01*
X138300000Y-108550000D01*
G75*
G02*
X138500000Y-108750000I0J-200000D01*
G01*
G37*
G36*
G01*
X138500000Y-110250000D02*
X138500000Y-111150000D01*
G75*
G02*
X138300000Y-111350000I-200000J0D01*
G01*
X136500000Y-111350000D01*
G75*
G02*
X136300000Y-111150000I0J200000D01*
G01*
X136300000Y-110250000D01*
G75*
G02*
X136500000Y-110050000I200000J0D01*
G01*
X138300000Y-110050000D01*
G75*
G02*
X138500000Y-110250000I0J-200000D01*
G01*
G37*
G36*
G01*
X143700000Y-108750000D02*
X143700000Y-109650000D01*
G75*
G02*
X143500000Y-109850000I-200000J0D01*
G01*
X141700000Y-109850000D01*
G75*
G02*
X141500000Y-109650000I0J200000D01*
G01*
X141500000Y-108750000D01*
G75*
G02*
X141700000Y-108550000I200000J0D01*
G01*
X143500000Y-108550000D01*
G75*
G02*
X143700000Y-108750000I0J-200000D01*
G01*
G37*
G36*
G01*
X143700000Y-110250000D02*
X143700000Y-111150000D01*
G75*
G02*
X143500000Y-111350000I-200000J0D01*
G01*
X141700000Y-111350000D01*
G75*
G02*
X141500000Y-111150000I0J200000D01*
G01*
X141500000Y-110250000D01*
G75*
G02*
X141700000Y-110050000I200000J0D01*
G01*
X143500000Y-110050000D01*
G75*
G02*
X143700000Y-110250000I0J-200000D01*
G01*
G37*
G36*
G01*
X135460000Y-118830000D02*
X135460000Y-121330000D01*
G75*
G02*
X135260000Y-121530000I-200000J0D01*
G01*
X132710000Y-121530000D01*
G75*
G02*
X132510000Y-121330000I0J200000D01*
G01*
X132510000Y-118830000D01*
G75*
G02*
X132710000Y-118630000I200000J0D01*
G01*
X135260000Y-118630000D01*
G75*
G02*
X135460000Y-118830000I0J-200000D01*
G01*
G37*
G36*
G01*
X148885000Y-116290000D02*
X148885000Y-118790000D01*
G75*
G02*
X148685000Y-118990000I-200000J0D01*
G01*
X146135000Y-118990000D01*
G75*
G02*
X145935000Y-118790000I0J200000D01*
G01*
X145935000Y-116290000D01*
G75*
G02*
X146135000Y-116090000I200000J0D01*
G01*
X148685000Y-116090000D01*
G75*
G02*
X148885000Y-116290000I0J-200000D01*
G01*
G37*
D12*
X137460000Y-120080000D03*
X143810000Y-117540000D03*
D13*
X134920000Y-115000000D03*
X145080000Y-115000000D03*
D14*
X140000000Y-115000000D03*
G36*
G01*
X138500000Y-88750000D02*
X138500000Y-89650000D01*
G75*
G02*
X138300000Y-89850000I-200000J0D01*
G01*
X136500000Y-89850000D01*
G75*
G02*
X136300000Y-89650000I0J200000D01*
G01*
X136300000Y-88750000D01*
G75*
G02*
X136500000Y-88550000I200000J0D01*
G01*
X138300000Y-88550000D01*
G75*
G02*
X138500000Y-88750000I0J-200000D01*
G01*
G37*
G36*
G01*
X138500000Y-90250000D02*
X138500000Y-91150000D01*
G75*
G02*
X138300000Y-91350000I-200000J0D01*
G01*
X136500000Y-91350000D01*
G75*
G02*
X136300000Y-91150000I0J200000D01*
G01*
X136300000Y-90250000D01*
G75*
G02*
X136500000Y-90050000I200000J0D01*
G01*
X138300000Y-90050000D01*
G75*
G02*
X138500000Y-90250000I0J-200000D01*
G01*
G37*
G36*
G01*
X143700000Y-88750000D02*
X143700000Y-89650000D01*
G75*
G02*
X143500000Y-89850000I-200000J0D01*
G01*
X141700000Y-89850000D01*
G75*
G02*
X141500000Y-89650000I0J200000D01*
G01*
X141500000Y-88750000D01*
G75*
G02*
X141700000Y-88550000I200000J0D01*
G01*
X143500000Y-88550000D01*
G75*
G02*
X143700000Y-88750000I0J-200000D01*
G01*
G37*
G36*
G01*
X143700000Y-90250000D02*
X143700000Y-91150000D01*
G75*
G02*
X143500000Y-91350000I-200000J0D01*
G01*
X141700000Y-91350000D01*
G75*
G02*
X141500000Y-91150000I0J200000D01*
G01*
X141500000Y-90250000D01*
G75*
G02*
X141700000Y-90050000I200000J0D01*
G01*
X143500000Y-90050000D01*
G75*
G02*
X143700000Y-90250000I0J-200000D01*
G01*
G37*
G36*
G01*
X135460000Y-98830000D02*
X135460000Y-101330000D01*
G75*
G02*
X135260000Y-101530000I-200000J0D01*
G01*
X132710000Y-101530000D01*
G75*
G02*
X132510000Y-101330000I0J200000D01*
G01*
X132510000Y-98830000D01*
G75*
G02*
X132710000Y-98630000I200000J0D01*
G01*
X135260000Y-98630000D01*
G75*
G02*
X135460000Y-98830000I0J-200000D01*
G01*
G37*
G36*
G01*
X148885000Y-96290000D02*
X148885000Y-98790000D01*
G75*
G02*
X148685000Y-98990000I-200000J0D01*
G01*
X146135000Y-98990000D01*
G75*
G02*
X145935000Y-98790000I0J200000D01*
G01*
X145935000Y-96290000D01*
G75*
G02*
X146135000Y-96090000I200000J0D01*
G01*
X148685000Y-96090000D01*
G75*
G02*
X148885000Y-96290000I0J-200000D01*
G01*
G37*
D12*
X137460000Y-100080000D03*
X143810000Y-97540000D03*
D13*
X134920000Y-95000000D03*
X145080000Y-95000000D03*
D14*
X140000000Y-95000000D03*
G36*
G01*
X138500000Y-68750000D02*
X138500000Y-69650000D01*
G75*
G02*
X138300000Y-69850000I-200000J0D01*
G01*
X136500000Y-69850000D01*
G75*
G02*
X136300000Y-69650000I0J200000D01*
G01*
X136300000Y-68750000D01*
G75*
G02*
X136500000Y-68550000I200000J0D01*
G01*
X138300000Y-68550000D01*
G75*
G02*
X138500000Y-68750000I0J-200000D01*
G01*
G37*
G36*
G01*
X138500000Y-70250000D02*
X138500000Y-71150000D01*
G75*
G02*
X138300000Y-71350000I-200000J0D01*
G01*
X136500000Y-71350000D01*
G75*
G02*
X136300000Y-71150000I0J200000D01*
G01*
X136300000Y-70250000D01*
G75*
G02*
X136500000Y-70050000I200000J0D01*
G01*
X138300000Y-70050000D01*
G75*
G02*
X138500000Y-70250000I0J-200000D01*
G01*
G37*
G36*
G01*
X143700000Y-68750000D02*
X143700000Y-69650000D01*
G75*
G02*
X143500000Y-69850000I-200000J0D01*
G01*
X141700000Y-69850000D01*
G75*
G02*
X141500000Y-69650000I0J200000D01*
G01*
X141500000Y-68750000D01*
G75*
G02*
X141700000Y-68550000I200000J0D01*
G01*
X143500000Y-68550000D01*
G75*
G02*
X143700000Y-68750000I0J-200000D01*
G01*
G37*
G36*
G01*
X143700000Y-70250000D02*
X143700000Y-71150000D01*
G75*
G02*
X143500000Y-71350000I-200000J0D01*
G01*
X141700000Y-71350000D01*
G75*
G02*
X141500000Y-71150000I0J200000D01*
G01*
X141500000Y-70250000D01*
G75*
G02*
X141700000Y-70050000I200000J0D01*
G01*
X143500000Y-70050000D01*
G75*
G02*
X143700000Y-70250000I0J-200000D01*
G01*
G37*
G36*
G01*
X135460000Y-78830000D02*
X135460000Y-81330000D01*
G75*
G02*
X135260000Y-81530000I-200000J0D01*
G01*
X132710000Y-81530000D01*
G75*
G02*
X132510000Y-81330000I0J200000D01*
G01*
X132510000Y-78830000D01*
G75*
G02*
X132710000Y-78630000I200000J0D01*
G01*
X135260000Y-78630000D01*
G75*
G02*
X135460000Y-78830000I0J-200000D01*
G01*
G37*
G36*
G01*
X148885000Y-76290000D02*
X148885000Y-78790000D01*
G75*
G02*
X148685000Y-78990000I-200000J0D01*
G01*
X146135000Y-78990000D01*
G75*
G02*
X145935000Y-78790000I0J200000D01*
G01*
X145935000Y-76290000D01*
G75*
G02*
X146135000Y-76090000I200000J0D01*
G01*
X148685000Y-76090000D01*
G75*
G02*
X148885000Y-76290000I0J-200000D01*
G01*
G37*
D12*
X137460000Y-80080000D03*
X143810000Y-77540000D03*
D13*
X134920000Y-75000000D03*
X145080000Y-75000000D03*
D14*
X140000000Y-75000000D03*
G36*
G01*
X118500000Y-68750000D02*
X118500000Y-69650000D01*
G75*
G02*
X118300000Y-69850000I-200000J0D01*
G01*
X116500000Y-69850000D01*
G75*
G02*
X116300000Y-69650000I0J200000D01*
G01*
X116300000Y-68750000D01*
G75*
G02*
X116500000Y-68550000I200000J0D01*
G01*
X118300000Y-68550000D01*
G75*
G02*
X118500000Y-68750000I0J-200000D01*
G01*
G37*
G36*
G01*
X118500000Y-70250000D02*
X118500000Y-71150000D01*
G75*
G02*
X118300000Y-71350000I-200000J0D01*
G01*
X116500000Y-71350000D01*
G75*
G02*
X116300000Y-71150000I0J200000D01*
G01*
X116300000Y-70250000D01*
G75*
G02*
X116500000Y-70050000I200000J0D01*
G01*
X118300000Y-70050000D01*
G75*
G02*
X118500000Y-70250000I0J-200000D01*
G01*
G37*
G36*
G01*
X123700000Y-68750000D02*
X123700000Y-69650000D01*
G75*
G02*
X123500000Y-69850000I-200000J0D01*
G01*
X121700000Y-69850000D01*
G75*
G02*
X121500000Y-69650000I0J200000D01*
G01*
X121500000Y-68750000D01*
G75*
G02*
X121700000Y-68550000I200000J0D01*
G01*
X123500000Y-68550000D01*
G75*
G02*
X123700000Y-68750000I0J-200000D01*
G01*
G37*
G36*
G01*
X123700000Y-70250000D02*
X123700000Y-71150000D01*
G75*
G02*
X123500000Y-71350000I-200000J0D01*
G01*
X121700000Y-71350000D01*
G75*
G02*
X121500000Y-71150000I0J200000D01*
G01*
X121500000Y-70250000D01*
G75*
G02*
X121700000Y-70050000I200000J0D01*
G01*
X123500000Y-70050000D01*
G75*
G02*
X123700000Y-70250000I0J-200000D01*
G01*
G37*
G36*
G01*
X115460000Y-78830000D02*
X115460000Y-81330000D01*
G75*
G02*
X115260000Y-81530000I-200000J0D01*
G01*
X112710000Y-81530000D01*
G75*
G02*
X112510000Y-81330000I0J200000D01*
G01*
X112510000Y-78830000D01*
G75*
G02*
X112710000Y-78630000I200000J0D01*
G01*
X115260000Y-78630000D01*
G75*
G02*
X115460000Y-78830000I0J-200000D01*
G01*
G37*
G36*
G01*
X128885000Y-76290000D02*
X128885000Y-78790000D01*
G75*
G02*
X128685000Y-78990000I-200000J0D01*
G01*
X126135000Y-78990000D01*
G75*
G02*
X125935000Y-78790000I0J200000D01*
G01*
X125935000Y-76290000D01*
G75*
G02*
X126135000Y-76090000I200000J0D01*
G01*
X128685000Y-76090000D01*
G75*
G02*
X128885000Y-76290000I0J-200000D01*
G01*
G37*
D12*
X117460000Y-80080000D03*
X123810000Y-77540000D03*
D13*
X114920000Y-75000000D03*
X125080000Y-75000000D03*
D14*
X120000000Y-75000000D03*
G36*
G01*
X98500000Y-68750000D02*
X98500000Y-69650000D01*
G75*
G02*
X98300000Y-69850000I-200000J0D01*
G01*
X96500000Y-69850000D01*
G75*
G02*
X96300000Y-69650000I0J200000D01*
G01*
X96300000Y-68750000D01*
G75*
G02*
X96500000Y-68550000I200000J0D01*
G01*
X98300000Y-68550000D01*
G75*
G02*
X98500000Y-68750000I0J-200000D01*
G01*
G37*
G36*
G01*
X98500000Y-70250000D02*
X98500000Y-71150000D01*
G75*
G02*
X98300000Y-71350000I-200000J0D01*
G01*
X96500000Y-71350000D01*
G75*
G02*
X96300000Y-71150000I0J200000D01*
G01*
X96300000Y-70250000D01*
G75*
G02*
X96500000Y-70050000I200000J0D01*
G01*
X98300000Y-70050000D01*
G75*
G02*
X98500000Y-70250000I0J-200000D01*
G01*
G37*
G36*
G01*
X103700000Y-68750000D02*
X103700000Y-69650000D01*
G75*
G02*
X103500000Y-69850000I-200000J0D01*
G01*
X101700000Y-69850000D01*
G75*
G02*
X101500000Y-69650000I0J200000D01*
G01*
X101500000Y-68750000D01*
G75*
G02*
X101700000Y-68550000I200000J0D01*
G01*
X103500000Y-68550000D01*
G75*
G02*
X103700000Y-68750000I0J-200000D01*
G01*
G37*
G36*
G01*
X103700000Y-70250000D02*
X103700000Y-71150000D01*
G75*
G02*
X103500000Y-71350000I-200000J0D01*
G01*
X101700000Y-71350000D01*
G75*
G02*
X101500000Y-71150000I0J200000D01*
G01*
X101500000Y-70250000D01*
G75*
G02*
X101700000Y-70050000I200000J0D01*
G01*
X103500000Y-70050000D01*
G75*
G02*
X103700000Y-70250000I0J-200000D01*
G01*
G37*
G36*
G01*
X95460000Y-78830000D02*
X95460000Y-81330000D01*
G75*
G02*
X95260000Y-81530000I-200000J0D01*
G01*
X92710000Y-81530000D01*
G75*
G02*
X92510000Y-81330000I0J200000D01*
G01*
X92510000Y-78830000D01*
G75*
G02*
X92710000Y-78630000I200000J0D01*
G01*
X95260000Y-78630000D01*
G75*
G02*
X95460000Y-78830000I0J-200000D01*
G01*
G37*
G36*
G01*
X108885000Y-76290000D02*
X108885000Y-78790000D01*
G75*
G02*
X108685000Y-78990000I-200000J0D01*
G01*
X106135000Y-78990000D01*
G75*
G02*
X105935000Y-78790000I0J200000D01*
G01*
X105935000Y-76290000D01*
G75*
G02*
X106135000Y-76090000I200000J0D01*
G01*
X108685000Y-76090000D01*
G75*
G02*
X108885000Y-76290000I0J-200000D01*
G01*
G37*
D12*
X97460000Y-80080000D03*
X103810000Y-77540000D03*
D13*
X94920000Y-75000000D03*
X105080000Y-75000000D03*
D14*
X100000000Y-75000000D03*
G36*
G01*
X78510000Y-68750000D02*
X78510000Y-69650000D01*
G75*
G02*
X78310000Y-69850000I-200000J0D01*
G01*
X76510000Y-69850000D01*
G75*
G02*
X76310000Y-69650000I0J200000D01*
G01*
X76310000Y-68750000D01*
G75*
G02*
X76510000Y-68550000I200000J0D01*
G01*
X78310000Y-68550000D01*
G75*
G02*
X78510000Y-68750000I0J-200000D01*
G01*
G37*
G36*
G01*
X78510000Y-70250000D02*
X78510000Y-71150000D01*
G75*
G02*
X78310000Y-71350000I-200000J0D01*
G01*
X76510000Y-71350000D01*
G75*
G02*
X76310000Y-71150000I0J200000D01*
G01*
X76310000Y-70250000D01*
G75*
G02*
X76510000Y-70050000I200000J0D01*
G01*
X78310000Y-70050000D01*
G75*
G02*
X78510000Y-70250000I0J-200000D01*
G01*
G37*
G36*
G01*
X83710000Y-68750000D02*
X83710000Y-69650000D01*
G75*
G02*
X83510000Y-69850000I-200000J0D01*
G01*
X81710000Y-69850000D01*
G75*
G02*
X81510000Y-69650000I0J200000D01*
G01*
X81510000Y-68750000D01*
G75*
G02*
X81710000Y-68550000I200000J0D01*
G01*
X83510000Y-68550000D01*
G75*
G02*
X83710000Y-68750000I0J-200000D01*
G01*
G37*
G36*
G01*
X83710000Y-70250000D02*
X83710000Y-71150000D01*
G75*
G02*
X83510000Y-71350000I-200000J0D01*
G01*
X81710000Y-71350000D01*
G75*
G02*
X81510000Y-71150000I0J200000D01*
G01*
X81510000Y-70250000D01*
G75*
G02*
X81710000Y-70050000I200000J0D01*
G01*
X83510000Y-70050000D01*
G75*
G02*
X83710000Y-70250000I0J-200000D01*
G01*
G37*
G36*
G01*
X75470000Y-78830000D02*
X75470000Y-81330000D01*
G75*
G02*
X75270000Y-81530000I-200000J0D01*
G01*
X72720000Y-81530000D01*
G75*
G02*
X72520000Y-81330000I0J200000D01*
G01*
X72520000Y-78830000D01*
G75*
G02*
X72720000Y-78630000I200000J0D01*
G01*
X75270000Y-78630000D01*
G75*
G02*
X75470000Y-78830000I0J-200000D01*
G01*
G37*
G36*
G01*
X88895000Y-76290000D02*
X88895000Y-78790000D01*
G75*
G02*
X88695000Y-78990000I-200000J0D01*
G01*
X86145000Y-78990000D01*
G75*
G02*
X85945000Y-78790000I0J200000D01*
G01*
X85945000Y-76290000D01*
G75*
G02*
X86145000Y-76090000I200000J0D01*
G01*
X88695000Y-76090000D01*
G75*
G02*
X88895000Y-76290000I0J-200000D01*
G01*
G37*
D12*
X77470000Y-80080000D03*
X83820000Y-77540000D03*
D13*
X74930000Y-75000000D03*
X85090000Y-75000000D03*
D14*
X80010000Y-75000000D03*
G36*
G01*
X58500000Y-68750000D02*
X58500000Y-69650000D01*
G75*
G02*
X58300000Y-69850000I-200000J0D01*
G01*
X56500000Y-69850000D01*
G75*
G02*
X56300000Y-69650000I0J200000D01*
G01*
X56300000Y-68750000D01*
G75*
G02*
X56500000Y-68550000I200000J0D01*
G01*
X58300000Y-68550000D01*
G75*
G02*
X58500000Y-68750000I0J-200000D01*
G01*
G37*
G36*
G01*
X58500000Y-70250000D02*
X58500000Y-71150000D01*
G75*
G02*
X58300000Y-71350000I-200000J0D01*
G01*
X56500000Y-71350000D01*
G75*
G02*
X56300000Y-71150000I0J200000D01*
G01*
X56300000Y-70250000D01*
G75*
G02*
X56500000Y-70050000I200000J0D01*
G01*
X58300000Y-70050000D01*
G75*
G02*
X58500000Y-70250000I0J-200000D01*
G01*
G37*
G36*
G01*
X63700000Y-68750000D02*
X63700000Y-69650000D01*
G75*
G02*
X63500000Y-69850000I-200000J0D01*
G01*
X61700000Y-69850000D01*
G75*
G02*
X61500000Y-69650000I0J200000D01*
G01*
X61500000Y-68750000D01*
G75*
G02*
X61700000Y-68550000I200000J0D01*
G01*
X63500000Y-68550000D01*
G75*
G02*
X63700000Y-68750000I0J-200000D01*
G01*
G37*
G36*
G01*
X63700000Y-70250000D02*
X63700000Y-71150000D01*
G75*
G02*
X63500000Y-71350000I-200000J0D01*
G01*
X61700000Y-71350000D01*
G75*
G02*
X61500000Y-71150000I0J200000D01*
G01*
X61500000Y-70250000D01*
G75*
G02*
X61700000Y-70050000I200000J0D01*
G01*
X63500000Y-70050000D01*
G75*
G02*
X63700000Y-70250000I0J-200000D01*
G01*
G37*
G36*
G01*
X55460000Y-78830000D02*
X55460000Y-81330000D01*
G75*
G02*
X55260000Y-81530000I-200000J0D01*
G01*
X52710000Y-81530000D01*
G75*
G02*
X52510000Y-81330000I0J200000D01*
G01*
X52510000Y-78830000D01*
G75*
G02*
X52710000Y-78630000I200000J0D01*
G01*
X55260000Y-78630000D01*
G75*
G02*
X55460000Y-78830000I0J-200000D01*
G01*
G37*
G36*
G01*
X68885000Y-76290000D02*
X68885000Y-78790000D01*
G75*
G02*
X68685000Y-78990000I-200000J0D01*
G01*
X66135000Y-78990000D01*
G75*
G02*
X65935000Y-78790000I0J200000D01*
G01*
X65935000Y-76290000D01*
G75*
G02*
X66135000Y-76090000I200000J0D01*
G01*
X68685000Y-76090000D01*
G75*
G02*
X68885000Y-76290000I0J-200000D01*
G01*
G37*
D12*
X57460000Y-80080000D03*
X63810000Y-77540000D03*
D13*
X54920000Y-75000000D03*
X65080000Y-75000000D03*
D14*
X60000000Y-75000000D03*
G36*
G01*
X58500000Y-88750000D02*
X58500000Y-89650000D01*
G75*
G02*
X58300000Y-89850000I-200000J0D01*
G01*
X56500000Y-89850000D01*
G75*
G02*
X56300000Y-89650000I0J200000D01*
G01*
X56300000Y-88750000D01*
G75*
G02*
X56500000Y-88550000I200000J0D01*
G01*
X58300000Y-88550000D01*
G75*
G02*
X58500000Y-88750000I0J-200000D01*
G01*
G37*
G36*
G01*
X58500000Y-90250000D02*
X58500000Y-91150000D01*
G75*
G02*
X58300000Y-91350000I-200000J0D01*
G01*
X56500000Y-91350000D01*
G75*
G02*
X56300000Y-91150000I0J200000D01*
G01*
X56300000Y-90250000D01*
G75*
G02*
X56500000Y-90050000I200000J0D01*
G01*
X58300000Y-90050000D01*
G75*
G02*
X58500000Y-90250000I0J-200000D01*
G01*
G37*
G36*
G01*
X63700000Y-88750000D02*
X63700000Y-89650000D01*
G75*
G02*
X63500000Y-89850000I-200000J0D01*
G01*
X61700000Y-89850000D01*
G75*
G02*
X61500000Y-89650000I0J200000D01*
G01*
X61500000Y-88750000D01*
G75*
G02*
X61700000Y-88550000I200000J0D01*
G01*
X63500000Y-88550000D01*
G75*
G02*
X63700000Y-88750000I0J-200000D01*
G01*
G37*
G36*
G01*
X63700000Y-90250000D02*
X63700000Y-91150000D01*
G75*
G02*
X63500000Y-91350000I-200000J0D01*
G01*
X61700000Y-91350000D01*
G75*
G02*
X61500000Y-91150000I0J200000D01*
G01*
X61500000Y-90250000D01*
G75*
G02*
X61700000Y-90050000I200000J0D01*
G01*
X63500000Y-90050000D01*
G75*
G02*
X63700000Y-90250000I0J-200000D01*
G01*
G37*
G36*
G01*
X55460000Y-98830000D02*
X55460000Y-101330000D01*
G75*
G02*
X55260000Y-101530000I-200000J0D01*
G01*
X52710000Y-101530000D01*
G75*
G02*
X52510000Y-101330000I0J200000D01*
G01*
X52510000Y-98830000D01*
G75*
G02*
X52710000Y-98630000I200000J0D01*
G01*
X55260000Y-98630000D01*
G75*
G02*
X55460000Y-98830000I0J-200000D01*
G01*
G37*
G36*
G01*
X68885000Y-96290000D02*
X68885000Y-98790000D01*
G75*
G02*
X68685000Y-98990000I-200000J0D01*
G01*
X66135000Y-98990000D01*
G75*
G02*
X65935000Y-98790000I0J200000D01*
G01*
X65935000Y-96290000D01*
G75*
G02*
X66135000Y-96090000I200000J0D01*
G01*
X68685000Y-96090000D01*
G75*
G02*
X68885000Y-96290000I0J-200000D01*
G01*
G37*
D12*
X57460000Y-100080000D03*
X63810000Y-97540000D03*
D13*
X54920000Y-95000000D03*
X65080000Y-95000000D03*
D14*
X60000000Y-95000000D03*
G36*
G01*
X58500000Y-108750000D02*
X58500000Y-109650000D01*
G75*
G02*
X58300000Y-109850000I-200000J0D01*
G01*
X56500000Y-109850000D01*
G75*
G02*
X56300000Y-109650000I0J200000D01*
G01*
X56300000Y-108750000D01*
G75*
G02*
X56500000Y-108550000I200000J0D01*
G01*
X58300000Y-108550000D01*
G75*
G02*
X58500000Y-108750000I0J-200000D01*
G01*
G37*
G36*
G01*
X58500000Y-110250000D02*
X58500000Y-111150000D01*
G75*
G02*
X58300000Y-111350000I-200000J0D01*
G01*
X56500000Y-111350000D01*
G75*
G02*
X56300000Y-111150000I0J200000D01*
G01*
X56300000Y-110250000D01*
G75*
G02*
X56500000Y-110050000I200000J0D01*
G01*
X58300000Y-110050000D01*
G75*
G02*
X58500000Y-110250000I0J-200000D01*
G01*
G37*
G36*
G01*
X63700000Y-108750000D02*
X63700000Y-109650000D01*
G75*
G02*
X63500000Y-109850000I-200000J0D01*
G01*
X61700000Y-109850000D01*
G75*
G02*
X61500000Y-109650000I0J200000D01*
G01*
X61500000Y-108750000D01*
G75*
G02*
X61700000Y-108550000I200000J0D01*
G01*
X63500000Y-108550000D01*
G75*
G02*
X63700000Y-108750000I0J-200000D01*
G01*
G37*
G36*
G01*
X63700000Y-110250000D02*
X63700000Y-111150000D01*
G75*
G02*
X63500000Y-111350000I-200000J0D01*
G01*
X61700000Y-111350000D01*
G75*
G02*
X61500000Y-111150000I0J200000D01*
G01*
X61500000Y-110250000D01*
G75*
G02*
X61700000Y-110050000I200000J0D01*
G01*
X63500000Y-110050000D01*
G75*
G02*
X63700000Y-110250000I0J-200000D01*
G01*
G37*
G36*
G01*
X55460000Y-118830000D02*
X55460000Y-121330000D01*
G75*
G02*
X55260000Y-121530000I-200000J0D01*
G01*
X52710000Y-121530000D01*
G75*
G02*
X52510000Y-121330000I0J200000D01*
G01*
X52510000Y-118830000D01*
G75*
G02*
X52710000Y-118630000I200000J0D01*
G01*
X55260000Y-118630000D01*
G75*
G02*
X55460000Y-118830000I0J-200000D01*
G01*
G37*
G36*
G01*
X68885000Y-116290000D02*
X68885000Y-118790000D01*
G75*
G02*
X68685000Y-118990000I-200000J0D01*
G01*
X66135000Y-118990000D01*
G75*
G02*
X65935000Y-118790000I0J200000D01*
G01*
X65935000Y-116290000D01*
G75*
G02*
X66135000Y-116090000I200000J0D01*
G01*
X68685000Y-116090000D01*
G75*
G02*
X68885000Y-116290000I0J-200000D01*
G01*
G37*
D12*
X57460000Y-120080000D03*
X63810000Y-117540000D03*
D13*
X54920000Y-115000000D03*
X65080000Y-115000000D03*
D14*
X60000000Y-115000000D03*
G36*
G01*
X135981200Y-112121200D02*
X135981200Y-112821200D01*
G75*
G02*
X135656200Y-113146200I-325000J0D01*
G01*
X135006200Y-113146200D01*
G75*
G02*
X134681200Y-112821200I0J325000D01*
G01*
X134681200Y-112121200D01*
G75*
G02*
X135006200Y-111796200I325000J0D01*
G01*
X135656200Y-111796200D01*
G75*
G02*
X135981200Y-112121200I0J-325000D01*
G01*
G37*
G36*
G01*
X137531200Y-112121200D02*
X137531200Y-112821200D01*
G75*
G02*
X137206200Y-113146200I-325000J0D01*
G01*
X136556200Y-113146200D01*
G75*
G02*
X136231200Y-112821200I0J325000D01*
G01*
X136231200Y-112121200D01*
G75*
G02*
X136556200Y-111796200I325000J0D01*
G01*
X137206200Y-111796200D01*
G75*
G02*
X137531200Y-112121200I0J-325000D01*
G01*
G37*
G36*
G01*
X134939200Y-92004400D02*
X134939200Y-92704400D01*
G75*
G02*
X134614200Y-93029400I-325000J0D01*
G01*
X133964200Y-93029400D01*
G75*
G02*
X133639200Y-92704400I0J325000D01*
G01*
X133639200Y-92004400D01*
G75*
G02*
X133964200Y-91679400I325000J0D01*
G01*
X134614200Y-91679400D01*
G75*
G02*
X134939200Y-92004400I0J-325000D01*
G01*
G37*
G36*
G01*
X136489200Y-92004400D02*
X136489200Y-92704400D01*
G75*
G02*
X136164200Y-93029400I-325000J0D01*
G01*
X135514200Y-93029400D01*
G75*
G02*
X135189200Y-92704400I0J325000D01*
G01*
X135189200Y-92004400D01*
G75*
G02*
X135514200Y-91679400I325000J0D01*
G01*
X136164200Y-91679400D01*
G75*
G02*
X136489200Y-92004400I0J-325000D01*
G01*
G37*
G36*
G01*
X127328200Y-71165200D02*
X127328200Y-70465200D01*
G75*
G02*
X127653200Y-70140200I325000J0D01*
G01*
X128303200Y-70140200D01*
G75*
G02*
X128628200Y-70465200I0J-325000D01*
G01*
X128628200Y-71165200D01*
G75*
G02*
X128303200Y-71490200I-325000J0D01*
G01*
X127653200Y-71490200D01*
G75*
G02*
X127328200Y-71165200I0J325000D01*
G01*
G37*
G36*
G01*
X125778200Y-71165200D02*
X125778200Y-70465200D01*
G75*
G02*
X126103200Y-70140200I325000J0D01*
G01*
X126753200Y-70140200D01*
G75*
G02*
X127078200Y-70465200I0J-325000D01*
G01*
X127078200Y-71165200D01*
G75*
G02*
X126753200Y-71490200I-325000J0D01*
G01*
X126103200Y-71490200D01*
G75*
G02*
X125778200Y-71165200I0J325000D01*
G01*
G37*
G36*
G01*
X106906600Y-71012800D02*
X106906600Y-70312800D01*
G75*
G02*
X107231600Y-69987800I325000J0D01*
G01*
X107881600Y-69987800D01*
G75*
G02*
X108206600Y-70312800I0J-325000D01*
G01*
X108206600Y-71012800D01*
G75*
G02*
X107881600Y-71337800I-325000J0D01*
G01*
X107231600Y-71337800D01*
G75*
G02*
X106906600Y-71012800I0J325000D01*
G01*
G37*
G36*
G01*
X105356600Y-71012800D02*
X105356600Y-70312800D01*
G75*
G02*
X105681600Y-69987800I325000J0D01*
G01*
X106331600Y-69987800D01*
G75*
G02*
X106656600Y-70312800I0J-325000D01*
G01*
X106656600Y-71012800D01*
G75*
G02*
X106331600Y-71337800I-325000J0D01*
G01*
X105681600Y-71337800D01*
G75*
G02*
X105356600Y-71012800I0J325000D01*
G01*
G37*
G36*
G01*
X67117200Y-109417600D02*
X67117200Y-108717600D01*
G75*
G02*
X67442200Y-108392600I325000J0D01*
G01*
X68092200Y-108392600D01*
G75*
G02*
X68417200Y-108717600I0J-325000D01*
G01*
X68417200Y-109417600D01*
G75*
G02*
X68092200Y-109742600I-325000J0D01*
G01*
X67442200Y-109742600D01*
G75*
G02*
X67117200Y-109417600I0J325000D01*
G01*
G37*
G36*
G01*
X65567200Y-109417600D02*
X65567200Y-108717600D01*
G75*
G02*
X65892200Y-108392600I325000J0D01*
G01*
X66542200Y-108392600D01*
G75*
G02*
X66867200Y-108717600I0J-325000D01*
G01*
X66867200Y-109417600D01*
G75*
G02*
X66542200Y-109742600I-325000J0D01*
G01*
X65892200Y-109742600D01*
G75*
G02*
X65567200Y-109417600I0J325000D01*
G01*
G37*
G36*
G01*
X86675200Y-71571600D02*
X86675200Y-70871600D01*
G75*
G02*
X87000200Y-70546600I325000J0D01*
G01*
X87650200Y-70546600D01*
G75*
G02*
X87975200Y-70871600I0J-325000D01*
G01*
X87975200Y-71571600D01*
G75*
G02*
X87650200Y-71896600I-325000J0D01*
G01*
X87000200Y-71896600D01*
G75*
G02*
X86675200Y-71571600I0J325000D01*
G01*
G37*
G36*
G01*
X85125200Y-71571600D02*
X85125200Y-70871600D01*
G75*
G02*
X85450200Y-70546600I325000J0D01*
G01*
X86100200Y-70546600D01*
G75*
G02*
X86425200Y-70871600I0J-325000D01*
G01*
X86425200Y-71571600D01*
G75*
G02*
X86100200Y-71896600I-325000J0D01*
G01*
X85450200Y-71896600D01*
G75*
G02*
X85125200Y-71571600I0J325000D01*
G01*
G37*
G36*
G01*
X69915200Y-87381600D02*
X69915200Y-88081600D01*
G75*
G02*
X69590200Y-88406600I-325000J0D01*
G01*
X68940200Y-88406600D01*
G75*
G02*
X68615200Y-88081600I0J325000D01*
G01*
X68615200Y-87381600D01*
G75*
G02*
X68940200Y-87056600I325000J0D01*
G01*
X69590200Y-87056600D01*
G75*
G02*
X69915200Y-87381600I0J-325000D01*
G01*
G37*
G36*
G01*
X71465200Y-87381600D02*
X71465200Y-88081600D01*
G75*
G02*
X71140200Y-88406600I-325000J0D01*
G01*
X70490200Y-88406600D01*
G75*
G02*
X70165200Y-88081600I0J325000D01*
G01*
X70165200Y-87381600D01*
G75*
G02*
X70490200Y-87056600I325000J0D01*
G01*
X71140200Y-87056600D01*
G75*
G02*
X71465200Y-87381600I0J-325000D01*
G01*
G37*
G36*
G01*
X85215000Y-91282000D02*
X85215000Y-90582000D01*
G75*
G02*
X85540000Y-90257000I325000J0D01*
G01*
X86190000Y-90257000D01*
G75*
G02*
X86515000Y-90582000I0J-325000D01*
G01*
X86515000Y-91282000D01*
G75*
G02*
X86190000Y-91607000I-325000J0D01*
G01*
X85540000Y-91607000D01*
G75*
G02*
X85215000Y-91282000I0J325000D01*
G01*
G37*
G36*
G01*
X83665000Y-91282000D02*
X83665000Y-90582000D01*
G75*
G02*
X83990000Y-90257000I325000J0D01*
G01*
X84640000Y-90257000D01*
G75*
G02*
X84965000Y-90582000I0J-325000D01*
G01*
X84965000Y-91282000D01*
G75*
G02*
X84640000Y-91607000I-325000J0D01*
G01*
X83990000Y-91607000D01*
G75*
G02*
X83665000Y-91282000I0J325000D01*
G01*
G37*
G36*
G01*
X69864400Y-94392000D02*
X69864400Y-95092000D01*
G75*
G02*
X69539400Y-95417000I-325000J0D01*
G01*
X68889400Y-95417000D01*
G75*
G02*
X68564400Y-95092000I0J325000D01*
G01*
X68564400Y-94392000D01*
G75*
G02*
X68889400Y-94067000I325000J0D01*
G01*
X69539400Y-94067000D01*
G75*
G02*
X69864400Y-94392000I0J-325000D01*
G01*
G37*
G36*
G01*
X71414400Y-94392000D02*
X71414400Y-95092000D01*
G75*
G02*
X71089400Y-95417000I-325000J0D01*
G01*
X70439400Y-95417000D01*
G75*
G02*
X70114400Y-95092000I0J325000D01*
G01*
X70114400Y-94392000D01*
G75*
G02*
X70439400Y-94067000I325000J0D01*
G01*
X71089400Y-94067000D01*
G75*
G02*
X71414400Y-94392000I0J-325000D01*
G01*
G37*
G36*
G01*
X69915200Y-89007200D02*
X69915200Y-89707200D01*
G75*
G02*
X69590200Y-90032200I-325000J0D01*
G01*
X68940200Y-90032200D01*
G75*
G02*
X68615200Y-89707200I0J325000D01*
G01*
X68615200Y-89007200D01*
G75*
G02*
X68940200Y-88682200I325000J0D01*
G01*
X69590200Y-88682200D01*
G75*
G02*
X69915200Y-89007200I0J-325000D01*
G01*
G37*
G36*
G01*
X71465200Y-89007200D02*
X71465200Y-89707200D01*
G75*
G02*
X71140200Y-90032200I-325000J0D01*
G01*
X70490200Y-90032200D01*
G75*
G02*
X70165200Y-89707200I0J325000D01*
G01*
X70165200Y-89007200D01*
G75*
G02*
X70490200Y-88682200I325000J0D01*
G01*
X71140200Y-88682200D01*
G75*
G02*
X71465200Y-89007200I0J-325000D01*
G01*
G37*
G36*
G01*
X79728600Y-83408000D02*
X79728600Y-82708000D01*
G75*
G02*
X80053600Y-82383000I325000J0D01*
G01*
X80703600Y-82383000D01*
G75*
G02*
X81028600Y-82708000I0J-325000D01*
G01*
X81028600Y-83408000D01*
G75*
G02*
X80703600Y-83733000I-325000J0D01*
G01*
X80053600Y-83733000D01*
G75*
G02*
X79728600Y-83408000I0J325000D01*
G01*
G37*
G36*
G01*
X78178600Y-83408000D02*
X78178600Y-82708000D01*
G75*
G02*
X78503600Y-82383000I325000J0D01*
G01*
X79153600Y-82383000D01*
G75*
G02*
X79478600Y-82708000I0J-325000D01*
G01*
X79478600Y-83408000D01*
G75*
G02*
X79153600Y-83733000I-325000J0D01*
G01*
X78503600Y-83733000D01*
G75*
G02*
X78178600Y-83408000I0J325000D01*
G01*
G37*
G36*
G01*
X73598800Y-101453200D02*
X73598800Y-102153200D01*
G75*
G02*
X73273800Y-102478200I-325000J0D01*
G01*
X72623800Y-102478200D01*
G75*
G02*
X72298800Y-102153200I0J325000D01*
G01*
X72298800Y-101453200D01*
G75*
G02*
X72623800Y-101128200I325000J0D01*
G01*
X73273800Y-101128200D01*
G75*
G02*
X73598800Y-101453200I0J-325000D01*
G01*
G37*
G36*
G01*
X75148800Y-101453200D02*
X75148800Y-102153200D01*
G75*
G02*
X74823800Y-102478200I-325000J0D01*
G01*
X74173800Y-102478200D01*
G75*
G02*
X73848800Y-102153200I0J325000D01*
G01*
X73848800Y-101453200D01*
G75*
G02*
X74173800Y-101128200I325000J0D01*
G01*
X74823800Y-101128200D01*
G75*
G02*
X75148800Y-101453200I0J-325000D01*
G01*
G37*
G36*
G01*
X69928200Y-90734400D02*
X69928200Y-91434400D01*
G75*
G02*
X69603200Y-91759400I-325000J0D01*
G01*
X68953200Y-91759400D01*
G75*
G02*
X68628200Y-91434400I0J325000D01*
G01*
X68628200Y-90734400D01*
G75*
G02*
X68953200Y-90409400I325000J0D01*
G01*
X69603200Y-90409400D01*
G75*
G02*
X69928200Y-90734400I0J-325000D01*
G01*
G37*
G36*
G01*
X71478200Y-90734400D02*
X71478200Y-91434400D01*
G75*
G02*
X71153200Y-91759400I-325000J0D01*
G01*
X70503200Y-91759400D01*
G75*
G02*
X70178200Y-91434400I0J325000D01*
G01*
X70178200Y-90734400D01*
G75*
G02*
X70503200Y-90409400I325000J0D01*
G01*
X71153200Y-90409400D01*
G75*
G02*
X71478200Y-90734400I0J-325000D01*
G01*
G37*
G36*
G01*
X85215000Y-95092000D02*
X85215000Y-94392000D01*
G75*
G02*
X85540000Y-94067000I325000J0D01*
G01*
X86190000Y-94067000D01*
G75*
G02*
X86515000Y-94392000I0J-325000D01*
G01*
X86515000Y-95092000D01*
G75*
G02*
X86190000Y-95417000I-325000J0D01*
G01*
X85540000Y-95417000D01*
G75*
G02*
X85215000Y-95092000I0J325000D01*
G01*
G37*
G36*
G01*
X83665000Y-95092000D02*
X83665000Y-94392000D01*
G75*
G02*
X83990000Y-94067000I325000J0D01*
G01*
X84640000Y-94067000D01*
G75*
G02*
X84965000Y-94392000I0J-325000D01*
G01*
X84965000Y-95092000D01*
G75*
G02*
X84640000Y-95417000I-325000J0D01*
G01*
X83990000Y-95417000D01*
G75*
G02*
X83665000Y-95092000I0J325000D01*
G01*
G37*
G36*
G01*
X79664800Y-85338400D02*
X79664800Y-84638400D01*
G75*
G02*
X79989800Y-84313400I325000J0D01*
G01*
X80639800Y-84313400D01*
G75*
G02*
X80964800Y-84638400I0J-325000D01*
G01*
X80964800Y-85338400D01*
G75*
G02*
X80639800Y-85663400I-325000J0D01*
G01*
X79989800Y-85663400D01*
G75*
G02*
X79664800Y-85338400I0J325000D01*
G01*
G37*
G36*
G01*
X78114800Y-85338400D02*
X78114800Y-84638400D01*
G75*
G02*
X78439800Y-84313400I325000J0D01*
G01*
X79089800Y-84313400D01*
G75*
G02*
X79414800Y-84638400I0J-325000D01*
G01*
X79414800Y-85338400D01*
G75*
G02*
X79089800Y-85663400I-325000J0D01*
G01*
X78439800Y-85663400D01*
G75*
G02*
X78114800Y-85338400I0J325000D01*
G01*
G37*
G36*
G01*
X73585800Y-99878400D02*
X73585800Y-100578400D01*
G75*
G02*
X73260800Y-100903400I-325000J0D01*
G01*
X72610800Y-100903400D01*
G75*
G02*
X72285800Y-100578400I0J325000D01*
G01*
X72285800Y-99878400D01*
G75*
G02*
X72610800Y-99553400I325000J0D01*
G01*
X73260800Y-99553400D01*
G75*
G02*
X73585800Y-99878400I0J-325000D01*
G01*
G37*
G36*
G01*
X75135800Y-99878400D02*
X75135800Y-100578400D01*
G75*
G02*
X74810800Y-100903400I-325000J0D01*
G01*
X74160800Y-100903400D01*
G75*
G02*
X73835800Y-100578400I0J325000D01*
G01*
X73835800Y-99878400D01*
G75*
G02*
X74160800Y-99553400I325000J0D01*
G01*
X74810800Y-99553400D01*
G75*
G02*
X75135800Y-99878400I0J-325000D01*
G01*
G37*
G36*
G01*
X72130400Y-85104400D02*
X71430400Y-85104400D01*
G75*
G02*
X71105400Y-84779400I0J325000D01*
G01*
X71105400Y-84129400D01*
G75*
G02*
X71430400Y-83804400I325000J0D01*
G01*
X72130400Y-83804400D01*
G75*
G02*
X72455400Y-84129400I0J-325000D01*
G01*
X72455400Y-84779400D01*
G75*
G02*
X72130400Y-85104400I-325000J0D01*
G01*
G37*
G36*
G01*
X72130400Y-86654400D02*
X71430400Y-86654400D01*
G75*
G02*
X71105400Y-86329400I0J325000D01*
G01*
X71105400Y-85679400D01*
G75*
G02*
X71430400Y-85354400I325000J0D01*
G01*
X72130400Y-85354400D01*
G75*
G02*
X72455400Y-85679400I0J-325000D01*
G01*
X72455400Y-86329400D01*
G75*
G02*
X72130400Y-86654400I-325000J0D01*
G01*
G37*
G36*
G01*
X71706400Y-106597200D02*
X70506400Y-106597200D01*
G75*
G02*
X70306400Y-106397200I0J200000D01*
G01*
X70306400Y-104997200D01*
G75*
G02*
X70506400Y-104797200I200000J0D01*
G01*
X71706400Y-104797200D01*
G75*
G02*
X71906400Y-104997200I0J-200000D01*
G01*
X71906400Y-106397200D01*
G75*
G02*
X71706400Y-106597200I-200000J0D01*
G01*
G37*
G36*
G01*
X71706400Y-104397200D02*
X70506400Y-104397200D01*
G75*
G02*
X70306400Y-104197200I0J200000D01*
G01*
X70306400Y-102797200D01*
G75*
G02*
X70506400Y-102597200I200000J0D01*
G01*
X71706400Y-102597200D01*
G75*
G02*
X71906400Y-102797200I0J-200000D01*
G01*
X71906400Y-104197200D01*
G75*
G02*
X71706400Y-104397200I-200000J0D01*
G01*
G37*
G36*
G01*
X70006400Y-104397200D02*
X68806400Y-104397200D01*
G75*
G02*
X68606400Y-104197200I0J200000D01*
G01*
X68606400Y-102797200D01*
G75*
G02*
X68806400Y-102597200I200000J0D01*
G01*
X70006400Y-102597200D01*
G75*
G02*
X70206400Y-102797200I0J-200000D01*
G01*
X70206400Y-104197200D01*
G75*
G02*
X70006400Y-104397200I-200000J0D01*
G01*
G37*
G36*
G01*
X70006400Y-106597200D02*
X68806400Y-106597200D01*
G75*
G02*
X68606400Y-106397200I0J200000D01*
G01*
X68606400Y-104997200D01*
G75*
G02*
X68806400Y-104797200I200000J0D01*
G01*
X70006400Y-104797200D01*
G75*
G02*
X70206400Y-104997200I0J-200000D01*
G01*
X70206400Y-106397200D01*
G75*
G02*
X70006400Y-106597200I-200000J0D01*
G01*
G37*
G36*
G01*
X73935800Y-103803800D02*
X73935800Y-103053800D01*
G75*
G02*
X74235800Y-102753800I300000J0D01*
G01*
X74835800Y-102753800D01*
G75*
G02*
X75135800Y-103053800I0J-300000D01*
G01*
X75135800Y-103803800D01*
G75*
G02*
X74835800Y-104103800I-300000J0D01*
G01*
X74235800Y-104103800D01*
G75*
G02*
X73935800Y-103803800I0J300000D01*
G01*
G37*
G36*
G01*
X72285800Y-103803800D02*
X72285800Y-103053800D01*
G75*
G02*
X72585800Y-102753800I300000J0D01*
G01*
X73185800Y-102753800D01*
G75*
G02*
X73485800Y-103053800I0J-300000D01*
G01*
X73485800Y-103803800D01*
G75*
G02*
X73185800Y-104103800I-300000J0D01*
G01*
X72585800Y-104103800D01*
G75*
G02*
X72285800Y-103803800I0J300000D01*
G01*
G37*
D10*
X116611400Y-95326200D03*
X119151400Y-95326200D03*
X121691400Y-95326200D03*
G36*
G01*
X125081400Y-96376200D02*
X123381400Y-96376200D01*
G75*
G02*
X123181400Y-96176200I0J200000D01*
G01*
X123181400Y-94476200D01*
G75*
G02*
X123381400Y-94276200I200000J0D01*
G01*
X125081400Y-94276200D01*
G75*
G02*
X125281400Y-94476200I0J-200000D01*
G01*
X125281400Y-96176200D01*
G75*
G02*
X125081400Y-96376200I-200000J0D01*
G01*
G37*
G36*
G01*
X70042800Y-101097600D02*
X70042800Y-101797600D01*
G75*
G02*
X69717800Y-102122600I-325000J0D01*
G01*
X69067800Y-102122600D01*
G75*
G02*
X68742800Y-101797600I0J325000D01*
G01*
X68742800Y-101097600D01*
G75*
G02*
X69067800Y-100772600I325000J0D01*
G01*
X69717800Y-100772600D01*
G75*
G02*
X70042800Y-101097600I0J-325000D01*
G01*
G37*
G36*
G01*
X71592800Y-101097600D02*
X71592800Y-101797600D01*
G75*
G02*
X71267800Y-102122600I-325000J0D01*
G01*
X70617800Y-102122600D01*
G75*
G02*
X70292800Y-101797600I0J325000D01*
G01*
X70292800Y-101097600D01*
G75*
G02*
X70617800Y-100772600I325000J0D01*
G01*
X71267800Y-100772600D01*
G75*
G02*
X71592800Y-101097600I0J-325000D01*
G01*
G37*
G36*
G01*
X70343600Y-107995200D02*
X70343600Y-107295200D01*
G75*
G02*
X70668600Y-106970200I325000J0D01*
G01*
X71318600Y-106970200D01*
G75*
G02*
X71643600Y-107295200I0J-325000D01*
G01*
X71643600Y-107995200D01*
G75*
G02*
X71318600Y-108320200I-325000J0D01*
G01*
X70668600Y-108320200D01*
G75*
G02*
X70343600Y-107995200I0J325000D01*
G01*
G37*
G36*
G01*
X68793600Y-107995200D02*
X68793600Y-107295200D01*
G75*
G02*
X69118600Y-106970200I325000J0D01*
G01*
X69768600Y-106970200D01*
G75*
G02*
X70093600Y-107295200I0J-325000D01*
G01*
X70093600Y-107995200D01*
G75*
G02*
X69768600Y-108320200I-325000J0D01*
G01*
X69118600Y-108320200D01*
G75*
G02*
X68793600Y-107995200I0J325000D01*
G01*
G37*
G36*
G01*
X107982000Y-65816000D02*
X107982000Y-66916000D01*
G75*
G02*
X107782000Y-67116000I-200000J0D01*
G01*
X105982000Y-67116000D01*
G75*
G02*
X105782000Y-66916000I0J200000D01*
G01*
X105782000Y-65816000D01*
G75*
G02*
X105982000Y-65616000I200000J0D01*
G01*
X107782000Y-65616000D01*
G75*
G02*
X107982000Y-65816000I0J-200000D01*
G01*
G37*
G36*
G01*
X114182000Y-65816000D02*
X114182000Y-66916000D01*
G75*
G02*
X113982000Y-67116000I-200000J0D01*
G01*
X112182000Y-67116000D01*
G75*
G02*
X111982000Y-66916000I0J200000D01*
G01*
X111982000Y-65816000D01*
G75*
G02*
X112182000Y-65616000I200000J0D01*
G01*
X113982000Y-65616000D01*
G75*
G02*
X114182000Y-65816000I0J-200000D01*
G01*
G37*
G36*
G01*
X107982000Y-62116000D02*
X107982000Y-63216000D01*
G75*
G02*
X107782000Y-63416000I-200000J0D01*
G01*
X105982000Y-63416000D01*
G75*
G02*
X105782000Y-63216000I0J200000D01*
G01*
X105782000Y-62116000D01*
G75*
G02*
X105982000Y-61916000I200000J0D01*
G01*
X107782000Y-61916000D01*
G75*
G02*
X107982000Y-62116000I0J-200000D01*
G01*
G37*
G36*
G01*
X114182000Y-62116000D02*
X114182000Y-63216000D01*
G75*
G02*
X113982000Y-63416000I-200000J0D01*
G01*
X112182000Y-63416000D01*
G75*
G02*
X111982000Y-63216000I0J200000D01*
G01*
X111982000Y-62116000D01*
G75*
G02*
X112182000Y-61916000I200000J0D01*
G01*
X113982000Y-61916000D01*
G75*
G02*
X114182000Y-62116000I0J-200000D01*
G01*
G37*
G36*
G01*
X95487200Y-84144200D02*
X95487200Y-83394200D01*
G75*
G02*
X95787200Y-83094200I300000J0D01*
G01*
X96387200Y-83094200D01*
G75*
G02*
X96687200Y-83394200I0J-300000D01*
G01*
X96687200Y-84144200D01*
G75*
G02*
X96387200Y-84444200I-300000J0D01*
G01*
X95787200Y-84444200D01*
G75*
G02*
X95487200Y-84144200I0J300000D01*
G01*
G37*
G36*
G01*
X93837200Y-84144200D02*
X93837200Y-83394200D01*
G75*
G02*
X94137200Y-83094200I300000J0D01*
G01*
X94737200Y-83094200D01*
G75*
G02*
X95037200Y-83394200I0J-300000D01*
G01*
X95037200Y-84144200D01*
G75*
G02*
X94737200Y-84444200I-300000J0D01*
G01*
X94137200Y-84444200D01*
G75*
G02*
X93837200Y-84144200I0J300000D01*
G01*
G37*
G36*
G01*
X95037200Y-85019800D02*
X95037200Y-85769800D01*
G75*
G02*
X94737200Y-86069800I-300000J0D01*
G01*
X94137200Y-86069800D01*
G75*
G02*
X93837200Y-85769800I0J300000D01*
G01*
X93837200Y-85019800D01*
G75*
G02*
X94137200Y-84719800I300000J0D01*
G01*
X94737200Y-84719800D01*
G75*
G02*
X95037200Y-85019800I0J-300000D01*
G01*
G37*
G36*
G01*
X96687200Y-85019800D02*
X96687200Y-85769800D01*
G75*
G02*
X96387200Y-86069800I-300000J0D01*
G01*
X95787200Y-86069800D01*
G75*
G02*
X95487200Y-85769800I0J300000D01*
G01*
X95487200Y-85019800D01*
G75*
G02*
X95787200Y-84719800I300000J0D01*
G01*
X96387200Y-84719800D01*
G75*
G02*
X96687200Y-85019800I0J-300000D01*
G01*
G37*
G36*
G01*
X87209200Y-82239600D02*
X87209200Y-81539600D01*
G75*
G02*
X87534200Y-81214600I325000J0D01*
G01*
X88184200Y-81214600D01*
G75*
G02*
X88509200Y-81539600I0J-325000D01*
G01*
X88509200Y-82239600D01*
G75*
G02*
X88184200Y-82564600I-325000J0D01*
G01*
X87534200Y-82564600D01*
G75*
G02*
X87209200Y-82239600I0J325000D01*
G01*
G37*
G36*
G01*
X85659200Y-82239600D02*
X85659200Y-81539600D01*
G75*
G02*
X85984200Y-81214600I325000J0D01*
G01*
X86634200Y-81214600D01*
G75*
G02*
X86959200Y-81539600I0J-325000D01*
G01*
X86959200Y-82239600D01*
G75*
G02*
X86634200Y-82564600I-325000J0D01*
G01*
X85984200Y-82564600D01*
G75*
G02*
X85659200Y-82239600I0J325000D01*
G01*
G37*
G36*
G01*
X79354000Y-89801000D02*
X79354000Y-90776000D01*
G75*
G02*
X79204000Y-90926000I-150000J0D01*
G01*
X78904000Y-90926000D01*
G75*
G02*
X78754000Y-90776000I0J150000D01*
G01*
X78754000Y-89801000D01*
G75*
G02*
X78904000Y-89651000I150000J0D01*
G01*
X79204000Y-89651000D01*
G75*
G02*
X79354000Y-89801000I0J-150000D01*
G01*
G37*
G36*
G01*
X78954000Y-89801000D02*
X78954000Y-90776000D01*
G75*
G02*
X78804000Y-90926000I-150000J0D01*
G01*
X78504000Y-90926000D01*
G75*
G02*
X78354000Y-90776000I0J150000D01*
G01*
X78354000Y-89801000D01*
G75*
G02*
X78504000Y-89651000I150000J0D01*
G01*
X78804000Y-89651000D01*
G75*
G02*
X78954000Y-89801000I0J-150000D01*
G01*
G37*
G36*
G01*
X78554000Y-89801000D02*
X78554000Y-90776000D01*
G75*
G02*
X78404000Y-90926000I-150000J0D01*
G01*
X78104000Y-90926000D01*
G75*
G02*
X77954000Y-90776000I0J150000D01*
G01*
X77954000Y-89801000D01*
G75*
G02*
X78104000Y-89651000I150000J0D01*
G01*
X78404000Y-89651000D01*
G75*
G02*
X78554000Y-89801000I0J-150000D01*
G01*
G37*
G36*
G01*
X78154000Y-89801000D02*
X78154000Y-90776000D01*
G75*
G02*
X78004000Y-90926000I-150000J0D01*
G01*
X77704000Y-90926000D01*
G75*
G02*
X77554000Y-90776000I0J150000D01*
G01*
X77554000Y-89801000D01*
G75*
G02*
X77704000Y-89651000I150000J0D01*
G01*
X78004000Y-89651000D01*
G75*
G02*
X78154000Y-89801000I0J-150000D01*
G01*
G37*
G36*
G01*
X77754000Y-89801000D02*
X77754000Y-90776000D01*
G75*
G02*
X77604000Y-90926000I-150000J0D01*
G01*
X77304000Y-90926000D01*
G75*
G02*
X77154000Y-90776000I0J150000D01*
G01*
X77154000Y-89801000D01*
G75*
G02*
X77304000Y-89651000I150000J0D01*
G01*
X77604000Y-89651000D01*
G75*
G02*
X77754000Y-89801000I0J-150000D01*
G01*
G37*
G36*
G01*
X77354000Y-89801000D02*
X77354000Y-90776000D01*
G75*
G02*
X77204000Y-90926000I-150000J0D01*
G01*
X76904000Y-90926000D01*
G75*
G02*
X76754000Y-90776000I0J150000D01*
G01*
X76754000Y-89801000D01*
G75*
G02*
X76904000Y-89651000I150000J0D01*
G01*
X77204000Y-89651000D01*
G75*
G02*
X77354000Y-89801000I0J-150000D01*
G01*
G37*
G36*
G01*
X76954000Y-89801000D02*
X76954000Y-90776000D01*
G75*
G02*
X76804000Y-90926000I-150000J0D01*
G01*
X76504000Y-90926000D01*
G75*
G02*
X76354000Y-90776000I0J150000D01*
G01*
X76354000Y-89801000D01*
G75*
G02*
X76504000Y-89651000I150000J0D01*
G01*
X76804000Y-89651000D01*
G75*
G02*
X76954000Y-89801000I0J-150000D01*
G01*
G37*
G36*
G01*
X76554000Y-89801000D02*
X76554000Y-90776000D01*
G75*
G02*
X76404000Y-90926000I-150000J0D01*
G01*
X76104000Y-90926000D01*
G75*
G02*
X75954000Y-90776000I0J150000D01*
G01*
X75954000Y-89801000D01*
G75*
G02*
X76104000Y-89651000I150000J0D01*
G01*
X76404000Y-89651000D01*
G75*
G02*
X76554000Y-89801000I0J-150000D01*
G01*
G37*
G36*
G01*
X76154000Y-89801000D02*
X76154000Y-90776000D01*
G75*
G02*
X76004000Y-90926000I-150000J0D01*
G01*
X75704000Y-90926000D01*
G75*
G02*
X75554000Y-90776000I0J150000D01*
G01*
X75554000Y-89801000D01*
G75*
G02*
X75704000Y-89651000I150000J0D01*
G01*
X76004000Y-89651000D01*
G75*
G02*
X76154000Y-89801000I0J-150000D01*
G01*
G37*
G36*
G01*
X75754000Y-89801000D02*
X75754000Y-90776000D01*
G75*
G02*
X75604000Y-90926000I-150000J0D01*
G01*
X75304000Y-90926000D01*
G75*
G02*
X75154000Y-90776000I0J150000D01*
G01*
X75154000Y-89801000D01*
G75*
G02*
X75304000Y-89651000I150000J0D01*
G01*
X75604000Y-89651000D01*
G75*
G02*
X75754000Y-89801000I0J-150000D01*
G01*
G37*
G36*
G01*
X75354000Y-89801000D02*
X75354000Y-90776000D01*
G75*
G02*
X75204000Y-90926000I-150000J0D01*
G01*
X74904000Y-90926000D01*
G75*
G02*
X74754000Y-90776000I0J150000D01*
G01*
X74754000Y-89801000D01*
G75*
G02*
X74904000Y-89651000I150000J0D01*
G01*
X75204000Y-89651000D01*
G75*
G02*
X75354000Y-89801000I0J-150000D01*
G01*
G37*
G36*
G01*
X74954000Y-89801000D02*
X74954000Y-90776000D01*
G75*
G02*
X74804000Y-90926000I-150000J0D01*
G01*
X74504000Y-90926000D01*
G75*
G02*
X74354000Y-90776000I0J150000D01*
G01*
X74354000Y-89801000D01*
G75*
G02*
X74504000Y-89651000I150000J0D01*
G01*
X74804000Y-89651000D01*
G75*
G02*
X74954000Y-89801000I0J-150000D01*
G01*
G37*
G36*
G01*
X74554000Y-89801000D02*
X74554000Y-90776000D01*
G75*
G02*
X74404000Y-90926000I-150000J0D01*
G01*
X74104000Y-90926000D01*
G75*
G02*
X73954000Y-90776000I0J150000D01*
G01*
X73954000Y-89801000D01*
G75*
G02*
X74104000Y-89651000I150000J0D01*
G01*
X74404000Y-89651000D01*
G75*
G02*
X74554000Y-89801000I0J-150000D01*
G01*
G37*
G36*
G01*
X74154000Y-89801000D02*
X74154000Y-90776000D01*
G75*
G02*
X74004000Y-90926000I-150000J0D01*
G01*
X73704000Y-90926000D01*
G75*
G02*
X73554000Y-90776000I0J150000D01*
G01*
X73554000Y-89801000D01*
G75*
G02*
X73704000Y-89651000I150000J0D01*
G01*
X74004000Y-89651000D01*
G75*
G02*
X74154000Y-89801000I0J-150000D01*
G01*
G37*
G36*
G01*
X73654000Y-90976000D02*
X73654000Y-91276000D01*
G75*
G02*
X73504000Y-91426000I-150000J0D01*
G01*
X72529000Y-91426000D01*
G75*
G02*
X72379000Y-91276000I0J150000D01*
G01*
X72379000Y-90976000D01*
G75*
G02*
X72529000Y-90826000I150000J0D01*
G01*
X73504000Y-90826000D01*
G75*
G02*
X73654000Y-90976000I0J-150000D01*
G01*
G37*
G36*
G01*
X73654000Y-91376000D02*
X73654000Y-91676000D01*
G75*
G02*
X73504000Y-91826000I-150000J0D01*
G01*
X72529000Y-91826000D01*
G75*
G02*
X72379000Y-91676000I0J150000D01*
G01*
X72379000Y-91376000D01*
G75*
G02*
X72529000Y-91226000I150000J0D01*
G01*
X73504000Y-91226000D01*
G75*
G02*
X73654000Y-91376000I0J-150000D01*
G01*
G37*
G36*
G01*
X73654000Y-91776000D02*
X73654000Y-92076000D01*
G75*
G02*
X73504000Y-92226000I-150000J0D01*
G01*
X72529000Y-92226000D01*
G75*
G02*
X72379000Y-92076000I0J150000D01*
G01*
X72379000Y-91776000D01*
G75*
G02*
X72529000Y-91626000I150000J0D01*
G01*
X73504000Y-91626000D01*
G75*
G02*
X73654000Y-91776000I0J-150000D01*
G01*
G37*
G36*
G01*
X73654000Y-92176000D02*
X73654000Y-92476000D01*
G75*
G02*
X73504000Y-92626000I-150000J0D01*
G01*
X72529000Y-92626000D01*
G75*
G02*
X72379000Y-92476000I0J150000D01*
G01*
X72379000Y-92176000D01*
G75*
G02*
X72529000Y-92026000I150000J0D01*
G01*
X73504000Y-92026000D01*
G75*
G02*
X73654000Y-92176000I0J-150000D01*
G01*
G37*
G36*
G01*
X73654000Y-92576000D02*
X73654000Y-92876000D01*
G75*
G02*
X73504000Y-93026000I-150000J0D01*
G01*
X72529000Y-93026000D01*
G75*
G02*
X72379000Y-92876000I0J150000D01*
G01*
X72379000Y-92576000D01*
G75*
G02*
X72529000Y-92426000I150000J0D01*
G01*
X73504000Y-92426000D01*
G75*
G02*
X73654000Y-92576000I0J-150000D01*
G01*
G37*
G36*
G01*
X73654000Y-92976000D02*
X73654000Y-93276000D01*
G75*
G02*
X73504000Y-93426000I-150000J0D01*
G01*
X72529000Y-93426000D01*
G75*
G02*
X72379000Y-93276000I0J150000D01*
G01*
X72379000Y-92976000D01*
G75*
G02*
X72529000Y-92826000I150000J0D01*
G01*
X73504000Y-92826000D01*
G75*
G02*
X73654000Y-92976000I0J-150000D01*
G01*
G37*
G36*
G01*
X73654000Y-93376000D02*
X73654000Y-93676000D01*
G75*
G02*
X73504000Y-93826000I-150000J0D01*
G01*
X72529000Y-93826000D01*
G75*
G02*
X72379000Y-93676000I0J150000D01*
G01*
X72379000Y-93376000D01*
G75*
G02*
X72529000Y-93226000I150000J0D01*
G01*
X73504000Y-93226000D01*
G75*
G02*
X73654000Y-93376000I0J-150000D01*
G01*
G37*
G36*
G01*
X73654000Y-93776000D02*
X73654000Y-94076000D01*
G75*
G02*
X73504000Y-94226000I-150000J0D01*
G01*
X72529000Y-94226000D01*
G75*
G02*
X72379000Y-94076000I0J150000D01*
G01*
X72379000Y-93776000D01*
G75*
G02*
X72529000Y-93626000I150000J0D01*
G01*
X73504000Y-93626000D01*
G75*
G02*
X73654000Y-93776000I0J-150000D01*
G01*
G37*
G36*
G01*
X73654000Y-94176000D02*
X73654000Y-94476000D01*
G75*
G02*
X73504000Y-94626000I-150000J0D01*
G01*
X72529000Y-94626000D01*
G75*
G02*
X72379000Y-94476000I0J150000D01*
G01*
X72379000Y-94176000D01*
G75*
G02*
X72529000Y-94026000I150000J0D01*
G01*
X73504000Y-94026000D01*
G75*
G02*
X73654000Y-94176000I0J-150000D01*
G01*
G37*
G36*
G01*
X73654000Y-94576000D02*
X73654000Y-94876000D01*
G75*
G02*
X73504000Y-95026000I-150000J0D01*
G01*
X72529000Y-95026000D01*
G75*
G02*
X72379000Y-94876000I0J150000D01*
G01*
X72379000Y-94576000D01*
G75*
G02*
X72529000Y-94426000I150000J0D01*
G01*
X73504000Y-94426000D01*
G75*
G02*
X73654000Y-94576000I0J-150000D01*
G01*
G37*
G36*
G01*
X73654000Y-94976000D02*
X73654000Y-95276000D01*
G75*
G02*
X73504000Y-95426000I-150000J0D01*
G01*
X72529000Y-95426000D01*
G75*
G02*
X72379000Y-95276000I0J150000D01*
G01*
X72379000Y-94976000D01*
G75*
G02*
X72529000Y-94826000I150000J0D01*
G01*
X73504000Y-94826000D01*
G75*
G02*
X73654000Y-94976000I0J-150000D01*
G01*
G37*
G36*
G01*
X73654000Y-95376000D02*
X73654000Y-95676000D01*
G75*
G02*
X73504000Y-95826000I-150000J0D01*
G01*
X72529000Y-95826000D01*
G75*
G02*
X72379000Y-95676000I0J150000D01*
G01*
X72379000Y-95376000D01*
G75*
G02*
X72529000Y-95226000I150000J0D01*
G01*
X73504000Y-95226000D01*
G75*
G02*
X73654000Y-95376000I0J-150000D01*
G01*
G37*
G36*
G01*
X73654000Y-95776000D02*
X73654000Y-96076000D01*
G75*
G02*
X73504000Y-96226000I-150000J0D01*
G01*
X72529000Y-96226000D01*
G75*
G02*
X72379000Y-96076000I0J150000D01*
G01*
X72379000Y-95776000D01*
G75*
G02*
X72529000Y-95626000I150000J0D01*
G01*
X73504000Y-95626000D01*
G75*
G02*
X73654000Y-95776000I0J-150000D01*
G01*
G37*
G36*
G01*
X73654000Y-96176000D02*
X73654000Y-96476000D01*
G75*
G02*
X73504000Y-96626000I-150000J0D01*
G01*
X72529000Y-96626000D01*
G75*
G02*
X72379000Y-96476000I0J150000D01*
G01*
X72379000Y-96176000D01*
G75*
G02*
X72529000Y-96026000I150000J0D01*
G01*
X73504000Y-96026000D01*
G75*
G02*
X73654000Y-96176000I0J-150000D01*
G01*
G37*
G36*
G01*
X74154000Y-96676000D02*
X74154000Y-97651000D01*
G75*
G02*
X74004000Y-97801000I-150000J0D01*
G01*
X73704000Y-97801000D01*
G75*
G02*
X73554000Y-97651000I0J150000D01*
G01*
X73554000Y-96676000D01*
G75*
G02*
X73704000Y-96526000I150000J0D01*
G01*
X74004000Y-96526000D01*
G75*
G02*
X74154000Y-96676000I0J-150000D01*
G01*
G37*
G36*
G01*
X74554000Y-96676000D02*
X74554000Y-97651000D01*
G75*
G02*
X74404000Y-97801000I-150000J0D01*
G01*
X74104000Y-97801000D01*
G75*
G02*
X73954000Y-97651000I0J150000D01*
G01*
X73954000Y-96676000D01*
G75*
G02*
X74104000Y-96526000I150000J0D01*
G01*
X74404000Y-96526000D01*
G75*
G02*
X74554000Y-96676000I0J-150000D01*
G01*
G37*
G36*
G01*
X74954000Y-96676000D02*
X74954000Y-97651000D01*
G75*
G02*
X74804000Y-97801000I-150000J0D01*
G01*
X74504000Y-97801000D01*
G75*
G02*
X74354000Y-97651000I0J150000D01*
G01*
X74354000Y-96676000D01*
G75*
G02*
X74504000Y-96526000I150000J0D01*
G01*
X74804000Y-96526000D01*
G75*
G02*
X74954000Y-96676000I0J-150000D01*
G01*
G37*
G36*
G01*
X75354000Y-96676000D02*
X75354000Y-97651000D01*
G75*
G02*
X75204000Y-97801000I-150000J0D01*
G01*
X74904000Y-97801000D01*
G75*
G02*
X74754000Y-97651000I0J150000D01*
G01*
X74754000Y-96676000D01*
G75*
G02*
X74904000Y-96526000I150000J0D01*
G01*
X75204000Y-96526000D01*
G75*
G02*
X75354000Y-96676000I0J-150000D01*
G01*
G37*
G36*
G01*
X75754000Y-96676000D02*
X75754000Y-97651000D01*
G75*
G02*
X75604000Y-97801000I-150000J0D01*
G01*
X75304000Y-97801000D01*
G75*
G02*
X75154000Y-97651000I0J150000D01*
G01*
X75154000Y-96676000D01*
G75*
G02*
X75304000Y-96526000I150000J0D01*
G01*
X75604000Y-96526000D01*
G75*
G02*
X75754000Y-96676000I0J-150000D01*
G01*
G37*
G36*
G01*
X76154000Y-96676000D02*
X76154000Y-97651000D01*
G75*
G02*
X76004000Y-97801000I-150000J0D01*
G01*
X75704000Y-97801000D01*
G75*
G02*
X75554000Y-97651000I0J150000D01*
G01*
X75554000Y-96676000D01*
G75*
G02*
X75704000Y-96526000I150000J0D01*
G01*
X76004000Y-96526000D01*
G75*
G02*
X76154000Y-96676000I0J-150000D01*
G01*
G37*
G36*
G01*
X76554000Y-96676000D02*
X76554000Y-97651000D01*
G75*
G02*
X76404000Y-97801000I-150000J0D01*
G01*
X76104000Y-97801000D01*
G75*
G02*
X75954000Y-97651000I0J150000D01*
G01*
X75954000Y-96676000D01*
G75*
G02*
X76104000Y-96526000I150000J0D01*
G01*
X76404000Y-96526000D01*
G75*
G02*
X76554000Y-96676000I0J-150000D01*
G01*
G37*
G36*
G01*
X76954000Y-96676000D02*
X76954000Y-97651000D01*
G75*
G02*
X76804000Y-97801000I-150000J0D01*
G01*
X76504000Y-97801000D01*
G75*
G02*
X76354000Y-97651000I0J150000D01*
G01*
X76354000Y-96676000D01*
G75*
G02*
X76504000Y-96526000I150000J0D01*
G01*
X76804000Y-96526000D01*
G75*
G02*
X76954000Y-96676000I0J-150000D01*
G01*
G37*
G36*
G01*
X77354000Y-96676000D02*
X77354000Y-97651000D01*
G75*
G02*
X77204000Y-97801000I-150000J0D01*
G01*
X76904000Y-97801000D01*
G75*
G02*
X76754000Y-97651000I0J150000D01*
G01*
X76754000Y-96676000D01*
G75*
G02*
X76904000Y-96526000I150000J0D01*
G01*
X77204000Y-96526000D01*
G75*
G02*
X77354000Y-96676000I0J-150000D01*
G01*
G37*
G36*
G01*
X77754000Y-96676000D02*
X77754000Y-97651000D01*
G75*
G02*
X77604000Y-97801000I-150000J0D01*
G01*
X77304000Y-97801000D01*
G75*
G02*
X77154000Y-97651000I0J150000D01*
G01*
X77154000Y-96676000D01*
G75*
G02*
X77304000Y-96526000I150000J0D01*
G01*
X77604000Y-96526000D01*
G75*
G02*
X77754000Y-96676000I0J-150000D01*
G01*
G37*
G36*
G01*
X78154000Y-96676000D02*
X78154000Y-97651000D01*
G75*
G02*
X78004000Y-97801000I-150000J0D01*
G01*
X77704000Y-97801000D01*
G75*
G02*
X77554000Y-97651000I0J150000D01*
G01*
X77554000Y-96676000D01*
G75*
G02*
X77704000Y-96526000I150000J0D01*
G01*
X78004000Y-96526000D01*
G75*
G02*
X78154000Y-96676000I0J-150000D01*
G01*
G37*
G36*
G01*
X78554000Y-96676000D02*
X78554000Y-97651000D01*
G75*
G02*
X78404000Y-97801000I-150000J0D01*
G01*
X78104000Y-97801000D01*
G75*
G02*
X77954000Y-97651000I0J150000D01*
G01*
X77954000Y-96676000D01*
G75*
G02*
X78104000Y-96526000I150000J0D01*
G01*
X78404000Y-96526000D01*
G75*
G02*
X78554000Y-96676000I0J-150000D01*
G01*
G37*
G36*
G01*
X78954000Y-96676000D02*
X78954000Y-97651000D01*
G75*
G02*
X78804000Y-97801000I-150000J0D01*
G01*
X78504000Y-97801000D01*
G75*
G02*
X78354000Y-97651000I0J150000D01*
G01*
X78354000Y-96676000D01*
G75*
G02*
X78504000Y-96526000I150000J0D01*
G01*
X78804000Y-96526000D01*
G75*
G02*
X78954000Y-96676000I0J-150000D01*
G01*
G37*
G36*
G01*
X79354000Y-96676000D02*
X79354000Y-97651000D01*
G75*
G02*
X79204000Y-97801000I-150000J0D01*
G01*
X78904000Y-97801000D01*
G75*
G02*
X78754000Y-97651000I0J150000D01*
G01*
X78754000Y-96676000D01*
G75*
G02*
X78904000Y-96526000I150000J0D01*
G01*
X79204000Y-96526000D01*
G75*
G02*
X79354000Y-96676000I0J-150000D01*
G01*
G37*
G36*
G01*
X80529000Y-96176000D02*
X80529000Y-96476000D01*
G75*
G02*
X80379000Y-96626000I-150000J0D01*
G01*
X79404000Y-96626000D01*
G75*
G02*
X79254000Y-96476000I0J150000D01*
G01*
X79254000Y-96176000D01*
G75*
G02*
X79404000Y-96026000I150000J0D01*
G01*
X80379000Y-96026000D01*
G75*
G02*
X80529000Y-96176000I0J-150000D01*
G01*
G37*
G36*
G01*
X80529000Y-95776000D02*
X80529000Y-96076000D01*
G75*
G02*
X80379000Y-96226000I-150000J0D01*
G01*
X79404000Y-96226000D01*
G75*
G02*
X79254000Y-96076000I0J150000D01*
G01*
X79254000Y-95776000D01*
G75*
G02*
X79404000Y-95626000I150000J0D01*
G01*
X80379000Y-95626000D01*
G75*
G02*
X80529000Y-95776000I0J-150000D01*
G01*
G37*
G36*
G01*
X80529000Y-95376000D02*
X80529000Y-95676000D01*
G75*
G02*
X80379000Y-95826000I-150000J0D01*
G01*
X79404000Y-95826000D01*
G75*
G02*
X79254000Y-95676000I0J150000D01*
G01*
X79254000Y-95376000D01*
G75*
G02*
X79404000Y-95226000I150000J0D01*
G01*
X80379000Y-95226000D01*
G75*
G02*
X80529000Y-95376000I0J-150000D01*
G01*
G37*
G36*
G01*
X80529000Y-94976000D02*
X80529000Y-95276000D01*
G75*
G02*
X80379000Y-95426000I-150000J0D01*
G01*
X79404000Y-95426000D01*
G75*
G02*
X79254000Y-95276000I0J150000D01*
G01*
X79254000Y-94976000D01*
G75*
G02*
X79404000Y-94826000I150000J0D01*
G01*
X80379000Y-94826000D01*
G75*
G02*
X80529000Y-94976000I0J-150000D01*
G01*
G37*
G36*
G01*
X80529000Y-94576000D02*
X80529000Y-94876000D01*
G75*
G02*
X80379000Y-95026000I-150000J0D01*
G01*
X79404000Y-95026000D01*
G75*
G02*
X79254000Y-94876000I0J150000D01*
G01*
X79254000Y-94576000D01*
G75*
G02*
X79404000Y-94426000I150000J0D01*
G01*
X80379000Y-94426000D01*
G75*
G02*
X80529000Y-94576000I0J-150000D01*
G01*
G37*
G36*
G01*
X80529000Y-94176000D02*
X80529000Y-94476000D01*
G75*
G02*
X80379000Y-94626000I-150000J0D01*
G01*
X79404000Y-94626000D01*
G75*
G02*
X79254000Y-94476000I0J150000D01*
G01*
X79254000Y-94176000D01*
G75*
G02*
X79404000Y-94026000I150000J0D01*
G01*
X80379000Y-94026000D01*
G75*
G02*
X80529000Y-94176000I0J-150000D01*
G01*
G37*
G36*
G01*
X80529000Y-93776000D02*
X80529000Y-94076000D01*
G75*
G02*
X80379000Y-94226000I-150000J0D01*
G01*
X79404000Y-94226000D01*
G75*
G02*
X79254000Y-94076000I0J150000D01*
G01*
X79254000Y-93776000D01*
G75*
G02*
X79404000Y-93626000I150000J0D01*
G01*
X80379000Y-93626000D01*
G75*
G02*
X80529000Y-93776000I0J-150000D01*
G01*
G37*
G36*
G01*
X80529000Y-93376000D02*
X80529000Y-93676000D01*
G75*
G02*
X80379000Y-93826000I-150000J0D01*
G01*
X79404000Y-93826000D01*
G75*
G02*
X79254000Y-93676000I0J150000D01*
G01*
X79254000Y-93376000D01*
G75*
G02*
X79404000Y-93226000I150000J0D01*
G01*
X80379000Y-93226000D01*
G75*
G02*
X80529000Y-93376000I0J-150000D01*
G01*
G37*
G36*
G01*
X80529000Y-92976000D02*
X80529000Y-93276000D01*
G75*
G02*
X80379000Y-93426000I-150000J0D01*
G01*
X79404000Y-93426000D01*
G75*
G02*
X79254000Y-93276000I0J150000D01*
G01*
X79254000Y-92976000D01*
G75*
G02*
X79404000Y-92826000I150000J0D01*
G01*
X80379000Y-92826000D01*
G75*
G02*
X80529000Y-92976000I0J-150000D01*
G01*
G37*
G36*
G01*
X80529000Y-92576000D02*
X80529000Y-92876000D01*
G75*
G02*
X80379000Y-93026000I-150000J0D01*
G01*
X79404000Y-93026000D01*
G75*
G02*
X79254000Y-92876000I0J150000D01*
G01*
X79254000Y-92576000D01*
G75*
G02*
X79404000Y-92426000I150000J0D01*
G01*
X80379000Y-92426000D01*
G75*
G02*
X80529000Y-92576000I0J-150000D01*
G01*
G37*
G36*
G01*
X80529000Y-92176000D02*
X80529000Y-92476000D01*
G75*
G02*
X80379000Y-92626000I-150000J0D01*
G01*
X79404000Y-92626000D01*
G75*
G02*
X79254000Y-92476000I0J150000D01*
G01*
X79254000Y-92176000D01*
G75*
G02*
X79404000Y-92026000I150000J0D01*
G01*
X80379000Y-92026000D01*
G75*
G02*
X80529000Y-92176000I0J-150000D01*
G01*
G37*
G36*
G01*
X80529000Y-91776000D02*
X80529000Y-92076000D01*
G75*
G02*
X80379000Y-92226000I-150000J0D01*
G01*
X79404000Y-92226000D01*
G75*
G02*
X79254000Y-92076000I0J150000D01*
G01*
X79254000Y-91776000D01*
G75*
G02*
X79404000Y-91626000I150000J0D01*
G01*
X80379000Y-91626000D01*
G75*
G02*
X80529000Y-91776000I0J-150000D01*
G01*
G37*
G36*
G01*
X80529000Y-91376000D02*
X80529000Y-91676000D01*
G75*
G02*
X80379000Y-91826000I-150000J0D01*
G01*
X79404000Y-91826000D01*
G75*
G02*
X79254000Y-91676000I0J150000D01*
G01*
X79254000Y-91376000D01*
G75*
G02*
X79404000Y-91226000I150000J0D01*
G01*
X80379000Y-91226000D01*
G75*
G02*
X80529000Y-91376000I0J-150000D01*
G01*
G37*
G36*
G01*
X80529000Y-90976000D02*
X80529000Y-91276000D01*
G75*
G02*
X80379000Y-91426000I-150000J0D01*
G01*
X79404000Y-91426000D01*
G75*
G02*
X79254000Y-91276000I0J150000D01*
G01*
X79254000Y-90976000D01*
G75*
G02*
X79404000Y-90826000I150000J0D01*
G01*
X80379000Y-90826000D01*
G75*
G02*
X80529000Y-90976000I0J-150000D01*
G01*
G37*
G36*
G01*
X78254000Y-92088000D02*
X78254000Y-95364000D01*
G75*
G02*
X78092000Y-95526000I-162000J0D01*
G01*
X74816000Y-95526000D01*
G75*
G02*
X74654000Y-95364000I0J162000D01*
G01*
X74654000Y-92088000D01*
G75*
G02*
X74816000Y-91926000I162000J0D01*
G01*
X78092000Y-91926000D01*
G75*
G02*
X78254000Y-92088000I0J-162000D01*
G01*
G37*
G36*
G01*
X84572800Y-83595400D02*
X84572800Y-84095400D01*
G75*
G02*
X84322800Y-84345400I-250000J0D01*
G01*
X82822800Y-84345400D01*
G75*
G02*
X82572800Y-84095400I0J250000D01*
G01*
X82572800Y-83595400D01*
G75*
G02*
X82822800Y-83345400I250000J0D01*
G01*
X84322800Y-83345400D01*
G75*
G02*
X84572800Y-83595400I0J-250000D01*
G01*
G37*
G36*
G01*
X84572800Y-84865400D02*
X84572800Y-85365400D01*
G75*
G02*
X84322800Y-85615400I-250000J0D01*
G01*
X82822800Y-85615400D01*
G75*
G02*
X82572800Y-85365400I0J250000D01*
G01*
X82572800Y-84865400D01*
G75*
G02*
X82822800Y-84615400I250000J0D01*
G01*
X84322800Y-84615400D01*
G75*
G02*
X84572800Y-84865400I0J-250000D01*
G01*
G37*
G36*
G01*
X84572800Y-86135400D02*
X84572800Y-86635400D01*
G75*
G02*
X84322800Y-86885400I-250000J0D01*
G01*
X82822800Y-86885400D01*
G75*
G02*
X82572800Y-86635400I0J250000D01*
G01*
X82572800Y-86135400D01*
G75*
G02*
X82822800Y-85885400I250000J0D01*
G01*
X84322800Y-85885400D01*
G75*
G02*
X84572800Y-86135400I0J-250000D01*
G01*
G37*
G36*
G01*
X84572800Y-87405400D02*
X84572800Y-87905400D01*
G75*
G02*
X84322800Y-88155400I-250000J0D01*
G01*
X82822800Y-88155400D01*
G75*
G02*
X82572800Y-87905400I0J250000D01*
G01*
X82572800Y-87405400D01*
G75*
G02*
X82822800Y-87155400I250000J0D01*
G01*
X84322800Y-87155400D01*
G75*
G02*
X84572800Y-87405400I0J-250000D01*
G01*
G37*
G36*
G01*
X91772800Y-87405400D02*
X91772800Y-87905400D01*
G75*
G02*
X91522800Y-88155400I-250000J0D01*
G01*
X90022800Y-88155400D01*
G75*
G02*
X89772800Y-87905400I0J250000D01*
G01*
X89772800Y-87405400D01*
G75*
G02*
X90022800Y-87155400I250000J0D01*
G01*
X91522800Y-87155400D01*
G75*
G02*
X91772800Y-87405400I0J-250000D01*
G01*
G37*
G36*
G01*
X91772800Y-86135400D02*
X91772800Y-86635400D01*
G75*
G02*
X91522800Y-86885400I-250000J0D01*
G01*
X90022800Y-86885400D01*
G75*
G02*
X89772800Y-86635400I0J250000D01*
G01*
X89772800Y-86135400D01*
G75*
G02*
X90022800Y-85885400I250000J0D01*
G01*
X91522800Y-85885400D01*
G75*
G02*
X91772800Y-86135400I0J-250000D01*
G01*
G37*
G36*
G01*
X91772800Y-84865400D02*
X91772800Y-85365400D01*
G75*
G02*
X91522800Y-85615400I-250000J0D01*
G01*
X90022800Y-85615400D01*
G75*
G02*
X89772800Y-85365400I0J250000D01*
G01*
X89772800Y-84865400D01*
G75*
G02*
X90022800Y-84615400I250000J0D01*
G01*
X91522800Y-84615400D01*
G75*
G02*
X91772800Y-84865400I0J-250000D01*
G01*
G37*
G36*
G01*
X91772800Y-83595400D02*
X91772800Y-84095400D01*
G75*
G02*
X91522800Y-84345400I-250000J0D01*
G01*
X90022800Y-84345400D01*
G75*
G02*
X89772800Y-84095400I0J250000D01*
G01*
X89772800Y-83595400D01*
G75*
G02*
X90022800Y-83345400I250000J0D01*
G01*
X91522800Y-83345400D01*
G75*
G02*
X91772800Y-83595400I0J-250000D01*
G01*
G37*
G36*
G01*
X62353400Y-65297400D02*
X62353400Y-64547400D01*
G75*
G02*
X62653400Y-64247400I300000J0D01*
G01*
X63253400Y-64247400D01*
G75*
G02*
X63553400Y-64547400I0J-300000D01*
G01*
X63553400Y-65297400D01*
G75*
G02*
X63253400Y-65597400I-300000J0D01*
G01*
X62653400Y-65597400D01*
G75*
G02*
X62353400Y-65297400I0J300000D01*
G01*
G37*
G36*
G01*
X60703400Y-65297400D02*
X60703400Y-64547400D01*
G75*
G02*
X61003400Y-64247400I300000J0D01*
G01*
X61603400Y-64247400D01*
G75*
G02*
X61903400Y-64547400I0J-300000D01*
G01*
X61903400Y-65297400D01*
G75*
G02*
X61603400Y-65597400I-300000J0D01*
G01*
X61003400Y-65597400D01*
G75*
G02*
X60703400Y-65297400I0J300000D01*
G01*
G37*
G36*
G01*
X75609800Y-84954400D02*
X74859800Y-84954400D01*
G75*
G02*
X74559800Y-84654400I0J300000D01*
G01*
X74559800Y-84054400D01*
G75*
G02*
X74859800Y-83754400I300000J0D01*
G01*
X75609800Y-83754400D01*
G75*
G02*
X75909800Y-84054400I0J-300000D01*
G01*
X75909800Y-84654400D01*
G75*
G02*
X75609800Y-84954400I-300000J0D01*
G01*
G37*
G36*
G01*
X75609800Y-86604400D02*
X74859800Y-86604400D01*
G75*
G02*
X74559800Y-86304400I0J300000D01*
G01*
X74559800Y-85704400D01*
G75*
G02*
X74859800Y-85404400I300000J0D01*
G01*
X75609800Y-85404400D01*
G75*
G02*
X75909800Y-85704400I0J-300000D01*
G01*
X75909800Y-86304400D01*
G75*
G02*
X75609800Y-86604400I-300000J0D01*
G01*
G37*
G36*
G01*
X73984200Y-85005200D02*
X73234200Y-85005200D01*
G75*
G02*
X72934200Y-84705200I0J300000D01*
G01*
X72934200Y-84105200D01*
G75*
G02*
X73234200Y-83805200I300000J0D01*
G01*
X73984200Y-83805200D01*
G75*
G02*
X74284200Y-84105200I0J-300000D01*
G01*
X74284200Y-84705200D01*
G75*
G02*
X73984200Y-85005200I-300000J0D01*
G01*
G37*
G36*
G01*
X73984200Y-86655200D02*
X73234200Y-86655200D01*
G75*
G02*
X72934200Y-86355200I0J300000D01*
G01*
X72934200Y-85755200D01*
G75*
G02*
X73234200Y-85455200I300000J0D01*
G01*
X73984200Y-85455200D01*
G75*
G02*
X74284200Y-85755200I0J-300000D01*
G01*
X74284200Y-86355200D01*
G75*
G02*
X73984200Y-86655200I-300000J0D01*
G01*
G37*
G36*
G01*
X77651400Y-64064800D02*
X77651400Y-64814800D01*
G75*
G02*
X77351400Y-65114800I-300000J0D01*
G01*
X76751400Y-65114800D01*
G75*
G02*
X76451400Y-64814800I0J300000D01*
G01*
X76451400Y-64064800D01*
G75*
G02*
X76751400Y-63764800I300000J0D01*
G01*
X77351400Y-63764800D01*
G75*
G02*
X77651400Y-64064800I0J-300000D01*
G01*
G37*
G36*
G01*
X79301400Y-64064800D02*
X79301400Y-64814800D01*
G75*
G02*
X79001400Y-65114800I-300000J0D01*
G01*
X78401400Y-65114800D01*
G75*
G02*
X78101400Y-64814800I0J300000D01*
G01*
X78101400Y-64064800D01*
G75*
G02*
X78401400Y-63764800I300000J0D01*
G01*
X79001400Y-63764800D01*
G75*
G02*
X79301400Y-64064800I0J-300000D01*
G01*
G37*
G36*
G01*
X72727000Y-68828800D02*
X72727000Y-67378800D01*
G75*
G02*
X72927000Y-67178800I200000J0D01*
G01*
X73527000Y-67178800D01*
G75*
G02*
X73727000Y-67378800I0J-200000D01*
G01*
X73727000Y-68828800D01*
G75*
G02*
X73527000Y-69028800I-200000J0D01*
G01*
X72927000Y-69028800D01*
G75*
G02*
X72727000Y-68828800I0J200000D01*
G01*
G37*
G36*
G01*
X71927000Y-68828800D02*
X71927000Y-67378800D01*
G75*
G02*
X72127000Y-67178800I200000J0D01*
G01*
X72727000Y-67178800D01*
G75*
G02*
X72927000Y-67378800I0J-200000D01*
G01*
X72927000Y-68828800D01*
G75*
G02*
X72727000Y-69028800I-200000J0D01*
G01*
X72127000Y-69028800D01*
G75*
G02*
X71927000Y-68828800I0J200000D01*
G01*
G37*
G36*
G01*
X67027000Y-68828800D02*
X67027000Y-67378800D01*
G75*
G02*
X67227000Y-67178800I200000J0D01*
G01*
X67827000Y-67178800D01*
G75*
G02*
X68027000Y-67378800I0J-200000D01*
G01*
X68027000Y-68828800D01*
G75*
G02*
X67827000Y-69028800I-200000J0D01*
G01*
X67227000Y-69028800D01*
G75*
G02*
X67027000Y-68828800I0J200000D01*
G01*
G37*
G36*
G01*
X66227000Y-68828800D02*
X66227000Y-67378800D01*
G75*
G02*
X66427000Y-67178800I200000J0D01*
G01*
X67027000Y-67178800D01*
G75*
G02*
X67227000Y-67378800I0J-200000D01*
G01*
X67227000Y-68828800D01*
G75*
G02*
X67027000Y-69028800I-200000J0D01*
G01*
X66427000Y-69028800D01*
G75*
G02*
X66227000Y-68828800I0J200000D01*
G01*
G37*
G36*
G01*
X66227000Y-68828800D02*
X66227000Y-67378800D01*
G75*
G02*
X66427000Y-67178800I200000J0D01*
G01*
X67027000Y-67178800D01*
G75*
G02*
X67227000Y-67378800I0J-200000D01*
G01*
X67227000Y-68828800D01*
G75*
G02*
X67027000Y-69028800I-200000J0D01*
G01*
X66427000Y-69028800D01*
G75*
G02*
X66227000Y-68828800I0J200000D01*
G01*
G37*
G36*
G01*
X67027000Y-68828800D02*
X67027000Y-67378800D01*
G75*
G02*
X67227000Y-67178800I200000J0D01*
G01*
X67827000Y-67178800D01*
G75*
G02*
X68027000Y-67378800I0J-200000D01*
G01*
X68027000Y-68828800D01*
G75*
G02*
X67827000Y-69028800I-200000J0D01*
G01*
X67227000Y-69028800D01*
G75*
G02*
X67027000Y-68828800I0J200000D01*
G01*
G37*
G36*
G01*
X71927000Y-68828800D02*
X71927000Y-67378800D01*
G75*
G02*
X72127000Y-67178800I200000J0D01*
G01*
X72727000Y-67178800D01*
G75*
G02*
X72927000Y-67378800I0J-200000D01*
G01*
X72927000Y-68828800D01*
G75*
G02*
X72727000Y-69028800I-200000J0D01*
G01*
X72127000Y-69028800D01*
G75*
G02*
X71927000Y-68828800I0J200000D01*
G01*
G37*
G36*
G01*
X72727000Y-68828800D02*
X72727000Y-67378800D01*
G75*
G02*
X72927000Y-67178800I200000J0D01*
G01*
X73527000Y-67178800D01*
G75*
G02*
X73727000Y-67378800I0J-200000D01*
G01*
X73727000Y-68828800D01*
G75*
G02*
X73527000Y-69028800I-200000J0D01*
G01*
X72927000Y-69028800D01*
G75*
G02*
X72727000Y-68828800I0J200000D01*
G01*
G37*
G36*
G01*
X67877000Y-68828800D02*
X67877000Y-67378800D01*
G75*
G02*
X68077000Y-67178800I200000J0D01*
G01*
X68377000Y-67178800D01*
G75*
G02*
X68577000Y-67378800I0J-200000D01*
G01*
X68577000Y-68828800D01*
G75*
G02*
X68377000Y-69028800I-200000J0D01*
G01*
X68077000Y-69028800D01*
G75*
G02*
X67877000Y-68828800I0J200000D01*
G01*
G37*
G36*
G01*
X68377000Y-68828800D02*
X68377000Y-67378800D01*
G75*
G02*
X68577000Y-67178800I200000J0D01*
G01*
X68877000Y-67178800D01*
G75*
G02*
X69077000Y-67378800I0J-200000D01*
G01*
X69077000Y-68828800D01*
G75*
G02*
X68877000Y-69028800I-200000J0D01*
G01*
X68577000Y-69028800D01*
G75*
G02*
X68377000Y-68828800I0J200000D01*
G01*
G37*
G36*
G01*
X68877000Y-68828800D02*
X68877000Y-67378800D01*
G75*
G02*
X69077000Y-67178800I200000J0D01*
G01*
X69377000Y-67178800D01*
G75*
G02*
X69577000Y-67378800I0J-200000D01*
G01*
X69577000Y-68828800D01*
G75*
G02*
X69377000Y-69028800I-200000J0D01*
G01*
X69077000Y-69028800D01*
G75*
G02*
X68877000Y-68828800I0J200000D01*
G01*
G37*
G36*
G01*
X69877000Y-68828800D02*
X69877000Y-67378800D01*
G75*
G02*
X70077000Y-67178800I200000J0D01*
G01*
X70377000Y-67178800D01*
G75*
G02*
X70577000Y-67378800I0J-200000D01*
G01*
X70577000Y-68828800D01*
G75*
G02*
X70377000Y-69028800I-200000J0D01*
G01*
X70077000Y-69028800D01*
G75*
G02*
X69877000Y-68828800I0J200000D01*
G01*
G37*
G36*
G01*
X70377000Y-68828800D02*
X70377000Y-67378800D01*
G75*
G02*
X70577000Y-67178800I200000J0D01*
G01*
X70877000Y-67178800D01*
G75*
G02*
X71077000Y-67378800I0J-200000D01*
G01*
X71077000Y-68828800D01*
G75*
G02*
X70877000Y-69028800I-200000J0D01*
G01*
X70577000Y-69028800D01*
G75*
G02*
X70377000Y-68828800I0J200000D01*
G01*
G37*
G36*
G01*
X70877000Y-68828800D02*
X70877000Y-67378800D01*
G75*
G02*
X71077000Y-67178800I200000J0D01*
G01*
X71377000Y-67178800D01*
G75*
G02*
X71577000Y-67378800I0J-200000D01*
G01*
X71577000Y-68828800D01*
G75*
G02*
X71377000Y-69028800I-200000J0D01*
G01*
X71077000Y-69028800D01*
G75*
G02*
X70877000Y-68828800I0J200000D01*
G01*
G37*
G36*
G01*
X71377000Y-68828800D02*
X71377000Y-67378800D01*
G75*
G02*
X71577000Y-67178800I200000J0D01*
G01*
X71877000Y-67178800D01*
G75*
G02*
X72077000Y-67378800I0J-200000D01*
G01*
X72077000Y-68828800D01*
G75*
G02*
X71877000Y-69028800I-200000J0D01*
G01*
X71577000Y-69028800D01*
G75*
G02*
X71377000Y-68828800I0J200000D01*
G01*
G37*
G36*
G01*
X69377000Y-68828800D02*
X69377000Y-67378800D01*
G75*
G02*
X69577000Y-67178800I200000J0D01*
G01*
X69877000Y-67178800D01*
G75*
G02*
X70077000Y-67378800I0J-200000D01*
G01*
X70077000Y-68828800D01*
G75*
G02*
X69877000Y-69028800I-200000J0D01*
G01*
X69577000Y-69028800D01*
G75*
G02*
X69377000Y-68828800I0J200000D01*
G01*
G37*
D15*
X74297000Y-67188800D03*
X65657000Y-67188800D03*
D16*
X67087000Y-66658800D03*
D17*
X65657000Y-63008800D03*
D16*
X72867000Y-66658800D03*
D17*
X74297000Y-63008800D03*
G36*
G01*
X68676000Y-85079000D02*
X67976000Y-85079000D01*
G75*
G02*
X67651000Y-84754000I0J325000D01*
G01*
X67651000Y-84104000D01*
G75*
G02*
X67976000Y-83779000I325000J0D01*
G01*
X68676000Y-83779000D01*
G75*
G02*
X69001000Y-84104000I0J-325000D01*
G01*
X69001000Y-84754000D01*
G75*
G02*
X68676000Y-85079000I-325000J0D01*
G01*
G37*
G36*
G01*
X68676000Y-86629000D02*
X67976000Y-86629000D01*
G75*
G02*
X67651000Y-86304000I0J325000D01*
G01*
X67651000Y-85654000D01*
G75*
G02*
X67976000Y-85329000I325000J0D01*
G01*
X68676000Y-85329000D01*
G75*
G02*
X69001000Y-85654000I0J-325000D01*
G01*
X69001000Y-86304000D01*
G75*
G02*
X68676000Y-86629000I-325000J0D01*
G01*
G37*
G36*
G01*
X61945000Y-84952000D02*
X61245000Y-84952000D01*
G75*
G02*
X60920000Y-84627000I0J325000D01*
G01*
X60920000Y-83977000D01*
G75*
G02*
X61245000Y-83652000I325000J0D01*
G01*
X61945000Y-83652000D01*
G75*
G02*
X62270000Y-83977000I0J-325000D01*
G01*
X62270000Y-84627000D01*
G75*
G02*
X61945000Y-84952000I-325000J0D01*
G01*
G37*
G36*
G01*
X61945000Y-86502000D02*
X61245000Y-86502000D01*
G75*
G02*
X60920000Y-86177000I0J325000D01*
G01*
X60920000Y-85527000D01*
G75*
G02*
X61245000Y-85202000I325000J0D01*
G01*
X61945000Y-85202000D01*
G75*
G02*
X62270000Y-85527000I0J-325000D01*
G01*
X62270000Y-86177000D01*
G75*
G02*
X61945000Y-86502000I-325000J0D01*
G01*
G37*
D18*
X100000000Y-117500000D03*
D19*
X100000000Y-92100000D03*
X121997000Y-130200000D03*
X78003000Y-130200000D03*
G36*
G01*
X64382000Y-128395600D02*
X66682000Y-128395600D01*
G75*
G02*
X66882000Y-128595600I0J-200000D01*
G01*
X66882000Y-130895600D01*
G75*
G02*
X66682000Y-131095600I-200000J0D01*
G01*
X64382000Y-131095600D01*
G75*
G02*
X64182000Y-130895600I0J200000D01*
G01*
X64182000Y-128595600D01*
G75*
G02*
X64382000Y-128395600I200000J0D01*
G01*
G37*
G36*
G01*
X64382000Y-141395600D02*
X66682000Y-141395600D01*
G75*
G02*
X66882000Y-141595600I0J-200000D01*
G01*
X66882000Y-143895600D01*
G75*
G02*
X66682000Y-144095600I-200000J0D01*
G01*
X64382000Y-144095600D01*
G75*
G02*
X64182000Y-143895600I0J200000D01*
G01*
X64182000Y-141595600D01*
G75*
G02*
X64382000Y-141395600I200000J0D01*
G01*
G37*
X55000000Y-105000000D03*
X145000000Y-65000000D03*
X145000000Y-145000000D03*
X55000000Y-145000000D03*
X145000000Y-105000000D03*
X55000000Y-65000000D03*
X100000000Y-65000000D03*
G36*
G01*
X92017600Y-63216000D02*
X92017600Y-62116000D01*
G75*
G02*
X92217600Y-61916000I200000J0D01*
G01*
X94017600Y-61916000D01*
G75*
G02*
X94217600Y-62116000I0J-200000D01*
G01*
X94217600Y-63216000D01*
G75*
G02*
X94017600Y-63416000I-200000J0D01*
G01*
X92217600Y-63416000D01*
G75*
G02*
X92017600Y-63216000I0J200000D01*
G01*
G37*
G36*
G01*
X85817600Y-63216000D02*
X85817600Y-62116000D01*
G75*
G02*
X86017600Y-61916000I200000J0D01*
G01*
X87817600Y-61916000D01*
G75*
G02*
X88017600Y-62116000I0J-200000D01*
G01*
X88017600Y-63216000D01*
G75*
G02*
X87817600Y-63416000I-200000J0D01*
G01*
X86017600Y-63416000D01*
G75*
G02*
X85817600Y-63216000I0J200000D01*
G01*
G37*
G36*
G01*
X92017600Y-66916000D02*
X92017600Y-65816000D01*
G75*
G02*
X92217600Y-65616000I200000J0D01*
G01*
X94017600Y-65616000D01*
G75*
G02*
X94217600Y-65816000I0J-200000D01*
G01*
X94217600Y-66916000D01*
G75*
G02*
X94017600Y-67116000I-200000J0D01*
G01*
X92217600Y-67116000D01*
G75*
G02*
X92017600Y-66916000I0J200000D01*
G01*
G37*
G36*
G01*
X85817600Y-66916000D02*
X85817600Y-65816000D01*
G75*
G02*
X86017600Y-65616000I200000J0D01*
G01*
X87817600Y-65616000D01*
G75*
G02*
X88017600Y-65816000I0J-200000D01*
G01*
X88017600Y-66916000D01*
G75*
G02*
X87817600Y-67116000I-200000J0D01*
G01*
X86017600Y-67116000D01*
G75*
G02*
X85817600Y-66916000I0J200000D01*
G01*
G37*
M02*
