G04 #@! TF.GenerationSoftware,KiCad,Pcbnew,(5.1.10)-1*
G04 #@! TF.CreationDate,2021-08-27T00:07:46-06:00*
G04 #@! TF.ProjectId,EncoderPad_RP2040,456e636f-6465-4725-9061-645f52503230,rev?*
G04 #@! TF.SameCoordinates,Original*
G04 #@! TF.FileFunction,Copper,L1,Top*
G04 #@! TF.FilePolarity,Positive*
%FSLAX46Y46*%
G04 Gerber Fmt 4.6, Leading zero omitted, Abs format (unit mm)*
G04 Created by KiCad (PCBNEW (5.1.10)-1) date 2021-08-27 00:07:46*
%MOMM*%
%LPD*%
G01*
G04 APERTURE LIST*
G04 #@! TA.AperFunction,ComponentPad*
%ADD10O,1.700000X1.700000*%
G04 #@! TD*
G04 #@! TA.AperFunction,ComponentPad*
%ADD11R,1.700000X1.700000*%
G04 #@! TD*
G04 #@! TA.AperFunction,ComponentPad*
%ADD12O,1.000000X1.000000*%
G04 #@! TD*
G04 #@! TA.AperFunction,ComponentPad*
%ADD13R,1.000000X1.000000*%
G04 #@! TD*
G04 #@! TA.AperFunction,ComponentPad*
%ADD14C,0.600000*%
G04 #@! TD*
G04 #@! TA.AperFunction,ComponentPad*
%ADD15O,1.000000X2.100000*%
G04 #@! TD*
G04 #@! TA.AperFunction,ComponentPad*
%ADD16O,1.000000X1.600000*%
G04 #@! TD*
G04 #@! TA.AperFunction,ViaPad*
%ADD17C,0.800000*%
G04 #@! TD*
G04 #@! TA.AperFunction,ViaPad*
%ADD18C,0.600000*%
G04 #@! TD*
G04 #@! TA.AperFunction,Conductor*
%ADD19C,0.250000*%
G04 #@! TD*
G04 #@! TA.AperFunction,Conductor*
%ADD20C,0.200000*%
G04 #@! TD*
G04 #@! TA.AperFunction,Conductor*
%ADD21C,1.000000*%
G04 #@! TD*
G04 #@! TA.AperFunction,Conductor*
%ADD22C,0.500000*%
G04 #@! TD*
G04 #@! TA.AperFunction,Conductor*
%ADD23C,0.100000*%
G04 #@! TD*
G04 APERTURE END LIST*
D10*
X133197600Y-127152400D03*
X133197600Y-129692400D03*
X133197600Y-132232400D03*
D11*
X133197600Y-134772400D03*
D12*
X52476400Y-84074000D03*
X52476400Y-85344000D03*
X52476400Y-86614000D03*
X52476400Y-87884000D03*
X52476400Y-89154000D03*
D13*
X52476400Y-90424000D03*
D10*
X54762400Y-126949200D03*
X54762400Y-129489200D03*
D11*
X54762400Y-132029200D03*
D10*
X116611400Y-95326200D03*
X119151400Y-95326200D03*
X121691400Y-95326200D03*
D11*
X124231400Y-95326200D03*
D14*
X75179000Y-95001000D03*
X76454000Y-95001000D03*
X77729000Y-95001000D03*
X75179000Y-93726000D03*
X76454000Y-93726000D03*
X77729000Y-93726000D03*
X75179000Y-92451000D03*
X76454000Y-92451000D03*
X77729000Y-92451000D03*
D15*
X74297000Y-67188800D03*
X65657000Y-67188800D03*
D16*
X65657000Y-63008800D03*
X74297000Y-63008800D03*
D17*
X109931200Y-67411600D03*
X95707200Y-85495101D03*
X64573600Y-110700000D03*
X64465200Y-71932800D03*
X84023200Y-71323200D03*
X104343200Y-71831200D03*
X124358400Y-72034400D03*
X142392400Y-72288400D03*
X143154400Y-92202000D03*
X143510000Y-112217200D03*
X83464400Y-82042000D03*
X77216000Y-83007200D03*
X97129600Y-84175600D03*
X129082800Y-121310400D03*
X64871600Y-91440000D03*
X111861600Y-74015600D03*
X69707990Y-86001973D03*
X87579200Y-87680800D03*
X87376000Y-90881200D03*
X86918800Y-94640400D03*
X61569600Y-82600800D03*
X57404000Y-83210400D03*
X63957200Y-107442000D03*
X58013600Y-107035600D03*
X138074400Y-87020400D03*
X134416800Y-86766400D03*
X129387600Y-70815200D03*
X135636000Y-69291200D03*
X88696800Y-71170800D03*
X88646000Y-75336400D03*
X89255600Y-81838800D03*
X68326000Y-82956400D03*
X68021200Y-89357200D03*
X75234800Y-82499200D03*
X108813600Y-70662800D03*
X63398400Y-113131600D03*
X67970400Y-93827600D03*
X68021200Y-95453200D03*
X71866802Y-98594251D03*
X90017600Y-67767200D03*
X64643000Y-70104000D03*
X75057000Y-70485000D03*
X72542400Y-65582800D03*
X67665600Y-65582800D03*
D18*
X75234802Y-91440000D03*
X75895206Y-95910400D03*
D17*
X75657179Y-98820341D03*
X76962000Y-86298810D03*
X70358000Y-96890000D03*
X66446400Y-80213200D03*
X71170800Y-96215200D03*
X71374000Y-80010000D03*
X72694800Y-99060000D03*
X73710800Y-99252810D03*
X129997200Y-127965200D03*
X67271185Y-88203768D03*
X67421990Y-91082926D03*
X66548000Y-89357200D03*
X66312140Y-92031460D03*
D19*
X58340000Y-100470000D02*
X58730000Y-100080000D01*
X98260000Y-80080000D02*
X98730000Y-80080000D01*
X118420000Y-80080000D02*
X118730000Y-80080000D01*
X138420000Y-80080000D02*
X138730000Y-80080000D01*
X138420000Y-120080000D02*
X138730000Y-120080000D01*
D20*
X103176099Y-85495101D02*
X95707200Y-85495101D01*
X109931200Y-78740000D02*
X103176099Y-85495101D01*
X109931200Y-67411600D02*
X109931200Y-78740000D01*
X64465200Y-71932800D02*
X64820800Y-72288400D01*
D21*
X83013601Y-72332799D02*
X84023200Y-71323200D01*
X64865199Y-72332799D02*
X83013601Y-72332799D01*
X64465200Y-71932800D02*
X64865199Y-72332799D01*
X146605001Y-88751399D02*
X143154400Y-92202000D01*
X146605001Y-74267999D02*
X146605001Y-88751399D01*
X144625402Y-72288400D02*
X146605001Y-74267999D01*
X142392400Y-72288400D02*
X144625402Y-72288400D01*
X147400001Y-108327199D02*
X143510000Y-112217200D01*
X146605001Y-100986601D02*
X147400001Y-101781601D01*
X147400001Y-101781601D02*
X147400001Y-108327199D01*
X146605001Y-88751399D02*
X146605001Y-100986601D01*
X146605001Y-118824999D02*
X133197600Y-132232400D01*
X146605001Y-114267999D02*
X146605001Y-118824999D01*
X144554202Y-112217200D02*
X146605001Y-114267999D01*
X143510000Y-112217200D02*
X144554202Y-112217200D01*
D20*
X129082800Y-128117600D02*
X133197600Y-132232400D01*
X129082800Y-121310400D02*
X129082800Y-128117600D01*
D21*
X86615001Y-73915001D02*
X84023200Y-71323200D01*
X86615001Y-78891399D02*
X86615001Y-73915001D01*
X83464400Y-82042000D02*
X86615001Y-78891399D01*
X82499200Y-83007200D02*
X83464400Y-82042000D01*
X77216000Y-83007200D02*
X82499200Y-83007200D01*
X66605001Y-108668599D02*
X64573600Y-110700000D01*
X66605001Y-94267999D02*
X66605001Y-108668599D01*
X64871600Y-92534598D02*
X66605001Y-94267999D01*
X64871600Y-91440000D02*
X64871600Y-92534598D01*
X111861600Y-90576400D02*
X116611400Y-95326200D01*
X111861600Y-74015600D02*
X111861600Y-90576400D01*
D19*
X64465200Y-71932800D02*
X53797200Y-71932800D01*
X52476400Y-73253600D02*
X52476400Y-84074000D01*
X53797200Y-71932800D02*
X52476400Y-73253600D01*
D20*
X87579200Y-90678000D02*
X87376000Y-90881200D01*
X87579200Y-87680800D02*
X87579200Y-90678000D01*
X75179000Y-93726000D02*
X76454000Y-93726000D01*
X77729000Y-93726000D02*
X86004400Y-93726000D01*
X86004400Y-93726000D02*
X86918800Y-94640400D01*
X87376000Y-94183200D02*
X86918800Y-94640400D01*
X87376000Y-90881200D02*
X87376000Y-94183200D01*
X60960000Y-83210400D02*
X57404000Y-83210400D01*
X61569600Y-82600800D02*
X60960000Y-83210400D01*
X58420000Y-107442000D02*
X58013600Y-107035600D01*
X63957200Y-107442000D02*
X58420000Y-107442000D01*
X138074400Y-87020400D02*
X134670800Y-87020400D01*
X134670800Y-87020400D02*
X134416800Y-86766400D01*
D19*
X77729000Y-92451000D02*
X75179000Y-95001000D01*
X75179000Y-92451000D02*
X77729000Y-95001000D01*
X77729000Y-92451000D02*
X75179000Y-92451000D01*
X75179000Y-92451000D02*
X75179000Y-95001000D01*
X75179000Y-95001000D02*
X77729000Y-95001000D01*
X77729000Y-95001000D02*
X77729000Y-92451000D01*
X76454000Y-93726000D02*
X77729000Y-93726000D01*
D20*
X76203198Y-85648800D02*
X83515200Y-85648800D01*
X90017600Y-79146400D02*
X90017600Y-67767200D01*
X71866802Y-98594251D02*
X71866802Y-89985196D01*
X83515200Y-85648800D02*
X90017600Y-79146400D01*
X71866802Y-89985196D02*
X76203198Y-85648800D01*
D19*
X74218800Y-71323200D02*
X75057000Y-70485000D01*
X65862200Y-71323200D02*
X74218800Y-71323200D01*
X64643000Y-70104000D02*
X65862200Y-71323200D01*
D20*
X72542400Y-65582800D02*
X67665600Y-65582800D01*
D19*
X75895206Y-95910400D02*
X75895206Y-98582314D01*
D20*
X75844400Y-98633120D02*
X75657179Y-98820341D01*
X75844400Y-95808800D02*
X75844400Y-98633120D01*
D19*
X75895206Y-98582314D02*
X75657179Y-98820341D01*
X75234802Y-88026008D02*
X76962000Y-86298810D01*
X75234802Y-91440000D02*
X75234802Y-88026008D01*
D20*
X70358000Y-82092800D02*
X68478400Y-80213200D01*
X70358000Y-96890000D02*
X70358000Y-82092800D01*
X68478400Y-80213200D02*
X66446400Y-80213200D01*
X71170800Y-80213200D02*
X71374000Y-80010000D01*
X71170800Y-96215200D02*
X71170800Y-80213200D01*
X72293989Y-113532411D02*
X56337200Y-129489200D01*
X56337200Y-129489200D02*
X55964481Y-129489200D01*
X55964481Y-129489200D02*
X54762400Y-129489200D01*
X72694800Y-99060000D02*
X72293989Y-99460811D01*
X72293989Y-99460811D02*
X72293989Y-113532411D01*
X55732189Y-130589201D02*
X55732189Y-131059411D01*
X72644000Y-113677390D02*
X55732189Y-130589201D01*
X72644000Y-100228400D02*
X72644000Y-113677390D01*
X73619590Y-99252810D02*
X72644000Y-100228400D01*
X73710800Y-99252810D02*
X73619590Y-99252810D01*
X55732189Y-131059411D02*
X54762400Y-132029200D01*
X132384800Y-127965200D02*
X133197600Y-127152400D01*
X129997200Y-127965200D02*
X132384800Y-127965200D01*
X52476400Y-86614000D02*
X65681417Y-86614000D01*
X65681417Y-86614000D02*
X67271185Y-88203768D01*
X66707602Y-88707198D02*
X66860002Y-88707198D01*
X52476400Y-87884000D02*
X53340000Y-87020400D01*
X67225191Y-89072387D02*
X67225191Y-90886127D01*
X66860002Y-88707198D02*
X67225191Y-89072387D01*
X65020804Y-87020400D02*
X66707602Y-88707198D01*
X53340000Y-87020400D02*
X65020804Y-87020400D01*
X67225191Y-90886127D02*
X67421990Y-91082926D01*
X52476400Y-89154000D02*
X54000400Y-87630000D01*
X64820800Y-87630000D02*
X66548000Y-89357200D01*
X54000400Y-87630000D02*
X64820800Y-87630000D01*
X66312140Y-92031460D02*
X66312140Y-90137340D01*
X66312140Y-90137340D02*
X64211200Y-88036400D01*
X54864000Y-88036400D02*
X52476400Y-90424000D01*
X64211200Y-88036400D02*
X54864000Y-88036400D01*
D22*
X145738749Y-60894211D02*
X146454145Y-61089921D01*
X147123578Y-61409225D01*
X147725891Y-61842030D01*
X148242034Y-62374649D01*
X148655709Y-62990262D01*
X148953826Y-63669393D01*
X149128493Y-64396931D01*
X149175001Y-65030258D01*
X149175000Y-144963257D01*
X149105789Y-145738749D01*
X148910079Y-146454144D01*
X148590774Y-147123581D01*
X148157970Y-147725891D01*
X147625351Y-148242034D01*
X147009739Y-148655708D01*
X146330611Y-148953825D01*
X145603069Y-149128493D01*
X144969755Y-149175000D01*
X55036743Y-149175000D01*
X54261251Y-149105789D01*
X53545856Y-148910079D01*
X52876419Y-148590774D01*
X52274109Y-148157970D01*
X51757966Y-147625351D01*
X51344292Y-147009739D01*
X51046175Y-146330611D01*
X50871507Y-145603069D01*
X50825000Y-144969755D01*
X50825000Y-144753772D01*
X52500000Y-144753772D01*
X52500000Y-145246228D01*
X52596074Y-145729223D01*
X52784529Y-146184194D01*
X53058124Y-146593657D01*
X53406343Y-146941876D01*
X53815806Y-147215471D01*
X54270777Y-147403926D01*
X54753772Y-147500000D01*
X55246228Y-147500000D01*
X55729223Y-147403926D01*
X56184194Y-147215471D01*
X56593657Y-146941876D01*
X56941876Y-146593657D01*
X57215471Y-146184194D01*
X57403926Y-145729223D01*
X57500000Y-145246228D01*
X57500000Y-144753772D01*
X142500000Y-144753772D01*
X142500000Y-145246228D01*
X142596074Y-145729223D01*
X142784529Y-146184194D01*
X143058124Y-146593657D01*
X143406343Y-146941876D01*
X143815806Y-147215471D01*
X144270777Y-147403926D01*
X144753772Y-147500000D01*
X145246228Y-147500000D01*
X145729223Y-147403926D01*
X146184194Y-147215471D01*
X146593657Y-146941876D01*
X146941876Y-146593657D01*
X147215471Y-146184194D01*
X147403926Y-145729223D01*
X147500000Y-145246228D01*
X147500000Y-144753772D01*
X147403926Y-144270777D01*
X147215471Y-143815806D01*
X146941876Y-143406343D01*
X146593657Y-143058124D01*
X146184194Y-142784529D01*
X145729223Y-142596074D01*
X145246228Y-142500000D01*
X144753772Y-142500000D01*
X144270777Y-142596074D01*
X143815806Y-142784529D01*
X143406343Y-143058124D01*
X143058124Y-143406343D01*
X142784529Y-143815806D01*
X142596074Y-144270777D01*
X142500000Y-144753772D01*
X57500000Y-144753772D01*
X57403926Y-144270777D01*
X57215471Y-143815806D01*
X56941876Y-143406343D01*
X56593657Y-143058124D01*
X56184194Y-142784529D01*
X55729223Y-142596074D01*
X55246228Y-142500000D01*
X54753772Y-142500000D01*
X54270777Y-142596074D01*
X53815806Y-142784529D01*
X53406343Y-143058124D01*
X53058124Y-143406343D01*
X52784529Y-143815806D01*
X52596074Y-144270777D01*
X52500000Y-144753772D01*
X50825000Y-144753772D01*
X50825000Y-131179200D01*
X53158772Y-131179200D01*
X53158772Y-132879200D01*
X53173253Y-133026226D01*
X53216139Y-133167601D01*
X53285781Y-133297893D01*
X53379505Y-133412095D01*
X53493707Y-133505819D01*
X53623999Y-133575461D01*
X53765374Y-133618347D01*
X53912400Y-133632828D01*
X55612400Y-133632828D01*
X55759426Y-133618347D01*
X55900801Y-133575461D01*
X56031093Y-133505819D01*
X56145295Y-133412095D01*
X56239019Y-133297893D01*
X56308661Y-133167601D01*
X56351547Y-133026226D01*
X56366028Y-132879200D01*
X56366028Y-131626937D01*
X56442357Y-131533930D01*
X56521286Y-131386266D01*
X56569889Y-131226040D01*
X56582189Y-131101159D01*
X56582189Y-131101152D01*
X56586300Y-131059411D01*
X56582189Y-131017670D01*
X56582189Y-130941281D01*
X57569698Y-129953772D01*
X75503000Y-129953772D01*
X75503000Y-130446228D01*
X75599074Y-130929223D01*
X75787529Y-131384194D01*
X76061124Y-131793657D01*
X76409343Y-132141876D01*
X76818806Y-132415471D01*
X77273777Y-132603926D01*
X77756772Y-132700000D01*
X78249228Y-132700000D01*
X78732223Y-132603926D01*
X79187194Y-132415471D01*
X79596657Y-132141876D01*
X79944876Y-131793657D01*
X80218471Y-131384194D01*
X80406926Y-130929223D01*
X80503000Y-130446228D01*
X80503000Y-129953772D01*
X80406926Y-129470777D01*
X80218471Y-129015806D01*
X79944876Y-128606343D01*
X79596657Y-128258124D01*
X79187194Y-127984529D01*
X78732223Y-127796074D01*
X78249228Y-127700000D01*
X77756772Y-127700000D01*
X77273777Y-127796074D01*
X76818806Y-127984529D01*
X76409343Y-128258124D01*
X76061124Y-128606343D01*
X75787529Y-129015806D01*
X75599074Y-129470777D01*
X75503000Y-129953772D01*
X57569698Y-129953772D01*
X72264150Y-115259321D01*
X77250000Y-115259321D01*
X77250000Y-119740679D01*
X78124269Y-124135930D01*
X79839211Y-128276166D01*
X82328921Y-132002280D01*
X85497720Y-135171079D01*
X89223834Y-137660789D01*
X93364070Y-139375731D01*
X97759321Y-140250000D01*
X102240679Y-140250000D01*
X106635930Y-139375731D01*
X110776166Y-137660789D01*
X113826830Y-135622400D01*
X131585932Y-135622400D01*
X131600567Y-135770994D01*
X131643911Y-135913878D01*
X131714296Y-136045560D01*
X131809019Y-136160981D01*
X131924440Y-136255704D01*
X132056122Y-136326089D01*
X132199006Y-136369433D01*
X132347600Y-136384068D01*
X133004100Y-136380400D01*
X133193600Y-136190900D01*
X133193600Y-134776400D01*
X133201600Y-134776400D01*
X133201600Y-136190900D01*
X133391100Y-136380400D01*
X134047600Y-136384068D01*
X134196194Y-136369433D01*
X134339078Y-136326089D01*
X134470760Y-136255704D01*
X134586181Y-136160981D01*
X134680904Y-136045560D01*
X134751289Y-135913878D01*
X134794633Y-135770994D01*
X134809268Y-135622400D01*
X134805600Y-134965900D01*
X134616100Y-134776400D01*
X133201600Y-134776400D01*
X133193600Y-134776400D01*
X131779100Y-134776400D01*
X131589600Y-134965900D01*
X131585932Y-135622400D01*
X113826830Y-135622400D01*
X114502280Y-135171079D01*
X117671079Y-132002280D01*
X119039848Y-129953772D01*
X119497000Y-129953772D01*
X119497000Y-130446228D01*
X119593074Y-130929223D01*
X119781529Y-131384194D01*
X120055124Y-131793657D01*
X120403343Y-132141876D01*
X120812806Y-132415471D01*
X121267777Y-132603926D01*
X121750772Y-132700000D01*
X122243228Y-132700000D01*
X122726223Y-132603926D01*
X123181194Y-132415471D01*
X123590657Y-132141876D01*
X123938876Y-131793657D01*
X124212471Y-131384194D01*
X124400926Y-130929223D01*
X124497000Y-130446228D01*
X124497000Y-129953772D01*
X124400926Y-129470777D01*
X124212471Y-129015806D01*
X123938876Y-128606343D01*
X123590657Y-128258124D01*
X123181194Y-127984529D01*
X122726223Y-127796074D01*
X122243228Y-127700000D01*
X121750772Y-127700000D01*
X121267777Y-127796074D01*
X120812806Y-127984529D01*
X120403343Y-128258124D01*
X120055124Y-128606343D01*
X119781529Y-129015806D01*
X119593074Y-129470777D01*
X119497000Y-129953772D01*
X119039848Y-129953772D01*
X120160789Y-128276166D01*
X121875731Y-124135930D01*
X122460293Y-121197135D01*
X127932800Y-121197135D01*
X127932800Y-121423665D01*
X127976994Y-121645843D01*
X128063684Y-121855129D01*
X128189537Y-122043482D01*
X128232800Y-122086745D01*
X128232801Y-128075849D01*
X128228689Y-128117600D01*
X128245100Y-128284229D01*
X128293703Y-128444454D01*
X128306962Y-128469259D01*
X128372633Y-128592119D01*
X128478853Y-128721548D01*
X128511281Y-128748161D01*
X131637474Y-131874355D01*
X131597600Y-132074814D01*
X131597600Y-132389986D01*
X131659087Y-132699103D01*
X131779698Y-132990284D01*
X131954799Y-133252341D01*
X131968177Y-133265719D01*
X131924440Y-133289096D01*
X131809019Y-133383819D01*
X131714296Y-133499240D01*
X131643911Y-133630922D01*
X131600567Y-133773806D01*
X131585932Y-133922400D01*
X131589600Y-134578900D01*
X131779100Y-134768400D01*
X133193600Y-134768400D01*
X133193600Y-134748400D01*
X133201600Y-134748400D01*
X133201600Y-134768400D01*
X134616100Y-134768400D01*
X134805600Y-134578900D01*
X134809268Y-133922400D01*
X134794633Y-133773806D01*
X134751289Y-133630922D01*
X134680904Y-133499240D01*
X134586181Y-133383819D01*
X134470760Y-133289096D01*
X134427023Y-133265719D01*
X134440401Y-133252341D01*
X134615502Y-132990284D01*
X134736113Y-132699103D01*
X134795072Y-132402694D01*
X147445464Y-119752303D01*
X147493161Y-119713159D01*
X147649367Y-119522822D01*
X147765438Y-119305668D01*
X147836914Y-119070042D01*
X147855001Y-118886404D01*
X147855001Y-118886398D01*
X147861048Y-118825000D01*
X147855001Y-118763602D01*
X147855001Y-114329404D01*
X147861049Y-114267999D01*
X147836914Y-114022956D01*
X147765438Y-113787330D01*
X147728989Y-113719139D01*
X147649367Y-113570176D01*
X147493161Y-113379839D01*
X147445465Y-113340696D01*
X145799867Y-111695099D01*
X148240464Y-109254503D01*
X148288161Y-109215359D01*
X148444367Y-109025022D01*
X148560438Y-108807868D01*
X148631914Y-108572242D01*
X148650001Y-108388604D01*
X148650001Y-108388598D01*
X148656048Y-108327200D01*
X148650001Y-108265802D01*
X148650001Y-101843006D01*
X148656049Y-101781601D01*
X148631914Y-101536558D01*
X148560438Y-101300932D01*
X148523402Y-101231643D01*
X148444367Y-101083778D01*
X148288161Y-100893441D01*
X148240459Y-100854293D01*
X147855001Y-100468835D01*
X147855001Y-88812804D01*
X147861049Y-88751399D01*
X147855001Y-88689994D01*
X147855001Y-74329404D01*
X147861049Y-74267999D01*
X147836914Y-74022956D01*
X147765438Y-73787330D01*
X147738953Y-73737780D01*
X147649367Y-73570176D01*
X147493161Y-73379839D01*
X147445465Y-73340696D01*
X145552711Y-71447943D01*
X145513562Y-71400240D01*
X145323225Y-71244034D01*
X145106071Y-71127963D01*
X144870445Y-71056487D01*
X144686807Y-71038400D01*
X144686800Y-71038400D01*
X144625402Y-71032353D01*
X144564004Y-71038400D01*
X142475000Y-71038400D01*
X142475000Y-68488065D01*
X142478749Y-68450000D01*
X142463786Y-68298074D01*
X142419470Y-68151986D01*
X142347506Y-68017350D01*
X142250659Y-67899341D01*
X142132650Y-67802494D01*
X141998014Y-67730530D01*
X141851926Y-67686214D01*
X141738065Y-67675000D01*
X141700000Y-67671251D01*
X141661935Y-67675000D01*
X138338065Y-67675000D01*
X138300000Y-67671251D01*
X138261935Y-67675000D01*
X138148074Y-67686214D01*
X138001986Y-67730530D01*
X137867350Y-67802494D01*
X137749341Y-67899341D01*
X137652494Y-68017350D01*
X137580530Y-68151986D01*
X137536214Y-68298074D01*
X137521251Y-68450000D01*
X137525001Y-68488075D01*
X137525000Y-71411934D01*
X137521251Y-71450000D01*
X137536214Y-71601926D01*
X137580530Y-71748014D01*
X137652494Y-71882650D01*
X137717241Y-71961545D01*
X137749341Y-72000659D01*
X137867350Y-72097506D01*
X138001986Y-72169470D01*
X138148074Y-72213786D01*
X138300000Y-72228749D01*
X138338065Y-72225000D01*
X141142596Y-72225000D01*
X141136352Y-72288400D01*
X141157475Y-72502864D01*
X140802145Y-72355681D01*
X140270851Y-72250000D01*
X139729149Y-72250000D01*
X139197855Y-72355681D01*
X138697387Y-72562982D01*
X138246977Y-72863936D01*
X137863936Y-73246977D01*
X137562982Y-73697387D01*
X137355681Y-74197855D01*
X137250000Y-74729149D01*
X137250000Y-75270851D01*
X137355681Y-75802145D01*
X137562982Y-76302613D01*
X137863936Y-76753023D01*
X138246977Y-77136064D01*
X138697387Y-77437018D01*
X139197855Y-77644319D01*
X139729149Y-77750000D01*
X140270851Y-77750000D01*
X140802145Y-77644319D01*
X141302613Y-77437018D01*
X141572240Y-77256859D01*
X141560000Y-77318394D01*
X141560000Y-77761606D01*
X141646466Y-78196301D01*
X141816076Y-78605775D01*
X142062311Y-78974292D01*
X142375708Y-79287689D01*
X142744225Y-79533924D01*
X143153699Y-79703534D01*
X143588394Y-79790000D01*
X144031606Y-79790000D01*
X144466301Y-79703534D01*
X144875775Y-79533924D01*
X145244292Y-79287689D01*
X145355001Y-79176980D01*
X145355002Y-88233631D01*
X142475000Y-91113634D01*
X142475000Y-88488065D01*
X142478749Y-88450000D01*
X142463786Y-88298074D01*
X142419470Y-88151986D01*
X142347506Y-88017350D01*
X142250659Y-87899341D01*
X142132650Y-87802494D01*
X141998014Y-87730530D01*
X141851926Y-87686214D01*
X141738065Y-87675000D01*
X141700000Y-87671251D01*
X141661935Y-87675000D01*
X138338065Y-87675000D01*
X138300000Y-87671251D01*
X138261935Y-87675000D01*
X138148074Y-87686214D01*
X138001986Y-87730530D01*
X137867350Y-87802494D01*
X137749341Y-87899341D01*
X137652494Y-88017350D01*
X137580530Y-88151986D01*
X137536214Y-88298074D01*
X137521251Y-88450000D01*
X137525001Y-88488075D01*
X137525000Y-91411934D01*
X137521251Y-91450000D01*
X137536214Y-91601926D01*
X137580530Y-91748014D01*
X137652494Y-91882650D01*
X137697128Y-91937037D01*
X137749341Y-92000659D01*
X137867350Y-92097506D01*
X138001986Y-92169470D01*
X138148074Y-92213786D01*
X138300000Y-92228749D01*
X138338065Y-92225000D01*
X141661935Y-92225000D01*
X141700000Y-92228749D01*
X141738065Y-92225000D01*
X141851926Y-92213786D01*
X141898586Y-92199632D01*
X141898353Y-92202000D01*
X141922487Y-92447042D01*
X141993963Y-92682668D01*
X142110035Y-92899822D01*
X142266240Y-93090160D01*
X142456578Y-93246365D01*
X142673732Y-93362437D01*
X142909358Y-93433913D01*
X143154400Y-93458047D01*
X143399442Y-93433913D01*
X143635068Y-93362437D01*
X143852222Y-93246365D01*
X143994863Y-93129303D01*
X145355001Y-91769165D01*
X145355001Y-93397866D01*
X145240049Y-93375000D01*
X144919951Y-93375000D01*
X144606005Y-93437448D01*
X144310274Y-93559943D01*
X144044123Y-93737780D01*
X143817780Y-93964123D01*
X143639943Y-94230274D01*
X143517448Y-94526005D01*
X143455000Y-94839951D01*
X143455000Y-95160049D01*
X143484942Y-95310578D01*
X143153699Y-95376466D01*
X142744225Y-95546076D01*
X142687748Y-95583813D01*
X142750000Y-95270851D01*
X142750000Y-94729149D01*
X142644319Y-94197855D01*
X142437018Y-93697387D01*
X142136064Y-93246977D01*
X141753023Y-92863936D01*
X141302613Y-92562982D01*
X140802145Y-92355681D01*
X140270851Y-92250000D01*
X139729149Y-92250000D01*
X139197855Y-92355681D01*
X138697387Y-92562982D01*
X138246977Y-92863936D01*
X137863936Y-93246977D01*
X137562982Y-93697387D01*
X137355681Y-94197855D01*
X137250000Y-94729149D01*
X137250000Y-95270851D01*
X137355681Y-95802145D01*
X137562982Y-96302613D01*
X137863936Y-96753023D01*
X138246977Y-97136064D01*
X138697387Y-97437018D01*
X139197855Y-97644319D01*
X139729149Y-97750000D01*
X140270851Y-97750000D01*
X140802145Y-97644319D01*
X141302613Y-97437018D01*
X141572240Y-97256859D01*
X141560000Y-97318394D01*
X141560000Y-97761606D01*
X141646466Y-98196301D01*
X141816076Y-98605775D01*
X142062311Y-98974292D01*
X142375708Y-99287689D01*
X142744225Y-99533924D01*
X143153699Y-99703534D01*
X143588394Y-99790000D01*
X144031606Y-99790000D01*
X144466301Y-99703534D01*
X144875775Y-99533924D01*
X145244292Y-99287689D01*
X145355002Y-99176979D01*
X145355002Y-100925193D01*
X145348954Y-100986601D01*
X145373088Y-101231643D01*
X145444564Y-101467269D01*
X145481600Y-101536558D01*
X145560636Y-101684424D01*
X145716842Y-101874761D01*
X145764539Y-101913905D01*
X146150001Y-102299367D01*
X146150001Y-102770366D01*
X145729223Y-102596074D01*
X145246228Y-102500000D01*
X144753772Y-102500000D01*
X144270777Y-102596074D01*
X143815806Y-102784529D01*
X143406343Y-103058124D01*
X143058124Y-103406343D01*
X142784529Y-103815806D01*
X142596074Y-104270777D01*
X142500000Y-104753772D01*
X142500000Y-105246228D01*
X142596074Y-105729223D01*
X142784529Y-106184194D01*
X143058124Y-106593657D01*
X143406343Y-106941876D01*
X143815806Y-107215471D01*
X144270777Y-107403926D01*
X144753772Y-107500000D01*
X145246228Y-107500000D01*
X145729223Y-107403926D01*
X146150002Y-107229634D01*
X146150002Y-107809431D01*
X142669543Y-111289891D01*
X142621840Y-111329040D01*
X142472773Y-111510678D01*
X142478749Y-111450000D01*
X142475000Y-111411935D01*
X142475000Y-108488065D01*
X142478749Y-108450000D01*
X142463786Y-108298074D01*
X142419470Y-108151986D01*
X142347506Y-108017350D01*
X142250659Y-107899341D01*
X142132650Y-107802494D01*
X141998014Y-107730530D01*
X141851926Y-107686214D01*
X141738065Y-107675000D01*
X141700000Y-107671251D01*
X141661935Y-107675000D01*
X138338065Y-107675000D01*
X138300000Y-107671251D01*
X138261935Y-107675000D01*
X138148074Y-107686214D01*
X138001986Y-107730530D01*
X137867350Y-107802494D01*
X137749341Y-107899341D01*
X137652494Y-108017350D01*
X137580530Y-108151986D01*
X137536214Y-108298074D01*
X137521251Y-108450000D01*
X137525001Y-108488075D01*
X137525000Y-111411934D01*
X137521251Y-111450000D01*
X137536214Y-111601926D01*
X137580530Y-111748014D01*
X137652494Y-111882650D01*
X137692923Y-111931913D01*
X137749341Y-112000659D01*
X137867350Y-112097506D01*
X138001986Y-112169470D01*
X138148074Y-112213786D01*
X138300000Y-112228749D01*
X138338065Y-112225000D01*
X141661935Y-112225000D01*
X141700000Y-112228749D01*
X141738065Y-112225000D01*
X141851926Y-112213786D01*
X141998014Y-112169470D01*
X142132650Y-112097506D01*
X142250659Y-112000659D01*
X142280454Y-111964353D01*
X142278087Y-111972157D01*
X142253952Y-112217200D01*
X142278087Y-112462243D01*
X142349563Y-112697869D01*
X142465634Y-112915023D01*
X142621840Y-113105360D01*
X142812177Y-113261566D01*
X143029331Y-113377637D01*
X143264957Y-113449113D01*
X143448595Y-113467200D01*
X143448602Y-113467200D01*
X143510000Y-113473247D01*
X143571398Y-113467200D01*
X144036436Y-113467200D01*
X144201715Y-113632480D01*
X144044123Y-113737780D01*
X143817780Y-113964123D01*
X143639943Y-114230274D01*
X143517448Y-114526005D01*
X143455000Y-114839951D01*
X143455000Y-115160049D01*
X143484942Y-115310578D01*
X143153699Y-115376466D01*
X142744225Y-115546076D01*
X142687748Y-115583813D01*
X142750000Y-115270851D01*
X142750000Y-114729149D01*
X142644319Y-114197855D01*
X142437018Y-113697387D01*
X142136064Y-113246977D01*
X141753023Y-112863936D01*
X141302613Y-112562982D01*
X140802145Y-112355681D01*
X140270851Y-112250000D01*
X139729149Y-112250000D01*
X139197855Y-112355681D01*
X138697387Y-112562982D01*
X138246977Y-112863936D01*
X137863936Y-113246977D01*
X137562982Y-113697387D01*
X137355681Y-114197855D01*
X137250000Y-114729149D01*
X137250000Y-115270851D01*
X137355681Y-115802145D01*
X137562982Y-116302613D01*
X137863936Y-116753023D01*
X138246977Y-117136064D01*
X138697387Y-117437018D01*
X139197855Y-117644319D01*
X139729149Y-117750000D01*
X140270851Y-117750000D01*
X140802145Y-117644319D01*
X141302613Y-117437018D01*
X141572240Y-117256859D01*
X141560000Y-117318394D01*
X141560000Y-117761606D01*
X141646466Y-118196301D01*
X141816076Y-118605775D01*
X142062311Y-118974292D01*
X142375708Y-119287689D01*
X142744225Y-119533924D01*
X143153699Y-119703534D01*
X143588394Y-119790000D01*
X143872233Y-119790000D01*
X134648369Y-129013865D01*
X134615502Y-128934516D01*
X134440401Y-128672459D01*
X134217541Y-128449599D01*
X134176835Y-128422400D01*
X134217541Y-128395201D01*
X134440401Y-128172341D01*
X134615502Y-127910284D01*
X134736113Y-127619103D01*
X134797600Y-127309986D01*
X134797600Y-126994814D01*
X134736113Y-126685697D01*
X134615502Y-126394516D01*
X134440401Y-126132459D01*
X134217541Y-125909599D01*
X133955484Y-125734498D01*
X133664303Y-125613887D01*
X133355186Y-125552400D01*
X133040014Y-125552400D01*
X132730897Y-125613887D01*
X132439716Y-125734498D01*
X132177659Y-125909599D01*
X131954799Y-126132459D01*
X131779698Y-126394516D01*
X131659087Y-126685697D01*
X131597600Y-126994814D01*
X131597600Y-127115200D01*
X130773545Y-127115200D01*
X130730282Y-127071937D01*
X130541929Y-126946084D01*
X130332643Y-126859394D01*
X130110465Y-126815200D01*
X129932800Y-126815200D01*
X129932800Y-122086745D01*
X129976063Y-122043482D01*
X130101916Y-121855129D01*
X130188606Y-121645843D01*
X130232800Y-121423665D01*
X130232800Y-121197135D01*
X130188606Y-120974957D01*
X130101916Y-120765671D01*
X129976063Y-120577318D01*
X129815882Y-120417137D01*
X129627529Y-120291284D01*
X129418243Y-120204594D01*
X129196065Y-120160400D01*
X128969535Y-120160400D01*
X128747357Y-120204594D01*
X128538071Y-120291284D01*
X128349718Y-120417137D01*
X128189537Y-120577318D01*
X128063684Y-120765671D01*
X127976994Y-120974957D01*
X127932800Y-121197135D01*
X122460293Y-121197135D01*
X122726585Y-119858394D01*
X135210000Y-119858394D01*
X135210000Y-120301606D01*
X135296466Y-120736301D01*
X135466076Y-121145775D01*
X135712311Y-121514292D01*
X136025708Y-121827689D01*
X136394225Y-122073924D01*
X136803699Y-122243534D01*
X137238394Y-122330000D01*
X137681606Y-122330000D01*
X138116301Y-122243534D01*
X138525775Y-122073924D01*
X138894292Y-121827689D01*
X139207689Y-121514292D01*
X139453924Y-121145775D01*
X139623534Y-120736301D01*
X139710000Y-120301606D01*
X139710000Y-119858394D01*
X139623534Y-119423699D01*
X139453924Y-119014225D01*
X139207689Y-118645708D01*
X138894292Y-118332311D01*
X138525775Y-118086076D01*
X138116301Y-117916466D01*
X137681606Y-117830000D01*
X137238394Y-117830000D01*
X136803699Y-117916466D01*
X136394225Y-118086076D01*
X136025708Y-118332311D01*
X135712311Y-118645708D01*
X135466076Y-119014225D01*
X135296466Y-119423699D01*
X135210000Y-119858394D01*
X122726585Y-119858394D01*
X122750000Y-119740679D01*
X122750000Y-115259321D01*
X122666583Y-114839951D01*
X133295000Y-114839951D01*
X133295000Y-115160049D01*
X133357448Y-115473995D01*
X133479943Y-115769726D01*
X133657780Y-116035877D01*
X133884123Y-116262220D01*
X134150274Y-116440057D01*
X134446005Y-116562552D01*
X134759951Y-116625000D01*
X135080049Y-116625000D01*
X135393995Y-116562552D01*
X135689726Y-116440057D01*
X135955877Y-116262220D01*
X136182220Y-116035877D01*
X136360057Y-115769726D01*
X136482552Y-115473995D01*
X136545000Y-115160049D01*
X136545000Y-114839951D01*
X136482552Y-114526005D01*
X136360057Y-114230274D01*
X136182220Y-113964123D01*
X135955877Y-113737780D01*
X135689726Y-113559943D01*
X135393995Y-113437448D01*
X135080049Y-113375000D01*
X134759951Y-113375000D01*
X134446005Y-113437448D01*
X134150274Y-113559943D01*
X133884123Y-113737780D01*
X133657780Y-113964123D01*
X133479943Y-114230274D01*
X133357448Y-114526005D01*
X133295000Y-114839951D01*
X122666583Y-114839951D01*
X121875731Y-110864070D01*
X120160789Y-106723834D01*
X117671079Y-102997720D01*
X114531753Y-99858394D01*
X135210000Y-99858394D01*
X135210000Y-100301606D01*
X135296466Y-100736301D01*
X135466076Y-101145775D01*
X135712311Y-101514292D01*
X136025708Y-101827689D01*
X136394225Y-102073924D01*
X136803699Y-102243534D01*
X137238394Y-102330000D01*
X137681606Y-102330000D01*
X138116301Y-102243534D01*
X138525775Y-102073924D01*
X138894292Y-101827689D01*
X139207689Y-101514292D01*
X139453924Y-101145775D01*
X139623534Y-100736301D01*
X139710000Y-100301606D01*
X139710000Y-99858394D01*
X139623534Y-99423699D01*
X139453924Y-99014225D01*
X139207689Y-98645708D01*
X138894292Y-98332311D01*
X138525775Y-98086076D01*
X138116301Y-97916466D01*
X137681606Y-97830000D01*
X137238394Y-97830000D01*
X136803699Y-97916466D01*
X136394225Y-98086076D01*
X136025708Y-98332311D01*
X135712311Y-98645708D01*
X135466076Y-99014225D01*
X135296466Y-99423699D01*
X135210000Y-99858394D01*
X114531753Y-99858394D01*
X114502280Y-99828921D01*
X110776166Y-97339211D01*
X106635930Y-95624269D01*
X102240679Y-94750000D01*
X97759321Y-94750000D01*
X93364070Y-95624269D01*
X89223834Y-97339211D01*
X85497720Y-99828921D01*
X82328921Y-102997720D01*
X79839211Y-106723834D01*
X78124269Y-110864070D01*
X77250000Y-115259321D01*
X72264150Y-115259321D01*
X73215525Y-114307947D01*
X73247948Y-114281338D01*
X73274557Y-114248915D01*
X73274561Y-114248911D01*
X73354167Y-114151910D01*
X73354168Y-114151909D01*
X73433097Y-114004245D01*
X73481700Y-113844019D01*
X73494000Y-113719139D01*
X73494000Y-113719129D01*
X73498111Y-113677391D01*
X73494000Y-113635653D01*
X73494000Y-100580481D01*
X73671671Y-100402810D01*
X73824065Y-100402810D01*
X74046243Y-100358616D01*
X74255529Y-100271926D01*
X74443882Y-100146073D01*
X74604063Y-99985892D01*
X74729916Y-99797539D01*
X74811375Y-99600882D01*
X74924097Y-99713604D01*
X75112450Y-99839457D01*
X75321736Y-99926147D01*
X75543914Y-99970341D01*
X75770444Y-99970341D01*
X75992622Y-99926147D01*
X76201908Y-99839457D01*
X76390261Y-99713604D01*
X76550442Y-99553423D01*
X76676295Y-99365070D01*
X76762985Y-99155784D01*
X76807179Y-98933606D01*
X76807179Y-98707076D01*
X76770206Y-98521200D01*
X76770206Y-96490821D01*
X76825704Y-96407762D01*
X76904856Y-96216674D01*
X76945206Y-96013816D01*
X76945206Y-95938503D01*
X77012884Y-95905361D01*
X77075645Y-95863426D01*
X77070132Y-95665528D01*
X77091500Y-95644160D01*
X77112868Y-95665528D01*
X77107355Y-95863426D01*
X77287551Y-95968132D01*
X77484712Y-96035671D01*
X77691260Y-96063448D01*
X77899258Y-96050397D01*
X78100714Y-95997017D01*
X78287884Y-95905361D01*
X78350645Y-95863426D01*
X78343907Y-95621564D01*
X77729000Y-95006657D01*
X77714858Y-95020799D01*
X77709201Y-95015142D01*
X77723343Y-95001000D01*
X77709201Y-94986858D01*
X77714858Y-94981201D01*
X77729000Y-94995343D01*
X77743142Y-94981201D01*
X77748799Y-94986858D01*
X77734657Y-95001000D01*
X78349564Y-95615907D01*
X78591426Y-95622645D01*
X78696132Y-95442449D01*
X78763671Y-95245288D01*
X78791448Y-95038740D01*
X78778397Y-94830742D01*
X78725017Y-94629286D01*
X78633361Y-94442116D01*
X78591426Y-94379355D01*
X78393528Y-94384868D01*
X78372160Y-94363500D01*
X78393528Y-94342132D01*
X78591426Y-94347645D01*
X78696132Y-94167449D01*
X78763671Y-93970288D01*
X78791448Y-93763740D01*
X78778397Y-93555742D01*
X78725017Y-93354286D01*
X78633361Y-93167116D01*
X78591426Y-93104355D01*
X78393528Y-93109868D01*
X78372160Y-93088500D01*
X78393528Y-93067132D01*
X78591426Y-93072645D01*
X78696132Y-92892449D01*
X78763671Y-92695288D01*
X78791448Y-92488740D01*
X78778397Y-92280742D01*
X78725017Y-92079286D01*
X78633361Y-91892116D01*
X78607741Y-91853772D01*
X97500000Y-91853772D01*
X97500000Y-92346228D01*
X97596074Y-92829223D01*
X97784529Y-93284194D01*
X98058124Y-93693657D01*
X98406343Y-94041876D01*
X98815806Y-94315471D01*
X99270777Y-94503926D01*
X99753772Y-94600000D01*
X100246228Y-94600000D01*
X100729223Y-94503926D01*
X101184194Y-94315471D01*
X101593657Y-94041876D01*
X101941876Y-93693657D01*
X102215471Y-93284194D01*
X102403926Y-92829223D01*
X102500000Y-92346228D01*
X102500000Y-91853772D01*
X102403926Y-91370777D01*
X102215471Y-90915806D01*
X101941876Y-90506343D01*
X101593657Y-90158124D01*
X101184194Y-89884529D01*
X100729223Y-89696074D01*
X100246228Y-89600000D01*
X99753772Y-89600000D01*
X99270777Y-89696074D01*
X98815806Y-89884529D01*
X98406343Y-90158124D01*
X98058124Y-90506343D01*
X97784529Y-90915806D01*
X97596074Y-91370777D01*
X97500000Y-91853772D01*
X78607741Y-91853772D01*
X78591426Y-91829355D01*
X78349564Y-91836093D01*
X77734657Y-92451000D01*
X77748799Y-92465142D01*
X77743142Y-92470799D01*
X77729000Y-92456657D01*
X77714858Y-92470799D01*
X77709201Y-92465142D01*
X77723343Y-92451000D01*
X77709201Y-92436858D01*
X77714858Y-92431201D01*
X77729000Y-92445343D01*
X78343907Y-91830436D01*
X78350645Y-91588574D01*
X78170449Y-91483868D01*
X77973288Y-91416329D01*
X77766740Y-91388552D01*
X77558742Y-91401603D01*
X77357286Y-91454983D01*
X77170116Y-91546639D01*
X77107355Y-91588574D01*
X77112868Y-91786472D01*
X77091500Y-91807840D01*
X77070132Y-91786472D01*
X77075645Y-91588574D01*
X76895449Y-91483868D01*
X76698288Y-91416329D01*
X76491740Y-91388552D01*
X76284802Y-91401536D01*
X76284802Y-91336584D01*
X76244452Y-91133726D01*
X76165300Y-90942638D01*
X76109802Y-90859579D01*
X76109802Y-88388444D01*
X77049437Y-87448810D01*
X77075265Y-87448810D01*
X77297443Y-87404616D01*
X77506729Y-87317926D01*
X77695082Y-87192073D01*
X77855263Y-87031892D01*
X77981116Y-86843539D01*
X78067806Y-86634253D01*
X78094749Y-86498800D01*
X83473459Y-86498800D01*
X83515200Y-86502911D01*
X83556941Y-86498800D01*
X83556949Y-86498800D01*
X83681829Y-86486500D01*
X83842055Y-86437897D01*
X83989719Y-86358968D01*
X84119148Y-86252748D01*
X84145766Y-86220314D01*
X84984244Y-85381836D01*
X94557200Y-85381836D01*
X94557200Y-85608366D01*
X94601394Y-85830544D01*
X94688084Y-86039830D01*
X94813937Y-86228183D01*
X94974118Y-86388364D01*
X95162471Y-86514217D01*
X95371757Y-86600907D01*
X95593935Y-86645101D01*
X95820465Y-86645101D01*
X96042643Y-86600907D01*
X96251929Y-86514217D01*
X96440282Y-86388364D01*
X96483545Y-86345101D01*
X103134358Y-86345101D01*
X103176099Y-86349212D01*
X103217840Y-86345101D01*
X103217848Y-86345101D01*
X103342728Y-86332801D01*
X103502954Y-86284198D01*
X103650618Y-86205269D01*
X103780047Y-86099049D01*
X103806665Y-86066615D01*
X110502725Y-79370557D01*
X110535148Y-79343948D01*
X110561757Y-79311525D01*
X110561761Y-79311521D01*
X110611600Y-79250791D01*
X110611601Y-90514992D01*
X110605553Y-90576400D01*
X110629687Y-90821442D01*
X110701163Y-91057068D01*
X110726547Y-91104557D01*
X110817235Y-91274223D01*
X110973441Y-91464560D01*
X111021138Y-91503704D01*
X115013928Y-95496495D01*
X115072887Y-95792903D01*
X115193498Y-96084084D01*
X115368599Y-96346141D01*
X115591459Y-96569001D01*
X115853516Y-96744102D01*
X116144697Y-96864713D01*
X116453814Y-96926200D01*
X116768986Y-96926200D01*
X117078103Y-96864713D01*
X117369284Y-96744102D01*
X117631341Y-96569001D01*
X117854201Y-96346141D01*
X117883394Y-96302450D01*
X117973329Y-96420646D01*
X118209481Y-96629447D01*
X118481831Y-96788165D01*
X118779912Y-96890700D01*
X118895903Y-96913772D01*
X119147400Y-96744694D01*
X119147400Y-95330200D01*
X119127400Y-95330200D01*
X119127400Y-95322200D01*
X119147400Y-95322200D01*
X119147400Y-93907706D01*
X119155400Y-93907706D01*
X119155400Y-95322200D01*
X119175400Y-95322200D01*
X119175400Y-95330200D01*
X119155400Y-95330200D01*
X119155400Y-96744694D01*
X119406897Y-96913772D01*
X119522888Y-96890700D01*
X119820969Y-96788165D01*
X120093319Y-96629447D01*
X120329471Y-96420646D01*
X120419406Y-96302450D01*
X120448599Y-96346141D01*
X120671459Y-96569001D01*
X120933516Y-96744102D01*
X121224697Y-96864713D01*
X121533814Y-96926200D01*
X121848986Y-96926200D01*
X122158103Y-96864713D01*
X122449284Y-96744102D01*
X122711341Y-96569001D01*
X122730631Y-96549711D01*
X122754781Y-96594893D01*
X122848505Y-96709095D01*
X122962707Y-96802819D01*
X123092999Y-96872461D01*
X123234374Y-96915347D01*
X123381400Y-96929828D01*
X125081400Y-96929828D01*
X125228426Y-96915347D01*
X125369801Y-96872461D01*
X125500093Y-96802819D01*
X125614295Y-96709095D01*
X125708019Y-96594893D01*
X125777661Y-96464601D01*
X125820547Y-96323226D01*
X125835028Y-96176200D01*
X125835028Y-94839951D01*
X133295000Y-94839951D01*
X133295000Y-95160049D01*
X133357448Y-95473995D01*
X133479943Y-95769726D01*
X133657780Y-96035877D01*
X133884123Y-96262220D01*
X134150274Y-96440057D01*
X134446005Y-96562552D01*
X134759951Y-96625000D01*
X135080049Y-96625000D01*
X135393995Y-96562552D01*
X135689726Y-96440057D01*
X135955877Y-96262220D01*
X136182220Y-96035877D01*
X136360057Y-95769726D01*
X136482552Y-95473995D01*
X136545000Y-95160049D01*
X136545000Y-94839951D01*
X136482552Y-94526005D01*
X136360057Y-94230274D01*
X136182220Y-93964123D01*
X135955877Y-93737780D01*
X135689726Y-93559943D01*
X135393995Y-93437448D01*
X135080049Y-93375000D01*
X134759951Y-93375000D01*
X134446005Y-93437448D01*
X134150274Y-93559943D01*
X133884123Y-93737780D01*
X133657780Y-93964123D01*
X133479943Y-94230274D01*
X133357448Y-94526005D01*
X133295000Y-94839951D01*
X125835028Y-94839951D01*
X125835028Y-94476200D01*
X125820547Y-94329174D01*
X125777661Y-94187799D01*
X125708019Y-94057507D01*
X125614295Y-93943305D01*
X125500093Y-93849581D01*
X125369801Y-93779939D01*
X125228426Y-93737053D01*
X125081400Y-93722572D01*
X123381400Y-93722572D01*
X123234374Y-93737053D01*
X123092999Y-93779939D01*
X122962707Y-93849581D01*
X122848505Y-93943305D01*
X122754781Y-94057507D01*
X122730631Y-94102689D01*
X122711341Y-94083399D01*
X122449284Y-93908298D01*
X122158103Y-93787687D01*
X121848986Y-93726200D01*
X121533814Y-93726200D01*
X121224697Y-93787687D01*
X120933516Y-93908298D01*
X120671459Y-94083399D01*
X120448599Y-94306259D01*
X120419406Y-94349950D01*
X120329471Y-94231754D01*
X120093319Y-94022953D01*
X119820969Y-93864235D01*
X119522888Y-93761700D01*
X119406897Y-93738628D01*
X119155400Y-93907706D01*
X119147400Y-93907706D01*
X118895903Y-93738628D01*
X118779912Y-93761700D01*
X118481831Y-93864235D01*
X118209481Y-94022953D01*
X117973329Y-94231754D01*
X117883394Y-94349950D01*
X117854201Y-94306259D01*
X117631341Y-94083399D01*
X117369284Y-93908298D01*
X117078103Y-93787687D01*
X116781695Y-93728728D01*
X113111600Y-90058634D01*
X113111600Y-79858394D01*
X115210000Y-79858394D01*
X115210000Y-80301606D01*
X115296466Y-80736301D01*
X115466076Y-81145775D01*
X115712311Y-81514292D01*
X116025708Y-81827689D01*
X116394225Y-82073924D01*
X116803699Y-82243534D01*
X117238394Y-82330000D01*
X117681606Y-82330000D01*
X118116301Y-82243534D01*
X118525775Y-82073924D01*
X118894292Y-81827689D01*
X119207689Y-81514292D01*
X119453924Y-81145775D01*
X119623534Y-80736301D01*
X119710000Y-80301606D01*
X119710000Y-79858394D01*
X135210000Y-79858394D01*
X135210000Y-80301606D01*
X135296466Y-80736301D01*
X135466076Y-81145775D01*
X135712311Y-81514292D01*
X136025708Y-81827689D01*
X136394225Y-82073924D01*
X136803699Y-82243534D01*
X137238394Y-82330000D01*
X137681606Y-82330000D01*
X138116301Y-82243534D01*
X138525775Y-82073924D01*
X138894292Y-81827689D01*
X139207689Y-81514292D01*
X139453924Y-81145775D01*
X139623534Y-80736301D01*
X139710000Y-80301606D01*
X139710000Y-79858394D01*
X139623534Y-79423699D01*
X139453924Y-79014225D01*
X139207689Y-78645708D01*
X138894292Y-78332311D01*
X138525775Y-78086076D01*
X138116301Y-77916466D01*
X137681606Y-77830000D01*
X137238394Y-77830000D01*
X136803699Y-77916466D01*
X136394225Y-78086076D01*
X136025708Y-78332311D01*
X135712311Y-78645708D01*
X135466076Y-79014225D01*
X135296466Y-79423699D01*
X135210000Y-79858394D01*
X119710000Y-79858394D01*
X119623534Y-79423699D01*
X119453924Y-79014225D01*
X119207689Y-78645708D01*
X118894292Y-78332311D01*
X118525775Y-78086076D01*
X118116301Y-77916466D01*
X117681606Y-77830000D01*
X117238394Y-77830000D01*
X116803699Y-77916466D01*
X116394225Y-78086076D01*
X116025708Y-78332311D01*
X115712311Y-78645708D01*
X115466076Y-79014225D01*
X115296466Y-79423699D01*
X115210000Y-79858394D01*
X113111600Y-79858394D01*
X113111600Y-74839951D01*
X113295000Y-74839951D01*
X113295000Y-75160049D01*
X113357448Y-75473995D01*
X113479943Y-75769726D01*
X113657780Y-76035877D01*
X113884123Y-76262220D01*
X114150274Y-76440057D01*
X114446005Y-76562552D01*
X114759951Y-76625000D01*
X115080049Y-76625000D01*
X115393995Y-76562552D01*
X115689726Y-76440057D01*
X115955877Y-76262220D01*
X116182220Y-76035877D01*
X116360057Y-75769726D01*
X116482552Y-75473995D01*
X116545000Y-75160049D01*
X116545000Y-74839951D01*
X116522961Y-74729149D01*
X117250000Y-74729149D01*
X117250000Y-75270851D01*
X117355681Y-75802145D01*
X117562982Y-76302613D01*
X117863936Y-76753023D01*
X118246977Y-77136064D01*
X118697387Y-77437018D01*
X119197855Y-77644319D01*
X119729149Y-77750000D01*
X120270851Y-77750000D01*
X120802145Y-77644319D01*
X121302613Y-77437018D01*
X121572240Y-77256859D01*
X121560000Y-77318394D01*
X121560000Y-77761606D01*
X121646466Y-78196301D01*
X121816076Y-78605775D01*
X122062311Y-78974292D01*
X122375708Y-79287689D01*
X122744225Y-79533924D01*
X123153699Y-79703534D01*
X123588394Y-79790000D01*
X124031606Y-79790000D01*
X124466301Y-79703534D01*
X124875775Y-79533924D01*
X125244292Y-79287689D01*
X125557689Y-78974292D01*
X125803924Y-78605775D01*
X125973534Y-78196301D01*
X126060000Y-77761606D01*
X126060000Y-77318394D01*
X125973534Y-76883699D01*
X125803924Y-76474225D01*
X125795971Y-76462323D01*
X125849726Y-76440057D01*
X126115877Y-76262220D01*
X126342220Y-76035877D01*
X126520057Y-75769726D01*
X126642552Y-75473995D01*
X126705000Y-75160049D01*
X126705000Y-74839951D01*
X133295000Y-74839951D01*
X133295000Y-75160049D01*
X133357448Y-75473995D01*
X133479943Y-75769726D01*
X133657780Y-76035877D01*
X133884123Y-76262220D01*
X134150274Y-76440057D01*
X134446005Y-76562552D01*
X134759951Y-76625000D01*
X135080049Y-76625000D01*
X135393995Y-76562552D01*
X135689726Y-76440057D01*
X135955877Y-76262220D01*
X136182220Y-76035877D01*
X136360057Y-75769726D01*
X136482552Y-75473995D01*
X136545000Y-75160049D01*
X136545000Y-74839951D01*
X136482552Y-74526005D01*
X136360057Y-74230274D01*
X136182220Y-73964123D01*
X135955877Y-73737780D01*
X135689726Y-73559943D01*
X135393995Y-73437448D01*
X135080049Y-73375000D01*
X134759951Y-73375000D01*
X134446005Y-73437448D01*
X134150274Y-73559943D01*
X133884123Y-73737780D01*
X133657780Y-73964123D01*
X133479943Y-74230274D01*
X133357448Y-74526005D01*
X133295000Y-74839951D01*
X126705000Y-74839951D01*
X126642552Y-74526005D01*
X126520057Y-74230274D01*
X126342220Y-73964123D01*
X126115877Y-73737780D01*
X125849726Y-73559943D01*
X125553995Y-73437448D01*
X125240049Y-73375000D01*
X124919951Y-73375000D01*
X124606005Y-73437448D01*
X124310274Y-73559943D01*
X124044123Y-73737780D01*
X123817780Y-73964123D01*
X123639943Y-74230274D01*
X123517448Y-74526005D01*
X123455000Y-74839951D01*
X123455000Y-75160049D01*
X123484942Y-75310578D01*
X123153699Y-75376466D01*
X122744225Y-75546076D01*
X122687748Y-75583813D01*
X122750000Y-75270851D01*
X122750000Y-74729149D01*
X122644319Y-74197855D01*
X122437018Y-73697387D01*
X122136064Y-73246977D01*
X121753023Y-72863936D01*
X121302613Y-72562982D01*
X120802145Y-72355681D01*
X120270851Y-72250000D01*
X119729149Y-72250000D01*
X119197855Y-72355681D01*
X118697387Y-72562982D01*
X118246977Y-72863936D01*
X117863936Y-73246977D01*
X117562982Y-73697387D01*
X117355681Y-74197855D01*
X117250000Y-74729149D01*
X116522961Y-74729149D01*
X116482552Y-74526005D01*
X116360057Y-74230274D01*
X116182220Y-73964123D01*
X115955877Y-73737780D01*
X115689726Y-73559943D01*
X115393995Y-73437448D01*
X115080049Y-73375000D01*
X114759951Y-73375000D01*
X114446005Y-73437448D01*
X114150274Y-73559943D01*
X113884123Y-73737780D01*
X113657780Y-73964123D01*
X113479943Y-74230274D01*
X113357448Y-74526005D01*
X113295000Y-74839951D01*
X113111600Y-74839951D01*
X113111600Y-73954195D01*
X113093513Y-73770557D01*
X113022037Y-73534931D01*
X112905966Y-73317777D01*
X112749760Y-73127440D01*
X112559422Y-72971234D01*
X112342268Y-72855163D01*
X112106642Y-72783687D01*
X111861600Y-72759552D01*
X111616557Y-72783687D01*
X111380931Y-72855163D01*
X111163777Y-72971234D01*
X110973440Y-73127440D01*
X110817234Y-73317778D01*
X110781200Y-73385193D01*
X110781200Y-68450000D01*
X117521251Y-68450000D01*
X117525001Y-68488075D01*
X117525000Y-71411934D01*
X117521251Y-71450000D01*
X117536214Y-71601926D01*
X117580530Y-71748014D01*
X117652494Y-71882650D01*
X117717241Y-71961545D01*
X117749341Y-72000659D01*
X117867350Y-72097506D01*
X118001986Y-72169470D01*
X118148074Y-72213786D01*
X118300000Y-72228749D01*
X118338065Y-72225000D01*
X121661935Y-72225000D01*
X121700000Y-72228749D01*
X121738065Y-72225000D01*
X121851926Y-72213786D01*
X121998014Y-72169470D01*
X122132650Y-72097506D01*
X122250659Y-72000659D01*
X122315922Y-71921135D01*
X123208400Y-71921135D01*
X123208400Y-72147665D01*
X123252594Y-72369843D01*
X123339284Y-72579129D01*
X123465137Y-72767482D01*
X123625318Y-72927663D01*
X123813671Y-73053516D01*
X124022957Y-73140206D01*
X124245135Y-73184400D01*
X124471665Y-73184400D01*
X124693843Y-73140206D01*
X124903129Y-73053516D01*
X125091482Y-72927663D01*
X125251663Y-72767482D01*
X125377516Y-72579129D01*
X125464206Y-72369843D01*
X125508400Y-72147665D01*
X125508400Y-71921135D01*
X125464206Y-71698957D01*
X125377516Y-71489671D01*
X125251663Y-71301318D01*
X125091482Y-71141137D01*
X124903129Y-71015284D01*
X124693843Y-70928594D01*
X124471665Y-70884400D01*
X124245135Y-70884400D01*
X124022957Y-70928594D01*
X123813671Y-71015284D01*
X123625318Y-71141137D01*
X123465137Y-71301318D01*
X123339284Y-71489671D01*
X123252594Y-71698957D01*
X123208400Y-71921135D01*
X122315922Y-71921135D01*
X122347506Y-71882650D01*
X122419470Y-71748014D01*
X122463786Y-71601926D01*
X122478749Y-71450000D01*
X122475000Y-71411935D01*
X122475000Y-68488065D01*
X122478749Y-68450000D01*
X122463786Y-68298074D01*
X122419470Y-68151986D01*
X122347506Y-68017350D01*
X122250659Y-67899341D01*
X122132650Y-67802494D01*
X121998014Y-67730530D01*
X121851926Y-67686214D01*
X121738065Y-67675000D01*
X121700000Y-67671251D01*
X121661935Y-67675000D01*
X118338065Y-67675000D01*
X118300000Y-67671251D01*
X118261935Y-67675000D01*
X118148074Y-67686214D01*
X118001986Y-67730530D01*
X117867350Y-67802494D01*
X117749341Y-67899341D01*
X117652494Y-68017350D01*
X117580530Y-68151986D01*
X117536214Y-68298074D01*
X117521251Y-68450000D01*
X110781200Y-68450000D01*
X110781200Y-68187945D01*
X110824463Y-68144682D01*
X110950316Y-67956329D01*
X111037006Y-67747043D01*
X111081200Y-67524865D01*
X111081200Y-67298335D01*
X111037006Y-67076157D01*
X110950316Y-66866871D01*
X110824463Y-66678518D01*
X110664282Y-66518337D01*
X110475929Y-66392484D01*
X110266643Y-66305794D01*
X110044465Y-66261600D01*
X109817935Y-66261600D01*
X109595757Y-66305794D01*
X109386471Y-66392484D01*
X109198118Y-66518337D01*
X109037937Y-66678518D01*
X108912084Y-66866871D01*
X108825394Y-67076157D01*
X108781200Y-67298335D01*
X108781200Y-67524865D01*
X108825394Y-67747043D01*
X108912084Y-67956329D01*
X109037937Y-68144682D01*
X109081200Y-68187945D01*
X109081201Y-78387917D01*
X102824019Y-84645101D01*
X98179877Y-84645101D01*
X98235406Y-84511043D01*
X98279600Y-84288865D01*
X98279600Y-84062335D01*
X98235406Y-83840157D01*
X98148716Y-83630871D01*
X98022863Y-83442518D01*
X97862682Y-83282337D01*
X97674329Y-83156484D01*
X97465043Y-83069794D01*
X97242865Y-83025600D01*
X97016335Y-83025600D01*
X96794157Y-83069794D01*
X96584871Y-83156484D01*
X96396518Y-83282337D01*
X96236337Y-83442518D01*
X96110484Y-83630871D01*
X96023794Y-83840157D01*
X95979600Y-84062335D01*
X95979600Y-84288865D01*
X95997803Y-84380376D01*
X95820465Y-84345101D01*
X95593935Y-84345101D01*
X95371757Y-84389295D01*
X95162471Y-84475985D01*
X94974118Y-84601838D01*
X94813937Y-84762019D01*
X94688084Y-84950372D01*
X94601394Y-85159658D01*
X94557200Y-85381836D01*
X84984244Y-85381836D01*
X90507686Y-79858394D01*
X95210000Y-79858394D01*
X95210000Y-80301606D01*
X95296466Y-80736301D01*
X95466076Y-81145775D01*
X95712311Y-81514292D01*
X96025708Y-81827689D01*
X96394225Y-82073924D01*
X96803699Y-82243534D01*
X97238394Y-82330000D01*
X97681606Y-82330000D01*
X98116301Y-82243534D01*
X98525775Y-82073924D01*
X98894292Y-81827689D01*
X99207689Y-81514292D01*
X99453924Y-81145775D01*
X99623534Y-80736301D01*
X99710000Y-80301606D01*
X99710000Y-79858394D01*
X99623534Y-79423699D01*
X99453924Y-79014225D01*
X99207689Y-78645708D01*
X98894292Y-78332311D01*
X98525775Y-78086076D01*
X98116301Y-77916466D01*
X97681606Y-77830000D01*
X97238394Y-77830000D01*
X96803699Y-77916466D01*
X96394225Y-78086076D01*
X96025708Y-78332311D01*
X95712311Y-78645708D01*
X95466076Y-79014225D01*
X95296466Y-79423699D01*
X95210000Y-79858394D01*
X90507686Y-79858394D01*
X90589121Y-79776960D01*
X90621548Y-79750348D01*
X90727768Y-79620919D01*
X90806697Y-79473255D01*
X90821729Y-79423699D01*
X90855300Y-79313030D01*
X90859765Y-79267695D01*
X90867600Y-79188149D01*
X90867600Y-79188142D01*
X90871711Y-79146401D01*
X90867600Y-79104660D01*
X90867600Y-74839951D01*
X93295000Y-74839951D01*
X93295000Y-75160049D01*
X93357448Y-75473995D01*
X93479943Y-75769726D01*
X93657780Y-76035877D01*
X93884123Y-76262220D01*
X94150274Y-76440057D01*
X94446005Y-76562552D01*
X94759951Y-76625000D01*
X95080049Y-76625000D01*
X95393995Y-76562552D01*
X95689726Y-76440057D01*
X95955877Y-76262220D01*
X96182220Y-76035877D01*
X96360057Y-75769726D01*
X96482552Y-75473995D01*
X96545000Y-75160049D01*
X96545000Y-74839951D01*
X96522961Y-74729149D01*
X97250000Y-74729149D01*
X97250000Y-75270851D01*
X97355681Y-75802145D01*
X97562982Y-76302613D01*
X97863936Y-76753023D01*
X98246977Y-77136064D01*
X98697387Y-77437018D01*
X99197855Y-77644319D01*
X99729149Y-77750000D01*
X100270851Y-77750000D01*
X100802145Y-77644319D01*
X101302613Y-77437018D01*
X101572240Y-77256859D01*
X101560000Y-77318394D01*
X101560000Y-77761606D01*
X101646466Y-78196301D01*
X101816076Y-78605775D01*
X102062311Y-78974292D01*
X102375708Y-79287689D01*
X102744225Y-79533924D01*
X103153699Y-79703534D01*
X103588394Y-79790000D01*
X104031606Y-79790000D01*
X104466301Y-79703534D01*
X104875775Y-79533924D01*
X105244292Y-79287689D01*
X105557689Y-78974292D01*
X105803924Y-78605775D01*
X105973534Y-78196301D01*
X106060000Y-77761606D01*
X106060000Y-77318394D01*
X105973534Y-76883699D01*
X105803924Y-76474225D01*
X105795971Y-76462323D01*
X105849726Y-76440057D01*
X106115877Y-76262220D01*
X106342220Y-76035877D01*
X106520057Y-75769726D01*
X106642552Y-75473995D01*
X106705000Y-75160049D01*
X106705000Y-74839951D01*
X106642552Y-74526005D01*
X106520057Y-74230274D01*
X106342220Y-73964123D01*
X106115877Y-73737780D01*
X105849726Y-73559943D01*
X105553995Y-73437448D01*
X105240049Y-73375000D01*
X104919951Y-73375000D01*
X104606005Y-73437448D01*
X104310274Y-73559943D01*
X104044123Y-73737780D01*
X103817780Y-73964123D01*
X103639943Y-74230274D01*
X103517448Y-74526005D01*
X103455000Y-74839951D01*
X103455000Y-75160049D01*
X103484942Y-75310578D01*
X103153699Y-75376466D01*
X102744225Y-75546076D01*
X102687748Y-75583813D01*
X102750000Y-75270851D01*
X102750000Y-74729149D01*
X102644319Y-74197855D01*
X102437018Y-73697387D01*
X102136064Y-73246977D01*
X101753023Y-72863936D01*
X101302613Y-72562982D01*
X100802145Y-72355681D01*
X100270851Y-72250000D01*
X99729149Y-72250000D01*
X99197855Y-72355681D01*
X98697387Y-72562982D01*
X98246977Y-72863936D01*
X97863936Y-73246977D01*
X97562982Y-73697387D01*
X97355681Y-74197855D01*
X97250000Y-74729149D01*
X96522961Y-74729149D01*
X96482552Y-74526005D01*
X96360057Y-74230274D01*
X96182220Y-73964123D01*
X95955877Y-73737780D01*
X95689726Y-73559943D01*
X95393995Y-73437448D01*
X95080049Y-73375000D01*
X94759951Y-73375000D01*
X94446005Y-73437448D01*
X94150274Y-73559943D01*
X93884123Y-73737780D01*
X93657780Y-73964123D01*
X93479943Y-74230274D01*
X93357448Y-74526005D01*
X93295000Y-74839951D01*
X90867600Y-74839951D01*
X90867600Y-68543545D01*
X90910863Y-68500282D01*
X90944460Y-68450000D01*
X97521251Y-68450000D01*
X97525001Y-68488075D01*
X97525000Y-71411934D01*
X97521251Y-71450000D01*
X97536214Y-71601926D01*
X97580530Y-71748014D01*
X97652494Y-71882650D01*
X97717241Y-71961545D01*
X97749341Y-72000659D01*
X97867350Y-72097506D01*
X98001986Y-72169470D01*
X98148074Y-72213786D01*
X98300000Y-72228749D01*
X98338065Y-72225000D01*
X101661935Y-72225000D01*
X101700000Y-72228749D01*
X101738065Y-72225000D01*
X101851926Y-72213786D01*
X101998014Y-72169470D01*
X102132650Y-72097506D01*
X102250659Y-72000659D01*
X102347506Y-71882650D01*
X102419470Y-71748014D01*
X102428594Y-71717935D01*
X103193200Y-71717935D01*
X103193200Y-71944465D01*
X103237394Y-72166643D01*
X103324084Y-72375929D01*
X103449937Y-72564282D01*
X103610118Y-72724463D01*
X103798471Y-72850316D01*
X104007757Y-72937006D01*
X104229935Y-72981200D01*
X104456465Y-72981200D01*
X104678643Y-72937006D01*
X104887929Y-72850316D01*
X105076282Y-72724463D01*
X105236463Y-72564282D01*
X105362316Y-72375929D01*
X105449006Y-72166643D01*
X105493200Y-71944465D01*
X105493200Y-71717935D01*
X105449006Y-71495757D01*
X105362316Y-71286471D01*
X105236463Y-71098118D01*
X105076282Y-70937937D01*
X104887929Y-70812084D01*
X104678643Y-70725394D01*
X104456465Y-70681200D01*
X104229935Y-70681200D01*
X104007757Y-70725394D01*
X103798471Y-70812084D01*
X103610118Y-70937937D01*
X103449937Y-71098118D01*
X103324084Y-71286471D01*
X103237394Y-71495757D01*
X103193200Y-71717935D01*
X102428594Y-71717935D01*
X102463786Y-71601926D01*
X102478749Y-71450000D01*
X102475000Y-71411935D01*
X102475000Y-68488065D01*
X102478749Y-68450000D01*
X102463786Y-68298074D01*
X102419470Y-68151986D01*
X102347506Y-68017350D01*
X102250659Y-67899341D01*
X102132650Y-67802494D01*
X101998014Y-67730530D01*
X101851926Y-67686214D01*
X101738065Y-67675000D01*
X101700000Y-67671251D01*
X101661935Y-67675000D01*
X98338065Y-67675000D01*
X98300000Y-67671251D01*
X98261935Y-67675000D01*
X98148074Y-67686214D01*
X98001986Y-67730530D01*
X97867350Y-67802494D01*
X97749341Y-67899341D01*
X97652494Y-68017350D01*
X97580530Y-68151986D01*
X97536214Y-68298074D01*
X97521251Y-68450000D01*
X90944460Y-68450000D01*
X91036716Y-68311929D01*
X91123406Y-68102643D01*
X91167600Y-67880465D01*
X91167600Y-67653935D01*
X91123406Y-67431757D01*
X91036716Y-67222471D01*
X90910863Y-67034118D01*
X90750682Y-66873937D01*
X90562329Y-66748084D01*
X90353043Y-66661394D01*
X90130865Y-66617200D01*
X89904335Y-66617200D01*
X89682157Y-66661394D01*
X89472871Y-66748084D01*
X89284518Y-66873937D01*
X89124337Y-67034118D01*
X88998484Y-67222471D01*
X88911794Y-67431757D01*
X88867600Y-67653935D01*
X88867600Y-67880465D01*
X88911794Y-68102643D01*
X88998484Y-68311929D01*
X89124337Y-68500282D01*
X89167601Y-68543546D01*
X89167600Y-78794319D01*
X83163120Y-84798800D01*
X76244938Y-84798800D01*
X76203197Y-84794689D01*
X76161456Y-84798800D01*
X76161449Y-84798800D01*
X76052211Y-84809559D01*
X76036568Y-84811100D01*
X75901826Y-84851973D01*
X75876343Y-84859703D01*
X75728679Y-84938632D01*
X75599250Y-85044852D01*
X75572637Y-85077280D01*
X72020800Y-88629118D01*
X72020800Y-80960915D01*
X72107082Y-80903263D01*
X72267263Y-80743082D01*
X72393116Y-80554729D01*
X72479806Y-80345443D01*
X72524000Y-80123265D01*
X72524000Y-79896735D01*
X72479806Y-79674557D01*
X72393116Y-79465271D01*
X72267263Y-79276918D01*
X72107082Y-79116737D01*
X71918729Y-78990884D01*
X71709443Y-78904194D01*
X71487265Y-78860000D01*
X71260735Y-78860000D01*
X71038557Y-78904194D01*
X70829271Y-78990884D01*
X70640918Y-79116737D01*
X70480737Y-79276918D01*
X70354884Y-79465271D01*
X70268194Y-79674557D01*
X70224000Y-79896735D01*
X70224000Y-80123265D01*
X70268194Y-80345443D01*
X70320801Y-80472446D01*
X70320801Y-80853520D01*
X69108966Y-79641686D01*
X69082348Y-79609252D01*
X68952919Y-79503032D01*
X68805255Y-79424103D01*
X68645029Y-79375500D01*
X68520149Y-79363200D01*
X68520141Y-79363200D01*
X68478400Y-79359089D01*
X68436659Y-79363200D01*
X67222745Y-79363200D01*
X67179482Y-79319937D01*
X66991129Y-79194084D01*
X66781843Y-79107394D01*
X66559665Y-79063200D01*
X66333135Y-79063200D01*
X66110957Y-79107394D01*
X65901671Y-79194084D01*
X65713318Y-79319937D01*
X65553137Y-79480118D01*
X65427284Y-79668471D01*
X65340594Y-79877757D01*
X65296400Y-80099935D01*
X65296400Y-80326465D01*
X65340594Y-80548643D01*
X65427284Y-80757929D01*
X65553137Y-80946282D01*
X65713318Y-81106463D01*
X65901671Y-81232316D01*
X66110957Y-81319006D01*
X66333135Y-81363200D01*
X66559665Y-81363200D01*
X66781843Y-81319006D01*
X66991129Y-81232316D01*
X67179482Y-81106463D01*
X67222745Y-81063200D01*
X68126320Y-81063200D01*
X69508001Y-82444882D01*
X69508001Y-84869224D01*
X69372547Y-84896167D01*
X69163261Y-84982857D01*
X68974908Y-85108710D01*
X68814727Y-85268891D01*
X68688874Y-85457244D01*
X68602184Y-85666530D01*
X68557990Y-85888708D01*
X68557990Y-86115238D01*
X68602184Y-86337416D01*
X68688874Y-86546702D01*
X68814727Y-86735055D01*
X68974908Y-86895236D01*
X69163261Y-87021089D01*
X69372547Y-87107779D01*
X69508001Y-87134722D01*
X69508000Y-96113655D01*
X69464737Y-96156918D01*
X69338884Y-96345271D01*
X69252194Y-96554557D01*
X69208000Y-96776735D01*
X69208000Y-97003265D01*
X69252194Y-97225443D01*
X69338884Y-97434729D01*
X69464737Y-97623082D01*
X69624918Y-97783263D01*
X69813271Y-97909116D01*
X70022557Y-97995806D01*
X70244735Y-98040000D01*
X70471265Y-98040000D01*
X70693443Y-97995806D01*
X70902729Y-97909116D01*
X70972774Y-97862313D01*
X70847686Y-98049522D01*
X70760996Y-98258808D01*
X70716802Y-98480986D01*
X70716802Y-98707516D01*
X70760996Y-98929694D01*
X70847686Y-99138980D01*
X70973539Y-99327333D01*
X71133720Y-99487514D01*
X71322073Y-99613367D01*
X71443989Y-99663867D01*
X71443990Y-113180328D01*
X56065227Y-128559093D01*
X56005201Y-128469259D01*
X55782341Y-128246399D01*
X55738650Y-128217206D01*
X55856846Y-128127271D01*
X56065647Y-127891119D01*
X56224365Y-127618769D01*
X56326900Y-127320688D01*
X56349972Y-127204697D01*
X56180894Y-126953200D01*
X54766400Y-126953200D01*
X54766400Y-126973200D01*
X54758400Y-126973200D01*
X54758400Y-126953200D01*
X53343906Y-126953200D01*
X53174828Y-127204697D01*
X53197900Y-127320688D01*
X53300435Y-127618769D01*
X53459153Y-127891119D01*
X53667954Y-128127271D01*
X53786150Y-128217206D01*
X53742459Y-128246399D01*
X53519599Y-128469259D01*
X53344498Y-128731316D01*
X53223887Y-129022497D01*
X53162400Y-129331614D01*
X53162400Y-129646786D01*
X53223887Y-129955903D01*
X53344498Y-130247084D01*
X53519599Y-130509141D01*
X53538889Y-130528431D01*
X53493707Y-130552581D01*
X53379505Y-130646305D01*
X53285781Y-130760507D01*
X53216139Y-130890799D01*
X53173253Y-131032174D01*
X53158772Y-131179200D01*
X50825000Y-131179200D01*
X50825000Y-126693703D01*
X53174828Y-126693703D01*
X53343906Y-126945200D01*
X54758400Y-126945200D01*
X54758400Y-125530705D01*
X54766400Y-125530705D01*
X54766400Y-126945200D01*
X56180894Y-126945200D01*
X56349972Y-126693703D01*
X56326900Y-126577712D01*
X56224365Y-126279631D01*
X56065647Y-126007281D01*
X55856846Y-125771129D01*
X55605986Y-125580250D01*
X55322708Y-125441978D01*
X55017897Y-125361628D01*
X54766400Y-125530705D01*
X54758400Y-125530705D01*
X54506903Y-125361628D01*
X54202092Y-125441978D01*
X53918814Y-125580250D01*
X53667954Y-125771129D01*
X53459153Y-126007281D01*
X53300435Y-126279631D01*
X53197900Y-126577712D01*
X53174828Y-126693703D01*
X50825000Y-126693703D01*
X50825000Y-119858394D01*
X55210000Y-119858394D01*
X55210000Y-120301606D01*
X55296466Y-120736301D01*
X55466076Y-121145775D01*
X55712311Y-121514292D01*
X56025708Y-121827689D01*
X56394225Y-122073924D01*
X56803699Y-122243534D01*
X57238394Y-122330000D01*
X57681606Y-122330000D01*
X58116301Y-122243534D01*
X58525775Y-122073924D01*
X58894292Y-121827689D01*
X59207689Y-121514292D01*
X59453924Y-121145775D01*
X59623534Y-120736301D01*
X59710000Y-120301606D01*
X59710000Y-119858394D01*
X59623534Y-119423699D01*
X59453924Y-119014225D01*
X59207689Y-118645708D01*
X58894292Y-118332311D01*
X58525775Y-118086076D01*
X58116301Y-117916466D01*
X57681606Y-117830000D01*
X57238394Y-117830000D01*
X56803699Y-117916466D01*
X56394225Y-118086076D01*
X56025708Y-118332311D01*
X55712311Y-118645708D01*
X55466076Y-119014225D01*
X55296466Y-119423699D01*
X55210000Y-119858394D01*
X50825000Y-119858394D01*
X50825000Y-114839951D01*
X53295000Y-114839951D01*
X53295000Y-115160049D01*
X53357448Y-115473995D01*
X53479943Y-115769726D01*
X53657780Y-116035877D01*
X53884123Y-116262220D01*
X54150274Y-116440057D01*
X54446005Y-116562552D01*
X54759951Y-116625000D01*
X55080049Y-116625000D01*
X55393995Y-116562552D01*
X55689726Y-116440057D01*
X55955877Y-116262220D01*
X56182220Y-116035877D01*
X56360057Y-115769726D01*
X56482552Y-115473995D01*
X56545000Y-115160049D01*
X56545000Y-114839951D01*
X56522961Y-114729149D01*
X57250000Y-114729149D01*
X57250000Y-115270851D01*
X57355681Y-115802145D01*
X57562982Y-116302613D01*
X57863936Y-116753023D01*
X58246977Y-117136064D01*
X58697387Y-117437018D01*
X59197855Y-117644319D01*
X59729149Y-117750000D01*
X60270851Y-117750000D01*
X60802145Y-117644319D01*
X61302613Y-117437018D01*
X61572240Y-117256859D01*
X61560000Y-117318394D01*
X61560000Y-117761606D01*
X61646466Y-118196301D01*
X61816076Y-118605775D01*
X62062311Y-118974292D01*
X62375708Y-119287689D01*
X62744225Y-119533924D01*
X63153699Y-119703534D01*
X63588394Y-119790000D01*
X64031606Y-119790000D01*
X64466301Y-119703534D01*
X64875775Y-119533924D01*
X65244292Y-119287689D01*
X65557689Y-118974292D01*
X65803924Y-118605775D01*
X65973534Y-118196301D01*
X66060000Y-117761606D01*
X66060000Y-117318394D01*
X65973534Y-116883699D01*
X65803924Y-116474225D01*
X65795971Y-116462323D01*
X65849726Y-116440057D01*
X66115877Y-116262220D01*
X66342220Y-116035877D01*
X66520057Y-115769726D01*
X66642552Y-115473995D01*
X66705000Y-115160049D01*
X66705000Y-114839951D01*
X66642552Y-114526005D01*
X66520057Y-114230274D01*
X66342220Y-113964123D01*
X66115877Y-113737780D01*
X65849726Y-113559943D01*
X65553995Y-113437448D01*
X65240049Y-113375000D01*
X64919951Y-113375000D01*
X64606005Y-113437448D01*
X64310274Y-113559943D01*
X64044123Y-113737780D01*
X63817780Y-113964123D01*
X63639943Y-114230274D01*
X63517448Y-114526005D01*
X63455000Y-114839951D01*
X63455000Y-115160049D01*
X63484942Y-115310578D01*
X63153699Y-115376466D01*
X62744225Y-115546076D01*
X62687748Y-115583813D01*
X62750000Y-115270851D01*
X62750000Y-114729149D01*
X62644319Y-114197855D01*
X62437018Y-113697387D01*
X62136064Y-113246977D01*
X61753023Y-112863936D01*
X61302613Y-112562982D01*
X60802145Y-112355681D01*
X60270851Y-112250000D01*
X59729149Y-112250000D01*
X59197855Y-112355681D01*
X58697387Y-112562982D01*
X58246977Y-112863936D01*
X57863936Y-113246977D01*
X57562982Y-113697387D01*
X57355681Y-114197855D01*
X57250000Y-114729149D01*
X56522961Y-114729149D01*
X56482552Y-114526005D01*
X56360057Y-114230274D01*
X56182220Y-113964123D01*
X55955877Y-113737780D01*
X55689726Y-113559943D01*
X55393995Y-113437448D01*
X55080049Y-113375000D01*
X54759951Y-113375000D01*
X54446005Y-113437448D01*
X54150274Y-113559943D01*
X53884123Y-113737780D01*
X53657780Y-113964123D01*
X53479943Y-114230274D01*
X53357448Y-114526005D01*
X53295000Y-114839951D01*
X50825000Y-114839951D01*
X50825000Y-108450000D01*
X57521251Y-108450000D01*
X57525001Y-108488075D01*
X57525000Y-111411934D01*
X57521251Y-111450000D01*
X57536214Y-111601926D01*
X57580530Y-111748014D01*
X57652494Y-111882650D01*
X57692923Y-111931913D01*
X57749341Y-112000659D01*
X57867350Y-112097506D01*
X58001986Y-112169470D01*
X58148074Y-112213786D01*
X58300000Y-112228749D01*
X58338065Y-112225000D01*
X61661935Y-112225000D01*
X61700000Y-112228749D01*
X61738065Y-112225000D01*
X61851926Y-112213786D01*
X61998014Y-112169470D01*
X62132650Y-112097506D01*
X62250659Y-112000659D01*
X62347506Y-111882650D01*
X62419470Y-111748014D01*
X62463786Y-111601926D01*
X62478749Y-111450000D01*
X62475000Y-111411935D01*
X62475000Y-108488065D01*
X62478749Y-108450000D01*
X62463786Y-108298074D01*
X62419470Y-108151986D01*
X62347506Y-108017350D01*
X62250659Y-107899341D01*
X62132650Y-107802494D01*
X61998014Y-107730530D01*
X61851926Y-107686214D01*
X61738065Y-107675000D01*
X61700000Y-107671251D01*
X61661935Y-107675000D01*
X58338065Y-107675000D01*
X58300000Y-107671251D01*
X58261935Y-107675000D01*
X58148074Y-107686214D01*
X58001986Y-107730530D01*
X57867350Y-107802494D01*
X57749341Y-107899341D01*
X57652494Y-108017350D01*
X57580530Y-108151986D01*
X57536214Y-108298074D01*
X57521251Y-108450000D01*
X50825000Y-108450000D01*
X50825000Y-104753772D01*
X52500000Y-104753772D01*
X52500000Y-105246228D01*
X52596074Y-105729223D01*
X52784529Y-106184194D01*
X53058124Y-106593657D01*
X53406343Y-106941876D01*
X53815806Y-107215471D01*
X54270777Y-107403926D01*
X54753772Y-107500000D01*
X55246228Y-107500000D01*
X55729223Y-107403926D01*
X56184194Y-107215471D01*
X56593657Y-106941876D01*
X56941876Y-106593657D01*
X57215471Y-106184194D01*
X57403926Y-105729223D01*
X57500000Y-105246228D01*
X57500000Y-104753772D01*
X57403926Y-104270777D01*
X57215471Y-103815806D01*
X56941876Y-103406343D01*
X56593657Y-103058124D01*
X56184194Y-102784529D01*
X55729223Y-102596074D01*
X55246228Y-102500000D01*
X54753772Y-102500000D01*
X54270777Y-102596074D01*
X53815806Y-102784529D01*
X53406343Y-103058124D01*
X53058124Y-103406343D01*
X52784529Y-103815806D01*
X52596074Y-104270777D01*
X52500000Y-104753772D01*
X50825000Y-104753772D01*
X50825000Y-99858394D01*
X55210000Y-99858394D01*
X55210000Y-100301606D01*
X55296466Y-100736301D01*
X55466076Y-101145775D01*
X55712311Y-101514292D01*
X56025708Y-101827689D01*
X56394225Y-102073924D01*
X56803699Y-102243534D01*
X57238394Y-102330000D01*
X57681606Y-102330000D01*
X58116301Y-102243534D01*
X58525775Y-102073924D01*
X58894292Y-101827689D01*
X59207689Y-101514292D01*
X59453924Y-101145775D01*
X59623534Y-100736301D01*
X59710000Y-100301606D01*
X59710000Y-99858394D01*
X59623534Y-99423699D01*
X59453924Y-99014225D01*
X59207689Y-98645708D01*
X58894292Y-98332311D01*
X58525775Y-98086076D01*
X58116301Y-97916466D01*
X57681606Y-97830000D01*
X57238394Y-97830000D01*
X56803699Y-97916466D01*
X56394225Y-98086076D01*
X56025708Y-98332311D01*
X55712311Y-98645708D01*
X55466076Y-99014225D01*
X55296466Y-99423699D01*
X55210000Y-99858394D01*
X50825000Y-99858394D01*
X50825000Y-94839951D01*
X53295000Y-94839951D01*
X53295000Y-95160049D01*
X53357448Y-95473995D01*
X53479943Y-95769726D01*
X53657780Y-96035877D01*
X53884123Y-96262220D01*
X54150274Y-96440057D01*
X54446005Y-96562552D01*
X54759951Y-96625000D01*
X55080049Y-96625000D01*
X55393995Y-96562552D01*
X55689726Y-96440057D01*
X55955877Y-96262220D01*
X56182220Y-96035877D01*
X56360057Y-95769726D01*
X56482552Y-95473995D01*
X56545000Y-95160049D01*
X56545000Y-94839951D01*
X56482552Y-94526005D01*
X56360057Y-94230274D01*
X56182220Y-93964123D01*
X55955877Y-93737780D01*
X55689726Y-93559943D01*
X55393995Y-93437448D01*
X55080049Y-93375000D01*
X54759951Y-93375000D01*
X54446005Y-93437448D01*
X54150274Y-93559943D01*
X53884123Y-93737780D01*
X53657780Y-93964123D01*
X53479943Y-94230274D01*
X53357448Y-94526005D01*
X53295000Y-94839951D01*
X50825000Y-94839951D01*
X50825000Y-89924000D01*
X51222772Y-89924000D01*
X51222772Y-90924000D01*
X51237253Y-91071026D01*
X51280139Y-91212401D01*
X51349781Y-91342693D01*
X51443505Y-91456895D01*
X51557707Y-91550619D01*
X51687999Y-91620261D01*
X51829374Y-91663147D01*
X51976400Y-91677628D01*
X52976400Y-91677628D01*
X53123426Y-91663147D01*
X53264801Y-91620261D01*
X53395093Y-91550619D01*
X53509295Y-91456895D01*
X53603019Y-91342693D01*
X53672661Y-91212401D01*
X53715547Y-91071026D01*
X53730028Y-90924000D01*
X53730028Y-90372452D01*
X55216081Y-88886400D01*
X57525001Y-88886400D01*
X57525000Y-91411934D01*
X57521251Y-91450000D01*
X57536214Y-91601926D01*
X57580530Y-91748014D01*
X57652494Y-91882650D01*
X57697128Y-91937037D01*
X57749341Y-92000659D01*
X57867350Y-92097506D01*
X58001986Y-92169470D01*
X58148074Y-92213786D01*
X58300000Y-92228749D01*
X58338065Y-92225000D01*
X61661935Y-92225000D01*
X61700000Y-92228749D01*
X61738065Y-92225000D01*
X61851926Y-92213786D01*
X61998014Y-92169470D01*
X62132650Y-92097506D01*
X62250659Y-92000659D01*
X62347506Y-91882650D01*
X62419470Y-91748014D01*
X62463786Y-91601926D01*
X62478749Y-91450000D01*
X62475000Y-91411935D01*
X62475000Y-88886400D01*
X63859120Y-88886400D01*
X65208745Y-90236026D01*
X65116642Y-90208087D01*
X64871600Y-90183952D01*
X64626557Y-90208087D01*
X64390931Y-90279563D01*
X64173777Y-90395634D01*
X63983440Y-90551840D01*
X63827234Y-90742178D01*
X63711163Y-90959332D01*
X63639687Y-91194958D01*
X63621600Y-91378596D01*
X63621600Y-92473200D01*
X63615553Y-92534598D01*
X63621600Y-92595996D01*
X63621600Y-92596003D01*
X63639687Y-92779641D01*
X63711163Y-93015267D01*
X63827235Y-93232421D01*
X63983441Y-93422758D01*
X64031138Y-93461902D01*
X64201716Y-93632480D01*
X64044123Y-93737780D01*
X63817780Y-93964123D01*
X63639943Y-94230274D01*
X63517448Y-94526005D01*
X63455000Y-94839951D01*
X63455000Y-95160049D01*
X63484942Y-95310578D01*
X63153699Y-95376466D01*
X62744225Y-95546076D01*
X62687748Y-95583813D01*
X62750000Y-95270851D01*
X62750000Y-94729149D01*
X62644319Y-94197855D01*
X62437018Y-93697387D01*
X62136064Y-93246977D01*
X61753023Y-92863936D01*
X61302613Y-92562982D01*
X60802145Y-92355681D01*
X60270851Y-92250000D01*
X59729149Y-92250000D01*
X59197855Y-92355681D01*
X58697387Y-92562982D01*
X58246977Y-92863936D01*
X57863936Y-93246977D01*
X57562982Y-93697387D01*
X57355681Y-94197855D01*
X57250000Y-94729149D01*
X57250000Y-95270851D01*
X57355681Y-95802145D01*
X57562982Y-96302613D01*
X57863936Y-96753023D01*
X58246977Y-97136064D01*
X58697387Y-97437018D01*
X59197855Y-97644319D01*
X59729149Y-97750000D01*
X60270851Y-97750000D01*
X60802145Y-97644319D01*
X61302613Y-97437018D01*
X61572240Y-97256859D01*
X61560000Y-97318394D01*
X61560000Y-97761606D01*
X61646466Y-98196301D01*
X61816076Y-98605775D01*
X62062311Y-98974292D01*
X62375708Y-99287689D01*
X62744225Y-99533924D01*
X63153699Y-99703534D01*
X63588394Y-99790000D01*
X64031606Y-99790000D01*
X64466301Y-99703534D01*
X64875775Y-99533924D01*
X65244292Y-99287689D01*
X65355001Y-99176980D01*
X65355002Y-108150831D01*
X63646297Y-109859537D01*
X63529235Y-110002178D01*
X63413163Y-110219332D01*
X63341687Y-110454958D01*
X63317553Y-110700000D01*
X63341687Y-110945042D01*
X63413163Y-111180668D01*
X63529235Y-111397822D01*
X63685440Y-111588160D01*
X63875778Y-111744365D01*
X64092932Y-111860437D01*
X64328558Y-111931913D01*
X64573600Y-111956047D01*
X64818642Y-111931913D01*
X65054268Y-111860437D01*
X65271422Y-111744365D01*
X65414063Y-111627303D01*
X67445464Y-109595903D01*
X67493161Y-109556759D01*
X67649367Y-109366422D01*
X67765438Y-109149268D01*
X67836914Y-108913642D01*
X67855001Y-108730004D01*
X67861049Y-108668599D01*
X67855001Y-108607194D01*
X67855001Y-94329396D01*
X67861048Y-94267998D01*
X67855001Y-94206600D01*
X67855001Y-94206594D01*
X67839434Y-94048537D01*
X67836914Y-94022955D01*
X67765438Y-93787330D01*
X67752829Y-93763740D01*
X67649367Y-93570176D01*
X67493161Y-93379839D01*
X67445465Y-93340696D01*
X67035792Y-92931024D01*
X67045222Y-92924723D01*
X67205403Y-92764542D01*
X67331256Y-92576189D01*
X67417946Y-92366903D01*
X67444596Y-92232926D01*
X67535255Y-92232926D01*
X67757433Y-92188732D01*
X67966719Y-92102042D01*
X68155072Y-91976189D01*
X68315253Y-91816008D01*
X68441106Y-91627655D01*
X68527796Y-91418369D01*
X68571990Y-91196191D01*
X68571990Y-90969661D01*
X68527796Y-90747483D01*
X68441106Y-90538197D01*
X68315253Y-90349844D01*
X68155072Y-90189663D01*
X68075191Y-90136288D01*
X68075191Y-89114127D01*
X68079302Y-89072386D01*
X68075191Y-89030645D01*
X68075191Y-89030638D01*
X68074785Y-89026513D01*
X68164448Y-88936850D01*
X68290301Y-88748497D01*
X68376991Y-88539211D01*
X68421185Y-88317033D01*
X68421185Y-88090503D01*
X68376991Y-87868325D01*
X68290301Y-87659039D01*
X68164448Y-87470686D01*
X68004267Y-87310505D01*
X67815914Y-87184652D01*
X67606628Y-87097962D01*
X67384450Y-87053768D01*
X67323266Y-87053768D01*
X66311983Y-86042486D01*
X66285365Y-86010052D01*
X66155936Y-85903832D01*
X66008272Y-85824903D01*
X65848046Y-85776300D01*
X65723166Y-85764000D01*
X65723158Y-85764000D01*
X65681417Y-85759889D01*
X65639676Y-85764000D01*
X53655878Y-85764000D01*
X53700570Y-85633783D01*
X53718280Y-85544744D01*
X53544893Y-85348000D01*
X52480400Y-85348000D01*
X52480400Y-85364000D01*
X52472400Y-85364000D01*
X52472400Y-85348000D01*
X51407907Y-85348000D01*
X51234520Y-85544744D01*
X51252230Y-85633783D01*
X51332286Y-85867039D01*
X51397385Y-85978921D01*
X51368665Y-86021903D01*
X51274437Y-86249389D01*
X51226400Y-86490886D01*
X51226400Y-86737114D01*
X51274437Y-86978611D01*
X51368665Y-87206097D01*
X51397332Y-87249000D01*
X51368665Y-87291903D01*
X51274437Y-87519389D01*
X51226400Y-87760886D01*
X51226400Y-88007114D01*
X51274437Y-88248611D01*
X51368665Y-88476097D01*
X51397332Y-88519000D01*
X51368665Y-88561903D01*
X51274437Y-88789389D01*
X51226400Y-89030886D01*
X51226400Y-89277114D01*
X51274437Y-89518611D01*
X51304228Y-89590532D01*
X51280139Y-89635599D01*
X51237253Y-89776974D01*
X51222772Y-89924000D01*
X50825000Y-89924000D01*
X50825000Y-83950886D01*
X51226400Y-83950886D01*
X51226400Y-84197114D01*
X51274437Y-84438611D01*
X51368665Y-84666097D01*
X51397385Y-84709079D01*
X51332286Y-84820961D01*
X51252230Y-85054217D01*
X51234520Y-85143256D01*
X51407907Y-85340000D01*
X52472400Y-85340000D01*
X52472400Y-85324000D01*
X52480400Y-85324000D01*
X52480400Y-85340000D01*
X53544893Y-85340000D01*
X53718280Y-85143256D01*
X53700570Y-85054217D01*
X53620514Y-84820961D01*
X53555415Y-84709079D01*
X53584135Y-84666097D01*
X53678363Y-84438611D01*
X53726400Y-84197114D01*
X53726400Y-83950886D01*
X53678363Y-83709389D01*
X53584135Y-83481903D01*
X53447338Y-83277172D01*
X53351400Y-83181234D01*
X53351400Y-79858394D01*
X55210000Y-79858394D01*
X55210000Y-80301606D01*
X55296466Y-80736301D01*
X55466076Y-81145775D01*
X55712311Y-81514292D01*
X56025708Y-81827689D01*
X56394225Y-82073924D01*
X56803699Y-82243534D01*
X57238394Y-82330000D01*
X57681606Y-82330000D01*
X58116301Y-82243534D01*
X58525775Y-82073924D01*
X58894292Y-81827689D01*
X59207689Y-81514292D01*
X59453924Y-81145775D01*
X59623534Y-80736301D01*
X59710000Y-80301606D01*
X59710000Y-79858394D01*
X59623534Y-79423699D01*
X59453924Y-79014225D01*
X59207689Y-78645708D01*
X58894292Y-78332311D01*
X58525775Y-78086076D01*
X58116301Y-77916466D01*
X57681606Y-77830000D01*
X57238394Y-77830000D01*
X56803699Y-77916466D01*
X56394225Y-78086076D01*
X56025708Y-78332311D01*
X55712311Y-78645708D01*
X55466076Y-79014225D01*
X55296466Y-79423699D01*
X55210000Y-79858394D01*
X53351400Y-79858394D01*
X53351400Y-75443590D01*
X53357448Y-75473995D01*
X53479943Y-75769726D01*
X53657780Y-76035877D01*
X53884123Y-76262220D01*
X54150274Y-76440057D01*
X54446005Y-76562552D01*
X54759951Y-76625000D01*
X55080049Y-76625000D01*
X55393995Y-76562552D01*
X55689726Y-76440057D01*
X55955877Y-76262220D01*
X56182220Y-76035877D01*
X56360057Y-75769726D01*
X56482552Y-75473995D01*
X56545000Y-75160049D01*
X56545000Y-74839951D01*
X56482552Y-74526005D01*
X56360057Y-74230274D01*
X56182220Y-73964123D01*
X55955877Y-73737780D01*
X55689726Y-73559943D01*
X55393995Y-73437448D01*
X55080049Y-73375000D01*
X54759951Y-73375000D01*
X54446005Y-73437448D01*
X54150274Y-73559943D01*
X53884123Y-73737780D01*
X53657780Y-73964123D01*
X53479943Y-74230274D01*
X53357448Y-74526005D01*
X53351400Y-74556410D01*
X53351400Y-73616036D01*
X54159636Y-72807800D01*
X58330991Y-72807800D01*
X58246977Y-72863936D01*
X57863936Y-73246977D01*
X57562982Y-73697387D01*
X57355681Y-74197855D01*
X57250000Y-74729149D01*
X57250000Y-75270851D01*
X57355681Y-75802145D01*
X57562982Y-76302613D01*
X57863936Y-76753023D01*
X58246977Y-77136064D01*
X58697387Y-77437018D01*
X59197855Y-77644319D01*
X59729149Y-77750000D01*
X60270851Y-77750000D01*
X60802145Y-77644319D01*
X61302613Y-77437018D01*
X61572240Y-77256859D01*
X61560000Y-77318394D01*
X61560000Y-77761606D01*
X61646466Y-78196301D01*
X61816076Y-78605775D01*
X62062311Y-78974292D01*
X62375708Y-79287689D01*
X62744225Y-79533924D01*
X63153699Y-79703534D01*
X63588394Y-79790000D01*
X64031606Y-79790000D01*
X64466301Y-79703534D01*
X64875775Y-79533924D01*
X65244292Y-79287689D01*
X65557689Y-78974292D01*
X65803924Y-78605775D01*
X65973534Y-78196301D01*
X66060000Y-77761606D01*
X66060000Y-77318394D01*
X65973534Y-76883699D01*
X65803924Y-76474225D01*
X65795971Y-76462323D01*
X65849726Y-76440057D01*
X66115877Y-76262220D01*
X66342220Y-76035877D01*
X66520057Y-75769726D01*
X66642552Y-75473995D01*
X66705000Y-75160049D01*
X66705000Y-74839951D01*
X66642552Y-74526005D01*
X66520057Y-74230274D01*
X66342220Y-73964123D01*
X66115877Y-73737780D01*
X65883932Y-73582799D01*
X74126068Y-73582799D01*
X73894123Y-73737780D01*
X73667780Y-73964123D01*
X73489943Y-74230274D01*
X73367448Y-74526005D01*
X73305000Y-74839951D01*
X73305000Y-75160049D01*
X73367448Y-75473995D01*
X73489943Y-75769726D01*
X73667780Y-76035877D01*
X73894123Y-76262220D01*
X74160274Y-76440057D01*
X74456005Y-76562552D01*
X74769951Y-76625000D01*
X75090049Y-76625000D01*
X75403995Y-76562552D01*
X75699726Y-76440057D01*
X75965877Y-76262220D01*
X76192220Y-76035877D01*
X76370057Y-75769726D01*
X76492552Y-75473995D01*
X76555000Y-75160049D01*
X76555000Y-74839951D01*
X76492552Y-74526005D01*
X76370057Y-74230274D01*
X76192220Y-73964123D01*
X75965877Y-73737780D01*
X75733932Y-73582799D01*
X77649547Y-73582799D01*
X77572982Y-73697387D01*
X77365681Y-74197855D01*
X77260000Y-74729149D01*
X77260000Y-75270851D01*
X77365681Y-75802145D01*
X77572982Y-76302613D01*
X77873936Y-76753023D01*
X78256977Y-77136064D01*
X78707387Y-77437018D01*
X79207855Y-77644319D01*
X79739149Y-77750000D01*
X80280851Y-77750000D01*
X80812145Y-77644319D01*
X81312613Y-77437018D01*
X81582240Y-77256859D01*
X81570000Y-77318394D01*
X81570000Y-77761606D01*
X81656466Y-78196301D01*
X81826076Y-78605775D01*
X82072311Y-78974292D01*
X82385708Y-79287689D01*
X82754225Y-79533924D01*
X83163699Y-79703534D01*
X83598394Y-79790000D01*
X83948634Y-79790000D01*
X82623941Y-81114693D01*
X82623936Y-81114697D01*
X81981434Y-81757200D01*
X78974781Y-81757200D01*
X79217689Y-81514292D01*
X79463924Y-81145775D01*
X79633534Y-80736301D01*
X79720000Y-80301606D01*
X79720000Y-79858394D01*
X79633534Y-79423699D01*
X79463924Y-79014225D01*
X79217689Y-78645708D01*
X78904292Y-78332311D01*
X78535775Y-78086076D01*
X78126301Y-77916466D01*
X77691606Y-77830000D01*
X77248394Y-77830000D01*
X76813699Y-77916466D01*
X76404225Y-78086076D01*
X76035708Y-78332311D01*
X75722311Y-78645708D01*
X75476076Y-79014225D01*
X75306466Y-79423699D01*
X75220000Y-79858394D01*
X75220000Y-80301606D01*
X75306466Y-80736301D01*
X75476076Y-81145775D01*
X75722311Y-81514292D01*
X76035708Y-81827689D01*
X76392423Y-82066038D01*
X76327840Y-82119040D01*
X76171634Y-82309377D01*
X76055563Y-82526531D01*
X75984087Y-82762157D01*
X75959952Y-83007200D01*
X75984087Y-83252243D01*
X76055563Y-83487869D01*
X76171634Y-83705023D01*
X76327840Y-83895360D01*
X76518177Y-84051566D01*
X76735331Y-84167637D01*
X76970957Y-84239113D01*
X77154595Y-84257200D01*
X82437802Y-84257200D01*
X82499200Y-84263247D01*
X82560598Y-84257200D01*
X82560605Y-84257200D01*
X82744243Y-84239113D01*
X82979869Y-84167637D01*
X83197023Y-84051566D01*
X83387360Y-83895360D01*
X83426508Y-83847658D01*
X84391703Y-82882464D01*
X84391707Y-82882459D01*
X87455465Y-79818702D01*
X87503161Y-79779559D01*
X87659367Y-79589222D01*
X87775438Y-79372068D01*
X87846914Y-79136442D01*
X87854128Y-79063200D01*
X87871049Y-78891399D01*
X87865001Y-78829994D01*
X87865001Y-73976398D01*
X87871048Y-73915000D01*
X87865001Y-73853602D01*
X87865001Y-73853596D01*
X87846914Y-73669958D01*
X87775438Y-73434332D01*
X87659367Y-73217178D01*
X87503161Y-73026841D01*
X87455464Y-72987697D01*
X84950506Y-70482740D01*
X84911360Y-70435040D01*
X84721022Y-70278835D01*
X84503868Y-70162763D01*
X84268243Y-70091287D01*
X84023200Y-70067152D01*
X83778157Y-70091287D01*
X83542531Y-70162763D01*
X83325377Y-70278835D01*
X83212178Y-70371735D01*
X83135040Y-70435040D01*
X83095898Y-70482735D01*
X82495835Y-71082799D01*
X82485000Y-71082799D01*
X82485000Y-68488065D01*
X82488749Y-68450000D01*
X82473786Y-68298074D01*
X82429470Y-68151986D01*
X82357506Y-68017350D01*
X82260659Y-67899341D01*
X82142650Y-67802494D01*
X82008014Y-67730530D01*
X81861926Y-67686214D01*
X81748065Y-67675000D01*
X81710000Y-67671251D01*
X81671935Y-67675000D01*
X78348065Y-67675000D01*
X78310000Y-67671251D01*
X78271935Y-67675000D01*
X78158074Y-67686214D01*
X78011986Y-67730530D01*
X77877350Y-67802494D01*
X77759341Y-67899341D01*
X77662494Y-68017350D01*
X77590530Y-68151986D01*
X77546214Y-68298074D01*
X77531251Y-68450000D01*
X77535001Y-68488075D01*
X77535000Y-71082799D01*
X76040656Y-71082799D01*
X76076116Y-71029729D01*
X76162806Y-70820443D01*
X76207000Y-70598265D01*
X76207000Y-70371735D01*
X76162806Y-70149557D01*
X76076116Y-69940271D01*
X75950263Y-69751918D01*
X75790082Y-69591737D01*
X75601729Y-69465884D01*
X75392443Y-69379194D01*
X75170265Y-69335000D01*
X74943735Y-69335000D01*
X74721557Y-69379194D01*
X74512271Y-69465884D01*
X74323918Y-69591737D01*
X74163737Y-69751918D01*
X74037884Y-69940271D01*
X73951194Y-70149557D01*
X73907000Y-70371735D01*
X73907000Y-70397564D01*
X73856364Y-70448200D01*
X66224637Y-70448200D01*
X65793000Y-70016564D01*
X65793000Y-69990735D01*
X65748806Y-69768557D01*
X65662116Y-69559271D01*
X65536263Y-69370918D01*
X65376082Y-69210737D01*
X65187729Y-69084884D01*
X64978443Y-68998194D01*
X64756265Y-68954000D01*
X64529735Y-68954000D01*
X64307557Y-68998194D01*
X64098271Y-69084884D01*
X63909918Y-69210737D01*
X63749737Y-69370918D01*
X63623884Y-69559271D01*
X63537194Y-69768557D01*
X63493000Y-69990735D01*
X63493000Y-70217265D01*
X63537194Y-70439443D01*
X63623884Y-70648729D01*
X63749737Y-70837082D01*
X63789347Y-70876692D01*
X63767378Y-70888435D01*
X63577040Y-71044640D01*
X63566240Y-71057800D01*
X62475000Y-71057800D01*
X62475000Y-68488065D01*
X62478749Y-68450000D01*
X62463786Y-68298074D01*
X62419470Y-68151986D01*
X62347506Y-68017350D01*
X62250659Y-67899341D01*
X62132650Y-67802494D01*
X61998014Y-67730530D01*
X61851926Y-67686214D01*
X61738065Y-67675000D01*
X61700000Y-67671251D01*
X61661935Y-67675000D01*
X58338065Y-67675000D01*
X58300000Y-67671251D01*
X58261935Y-67675000D01*
X58148074Y-67686214D01*
X58001986Y-67730530D01*
X57867350Y-67802494D01*
X57749341Y-67899341D01*
X57652494Y-68017350D01*
X57580530Y-68151986D01*
X57536214Y-68298074D01*
X57521251Y-68450000D01*
X57525001Y-68488075D01*
X57525000Y-71057800D01*
X53840178Y-71057800D01*
X53797199Y-71053567D01*
X53625669Y-71070461D01*
X53598546Y-71078689D01*
X53460732Y-71120495D01*
X53308724Y-71201744D01*
X53175488Y-71311088D01*
X53148083Y-71344481D01*
X51888081Y-72604483D01*
X51854688Y-72631888D01*
X51745344Y-72765125D01*
X51677343Y-72892348D01*
X51664095Y-72917133D01*
X51614061Y-73082071D01*
X51597167Y-73253600D01*
X51601400Y-73296579D01*
X51601401Y-83181233D01*
X51505462Y-83277172D01*
X51368665Y-83481903D01*
X51274437Y-83709389D01*
X51226400Y-83950886D01*
X50825000Y-83950886D01*
X50825000Y-65036743D01*
X50850254Y-64753772D01*
X52500000Y-64753772D01*
X52500000Y-65246228D01*
X52596074Y-65729223D01*
X52784529Y-66184194D01*
X53058124Y-66593657D01*
X53406343Y-66941876D01*
X53815806Y-67215471D01*
X54270777Y-67403926D01*
X54753772Y-67500000D01*
X55246228Y-67500000D01*
X55729223Y-67403926D01*
X56184194Y-67215471D01*
X56218123Y-67192800D01*
X64399000Y-67192800D01*
X64399000Y-67742800D01*
X64423952Y-67988147D01*
X64496290Y-68223912D01*
X64613233Y-68441034D01*
X64770288Y-68631170D01*
X64961419Y-68787012D01*
X65179280Y-68902572D01*
X65415500Y-68973409D01*
X65456256Y-68980680D01*
X65653000Y-68807293D01*
X65653000Y-67192800D01*
X64399000Y-67192800D01*
X56218123Y-67192800D01*
X56593657Y-66941876D01*
X56900733Y-66634800D01*
X64399000Y-66634800D01*
X64399000Y-67184800D01*
X65653000Y-67184800D01*
X65653000Y-65570307D01*
X65661000Y-65570307D01*
X65661000Y-67184800D01*
X65681000Y-67184800D01*
X65681000Y-67192800D01*
X65661000Y-67192800D01*
X65661000Y-68807293D01*
X65857744Y-68980680D01*
X65898500Y-68973409D01*
X66134720Y-68902572D01*
X66352581Y-68787012D01*
X66543712Y-68631170D01*
X66700767Y-68441034D01*
X66817710Y-68223912D01*
X66890048Y-67988147D01*
X66915000Y-67742800D01*
X66915000Y-67720647D01*
X66981122Y-67733800D01*
X67192878Y-67733800D01*
X67400566Y-67692488D01*
X67596203Y-67611452D01*
X67772272Y-67493807D01*
X67922007Y-67344072D01*
X68039652Y-67168003D01*
X68120688Y-66972366D01*
X68162000Y-66764678D01*
X68162000Y-66621935D01*
X68210329Y-66601916D01*
X68398682Y-66476063D01*
X68441945Y-66432800D01*
X71766055Y-66432800D01*
X71807625Y-66474370D01*
X71792000Y-66552922D01*
X71792000Y-66764678D01*
X71833312Y-66972366D01*
X71914348Y-67168003D01*
X72031993Y-67344072D01*
X72181728Y-67493807D01*
X72357797Y-67611452D01*
X72553434Y-67692488D01*
X72761122Y-67733800D01*
X72972878Y-67733800D01*
X73039000Y-67720647D01*
X73039000Y-67742800D01*
X73063952Y-67988147D01*
X73136290Y-68223912D01*
X73253233Y-68441034D01*
X73410288Y-68631170D01*
X73601419Y-68787012D01*
X73819280Y-68902572D01*
X74055500Y-68973409D01*
X74096256Y-68980680D01*
X74293000Y-68807293D01*
X74293000Y-67192800D01*
X74301000Y-67192800D01*
X74301000Y-68807293D01*
X74497744Y-68980680D01*
X74538500Y-68973409D01*
X74774720Y-68902572D01*
X74992581Y-68787012D01*
X75183712Y-68631170D01*
X75340767Y-68441034D01*
X75457710Y-68223912D01*
X75530048Y-67988147D01*
X75555000Y-67742800D01*
X75555000Y-67192800D01*
X74301000Y-67192800D01*
X74293000Y-67192800D01*
X74273000Y-67192800D01*
X74273000Y-67184800D01*
X74293000Y-67184800D01*
X74293000Y-65570307D01*
X74301000Y-65570307D01*
X74301000Y-67184800D01*
X75555000Y-67184800D01*
X75555000Y-66634800D01*
X75530048Y-66389453D01*
X75457710Y-66153688D01*
X75340767Y-65936566D01*
X75183712Y-65746430D01*
X74992581Y-65590588D01*
X74774720Y-65475028D01*
X74538500Y-65404191D01*
X74497744Y-65396920D01*
X74301000Y-65570307D01*
X74293000Y-65570307D01*
X74096256Y-65396920D01*
X74055500Y-65404191D01*
X73819280Y-65475028D01*
X73692400Y-65542329D01*
X73692400Y-65469535D01*
X73648206Y-65247357D01*
X73561516Y-65038071D01*
X73435663Y-64849718D01*
X73339717Y-64753772D01*
X97500000Y-64753772D01*
X97500000Y-65246228D01*
X97596074Y-65729223D01*
X97784529Y-66184194D01*
X98058124Y-66593657D01*
X98406343Y-66941876D01*
X98815806Y-67215471D01*
X99270777Y-67403926D01*
X99753772Y-67500000D01*
X100246228Y-67500000D01*
X100729223Y-67403926D01*
X101184194Y-67215471D01*
X101593657Y-66941876D01*
X101941876Y-66593657D01*
X102215471Y-66184194D01*
X102403926Y-65729223D01*
X102500000Y-65246228D01*
X102500000Y-64753772D01*
X142500000Y-64753772D01*
X142500000Y-65246228D01*
X142596074Y-65729223D01*
X142784529Y-66184194D01*
X143058124Y-66593657D01*
X143406343Y-66941876D01*
X143815806Y-67215471D01*
X144270777Y-67403926D01*
X144753772Y-67500000D01*
X145246228Y-67500000D01*
X145729223Y-67403926D01*
X146184194Y-67215471D01*
X146593657Y-66941876D01*
X146941876Y-66593657D01*
X147215471Y-66184194D01*
X147403926Y-65729223D01*
X147500000Y-65246228D01*
X147500000Y-64753772D01*
X147403926Y-64270777D01*
X147215471Y-63815806D01*
X146941876Y-63406343D01*
X146593657Y-63058124D01*
X146184194Y-62784529D01*
X145729223Y-62596074D01*
X145246228Y-62500000D01*
X144753772Y-62500000D01*
X144270777Y-62596074D01*
X143815806Y-62784529D01*
X143406343Y-63058124D01*
X143058124Y-63406343D01*
X142784529Y-63815806D01*
X142596074Y-64270777D01*
X142500000Y-64753772D01*
X102500000Y-64753772D01*
X102403926Y-64270777D01*
X102215471Y-63815806D01*
X101941876Y-63406343D01*
X101593657Y-63058124D01*
X101184194Y-62784529D01*
X100729223Y-62596074D01*
X100246228Y-62500000D01*
X99753772Y-62500000D01*
X99270777Y-62596074D01*
X98815806Y-62784529D01*
X98406343Y-63058124D01*
X98058124Y-63406343D01*
X97784529Y-63815806D01*
X97596074Y-64270777D01*
X97500000Y-64753772D01*
X73339717Y-64753772D01*
X73275482Y-64689537D01*
X73087129Y-64563684D01*
X72877843Y-64476994D01*
X72655665Y-64432800D01*
X72429135Y-64432800D01*
X72206957Y-64476994D01*
X71997671Y-64563684D01*
X71809318Y-64689537D01*
X71766055Y-64732800D01*
X68441945Y-64732800D01*
X68398682Y-64689537D01*
X68210329Y-64563684D01*
X68001043Y-64476994D01*
X67778865Y-64432800D01*
X67552335Y-64432800D01*
X67330157Y-64476994D01*
X67120871Y-64563684D01*
X66932518Y-64689537D01*
X66772337Y-64849718D01*
X66646484Y-65038071D01*
X66559794Y-65247357D01*
X66515600Y-65469535D01*
X66515600Y-65696065D01*
X66522116Y-65728821D01*
X66352581Y-65590588D01*
X66134720Y-65475028D01*
X65898500Y-65404191D01*
X65857744Y-65396920D01*
X65661000Y-65570307D01*
X65653000Y-65570307D01*
X65456256Y-65396920D01*
X65415500Y-65404191D01*
X65179280Y-65475028D01*
X64961419Y-65590588D01*
X64770288Y-65746430D01*
X64613233Y-65936566D01*
X64496290Y-66153688D01*
X64423952Y-66389453D01*
X64399000Y-66634800D01*
X56900733Y-66634800D01*
X56941876Y-66593657D01*
X57215471Y-66184194D01*
X57403926Y-65729223D01*
X57500000Y-65246228D01*
X57500000Y-64753772D01*
X57403926Y-64270777D01*
X57215471Y-63815806D01*
X56941876Y-63406343D01*
X56593657Y-63058124D01*
X56525825Y-63012800D01*
X64399000Y-63012800D01*
X64399000Y-63312800D01*
X64423952Y-63558147D01*
X64496290Y-63793912D01*
X64613233Y-64011034D01*
X64770288Y-64201170D01*
X64961419Y-64357012D01*
X65179280Y-64472572D01*
X65415500Y-64543409D01*
X65456256Y-64550680D01*
X65653000Y-64377293D01*
X65653000Y-63012800D01*
X65661000Y-63012800D01*
X65661000Y-64377293D01*
X65857744Y-64550680D01*
X65898500Y-64543409D01*
X66134720Y-64472572D01*
X66352581Y-64357012D01*
X66543712Y-64201170D01*
X66700767Y-64011034D01*
X66817710Y-63793912D01*
X66890048Y-63558147D01*
X66915000Y-63312800D01*
X66915000Y-63012800D01*
X73039000Y-63012800D01*
X73039000Y-63312800D01*
X73063952Y-63558147D01*
X73136290Y-63793912D01*
X73253233Y-64011034D01*
X73410288Y-64201170D01*
X73601419Y-64357012D01*
X73819280Y-64472572D01*
X74055500Y-64543409D01*
X74096256Y-64550680D01*
X74293000Y-64377293D01*
X74293000Y-63012800D01*
X74301000Y-63012800D01*
X74301000Y-64377293D01*
X74497744Y-64550680D01*
X74538500Y-64543409D01*
X74774720Y-64472572D01*
X74992581Y-64357012D01*
X75183712Y-64201170D01*
X75340767Y-64011034D01*
X75457710Y-63793912D01*
X75530048Y-63558147D01*
X75555000Y-63312800D01*
X75555000Y-63012800D01*
X74301000Y-63012800D01*
X74293000Y-63012800D01*
X73039000Y-63012800D01*
X66915000Y-63012800D01*
X65661000Y-63012800D01*
X65653000Y-63012800D01*
X64399000Y-63012800D01*
X56525825Y-63012800D01*
X56184194Y-62784529D01*
X55991712Y-62704800D01*
X64399000Y-62704800D01*
X64399000Y-63004800D01*
X65653000Y-63004800D01*
X65653000Y-61640307D01*
X65661000Y-61640307D01*
X65661000Y-63004800D01*
X66915000Y-63004800D01*
X66915000Y-62704800D01*
X73039000Y-62704800D01*
X73039000Y-63004800D01*
X74293000Y-63004800D01*
X74293000Y-61640307D01*
X74301000Y-61640307D01*
X74301000Y-63004800D01*
X75555000Y-63004800D01*
X75555000Y-62704800D01*
X75530048Y-62459453D01*
X75457710Y-62223688D01*
X75340767Y-62006566D01*
X75183712Y-61816430D01*
X74992581Y-61660588D01*
X74774720Y-61545028D01*
X74538500Y-61474191D01*
X74497744Y-61466920D01*
X74301000Y-61640307D01*
X74293000Y-61640307D01*
X74096256Y-61466920D01*
X74055500Y-61474191D01*
X73819280Y-61545028D01*
X73601419Y-61660588D01*
X73410288Y-61816430D01*
X73253233Y-62006566D01*
X73136290Y-62223688D01*
X73063952Y-62459453D01*
X73039000Y-62704800D01*
X66915000Y-62704800D01*
X66890048Y-62459453D01*
X66817710Y-62223688D01*
X66700767Y-62006566D01*
X66543712Y-61816430D01*
X66352581Y-61660588D01*
X66134720Y-61545028D01*
X65898500Y-61474191D01*
X65857744Y-61466920D01*
X65661000Y-61640307D01*
X65653000Y-61640307D01*
X65456256Y-61466920D01*
X65415500Y-61474191D01*
X65179280Y-61545028D01*
X64961419Y-61660588D01*
X64770288Y-61816430D01*
X64613233Y-62006566D01*
X64496290Y-62223688D01*
X64423952Y-62459453D01*
X64399000Y-62704800D01*
X55991712Y-62704800D01*
X55729223Y-62596074D01*
X55246228Y-62500000D01*
X54753772Y-62500000D01*
X54270777Y-62596074D01*
X53815806Y-62784529D01*
X53406343Y-63058124D01*
X53058124Y-63406343D01*
X52784529Y-63815806D01*
X52596074Y-64270777D01*
X52500000Y-64753772D01*
X50850254Y-64753772D01*
X50894211Y-64261251D01*
X51089921Y-63545855D01*
X51409225Y-62876422D01*
X51842030Y-62274109D01*
X52374649Y-61757966D01*
X52990262Y-61344291D01*
X53669393Y-61046174D01*
X54396931Y-60871507D01*
X55030245Y-60825000D01*
X144963257Y-60825000D01*
X145738749Y-60894211D01*
G04 #@! TA.AperFunction,Conductor*
D23*
G36*
X145738749Y-60894211D02*
G01*
X146454145Y-61089921D01*
X147123578Y-61409225D01*
X147725891Y-61842030D01*
X148242034Y-62374649D01*
X148655709Y-62990262D01*
X148953826Y-63669393D01*
X149128493Y-64396931D01*
X149175001Y-65030258D01*
X149175000Y-144963257D01*
X149105789Y-145738749D01*
X148910079Y-146454144D01*
X148590774Y-147123581D01*
X148157970Y-147725891D01*
X147625351Y-148242034D01*
X147009739Y-148655708D01*
X146330611Y-148953825D01*
X145603069Y-149128493D01*
X144969755Y-149175000D01*
X55036743Y-149175000D01*
X54261251Y-149105789D01*
X53545856Y-148910079D01*
X52876419Y-148590774D01*
X52274109Y-148157970D01*
X51757966Y-147625351D01*
X51344292Y-147009739D01*
X51046175Y-146330611D01*
X50871507Y-145603069D01*
X50825000Y-144969755D01*
X50825000Y-144753772D01*
X52500000Y-144753772D01*
X52500000Y-145246228D01*
X52596074Y-145729223D01*
X52784529Y-146184194D01*
X53058124Y-146593657D01*
X53406343Y-146941876D01*
X53815806Y-147215471D01*
X54270777Y-147403926D01*
X54753772Y-147500000D01*
X55246228Y-147500000D01*
X55729223Y-147403926D01*
X56184194Y-147215471D01*
X56593657Y-146941876D01*
X56941876Y-146593657D01*
X57215471Y-146184194D01*
X57403926Y-145729223D01*
X57500000Y-145246228D01*
X57500000Y-144753772D01*
X142500000Y-144753772D01*
X142500000Y-145246228D01*
X142596074Y-145729223D01*
X142784529Y-146184194D01*
X143058124Y-146593657D01*
X143406343Y-146941876D01*
X143815806Y-147215471D01*
X144270777Y-147403926D01*
X144753772Y-147500000D01*
X145246228Y-147500000D01*
X145729223Y-147403926D01*
X146184194Y-147215471D01*
X146593657Y-146941876D01*
X146941876Y-146593657D01*
X147215471Y-146184194D01*
X147403926Y-145729223D01*
X147500000Y-145246228D01*
X147500000Y-144753772D01*
X147403926Y-144270777D01*
X147215471Y-143815806D01*
X146941876Y-143406343D01*
X146593657Y-143058124D01*
X146184194Y-142784529D01*
X145729223Y-142596074D01*
X145246228Y-142500000D01*
X144753772Y-142500000D01*
X144270777Y-142596074D01*
X143815806Y-142784529D01*
X143406343Y-143058124D01*
X143058124Y-143406343D01*
X142784529Y-143815806D01*
X142596074Y-144270777D01*
X142500000Y-144753772D01*
X57500000Y-144753772D01*
X57403926Y-144270777D01*
X57215471Y-143815806D01*
X56941876Y-143406343D01*
X56593657Y-143058124D01*
X56184194Y-142784529D01*
X55729223Y-142596074D01*
X55246228Y-142500000D01*
X54753772Y-142500000D01*
X54270777Y-142596074D01*
X53815806Y-142784529D01*
X53406343Y-143058124D01*
X53058124Y-143406343D01*
X52784529Y-143815806D01*
X52596074Y-144270777D01*
X52500000Y-144753772D01*
X50825000Y-144753772D01*
X50825000Y-131179200D01*
X53158772Y-131179200D01*
X53158772Y-132879200D01*
X53173253Y-133026226D01*
X53216139Y-133167601D01*
X53285781Y-133297893D01*
X53379505Y-133412095D01*
X53493707Y-133505819D01*
X53623999Y-133575461D01*
X53765374Y-133618347D01*
X53912400Y-133632828D01*
X55612400Y-133632828D01*
X55759426Y-133618347D01*
X55900801Y-133575461D01*
X56031093Y-133505819D01*
X56145295Y-133412095D01*
X56239019Y-133297893D01*
X56308661Y-133167601D01*
X56351547Y-133026226D01*
X56366028Y-132879200D01*
X56366028Y-131626937D01*
X56442357Y-131533930D01*
X56521286Y-131386266D01*
X56569889Y-131226040D01*
X56582189Y-131101159D01*
X56582189Y-131101152D01*
X56586300Y-131059411D01*
X56582189Y-131017670D01*
X56582189Y-130941281D01*
X57569698Y-129953772D01*
X75503000Y-129953772D01*
X75503000Y-130446228D01*
X75599074Y-130929223D01*
X75787529Y-131384194D01*
X76061124Y-131793657D01*
X76409343Y-132141876D01*
X76818806Y-132415471D01*
X77273777Y-132603926D01*
X77756772Y-132700000D01*
X78249228Y-132700000D01*
X78732223Y-132603926D01*
X79187194Y-132415471D01*
X79596657Y-132141876D01*
X79944876Y-131793657D01*
X80218471Y-131384194D01*
X80406926Y-130929223D01*
X80503000Y-130446228D01*
X80503000Y-129953772D01*
X80406926Y-129470777D01*
X80218471Y-129015806D01*
X79944876Y-128606343D01*
X79596657Y-128258124D01*
X79187194Y-127984529D01*
X78732223Y-127796074D01*
X78249228Y-127700000D01*
X77756772Y-127700000D01*
X77273777Y-127796074D01*
X76818806Y-127984529D01*
X76409343Y-128258124D01*
X76061124Y-128606343D01*
X75787529Y-129015806D01*
X75599074Y-129470777D01*
X75503000Y-129953772D01*
X57569698Y-129953772D01*
X72264150Y-115259321D01*
X77250000Y-115259321D01*
X77250000Y-119740679D01*
X78124269Y-124135930D01*
X79839211Y-128276166D01*
X82328921Y-132002280D01*
X85497720Y-135171079D01*
X89223834Y-137660789D01*
X93364070Y-139375731D01*
X97759321Y-140250000D01*
X102240679Y-140250000D01*
X106635930Y-139375731D01*
X110776166Y-137660789D01*
X113826830Y-135622400D01*
X131585932Y-135622400D01*
X131600567Y-135770994D01*
X131643911Y-135913878D01*
X131714296Y-136045560D01*
X131809019Y-136160981D01*
X131924440Y-136255704D01*
X132056122Y-136326089D01*
X132199006Y-136369433D01*
X132347600Y-136384068D01*
X133004100Y-136380400D01*
X133193600Y-136190900D01*
X133193600Y-134776400D01*
X133201600Y-134776400D01*
X133201600Y-136190900D01*
X133391100Y-136380400D01*
X134047600Y-136384068D01*
X134196194Y-136369433D01*
X134339078Y-136326089D01*
X134470760Y-136255704D01*
X134586181Y-136160981D01*
X134680904Y-136045560D01*
X134751289Y-135913878D01*
X134794633Y-135770994D01*
X134809268Y-135622400D01*
X134805600Y-134965900D01*
X134616100Y-134776400D01*
X133201600Y-134776400D01*
X133193600Y-134776400D01*
X131779100Y-134776400D01*
X131589600Y-134965900D01*
X131585932Y-135622400D01*
X113826830Y-135622400D01*
X114502280Y-135171079D01*
X117671079Y-132002280D01*
X119039848Y-129953772D01*
X119497000Y-129953772D01*
X119497000Y-130446228D01*
X119593074Y-130929223D01*
X119781529Y-131384194D01*
X120055124Y-131793657D01*
X120403343Y-132141876D01*
X120812806Y-132415471D01*
X121267777Y-132603926D01*
X121750772Y-132700000D01*
X122243228Y-132700000D01*
X122726223Y-132603926D01*
X123181194Y-132415471D01*
X123590657Y-132141876D01*
X123938876Y-131793657D01*
X124212471Y-131384194D01*
X124400926Y-130929223D01*
X124497000Y-130446228D01*
X124497000Y-129953772D01*
X124400926Y-129470777D01*
X124212471Y-129015806D01*
X123938876Y-128606343D01*
X123590657Y-128258124D01*
X123181194Y-127984529D01*
X122726223Y-127796074D01*
X122243228Y-127700000D01*
X121750772Y-127700000D01*
X121267777Y-127796074D01*
X120812806Y-127984529D01*
X120403343Y-128258124D01*
X120055124Y-128606343D01*
X119781529Y-129015806D01*
X119593074Y-129470777D01*
X119497000Y-129953772D01*
X119039848Y-129953772D01*
X120160789Y-128276166D01*
X121875731Y-124135930D01*
X122460293Y-121197135D01*
X127932800Y-121197135D01*
X127932800Y-121423665D01*
X127976994Y-121645843D01*
X128063684Y-121855129D01*
X128189537Y-122043482D01*
X128232800Y-122086745D01*
X128232801Y-128075849D01*
X128228689Y-128117600D01*
X128245100Y-128284229D01*
X128293703Y-128444454D01*
X128306962Y-128469259D01*
X128372633Y-128592119D01*
X128478853Y-128721548D01*
X128511281Y-128748161D01*
X131637474Y-131874355D01*
X131597600Y-132074814D01*
X131597600Y-132389986D01*
X131659087Y-132699103D01*
X131779698Y-132990284D01*
X131954799Y-133252341D01*
X131968177Y-133265719D01*
X131924440Y-133289096D01*
X131809019Y-133383819D01*
X131714296Y-133499240D01*
X131643911Y-133630922D01*
X131600567Y-133773806D01*
X131585932Y-133922400D01*
X131589600Y-134578900D01*
X131779100Y-134768400D01*
X133193600Y-134768400D01*
X133193600Y-134748400D01*
X133201600Y-134748400D01*
X133201600Y-134768400D01*
X134616100Y-134768400D01*
X134805600Y-134578900D01*
X134809268Y-133922400D01*
X134794633Y-133773806D01*
X134751289Y-133630922D01*
X134680904Y-133499240D01*
X134586181Y-133383819D01*
X134470760Y-133289096D01*
X134427023Y-133265719D01*
X134440401Y-133252341D01*
X134615502Y-132990284D01*
X134736113Y-132699103D01*
X134795072Y-132402694D01*
X147445464Y-119752303D01*
X147493161Y-119713159D01*
X147649367Y-119522822D01*
X147765438Y-119305668D01*
X147836914Y-119070042D01*
X147855001Y-118886404D01*
X147855001Y-118886398D01*
X147861048Y-118825000D01*
X147855001Y-118763602D01*
X147855001Y-114329404D01*
X147861049Y-114267999D01*
X147836914Y-114022956D01*
X147765438Y-113787330D01*
X147728989Y-113719139D01*
X147649367Y-113570176D01*
X147493161Y-113379839D01*
X147445465Y-113340696D01*
X145799867Y-111695099D01*
X148240464Y-109254503D01*
X148288161Y-109215359D01*
X148444367Y-109025022D01*
X148560438Y-108807868D01*
X148631914Y-108572242D01*
X148650001Y-108388604D01*
X148650001Y-108388598D01*
X148656048Y-108327200D01*
X148650001Y-108265802D01*
X148650001Y-101843006D01*
X148656049Y-101781601D01*
X148631914Y-101536558D01*
X148560438Y-101300932D01*
X148523402Y-101231643D01*
X148444367Y-101083778D01*
X148288161Y-100893441D01*
X148240459Y-100854293D01*
X147855001Y-100468835D01*
X147855001Y-88812804D01*
X147861049Y-88751399D01*
X147855001Y-88689994D01*
X147855001Y-74329404D01*
X147861049Y-74267999D01*
X147836914Y-74022956D01*
X147765438Y-73787330D01*
X147738953Y-73737780D01*
X147649367Y-73570176D01*
X147493161Y-73379839D01*
X147445465Y-73340696D01*
X145552711Y-71447943D01*
X145513562Y-71400240D01*
X145323225Y-71244034D01*
X145106071Y-71127963D01*
X144870445Y-71056487D01*
X144686807Y-71038400D01*
X144686800Y-71038400D01*
X144625402Y-71032353D01*
X144564004Y-71038400D01*
X142475000Y-71038400D01*
X142475000Y-68488065D01*
X142478749Y-68450000D01*
X142463786Y-68298074D01*
X142419470Y-68151986D01*
X142347506Y-68017350D01*
X142250659Y-67899341D01*
X142132650Y-67802494D01*
X141998014Y-67730530D01*
X141851926Y-67686214D01*
X141738065Y-67675000D01*
X141700000Y-67671251D01*
X141661935Y-67675000D01*
X138338065Y-67675000D01*
X138300000Y-67671251D01*
X138261935Y-67675000D01*
X138148074Y-67686214D01*
X138001986Y-67730530D01*
X137867350Y-67802494D01*
X137749341Y-67899341D01*
X137652494Y-68017350D01*
X137580530Y-68151986D01*
X137536214Y-68298074D01*
X137521251Y-68450000D01*
X137525001Y-68488075D01*
X137525000Y-71411934D01*
X137521251Y-71450000D01*
X137536214Y-71601926D01*
X137580530Y-71748014D01*
X137652494Y-71882650D01*
X137717241Y-71961545D01*
X137749341Y-72000659D01*
X137867350Y-72097506D01*
X138001986Y-72169470D01*
X138148074Y-72213786D01*
X138300000Y-72228749D01*
X138338065Y-72225000D01*
X141142596Y-72225000D01*
X141136352Y-72288400D01*
X141157475Y-72502864D01*
X140802145Y-72355681D01*
X140270851Y-72250000D01*
X139729149Y-72250000D01*
X139197855Y-72355681D01*
X138697387Y-72562982D01*
X138246977Y-72863936D01*
X137863936Y-73246977D01*
X137562982Y-73697387D01*
X137355681Y-74197855D01*
X137250000Y-74729149D01*
X137250000Y-75270851D01*
X137355681Y-75802145D01*
X137562982Y-76302613D01*
X137863936Y-76753023D01*
X138246977Y-77136064D01*
X138697387Y-77437018D01*
X139197855Y-77644319D01*
X139729149Y-77750000D01*
X140270851Y-77750000D01*
X140802145Y-77644319D01*
X141302613Y-77437018D01*
X141572240Y-77256859D01*
X141560000Y-77318394D01*
X141560000Y-77761606D01*
X141646466Y-78196301D01*
X141816076Y-78605775D01*
X142062311Y-78974292D01*
X142375708Y-79287689D01*
X142744225Y-79533924D01*
X143153699Y-79703534D01*
X143588394Y-79790000D01*
X144031606Y-79790000D01*
X144466301Y-79703534D01*
X144875775Y-79533924D01*
X145244292Y-79287689D01*
X145355001Y-79176980D01*
X145355002Y-88233631D01*
X142475000Y-91113634D01*
X142475000Y-88488065D01*
X142478749Y-88450000D01*
X142463786Y-88298074D01*
X142419470Y-88151986D01*
X142347506Y-88017350D01*
X142250659Y-87899341D01*
X142132650Y-87802494D01*
X141998014Y-87730530D01*
X141851926Y-87686214D01*
X141738065Y-87675000D01*
X141700000Y-87671251D01*
X141661935Y-87675000D01*
X138338065Y-87675000D01*
X138300000Y-87671251D01*
X138261935Y-87675000D01*
X138148074Y-87686214D01*
X138001986Y-87730530D01*
X137867350Y-87802494D01*
X137749341Y-87899341D01*
X137652494Y-88017350D01*
X137580530Y-88151986D01*
X137536214Y-88298074D01*
X137521251Y-88450000D01*
X137525001Y-88488075D01*
X137525000Y-91411934D01*
X137521251Y-91450000D01*
X137536214Y-91601926D01*
X137580530Y-91748014D01*
X137652494Y-91882650D01*
X137697128Y-91937037D01*
X137749341Y-92000659D01*
X137867350Y-92097506D01*
X138001986Y-92169470D01*
X138148074Y-92213786D01*
X138300000Y-92228749D01*
X138338065Y-92225000D01*
X141661935Y-92225000D01*
X141700000Y-92228749D01*
X141738065Y-92225000D01*
X141851926Y-92213786D01*
X141898586Y-92199632D01*
X141898353Y-92202000D01*
X141922487Y-92447042D01*
X141993963Y-92682668D01*
X142110035Y-92899822D01*
X142266240Y-93090160D01*
X142456578Y-93246365D01*
X142673732Y-93362437D01*
X142909358Y-93433913D01*
X143154400Y-93458047D01*
X143399442Y-93433913D01*
X143635068Y-93362437D01*
X143852222Y-93246365D01*
X143994863Y-93129303D01*
X145355001Y-91769165D01*
X145355001Y-93397866D01*
X145240049Y-93375000D01*
X144919951Y-93375000D01*
X144606005Y-93437448D01*
X144310274Y-93559943D01*
X144044123Y-93737780D01*
X143817780Y-93964123D01*
X143639943Y-94230274D01*
X143517448Y-94526005D01*
X143455000Y-94839951D01*
X143455000Y-95160049D01*
X143484942Y-95310578D01*
X143153699Y-95376466D01*
X142744225Y-95546076D01*
X142687748Y-95583813D01*
X142750000Y-95270851D01*
X142750000Y-94729149D01*
X142644319Y-94197855D01*
X142437018Y-93697387D01*
X142136064Y-93246977D01*
X141753023Y-92863936D01*
X141302613Y-92562982D01*
X140802145Y-92355681D01*
X140270851Y-92250000D01*
X139729149Y-92250000D01*
X139197855Y-92355681D01*
X138697387Y-92562982D01*
X138246977Y-92863936D01*
X137863936Y-93246977D01*
X137562982Y-93697387D01*
X137355681Y-94197855D01*
X137250000Y-94729149D01*
X137250000Y-95270851D01*
X137355681Y-95802145D01*
X137562982Y-96302613D01*
X137863936Y-96753023D01*
X138246977Y-97136064D01*
X138697387Y-97437018D01*
X139197855Y-97644319D01*
X139729149Y-97750000D01*
X140270851Y-97750000D01*
X140802145Y-97644319D01*
X141302613Y-97437018D01*
X141572240Y-97256859D01*
X141560000Y-97318394D01*
X141560000Y-97761606D01*
X141646466Y-98196301D01*
X141816076Y-98605775D01*
X142062311Y-98974292D01*
X142375708Y-99287689D01*
X142744225Y-99533924D01*
X143153699Y-99703534D01*
X143588394Y-99790000D01*
X144031606Y-99790000D01*
X144466301Y-99703534D01*
X144875775Y-99533924D01*
X145244292Y-99287689D01*
X145355002Y-99176979D01*
X145355002Y-100925193D01*
X145348954Y-100986601D01*
X145373088Y-101231643D01*
X145444564Y-101467269D01*
X145481600Y-101536558D01*
X145560636Y-101684424D01*
X145716842Y-101874761D01*
X145764539Y-101913905D01*
X146150001Y-102299367D01*
X146150001Y-102770366D01*
X145729223Y-102596074D01*
X145246228Y-102500000D01*
X144753772Y-102500000D01*
X144270777Y-102596074D01*
X143815806Y-102784529D01*
X143406343Y-103058124D01*
X143058124Y-103406343D01*
X142784529Y-103815806D01*
X142596074Y-104270777D01*
X142500000Y-104753772D01*
X142500000Y-105246228D01*
X142596074Y-105729223D01*
X142784529Y-106184194D01*
X143058124Y-106593657D01*
X143406343Y-106941876D01*
X143815806Y-107215471D01*
X144270777Y-107403926D01*
X144753772Y-107500000D01*
X145246228Y-107500000D01*
X145729223Y-107403926D01*
X146150002Y-107229634D01*
X146150002Y-107809431D01*
X142669543Y-111289891D01*
X142621840Y-111329040D01*
X142472773Y-111510678D01*
X142478749Y-111450000D01*
X142475000Y-111411935D01*
X142475000Y-108488065D01*
X142478749Y-108450000D01*
X142463786Y-108298074D01*
X142419470Y-108151986D01*
X142347506Y-108017350D01*
X142250659Y-107899341D01*
X142132650Y-107802494D01*
X141998014Y-107730530D01*
X141851926Y-107686214D01*
X141738065Y-107675000D01*
X141700000Y-107671251D01*
X141661935Y-107675000D01*
X138338065Y-107675000D01*
X138300000Y-107671251D01*
X138261935Y-107675000D01*
X138148074Y-107686214D01*
X138001986Y-107730530D01*
X137867350Y-107802494D01*
X137749341Y-107899341D01*
X137652494Y-108017350D01*
X137580530Y-108151986D01*
X137536214Y-108298074D01*
X137521251Y-108450000D01*
X137525001Y-108488075D01*
X137525000Y-111411934D01*
X137521251Y-111450000D01*
X137536214Y-111601926D01*
X137580530Y-111748014D01*
X137652494Y-111882650D01*
X137692923Y-111931913D01*
X137749341Y-112000659D01*
X137867350Y-112097506D01*
X138001986Y-112169470D01*
X138148074Y-112213786D01*
X138300000Y-112228749D01*
X138338065Y-112225000D01*
X141661935Y-112225000D01*
X141700000Y-112228749D01*
X141738065Y-112225000D01*
X141851926Y-112213786D01*
X141998014Y-112169470D01*
X142132650Y-112097506D01*
X142250659Y-112000659D01*
X142280454Y-111964353D01*
X142278087Y-111972157D01*
X142253952Y-112217200D01*
X142278087Y-112462243D01*
X142349563Y-112697869D01*
X142465634Y-112915023D01*
X142621840Y-113105360D01*
X142812177Y-113261566D01*
X143029331Y-113377637D01*
X143264957Y-113449113D01*
X143448595Y-113467200D01*
X143448602Y-113467200D01*
X143510000Y-113473247D01*
X143571398Y-113467200D01*
X144036436Y-113467200D01*
X144201715Y-113632480D01*
X144044123Y-113737780D01*
X143817780Y-113964123D01*
X143639943Y-114230274D01*
X143517448Y-114526005D01*
X143455000Y-114839951D01*
X143455000Y-115160049D01*
X143484942Y-115310578D01*
X143153699Y-115376466D01*
X142744225Y-115546076D01*
X142687748Y-115583813D01*
X142750000Y-115270851D01*
X142750000Y-114729149D01*
X142644319Y-114197855D01*
X142437018Y-113697387D01*
X142136064Y-113246977D01*
X141753023Y-112863936D01*
X141302613Y-112562982D01*
X140802145Y-112355681D01*
X140270851Y-112250000D01*
X139729149Y-112250000D01*
X139197855Y-112355681D01*
X138697387Y-112562982D01*
X138246977Y-112863936D01*
X137863936Y-113246977D01*
X137562982Y-113697387D01*
X137355681Y-114197855D01*
X137250000Y-114729149D01*
X137250000Y-115270851D01*
X137355681Y-115802145D01*
X137562982Y-116302613D01*
X137863936Y-116753023D01*
X138246977Y-117136064D01*
X138697387Y-117437018D01*
X139197855Y-117644319D01*
X139729149Y-117750000D01*
X140270851Y-117750000D01*
X140802145Y-117644319D01*
X141302613Y-117437018D01*
X141572240Y-117256859D01*
X141560000Y-117318394D01*
X141560000Y-117761606D01*
X141646466Y-118196301D01*
X141816076Y-118605775D01*
X142062311Y-118974292D01*
X142375708Y-119287689D01*
X142744225Y-119533924D01*
X143153699Y-119703534D01*
X143588394Y-119790000D01*
X143872233Y-119790000D01*
X134648369Y-129013865D01*
X134615502Y-128934516D01*
X134440401Y-128672459D01*
X134217541Y-128449599D01*
X134176835Y-128422400D01*
X134217541Y-128395201D01*
X134440401Y-128172341D01*
X134615502Y-127910284D01*
X134736113Y-127619103D01*
X134797600Y-127309986D01*
X134797600Y-126994814D01*
X134736113Y-126685697D01*
X134615502Y-126394516D01*
X134440401Y-126132459D01*
X134217541Y-125909599D01*
X133955484Y-125734498D01*
X133664303Y-125613887D01*
X133355186Y-125552400D01*
X133040014Y-125552400D01*
X132730897Y-125613887D01*
X132439716Y-125734498D01*
X132177659Y-125909599D01*
X131954799Y-126132459D01*
X131779698Y-126394516D01*
X131659087Y-126685697D01*
X131597600Y-126994814D01*
X131597600Y-127115200D01*
X130773545Y-127115200D01*
X130730282Y-127071937D01*
X130541929Y-126946084D01*
X130332643Y-126859394D01*
X130110465Y-126815200D01*
X129932800Y-126815200D01*
X129932800Y-122086745D01*
X129976063Y-122043482D01*
X130101916Y-121855129D01*
X130188606Y-121645843D01*
X130232800Y-121423665D01*
X130232800Y-121197135D01*
X130188606Y-120974957D01*
X130101916Y-120765671D01*
X129976063Y-120577318D01*
X129815882Y-120417137D01*
X129627529Y-120291284D01*
X129418243Y-120204594D01*
X129196065Y-120160400D01*
X128969535Y-120160400D01*
X128747357Y-120204594D01*
X128538071Y-120291284D01*
X128349718Y-120417137D01*
X128189537Y-120577318D01*
X128063684Y-120765671D01*
X127976994Y-120974957D01*
X127932800Y-121197135D01*
X122460293Y-121197135D01*
X122726585Y-119858394D01*
X135210000Y-119858394D01*
X135210000Y-120301606D01*
X135296466Y-120736301D01*
X135466076Y-121145775D01*
X135712311Y-121514292D01*
X136025708Y-121827689D01*
X136394225Y-122073924D01*
X136803699Y-122243534D01*
X137238394Y-122330000D01*
X137681606Y-122330000D01*
X138116301Y-122243534D01*
X138525775Y-122073924D01*
X138894292Y-121827689D01*
X139207689Y-121514292D01*
X139453924Y-121145775D01*
X139623534Y-120736301D01*
X139710000Y-120301606D01*
X139710000Y-119858394D01*
X139623534Y-119423699D01*
X139453924Y-119014225D01*
X139207689Y-118645708D01*
X138894292Y-118332311D01*
X138525775Y-118086076D01*
X138116301Y-117916466D01*
X137681606Y-117830000D01*
X137238394Y-117830000D01*
X136803699Y-117916466D01*
X136394225Y-118086076D01*
X136025708Y-118332311D01*
X135712311Y-118645708D01*
X135466076Y-119014225D01*
X135296466Y-119423699D01*
X135210000Y-119858394D01*
X122726585Y-119858394D01*
X122750000Y-119740679D01*
X122750000Y-115259321D01*
X122666583Y-114839951D01*
X133295000Y-114839951D01*
X133295000Y-115160049D01*
X133357448Y-115473995D01*
X133479943Y-115769726D01*
X133657780Y-116035877D01*
X133884123Y-116262220D01*
X134150274Y-116440057D01*
X134446005Y-116562552D01*
X134759951Y-116625000D01*
X135080049Y-116625000D01*
X135393995Y-116562552D01*
X135689726Y-116440057D01*
X135955877Y-116262220D01*
X136182220Y-116035877D01*
X136360057Y-115769726D01*
X136482552Y-115473995D01*
X136545000Y-115160049D01*
X136545000Y-114839951D01*
X136482552Y-114526005D01*
X136360057Y-114230274D01*
X136182220Y-113964123D01*
X135955877Y-113737780D01*
X135689726Y-113559943D01*
X135393995Y-113437448D01*
X135080049Y-113375000D01*
X134759951Y-113375000D01*
X134446005Y-113437448D01*
X134150274Y-113559943D01*
X133884123Y-113737780D01*
X133657780Y-113964123D01*
X133479943Y-114230274D01*
X133357448Y-114526005D01*
X133295000Y-114839951D01*
X122666583Y-114839951D01*
X121875731Y-110864070D01*
X120160789Y-106723834D01*
X117671079Y-102997720D01*
X114531753Y-99858394D01*
X135210000Y-99858394D01*
X135210000Y-100301606D01*
X135296466Y-100736301D01*
X135466076Y-101145775D01*
X135712311Y-101514292D01*
X136025708Y-101827689D01*
X136394225Y-102073924D01*
X136803699Y-102243534D01*
X137238394Y-102330000D01*
X137681606Y-102330000D01*
X138116301Y-102243534D01*
X138525775Y-102073924D01*
X138894292Y-101827689D01*
X139207689Y-101514292D01*
X139453924Y-101145775D01*
X139623534Y-100736301D01*
X139710000Y-100301606D01*
X139710000Y-99858394D01*
X139623534Y-99423699D01*
X139453924Y-99014225D01*
X139207689Y-98645708D01*
X138894292Y-98332311D01*
X138525775Y-98086076D01*
X138116301Y-97916466D01*
X137681606Y-97830000D01*
X137238394Y-97830000D01*
X136803699Y-97916466D01*
X136394225Y-98086076D01*
X136025708Y-98332311D01*
X135712311Y-98645708D01*
X135466076Y-99014225D01*
X135296466Y-99423699D01*
X135210000Y-99858394D01*
X114531753Y-99858394D01*
X114502280Y-99828921D01*
X110776166Y-97339211D01*
X106635930Y-95624269D01*
X102240679Y-94750000D01*
X97759321Y-94750000D01*
X93364070Y-95624269D01*
X89223834Y-97339211D01*
X85497720Y-99828921D01*
X82328921Y-102997720D01*
X79839211Y-106723834D01*
X78124269Y-110864070D01*
X77250000Y-115259321D01*
X72264150Y-115259321D01*
X73215525Y-114307947D01*
X73247948Y-114281338D01*
X73274557Y-114248915D01*
X73274561Y-114248911D01*
X73354167Y-114151910D01*
X73354168Y-114151909D01*
X73433097Y-114004245D01*
X73481700Y-113844019D01*
X73494000Y-113719139D01*
X73494000Y-113719129D01*
X73498111Y-113677391D01*
X73494000Y-113635653D01*
X73494000Y-100580481D01*
X73671671Y-100402810D01*
X73824065Y-100402810D01*
X74046243Y-100358616D01*
X74255529Y-100271926D01*
X74443882Y-100146073D01*
X74604063Y-99985892D01*
X74729916Y-99797539D01*
X74811375Y-99600882D01*
X74924097Y-99713604D01*
X75112450Y-99839457D01*
X75321736Y-99926147D01*
X75543914Y-99970341D01*
X75770444Y-99970341D01*
X75992622Y-99926147D01*
X76201908Y-99839457D01*
X76390261Y-99713604D01*
X76550442Y-99553423D01*
X76676295Y-99365070D01*
X76762985Y-99155784D01*
X76807179Y-98933606D01*
X76807179Y-98707076D01*
X76770206Y-98521200D01*
X76770206Y-96490821D01*
X76825704Y-96407762D01*
X76904856Y-96216674D01*
X76945206Y-96013816D01*
X76945206Y-95938503D01*
X77012884Y-95905361D01*
X77075645Y-95863426D01*
X77070132Y-95665528D01*
X77091500Y-95644160D01*
X77112868Y-95665528D01*
X77107355Y-95863426D01*
X77287551Y-95968132D01*
X77484712Y-96035671D01*
X77691260Y-96063448D01*
X77899258Y-96050397D01*
X78100714Y-95997017D01*
X78287884Y-95905361D01*
X78350645Y-95863426D01*
X78343907Y-95621564D01*
X77729000Y-95006657D01*
X77714858Y-95020799D01*
X77709201Y-95015142D01*
X77723343Y-95001000D01*
X77709201Y-94986858D01*
X77714858Y-94981201D01*
X77729000Y-94995343D01*
X77743142Y-94981201D01*
X77748799Y-94986858D01*
X77734657Y-95001000D01*
X78349564Y-95615907D01*
X78591426Y-95622645D01*
X78696132Y-95442449D01*
X78763671Y-95245288D01*
X78791448Y-95038740D01*
X78778397Y-94830742D01*
X78725017Y-94629286D01*
X78633361Y-94442116D01*
X78591426Y-94379355D01*
X78393528Y-94384868D01*
X78372160Y-94363500D01*
X78393528Y-94342132D01*
X78591426Y-94347645D01*
X78696132Y-94167449D01*
X78763671Y-93970288D01*
X78791448Y-93763740D01*
X78778397Y-93555742D01*
X78725017Y-93354286D01*
X78633361Y-93167116D01*
X78591426Y-93104355D01*
X78393528Y-93109868D01*
X78372160Y-93088500D01*
X78393528Y-93067132D01*
X78591426Y-93072645D01*
X78696132Y-92892449D01*
X78763671Y-92695288D01*
X78791448Y-92488740D01*
X78778397Y-92280742D01*
X78725017Y-92079286D01*
X78633361Y-91892116D01*
X78607741Y-91853772D01*
X97500000Y-91853772D01*
X97500000Y-92346228D01*
X97596074Y-92829223D01*
X97784529Y-93284194D01*
X98058124Y-93693657D01*
X98406343Y-94041876D01*
X98815806Y-94315471D01*
X99270777Y-94503926D01*
X99753772Y-94600000D01*
X100246228Y-94600000D01*
X100729223Y-94503926D01*
X101184194Y-94315471D01*
X101593657Y-94041876D01*
X101941876Y-93693657D01*
X102215471Y-93284194D01*
X102403926Y-92829223D01*
X102500000Y-92346228D01*
X102500000Y-91853772D01*
X102403926Y-91370777D01*
X102215471Y-90915806D01*
X101941876Y-90506343D01*
X101593657Y-90158124D01*
X101184194Y-89884529D01*
X100729223Y-89696074D01*
X100246228Y-89600000D01*
X99753772Y-89600000D01*
X99270777Y-89696074D01*
X98815806Y-89884529D01*
X98406343Y-90158124D01*
X98058124Y-90506343D01*
X97784529Y-90915806D01*
X97596074Y-91370777D01*
X97500000Y-91853772D01*
X78607741Y-91853772D01*
X78591426Y-91829355D01*
X78349564Y-91836093D01*
X77734657Y-92451000D01*
X77748799Y-92465142D01*
X77743142Y-92470799D01*
X77729000Y-92456657D01*
X77714858Y-92470799D01*
X77709201Y-92465142D01*
X77723343Y-92451000D01*
X77709201Y-92436858D01*
X77714858Y-92431201D01*
X77729000Y-92445343D01*
X78343907Y-91830436D01*
X78350645Y-91588574D01*
X78170449Y-91483868D01*
X77973288Y-91416329D01*
X77766740Y-91388552D01*
X77558742Y-91401603D01*
X77357286Y-91454983D01*
X77170116Y-91546639D01*
X77107355Y-91588574D01*
X77112868Y-91786472D01*
X77091500Y-91807840D01*
X77070132Y-91786472D01*
X77075645Y-91588574D01*
X76895449Y-91483868D01*
X76698288Y-91416329D01*
X76491740Y-91388552D01*
X76284802Y-91401536D01*
X76284802Y-91336584D01*
X76244452Y-91133726D01*
X76165300Y-90942638D01*
X76109802Y-90859579D01*
X76109802Y-88388444D01*
X77049437Y-87448810D01*
X77075265Y-87448810D01*
X77297443Y-87404616D01*
X77506729Y-87317926D01*
X77695082Y-87192073D01*
X77855263Y-87031892D01*
X77981116Y-86843539D01*
X78067806Y-86634253D01*
X78094749Y-86498800D01*
X83473459Y-86498800D01*
X83515200Y-86502911D01*
X83556941Y-86498800D01*
X83556949Y-86498800D01*
X83681829Y-86486500D01*
X83842055Y-86437897D01*
X83989719Y-86358968D01*
X84119148Y-86252748D01*
X84145766Y-86220314D01*
X84984244Y-85381836D01*
X94557200Y-85381836D01*
X94557200Y-85608366D01*
X94601394Y-85830544D01*
X94688084Y-86039830D01*
X94813937Y-86228183D01*
X94974118Y-86388364D01*
X95162471Y-86514217D01*
X95371757Y-86600907D01*
X95593935Y-86645101D01*
X95820465Y-86645101D01*
X96042643Y-86600907D01*
X96251929Y-86514217D01*
X96440282Y-86388364D01*
X96483545Y-86345101D01*
X103134358Y-86345101D01*
X103176099Y-86349212D01*
X103217840Y-86345101D01*
X103217848Y-86345101D01*
X103342728Y-86332801D01*
X103502954Y-86284198D01*
X103650618Y-86205269D01*
X103780047Y-86099049D01*
X103806665Y-86066615D01*
X110502725Y-79370557D01*
X110535148Y-79343948D01*
X110561757Y-79311525D01*
X110561761Y-79311521D01*
X110611600Y-79250791D01*
X110611601Y-90514992D01*
X110605553Y-90576400D01*
X110629687Y-90821442D01*
X110701163Y-91057068D01*
X110726547Y-91104557D01*
X110817235Y-91274223D01*
X110973441Y-91464560D01*
X111021138Y-91503704D01*
X115013928Y-95496495D01*
X115072887Y-95792903D01*
X115193498Y-96084084D01*
X115368599Y-96346141D01*
X115591459Y-96569001D01*
X115853516Y-96744102D01*
X116144697Y-96864713D01*
X116453814Y-96926200D01*
X116768986Y-96926200D01*
X117078103Y-96864713D01*
X117369284Y-96744102D01*
X117631341Y-96569001D01*
X117854201Y-96346141D01*
X117883394Y-96302450D01*
X117973329Y-96420646D01*
X118209481Y-96629447D01*
X118481831Y-96788165D01*
X118779912Y-96890700D01*
X118895903Y-96913772D01*
X119147400Y-96744694D01*
X119147400Y-95330200D01*
X119127400Y-95330200D01*
X119127400Y-95322200D01*
X119147400Y-95322200D01*
X119147400Y-93907706D01*
X119155400Y-93907706D01*
X119155400Y-95322200D01*
X119175400Y-95322200D01*
X119175400Y-95330200D01*
X119155400Y-95330200D01*
X119155400Y-96744694D01*
X119406897Y-96913772D01*
X119522888Y-96890700D01*
X119820969Y-96788165D01*
X120093319Y-96629447D01*
X120329471Y-96420646D01*
X120419406Y-96302450D01*
X120448599Y-96346141D01*
X120671459Y-96569001D01*
X120933516Y-96744102D01*
X121224697Y-96864713D01*
X121533814Y-96926200D01*
X121848986Y-96926200D01*
X122158103Y-96864713D01*
X122449284Y-96744102D01*
X122711341Y-96569001D01*
X122730631Y-96549711D01*
X122754781Y-96594893D01*
X122848505Y-96709095D01*
X122962707Y-96802819D01*
X123092999Y-96872461D01*
X123234374Y-96915347D01*
X123381400Y-96929828D01*
X125081400Y-96929828D01*
X125228426Y-96915347D01*
X125369801Y-96872461D01*
X125500093Y-96802819D01*
X125614295Y-96709095D01*
X125708019Y-96594893D01*
X125777661Y-96464601D01*
X125820547Y-96323226D01*
X125835028Y-96176200D01*
X125835028Y-94839951D01*
X133295000Y-94839951D01*
X133295000Y-95160049D01*
X133357448Y-95473995D01*
X133479943Y-95769726D01*
X133657780Y-96035877D01*
X133884123Y-96262220D01*
X134150274Y-96440057D01*
X134446005Y-96562552D01*
X134759951Y-96625000D01*
X135080049Y-96625000D01*
X135393995Y-96562552D01*
X135689726Y-96440057D01*
X135955877Y-96262220D01*
X136182220Y-96035877D01*
X136360057Y-95769726D01*
X136482552Y-95473995D01*
X136545000Y-95160049D01*
X136545000Y-94839951D01*
X136482552Y-94526005D01*
X136360057Y-94230274D01*
X136182220Y-93964123D01*
X135955877Y-93737780D01*
X135689726Y-93559943D01*
X135393995Y-93437448D01*
X135080049Y-93375000D01*
X134759951Y-93375000D01*
X134446005Y-93437448D01*
X134150274Y-93559943D01*
X133884123Y-93737780D01*
X133657780Y-93964123D01*
X133479943Y-94230274D01*
X133357448Y-94526005D01*
X133295000Y-94839951D01*
X125835028Y-94839951D01*
X125835028Y-94476200D01*
X125820547Y-94329174D01*
X125777661Y-94187799D01*
X125708019Y-94057507D01*
X125614295Y-93943305D01*
X125500093Y-93849581D01*
X125369801Y-93779939D01*
X125228426Y-93737053D01*
X125081400Y-93722572D01*
X123381400Y-93722572D01*
X123234374Y-93737053D01*
X123092999Y-93779939D01*
X122962707Y-93849581D01*
X122848505Y-93943305D01*
X122754781Y-94057507D01*
X122730631Y-94102689D01*
X122711341Y-94083399D01*
X122449284Y-93908298D01*
X122158103Y-93787687D01*
X121848986Y-93726200D01*
X121533814Y-93726200D01*
X121224697Y-93787687D01*
X120933516Y-93908298D01*
X120671459Y-94083399D01*
X120448599Y-94306259D01*
X120419406Y-94349950D01*
X120329471Y-94231754D01*
X120093319Y-94022953D01*
X119820969Y-93864235D01*
X119522888Y-93761700D01*
X119406897Y-93738628D01*
X119155400Y-93907706D01*
X119147400Y-93907706D01*
X118895903Y-93738628D01*
X118779912Y-93761700D01*
X118481831Y-93864235D01*
X118209481Y-94022953D01*
X117973329Y-94231754D01*
X117883394Y-94349950D01*
X117854201Y-94306259D01*
X117631341Y-94083399D01*
X117369284Y-93908298D01*
X117078103Y-93787687D01*
X116781695Y-93728728D01*
X113111600Y-90058634D01*
X113111600Y-79858394D01*
X115210000Y-79858394D01*
X115210000Y-80301606D01*
X115296466Y-80736301D01*
X115466076Y-81145775D01*
X115712311Y-81514292D01*
X116025708Y-81827689D01*
X116394225Y-82073924D01*
X116803699Y-82243534D01*
X117238394Y-82330000D01*
X117681606Y-82330000D01*
X118116301Y-82243534D01*
X118525775Y-82073924D01*
X118894292Y-81827689D01*
X119207689Y-81514292D01*
X119453924Y-81145775D01*
X119623534Y-80736301D01*
X119710000Y-80301606D01*
X119710000Y-79858394D01*
X135210000Y-79858394D01*
X135210000Y-80301606D01*
X135296466Y-80736301D01*
X135466076Y-81145775D01*
X135712311Y-81514292D01*
X136025708Y-81827689D01*
X136394225Y-82073924D01*
X136803699Y-82243534D01*
X137238394Y-82330000D01*
X137681606Y-82330000D01*
X138116301Y-82243534D01*
X138525775Y-82073924D01*
X138894292Y-81827689D01*
X139207689Y-81514292D01*
X139453924Y-81145775D01*
X139623534Y-80736301D01*
X139710000Y-80301606D01*
X139710000Y-79858394D01*
X139623534Y-79423699D01*
X139453924Y-79014225D01*
X139207689Y-78645708D01*
X138894292Y-78332311D01*
X138525775Y-78086076D01*
X138116301Y-77916466D01*
X137681606Y-77830000D01*
X137238394Y-77830000D01*
X136803699Y-77916466D01*
X136394225Y-78086076D01*
X136025708Y-78332311D01*
X135712311Y-78645708D01*
X135466076Y-79014225D01*
X135296466Y-79423699D01*
X135210000Y-79858394D01*
X119710000Y-79858394D01*
X119623534Y-79423699D01*
X119453924Y-79014225D01*
X119207689Y-78645708D01*
X118894292Y-78332311D01*
X118525775Y-78086076D01*
X118116301Y-77916466D01*
X117681606Y-77830000D01*
X117238394Y-77830000D01*
X116803699Y-77916466D01*
X116394225Y-78086076D01*
X116025708Y-78332311D01*
X115712311Y-78645708D01*
X115466076Y-79014225D01*
X115296466Y-79423699D01*
X115210000Y-79858394D01*
X113111600Y-79858394D01*
X113111600Y-74839951D01*
X113295000Y-74839951D01*
X113295000Y-75160049D01*
X113357448Y-75473995D01*
X113479943Y-75769726D01*
X113657780Y-76035877D01*
X113884123Y-76262220D01*
X114150274Y-76440057D01*
X114446005Y-76562552D01*
X114759951Y-76625000D01*
X115080049Y-76625000D01*
X115393995Y-76562552D01*
X115689726Y-76440057D01*
X115955877Y-76262220D01*
X116182220Y-76035877D01*
X116360057Y-75769726D01*
X116482552Y-75473995D01*
X116545000Y-75160049D01*
X116545000Y-74839951D01*
X116522961Y-74729149D01*
X117250000Y-74729149D01*
X117250000Y-75270851D01*
X117355681Y-75802145D01*
X117562982Y-76302613D01*
X117863936Y-76753023D01*
X118246977Y-77136064D01*
X118697387Y-77437018D01*
X119197855Y-77644319D01*
X119729149Y-77750000D01*
X120270851Y-77750000D01*
X120802145Y-77644319D01*
X121302613Y-77437018D01*
X121572240Y-77256859D01*
X121560000Y-77318394D01*
X121560000Y-77761606D01*
X121646466Y-78196301D01*
X121816076Y-78605775D01*
X122062311Y-78974292D01*
X122375708Y-79287689D01*
X122744225Y-79533924D01*
X123153699Y-79703534D01*
X123588394Y-79790000D01*
X124031606Y-79790000D01*
X124466301Y-79703534D01*
X124875775Y-79533924D01*
X125244292Y-79287689D01*
X125557689Y-78974292D01*
X125803924Y-78605775D01*
X125973534Y-78196301D01*
X126060000Y-77761606D01*
X126060000Y-77318394D01*
X125973534Y-76883699D01*
X125803924Y-76474225D01*
X125795971Y-76462323D01*
X125849726Y-76440057D01*
X126115877Y-76262220D01*
X126342220Y-76035877D01*
X126520057Y-75769726D01*
X126642552Y-75473995D01*
X126705000Y-75160049D01*
X126705000Y-74839951D01*
X133295000Y-74839951D01*
X133295000Y-75160049D01*
X133357448Y-75473995D01*
X133479943Y-75769726D01*
X133657780Y-76035877D01*
X133884123Y-76262220D01*
X134150274Y-76440057D01*
X134446005Y-76562552D01*
X134759951Y-76625000D01*
X135080049Y-76625000D01*
X135393995Y-76562552D01*
X135689726Y-76440057D01*
X135955877Y-76262220D01*
X136182220Y-76035877D01*
X136360057Y-75769726D01*
X136482552Y-75473995D01*
X136545000Y-75160049D01*
X136545000Y-74839951D01*
X136482552Y-74526005D01*
X136360057Y-74230274D01*
X136182220Y-73964123D01*
X135955877Y-73737780D01*
X135689726Y-73559943D01*
X135393995Y-73437448D01*
X135080049Y-73375000D01*
X134759951Y-73375000D01*
X134446005Y-73437448D01*
X134150274Y-73559943D01*
X133884123Y-73737780D01*
X133657780Y-73964123D01*
X133479943Y-74230274D01*
X133357448Y-74526005D01*
X133295000Y-74839951D01*
X126705000Y-74839951D01*
X126642552Y-74526005D01*
X126520057Y-74230274D01*
X126342220Y-73964123D01*
X126115877Y-73737780D01*
X125849726Y-73559943D01*
X125553995Y-73437448D01*
X125240049Y-73375000D01*
X124919951Y-73375000D01*
X124606005Y-73437448D01*
X124310274Y-73559943D01*
X124044123Y-73737780D01*
X123817780Y-73964123D01*
X123639943Y-74230274D01*
X123517448Y-74526005D01*
X123455000Y-74839951D01*
X123455000Y-75160049D01*
X123484942Y-75310578D01*
X123153699Y-75376466D01*
X122744225Y-75546076D01*
X122687748Y-75583813D01*
X122750000Y-75270851D01*
X122750000Y-74729149D01*
X122644319Y-74197855D01*
X122437018Y-73697387D01*
X122136064Y-73246977D01*
X121753023Y-72863936D01*
X121302613Y-72562982D01*
X120802145Y-72355681D01*
X120270851Y-72250000D01*
X119729149Y-72250000D01*
X119197855Y-72355681D01*
X118697387Y-72562982D01*
X118246977Y-72863936D01*
X117863936Y-73246977D01*
X117562982Y-73697387D01*
X117355681Y-74197855D01*
X117250000Y-74729149D01*
X116522961Y-74729149D01*
X116482552Y-74526005D01*
X116360057Y-74230274D01*
X116182220Y-73964123D01*
X115955877Y-73737780D01*
X115689726Y-73559943D01*
X115393995Y-73437448D01*
X115080049Y-73375000D01*
X114759951Y-73375000D01*
X114446005Y-73437448D01*
X114150274Y-73559943D01*
X113884123Y-73737780D01*
X113657780Y-73964123D01*
X113479943Y-74230274D01*
X113357448Y-74526005D01*
X113295000Y-74839951D01*
X113111600Y-74839951D01*
X113111600Y-73954195D01*
X113093513Y-73770557D01*
X113022037Y-73534931D01*
X112905966Y-73317777D01*
X112749760Y-73127440D01*
X112559422Y-72971234D01*
X112342268Y-72855163D01*
X112106642Y-72783687D01*
X111861600Y-72759552D01*
X111616557Y-72783687D01*
X111380931Y-72855163D01*
X111163777Y-72971234D01*
X110973440Y-73127440D01*
X110817234Y-73317778D01*
X110781200Y-73385193D01*
X110781200Y-68450000D01*
X117521251Y-68450000D01*
X117525001Y-68488075D01*
X117525000Y-71411934D01*
X117521251Y-71450000D01*
X117536214Y-71601926D01*
X117580530Y-71748014D01*
X117652494Y-71882650D01*
X117717241Y-71961545D01*
X117749341Y-72000659D01*
X117867350Y-72097506D01*
X118001986Y-72169470D01*
X118148074Y-72213786D01*
X118300000Y-72228749D01*
X118338065Y-72225000D01*
X121661935Y-72225000D01*
X121700000Y-72228749D01*
X121738065Y-72225000D01*
X121851926Y-72213786D01*
X121998014Y-72169470D01*
X122132650Y-72097506D01*
X122250659Y-72000659D01*
X122315922Y-71921135D01*
X123208400Y-71921135D01*
X123208400Y-72147665D01*
X123252594Y-72369843D01*
X123339284Y-72579129D01*
X123465137Y-72767482D01*
X123625318Y-72927663D01*
X123813671Y-73053516D01*
X124022957Y-73140206D01*
X124245135Y-73184400D01*
X124471665Y-73184400D01*
X124693843Y-73140206D01*
X124903129Y-73053516D01*
X125091482Y-72927663D01*
X125251663Y-72767482D01*
X125377516Y-72579129D01*
X125464206Y-72369843D01*
X125508400Y-72147665D01*
X125508400Y-71921135D01*
X125464206Y-71698957D01*
X125377516Y-71489671D01*
X125251663Y-71301318D01*
X125091482Y-71141137D01*
X124903129Y-71015284D01*
X124693843Y-70928594D01*
X124471665Y-70884400D01*
X124245135Y-70884400D01*
X124022957Y-70928594D01*
X123813671Y-71015284D01*
X123625318Y-71141137D01*
X123465137Y-71301318D01*
X123339284Y-71489671D01*
X123252594Y-71698957D01*
X123208400Y-71921135D01*
X122315922Y-71921135D01*
X122347506Y-71882650D01*
X122419470Y-71748014D01*
X122463786Y-71601926D01*
X122478749Y-71450000D01*
X122475000Y-71411935D01*
X122475000Y-68488065D01*
X122478749Y-68450000D01*
X122463786Y-68298074D01*
X122419470Y-68151986D01*
X122347506Y-68017350D01*
X122250659Y-67899341D01*
X122132650Y-67802494D01*
X121998014Y-67730530D01*
X121851926Y-67686214D01*
X121738065Y-67675000D01*
X121700000Y-67671251D01*
X121661935Y-67675000D01*
X118338065Y-67675000D01*
X118300000Y-67671251D01*
X118261935Y-67675000D01*
X118148074Y-67686214D01*
X118001986Y-67730530D01*
X117867350Y-67802494D01*
X117749341Y-67899341D01*
X117652494Y-68017350D01*
X117580530Y-68151986D01*
X117536214Y-68298074D01*
X117521251Y-68450000D01*
X110781200Y-68450000D01*
X110781200Y-68187945D01*
X110824463Y-68144682D01*
X110950316Y-67956329D01*
X111037006Y-67747043D01*
X111081200Y-67524865D01*
X111081200Y-67298335D01*
X111037006Y-67076157D01*
X110950316Y-66866871D01*
X110824463Y-66678518D01*
X110664282Y-66518337D01*
X110475929Y-66392484D01*
X110266643Y-66305794D01*
X110044465Y-66261600D01*
X109817935Y-66261600D01*
X109595757Y-66305794D01*
X109386471Y-66392484D01*
X109198118Y-66518337D01*
X109037937Y-66678518D01*
X108912084Y-66866871D01*
X108825394Y-67076157D01*
X108781200Y-67298335D01*
X108781200Y-67524865D01*
X108825394Y-67747043D01*
X108912084Y-67956329D01*
X109037937Y-68144682D01*
X109081200Y-68187945D01*
X109081201Y-78387917D01*
X102824019Y-84645101D01*
X98179877Y-84645101D01*
X98235406Y-84511043D01*
X98279600Y-84288865D01*
X98279600Y-84062335D01*
X98235406Y-83840157D01*
X98148716Y-83630871D01*
X98022863Y-83442518D01*
X97862682Y-83282337D01*
X97674329Y-83156484D01*
X97465043Y-83069794D01*
X97242865Y-83025600D01*
X97016335Y-83025600D01*
X96794157Y-83069794D01*
X96584871Y-83156484D01*
X96396518Y-83282337D01*
X96236337Y-83442518D01*
X96110484Y-83630871D01*
X96023794Y-83840157D01*
X95979600Y-84062335D01*
X95979600Y-84288865D01*
X95997803Y-84380376D01*
X95820465Y-84345101D01*
X95593935Y-84345101D01*
X95371757Y-84389295D01*
X95162471Y-84475985D01*
X94974118Y-84601838D01*
X94813937Y-84762019D01*
X94688084Y-84950372D01*
X94601394Y-85159658D01*
X94557200Y-85381836D01*
X84984244Y-85381836D01*
X90507686Y-79858394D01*
X95210000Y-79858394D01*
X95210000Y-80301606D01*
X95296466Y-80736301D01*
X95466076Y-81145775D01*
X95712311Y-81514292D01*
X96025708Y-81827689D01*
X96394225Y-82073924D01*
X96803699Y-82243534D01*
X97238394Y-82330000D01*
X97681606Y-82330000D01*
X98116301Y-82243534D01*
X98525775Y-82073924D01*
X98894292Y-81827689D01*
X99207689Y-81514292D01*
X99453924Y-81145775D01*
X99623534Y-80736301D01*
X99710000Y-80301606D01*
X99710000Y-79858394D01*
X99623534Y-79423699D01*
X99453924Y-79014225D01*
X99207689Y-78645708D01*
X98894292Y-78332311D01*
X98525775Y-78086076D01*
X98116301Y-77916466D01*
X97681606Y-77830000D01*
X97238394Y-77830000D01*
X96803699Y-77916466D01*
X96394225Y-78086076D01*
X96025708Y-78332311D01*
X95712311Y-78645708D01*
X95466076Y-79014225D01*
X95296466Y-79423699D01*
X95210000Y-79858394D01*
X90507686Y-79858394D01*
X90589121Y-79776960D01*
X90621548Y-79750348D01*
X90727768Y-79620919D01*
X90806697Y-79473255D01*
X90821729Y-79423699D01*
X90855300Y-79313030D01*
X90859765Y-79267695D01*
X90867600Y-79188149D01*
X90867600Y-79188142D01*
X90871711Y-79146401D01*
X90867600Y-79104660D01*
X90867600Y-74839951D01*
X93295000Y-74839951D01*
X93295000Y-75160049D01*
X93357448Y-75473995D01*
X93479943Y-75769726D01*
X93657780Y-76035877D01*
X93884123Y-76262220D01*
X94150274Y-76440057D01*
X94446005Y-76562552D01*
X94759951Y-76625000D01*
X95080049Y-76625000D01*
X95393995Y-76562552D01*
X95689726Y-76440057D01*
X95955877Y-76262220D01*
X96182220Y-76035877D01*
X96360057Y-75769726D01*
X96482552Y-75473995D01*
X96545000Y-75160049D01*
X96545000Y-74839951D01*
X96522961Y-74729149D01*
X97250000Y-74729149D01*
X97250000Y-75270851D01*
X97355681Y-75802145D01*
X97562982Y-76302613D01*
X97863936Y-76753023D01*
X98246977Y-77136064D01*
X98697387Y-77437018D01*
X99197855Y-77644319D01*
X99729149Y-77750000D01*
X100270851Y-77750000D01*
X100802145Y-77644319D01*
X101302613Y-77437018D01*
X101572240Y-77256859D01*
X101560000Y-77318394D01*
X101560000Y-77761606D01*
X101646466Y-78196301D01*
X101816076Y-78605775D01*
X102062311Y-78974292D01*
X102375708Y-79287689D01*
X102744225Y-79533924D01*
X103153699Y-79703534D01*
X103588394Y-79790000D01*
X104031606Y-79790000D01*
X104466301Y-79703534D01*
X104875775Y-79533924D01*
X105244292Y-79287689D01*
X105557689Y-78974292D01*
X105803924Y-78605775D01*
X105973534Y-78196301D01*
X106060000Y-77761606D01*
X106060000Y-77318394D01*
X105973534Y-76883699D01*
X105803924Y-76474225D01*
X105795971Y-76462323D01*
X105849726Y-76440057D01*
X106115877Y-76262220D01*
X106342220Y-76035877D01*
X106520057Y-75769726D01*
X106642552Y-75473995D01*
X106705000Y-75160049D01*
X106705000Y-74839951D01*
X106642552Y-74526005D01*
X106520057Y-74230274D01*
X106342220Y-73964123D01*
X106115877Y-73737780D01*
X105849726Y-73559943D01*
X105553995Y-73437448D01*
X105240049Y-73375000D01*
X104919951Y-73375000D01*
X104606005Y-73437448D01*
X104310274Y-73559943D01*
X104044123Y-73737780D01*
X103817780Y-73964123D01*
X103639943Y-74230274D01*
X103517448Y-74526005D01*
X103455000Y-74839951D01*
X103455000Y-75160049D01*
X103484942Y-75310578D01*
X103153699Y-75376466D01*
X102744225Y-75546076D01*
X102687748Y-75583813D01*
X102750000Y-75270851D01*
X102750000Y-74729149D01*
X102644319Y-74197855D01*
X102437018Y-73697387D01*
X102136064Y-73246977D01*
X101753023Y-72863936D01*
X101302613Y-72562982D01*
X100802145Y-72355681D01*
X100270851Y-72250000D01*
X99729149Y-72250000D01*
X99197855Y-72355681D01*
X98697387Y-72562982D01*
X98246977Y-72863936D01*
X97863936Y-73246977D01*
X97562982Y-73697387D01*
X97355681Y-74197855D01*
X97250000Y-74729149D01*
X96522961Y-74729149D01*
X96482552Y-74526005D01*
X96360057Y-74230274D01*
X96182220Y-73964123D01*
X95955877Y-73737780D01*
X95689726Y-73559943D01*
X95393995Y-73437448D01*
X95080049Y-73375000D01*
X94759951Y-73375000D01*
X94446005Y-73437448D01*
X94150274Y-73559943D01*
X93884123Y-73737780D01*
X93657780Y-73964123D01*
X93479943Y-74230274D01*
X93357448Y-74526005D01*
X93295000Y-74839951D01*
X90867600Y-74839951D01*
X90867600Y-68543545D01*
X90910863Y-68500282D01*
X90944460Y-68450000D01*
X97521251Y-68450000D01*
X97525001Y-68488075D01*
X97525000Y-71411934D01*
X97521251Y-71450000D01*
X97536214Y-71601926D01*
X97580530Y-71748014D01*
X97652494Y-71882650D01*
X97717241Y-71961545D01*
X97749341Y-72000659D01*
X97867350Y-72097506D01*
X98001986Y-72169470D01*
X98148074Y-72213786D01*
X98300000Y-72228749D01*
X98338065Y-72225000D01*
X101661935Y-72225000D01*
X101700000Y-72228749D01*
X101738065Y-72225000D01*
X101851926Y-72213786D01*
X101998014Y-72169470D01*
X102132650Y-72097506D01*
X102250659Y-72000659D01*
X102347506Y-71882650D01*
X102419470Y-71748014D01*
X102428594Y-71717935D01*
X103193200Y-71717935D01*
X103193200Y-71944465D01*
X103237394Y-72166643D01*
X103324084Y-72375929D01*
X103449937Y-72564282D01*
X103610118Y-72724463D01*
X103798471Y-72850316D01*
X104007757Y-72937006D01*
X104229935Y-72981200D01*
X104456465Y-72981200D01*
X104678643Y-72937006D01*
X104887929Y-72850316D01*
X105076282Y-72724463D01*
X105236463Y-72564282D01*
X105362316Y-72375929D01*
X105449006Y-72166643D01*
X105493200Y-71944465D01*
X105493200Y-71717935D01*
X105449006Y-71495757D01*
X105362316Y-71286471D01*
X105236463Y-71098118D01*
X105076282Y-70937937D01*
X104887929Y-70812084D01*
X104678643Y-70725394D01*
X104456465Y-70681200D01*
X104229935Y-70681200D01*
X104007757Y-70725394D01*
X103798471Y-70812084D01*
X103610118Y-70937937D01*
X103449937Y-71098118D01*
X103324084Y-71286471D01*
X103237394Y-71495757D01*
X103193200Y-71717935D01*
X102428594Y-71717935D01*
X102463786Y-71601926D01*
X102478749Y-71450000D01*
X102475000Y-71411935D01*
X102475000Y-68488065D01*
X102478749Y-68450000D01*
X102463786Y-68298074D01*
X102419470Y-68151986D01*
X102347506Y-68017350D01*
X102250659Y-67899341D01*
X102132650Y-67802494D01*
X101998014Y-67730530D01*
X101851926Y-67686214D01*
X101738065Y-67675000D01*
X101700000Y-67671251D01*
X101661935Y-67675000D01*
X98338065Y-67675000D01*
X98300000Y-67671251D01*
X98261935Y-67675000D01*
X98148074Y-67686214D01*
X98001986Y-67730530D01*
X97867350Y-67802494D01*
X97749341Y-67899341D01*
X97652494Y-68017350D01*
X97580530Y-68151986D01*
X97536214Y-68298074D01*
X97521251Y-68450000D01*
X90944460Y-68450000D01*
X91036716Y-68311929D01*
X91123406Y-68102643D01*
X91167600Y-67880465D01*
X91167600Y-67653935D01*
X91123406Y-67431757D01*
X91036716Y-67222471D01*
X90910863Y-67034118D01*
X90750682Y-66873937D01*
X90562329Y-66748084D01*
X90353043Y-66661394D01*
X90130865Y-66617200D01*
X89904335Y-66617200D01*
X89682157Y-66661394D01*
X89472871Y-66748084D01*
X89284518Y-66873937D01*
X89124337Y-67034118D01*
X88998484Y-67222471D01*
X88911794Y-67431757D01*
X88867600Y-67653935D01*
X88867600Y-67880465D01*
X88911794Y-68102643D01*
X88998484Y-68311929D01*
X89124337Y-68500282D01*
X89167601Y-68543546D01*
X89167600Y-78794319D01*
X83163120Y-84798800D01*
X76244938Y-84798800D01*
X76203197Y-84794689D01*
X76161456Y-84798800D01*
X76161449Y-84798800D01*
X76052211Y-84809559D01*
X76036568Y-84811100D01*
X75901826Y-84851973D01*
X75876343Y-84859703D01*
X75728679Y-84938632D01*
X75599250Y-85044852D01*
X75572637Y-85077280D01*
X72020800Y-88629118D01*
X72020800Y-80960915D01*
X72107082Y-80903263D01*
X72267263Y-80743082D01*
X72393116Y-80554729D01*
X72479806Y-80345443D01*
X72524000Y-80123265D01*
X72524000Y-79896735D01*
X72479806Y-79674557D01*
X72393116Y-79465271D01*
X72267263Y-79276918D01*
X72107082Y-79116737D01*
X71918729Y-78990884D01*
X71709443Y-78904194D01*
X71487265Y-78860000D01*
X71260735Y-78860000D01*
X71038557Y-78904194D01*
X70829271Y-78990884D01*
X70640918Y-79116737D01*
X70480737Y-79276918D01*
X70354884Y-79465271D01*
X70268194Y-79674557D01*
X70224000Y-79896735D01*
X70224000Y-80123265D01*
X70268194Y-80345443D01*
X70320801Y-80472446D01*
X70320801Y-80853520D01*
X69108966Y-79641686D01*
X69082348Y-79609252D01*
X68952919Y-79503032D01*
X68805255Y-79424103D01*
X68645029Y-79375500D01*
X68520149Y-79363200D01*
X68520141Y-79363200D01*
X68478400Y-79359089D01*
X68436659Y-79363200D01*
X67222745Y-79363200D01*
X67179482Y-79319937D01*
X66991129Y-79194084D01*
X66781843Y-79107394D01*
X66559665Y-79063200D01*
X66333135Y-79063200D01*
X66110957Y-79107394D01*
X65901671Y-79194084D01*
X65713318Y-79319937D01*
X65553137Y-79480118D01*
X65427284Y-79668471D01*
X65340594Y-79877757D01*
X65296400Y-80099935D01*
X65296400Y-80326465D01*
X65340594Y-80548643D01*
X65427284Y-80757929D01*
X65553137Y-80946282D01*
X65713318Y-81106463D01*
X65901671Y-81232316D01*
X66110957Y-81319006D01*
X66333135Y-81363200D01*
X66559665Y-81363200D01*
X66781843Y-81319006D01*
X66991129Y-81232316D01*
X67179482Y-81106463D01*
X67222745Y-81063200D01*
X68126320Y-81063200D01*
X69508001Y-82444882D01*
X69508001Y-84869224D01*
X69372547Y-84896167D01*
X69163261Y-84982857D01*
X68974908Y-85108710D01*
X68814727Y-85268891D01*
X68688874Y-85457244D01*
X68602184Y-85666530D01*
X68557990Y-85888708D01*
X68557990Y-86115238D01*
X68602184Y-86337416D01*
X68688874Y-86546702D01*
X68814727Y-86735055D01*
X68974908Y-86895236D01*
X69163261Y-87021089D01*
X69372547Y-87107779D01*
X69508001Y-87134722D01*
X69508000Y-96113655D01*
X69464737Y-96156918D01*
X69338884Y-96345271D01*
X69252194Y-96554557D01*
X69208000Y-96776735D01*
X69208000Y-97003265D01*
X69252194Y-97225443D01*
X69338884Y-97434729D01*
X69464737Y-97623082D01*
X69624918Y-97783263D01*
X69813271Y-97909116D01*
X70022557Y-97995806D01*
X70244735Y-98040000D01*
X70471265Y-98040000D01*
X70693443Y-97995806D01*
X70902729Y-97909116D01*
X70972774Y-97862313D01*
X70847686Y-98049522D01*
X70760996Y-98258808D01*
X70716802Y-98480986D01*
X70716802Y-98707516D01*
X70760996Y-98929694D01*
X70847686Y-99138980D01*
X70973539Y-99327333D01*
X71133720Y-99487514D01*
X71322073Y-99613367D01*
X71443989Y-99663867D01*
X71443990Y-113180328D01*
X56065227Y-128559093D01*
X56005201Y-128469259D01*
X55782341Y-128246399D01*
X55738650Y-128217206D01*
X55856846Y-128127271D01*
X56065647Y-127891119D01*
X56224365Y-127618769D01*
X56326900Y-127320688D01*
X56349972Y-127204697D01*
X56180894Y-126953200D01*
X54766400Y-126953200D01*
X54766400Y-126973200D01*
X54758400Y-126973200D01*
X54758400Y-126953200D01*
X53343906Y-126953200D01*
X53174828Y-127204697D01*
X53197900Y-127320688D01*
X53300435Y-127618769D01*
X53459153Y-127891119D01*
X53667954Y-128127271D01*
X53786150Y-128217206D01*
X53742459Y-128246399D01*
X53519599Y-128469259D01*
X53344498Y-128731316D01*
X53223887Y-129022497D01*
X53162400Y-129331614D01*
X53162400Y-129646786D01*
X53223887Y-129955903D01*
X53344498Y-130247084D01*
X53519599Y-130509141D01*
X53538889Y-130528431D01*
X53493707Y-130552581D01*
X53379505Y-130646305D01*
X53285781Y-130760507D01*
X53216139Y-130890799D01*
X53173253Y-131032174D01*
X53158772Y-131179200D01*
X50825000Y-131179200D01*
X50825000Y-126693703D01*
X53174828Y-126693703D01*
X53343906Y-126945200D01*
X54758400Y-126945200D01*
X54758400Y-125530705D01*
X54766400Y-125530705D01*
X54766400Y-126945200D01*
X56180894Y-126945200D01*
X56349972Y-126693703D01*
X56326900Y-126577712D01*
X56224365Y-126279631D01*
X56065647Y-126007281D01*
X55856846Y-125771129D01*
X55605986Y-125580250D01*
X55322708Y-125441978D01*
X55017897Y-125361628D01*
X54766400Y-125530705D01*
X54758400Y-125530705D01*
X54506903Y-125361628D01*
X54202092Y-125441978D01*
X53918814Y-125580250D01*
X53667954Y-125771129D01*
X53459153Y-126007281D01*
X53300435Y-126279631D01*
X53197900Y-126577712D01*
X53174828Y-126693703D01*
X50825000Y-126693703D01*
X50825000Y-119858394D01*
X55210000Y-119858394D01*
X55210000Y-120301606D01*
X55296466Y-120736301D01*
X55466076Y-121145775D01*
X55712311Y-121514292D01*
X56025708Y-121827689D01*
X56394225Y-122073924D01*
X56803699Y-122243534D01*
X57238394Y-122330000D01*
X57681606Y-122330000D01*
X58116301Y-122243534D01*
X58525775Y-122073924D01*
X58894292Y-121827689D01*
X59207689Y-121514292D01*
X59453924Y-121145775D01*
X59623534Y-120736301D01*
X59710000Y-120301606D01*
X59710000Y-119858394D01*
X59623534Y-119423699D01*
X59453924Y-119014225D01*
X59207689Y-118645708D01*
X58894292Y-118332311D01*
X58525775Y-118086076D01*
X58116301Y-117916466D01*
X57681606Y-117830000D01*
X57238394Y-117830000D01*
X56803699Y-117916466D01*
X56394225Y-118086076D01*
X56025708Y-118332311D01*
X55712311Y-118645708D01*
X55466076Y-119014225D01*
X55296466Y-119423699D01*
X55210000Y-119858394D01*
X50825000Y-119858394D01*
X50825000Y-114839951D01*
X53295000Y-114839951D01*
X53295000Y-115160049D01*
X53357448Y-115473995D01*
X53479943Y-115769726D01*
X53657780Y-116035877D01*
X53884123Y-116262220D01*
X54150274Y-116440057D01*
X54446005Y-116562552D01*
X54759951Y-116625000D01*
X55080049Y-116625000D01*
X55393995Y-116562552D01*
X55689726Y-116440057D01*
X55955877Y-116262220D01*
X56182220Y-116035877D01*
X56360057Y-115769726D01*
X56482552Y-115473995D01*
X56545000Y-115160049D01*
X56545000Y-114839951D01*
X56522961Y-114729149D01*
X57250000Y-114729149D01*
X57250000Y-115270851D01*
X57355681Y-115802145D01*
X57562982Y-116302613D01*
X57863936Y-116753023D01*
X58246977Y-117136064D01*
X58697387Y-117437018D01*
X59197855Y-117644319D01*
X59729149Y-117750000D01*
X60270851Y-117750000D01*
X60802145Y-117644319D01*
X61302613Y-117437018D01*
X61572240Y-117256859D01*
X61560000Y-117318394D01*
X61560000Y-117761606D01*
X61646466Y-118196301D01*
X61816076Y-118605775D01*
X62062311Y-118974292D01*
X62375708Y-119287689D01*
X62744225Y-119533924D01*
X63153699Y-119703534D01*
X63588394Y-119790000D01*
X64031606Y-119790000D01*
X64466301Y-119703534D01*
X64875775Y-119533924D01*
X65244292Y-119287689D01*
X65557689Y-118974292D01*
X65803924Y-118605775D01*
X65973534Y-118196301D01*
X66060000Y-117761606D01*
X66060000Y-117318394D01*
X65973534Y-116883699D01*
X65803924Y-116474225D01*
X65795971Y-116462323D01*
X65849726Y-116440057D01*
X66115877Y-116262220D01*
X66342220Y-116035877D01*
X66520057Y-115769726D01*
X66642552Y-115473995D01*
X66705000Y-115160049D01*
X66705000Y-114839951D01*
X66642552Y-114526005D01*
X66520057Y-114230274D01*
X66342220Y-113964123D01*
X66115877Y-113737780D01*
X65849726Y-113559943D01*
X65553995Y-113437448D01*
X65240049Y-113375000D01*
X64919951Y-113375000D01*
X64606005Y-113437448D01*
X64310274Y-113559943D01*
X64044123Y-113737780D01*
X63817780Y-113964123D01*
X63639943Y-114230274D01*
X63517448Y-114526005D01*
X63455000Y-114839951D01*
X63455000Y-115160049D01*
X63484942Y-115310578D01*
X63153699Y-115376466D01*
X62744225Y-115546076D01*
X62687748Y-115583813D01*
X62750000Y-115270851D01*
X62750000Y-114729149D01*
X62644319Y-114197855D01*
X62437018Y-113697387D01*
X62136064Y-113246977D01*
X61753023Y-112863936D01*
X61302613Y-112562982D01*
X60802145Y-112355681D01*
X60270851Y-112250000D01*
X59729149Y-112250000D01*
X59197855Y-112355681D01*
X58697387Y-112562982D01*
X58246977Y-112863936D01*
X57863936Y-113246977D01*
X57562982Y-113697387D01*
X57355681Y-114197855D01*
X57250000Y-114729149D01*
X56522961Y-114729149D01*
X56482552Y-114526005D01*
X56360057Y-114230274D01*
X56182220Y-113964123D01*
X55955877Y-113737780D01*
X55689726Y-113559943D01*
X55393995Y-113437448D01*
X55080049Y-113375000D01*
X54759951Y-113375000D01*
X54446005Y-113437448D01*
X54150274Y-113559943D01*
X53884123Y-113737780D01*
X53657780Y-113964123D01*
X53479943Y-114230274D01*
X53357448Y-114526005D01*
X53295000Y-114839951D01*
X50825000Y-114839951D01*
X50825000Y-108450000D01*
X57521251Y-108450000D01*
X57525001Y-108488075D01*
X57525000Y-111411934D01*
X57521251Y-111450000D01*
X57536214Y-111601926D01*
X57580530Y-111748014D01*
X57652494Y-111882650D01*
X57692923Y-111931913D01*
X57749341Y-112000659D01*
X57867350Y-112097506D01*
X58001986Y-112169470D01*
X58148074Y-112213786D01*
X58300000Y-112228749D01*
X58338065Y-112225000D01*
X61661935Y-112225000D01*
X61700000Y-112228749D01*
X61738065Y-112225000D01*
X61851926Y-112213786D01*
X61998014Y-112169470D01*
X62132650Y-112097506D01*
X62250659Y-112000659D01*
X62347506Y-111882650D01*
X62419470Y-111748014D01*
X62463786Y-111601926D01*
X62478749Y-111450000D01*
X62475000Y-111411935D01*
X62475000Y-108488065D01*
X62478749Y-108450000D01*
X62463786Y-108298074D01*
X62419470Y-108151986D01*
X62347506Y-108017350D01*
X62250659Y-107899341D01*
X62132650Y-107802494D01*
X61998014Y-107730530D01*
X61851926Y-107686214D01*
X61738065Y-107675000D01*
X61700000Y-107671251D01*
X61661935Y-107675000D01*
X58338065Y-107675000D01*
X58300000Y-107671251D01*
X58261935Y-107675000D01*
X58148074Y-107686214D01*
X58001986Y-107730530D01*
X57867350Y-107802494D01*
X57749341Y-107899341D01*
X57652494Y-108017350D01*
X57580530Y-108151986D01*
X57536214Y-108298074D01*
X57521251Y-108450000D01*
X50825000Y-108450000D01*
X50825000Y-104753772D01*
X52500000Y-104753772D01*
X52500000Y-105246228D01*
X52596074Y-105729223D01*
X52784529Y-106184194D01*
X53058124Y-106593657D01*
X53406343Y-106941876D01*
X53815806Y-107215471D01*
X54270777Y-107403926D01*
X54753772Y-107500000D01*
X55246228Y-107500000D01*
X55729223Y-107403926D01*
X56184194Y-107215471D01*
X56593657Y-106941876D01*
X56941876Y-106593657D01*
X57215471Y-106184194D01*
X57403926Y-105729223D01*
X57500000Y-105246228D01*
X57500000Y-104753772D01*
X57403926Y-104270777D01*
X57215471Y-103815806D01*
X56941876Y-103406343D01*
X56593657Y-103058124D01*
X56184194Y-102784529D01*
X55729223Y-102596074D01*
X55246228Y-102500000D01*
X54753772Y-102500000D01*
X54270777Y-102596074D01*
X53815806Y-102784529D01*
X53406343Y-103058124D01*
X53058124Y-103406343D01*
X52784529Y-103815806D01*
X52596074Y-104270777D01*
X52500000Y-104753772D01*
X50825000Y-104753772D01*
X50825000Y-99858394D01*
X55210000Y-99858394D01*
X55210000Y-100301606D01*
X55296466Y-100736301D01*
X55466076Y-101145775D01*
X55712311Y-101514292D01*
X56025708Y-101827689D01*
X56394225Y-102073924D01*
X56803699Y-102243534D01*
X57238394Y-102330000D01*
X57681606Y-102330000D01*
X58116301Y-102243534D01*
X58525775Y-102073924D01*
X58894292Y-101827689D01*
X59207689Y-101514292D01*
X59453924Y-101145775D01*
X59623534Y-100736301D01*
X59710000Y-100301606D01*
X59710000Y-99858394D01*
X59623534Y-99423699D01*
X59453924Y-99014225D01*
X59207689Y-98645708D01*
X58894292Y-98332311D01*
X58525775Y-98086076D01*
X58116301Y-97916466D01*
X57681606Y-97830000D01*
X57238394Y-97830000D01*
X56803699Y-97916466D01*
X56394225Y-98086076D01*
X56025708Y-98332311D01*
X55712311Y-98645708D01*
X55466076Y-99014225D01*
X55296466Y-99423699D01*
X55210000Y-99858394D01*
X50825000Y-99858394D01*
X50825000Y-94839951D01*
X53295000Y-94839951D01*
X53295000Y-95160049D01*
X53357448Y-95473995D01*
X53479943Y-95769726D01*
X53657780Y-96035877D01*
X53884123Y-96262220D01*
X54150274Y-96440057D01*
X54446005Y-96562552D01*
X54759951Y-96625000D01*
X55080049Y-96625000D01*
X55393995Y-96562552D01*
X55689726Y-96440057D01*
X55955877Y-96262220D01*
X56182220Y-96035877D01*
X56360057Y-95769726D01*
X56482552Y-95473995D01*
X56545000Y-95160049D01*
X56545000Y-94839951D01*
X56482552Y-94526005D01*
X56360057Y-94230274D01*
X56182220Y-93964123D01*
X55955877Y-93737780D01*
X55689726Y-93559943D01*
X55393995Y-93437448D01*
X55080049Y-93375000D01*
X54759951Y-93375000D01*
X54446005Y-93437448D01*
X54150274Y-93559943D01*
X53884123Y-93737780D01*
X53657780Y-93964123D01*
X53479943Y-94230274D01*
X53357448Y-94526005D01*
X53295000Y-94839951D01*
X50825000Y-94839951D01*
X50825000Y-89924000D01*
X51222772Y-89924000D01*
X51222772Y-90924000D01*
X51237253Y-91071026D01*
X51280139Y-91212401D01*
X51349781Y-91342693D01*
X51443505Y-91456895D01*
X51557707Y-91550619D01*
X51687999Y-91620261D01*
X51829374Y-91663147D01*
X51976400Y-91677628D01*
X52976400Y-91677628D01*
X53123426Y-91663147D01*
X53264801Y-91620261D01*
X53395093Y-91550619D01*
X53509295Y-91456895D01*
X53603019Y-91342693D01*
X53672661Y-91212401D01*
X53715547Y-91071026D01*
X53730028Y-90924000D01*
X53730028Y-90372452D01*
X55216081Y-88886400D01*
X57525001Y-88886400D01*
X57525000Y-91411934D01*
X57521251Y-91450000D01*
X57536214Y-91601926D01*
X57580530Y-91748014D01*
X57652494Y-91882650D01*
X57697128Y-91937037D01*
X57749341Y-92000659D01*
X57867350Y-92097506D01*
X58001986Y-92169470D01*
X58148074Y-92213786D01*
X58300000Y-92228749D01*
X58338065Y-92225000D01*
X61661935Y-92225000D01*
X61700000Y-92228749D01*
X61738065Y-92225000D01*
X61851926Y-92213786D01*
X61998014Y-92169470D01*
X62132650Y-92097506D01*
X62250659Y-92000659D01*
X62347506Y-91882650D01*
X62419470Y-91748014D01*
X62463786Y-91601926D01*
X62478749Y-91450000D01*
X62475000Y-91411935D01*
X62475000Y-88886400D01*
X63859120Y-88886400D01*
X65208745Y-90236026D01*
X65116642Y-90208087D01*
X64871600Y-90183952D01*
X64626557Y-90208087D01*
X64390931Y-90279563D01*
X64173777Y-90395634D01*
X63983440Y-90551840D01*
X63827234Y-90742178D01*
X63711163Y-90959332D01*
X63639687Y-91194958D01*
X63621600Y-91378596D01*
X63621600Y-92473200D01*
X63615553Y-92534598D01*
X63621600Y-92595996D01*
X63621600Y-92596003D01*
X63639687Y-92779641D01*
X63711163Y-93015267D01*
X63827235Y-93232421D01*
X63983441Y-93422758D01*
X64031138Y-93461902D01*
X64201716Y-93632480D01*
X64044123Y-93737780D01*
X63817780Y-93964123D01*
X63639943Y-94230274D01*
X63517448Y-94526005D01*
X63455000Y-94839951D01*
X63455000Y-95160049D01*
X63484942Y-95310578D01*
X63153699Y-95376466D01*
X62744225Y-95546076D01*
X62687748Y-95583813D01*
X62750000Y-95270851D01*
X62750000Y-94729149D01*
X62644319Y-94197855D01*
X62437018Y-93697387D01*
X62136064Y-93246977D01*
X61753023Y-92863936D01*
X61302613Y-92562982D01*
X60802145Y-92355681D01*
X60270851Y-92250000D01*
X59729149Y-92250000D01*
X59197855Y-92355681D01*
X58697387Y-92562982D01*
X58246977Y-92863936D01*
X57863936Y-93246977D01*
X57562982Y-93697387D01*
X57355681Y-94197855D01*
X57250000Y-94729149D01*
X57250000Y-95270851D01*
X57355681Y-95802145D01*
X57562982Y-96302613D01*
X57863936Y-96753023D01*
X58246977Y-97136064D01*
X58697387Y-97437018D01*
X59197855Y-97644319D01*
X59729149Y-97750000D01*
X60270851Y-97750000D01*
X60802145Y-97644319D01*
X61302613Y-97437018D01*
X61572240Y-97256859D01*
X61560000Y-97318394D01*
X61560000Y-97761606D01*
X61646466Y-98196301D01*
X61816076Y-98605775D01*
X62062311Y-98974292D01*
X62375708Y-99287689D01*
X62744225Y-99533924D01*
X63153699Y-99703534D01*
X63588394Y-99790000D01*
X64031606Y-99790000D01*
X64466301Y-99703534D01*
X64875775Y-99533924D01*
X65244292Y-99287689D01*
X65355001Y-99176980D01*
X65355002Y-108150831D01*
X63646297Y-109859537D01*
X63529235Y-110002178D01*
X63413163Y-110219332D01*
X63341687Y-110454958D01*
X63317553Y-110700000D01*
X63341687Y-110945042D01*
X63413163Y-111180668D01*
X63529235Y-111397822D01*
X63685440Y-111588160D01*
X63875778Y-111744365D01*
X64092932Y-111860437D01*
X64328558Y-111931913D01*
X64573600Y-111956047D01*
X64818642Y-111931913D01*
X65054268Y-111860437D01*
X65271422Y-111744365D01*
X65414063Y-111627303D01*
X67445464Y-109595903D01*
X67493161Y-109556759D01*
X67649367Y-109366422D01*
X67765438Y-109149268D01*
X67836914Y-108913642D01*
X67855001Y-108730004D01*
X67861049Y-108668599D01*
X67855001Y-108607194D01*
X67855001Y-94329396D01*
X67861048Y-94267998D01*
X67855001Y-94206600D01*
X67855001Y-94206594D01*
X67839434Y-94048537D01*
X67836914Y-94022955D01*
X67765438Y-93787330D01*
X67752829Y-93763740D01*
X67649367Y-93570176D01*
X67493161Y-93379839D01*
X67445465Y-93340696D01*
X67035792Y-92931024D01*
X67045222Y-92924723D01*
X67205403Y-92764542D01*
X67331256Y-92576189D01*
X67417946Y-92366903D01*
X67444596Y-92232926D01*
X67535255Y-92232926D01*
X67757433Y-92188732D01*
X67966719Y-92102042D01*
X68155072Y-91976189D01*
X68315253Y-91816008D01*
X68441106Y-91627655D01*
X68527796Y-91418369D01*
X68571990Y-91196191D01*
X68571990Y-90969661D01*
X68527796Y-90747483D01*
X68441106Y-90538197D01*
X68315253Y-90349844D01*
X68155072Y-90189663D01*
X68075191Y-90136288D01*
X68075191Y-89114127D01*
X68079302Y-89072386D01*
X68075191Y-89030645D01*
X68075191Y-89030638D01*
X68074785Y-89026513D01*
X68164448Y-88936850D01*
X68290301Y-88748497D01*
X68376991Y-88539211D01*
X68421185Y-88317033D01*
X68421185Y-88090503D01*
X68376991Y-87868325D01*
X68290301Y-87659039D01*
X68164448Y-87470686D01*
X68004267Y-87310505D01*
X67815914Y-87184652D01*
X67606628Y-87097962D01*
X67384450Y-87053768D01*
X67323266Y-87053768D01*
X66311983Y-86042486D01*
X66285365Y-86010052D01*
X66155936Y-85903832D01*
X66008272Y-85824903D01*
X65848046Y-85776300D01*
X65723166Y-85764000D01*
X65723158Y-85764000D01*
X65681417Y-85759889D01*
X65639676Y-85764000D01*
X53655878Y-85764000D01*
X53700570Y-85633783D01*
X53718280Y-85544744D01*
X53544893Y-85348000D01*
X52480400Y-85348000D01*
X52480400Y-85364000D01*
X52472400Y-85364000D01*
X52472400Y-85348000D01*
X51407907Y-85348000D01*
X51234520Y-85544744D01*
X51252230Y-85633783D01*
X51332286Y-85867039D01*
X51397385Y-85978921D01*
X51368665Y-86021903D01*
X51274437Y-86249389D01*
X51226400Y-86490886D01*
X51226400Y-86737114D01*
X51274437Y-86978611D01*
X51368665Y-87206097D01*
X51397332Y-87249000D01*
X51368665Y-87291903D01*
X51274437Y-87519389D01*
X51226400Y-87760886D01*
X51226400Y-88007114D01*
X51274437Y-88248611D01*
X51368665Y-88476097D01*
X51397332Y-88519000D01*
X51368665Y-88561903D01*
X51274437Y-88789389D01*
X51226400Y-89030886D01*
X51226400Y-89277114D01*
X51274437Y-89518611D01*
X51304228Y-89590532D01*
X51280139Y-89635599D01*
X51237253Y-89776974D01*
X51222772Y-89924000D01*
X50825000Y-89924000D01*
X50825000Y-83950886D01*
X51226400Y-83950886D01*
X51226400Y-84197114D01*
X51274437Y-84438611D01*
X51368665Y-84666097D01*
X51397385Y-84709079D01*
X51332286Y-84820961D01*
X51252230Y-85054217D01*
X51234520Y-85143256D01*
X51407907Y-85340000D01*
X52472400Y-85340000D01*
X52472400Y-85324000D01*
X52480400Y-85324000D01*
X52480400Y-85340000D01*
X53544893Y-85340000D01*
X53718280Y-85143256D01*
X53700570Y-85054217D01*
X53620514Y-84820961D01*
X53555415Y-84709079D01*
X53584135Y-84666097D01*
X53678363Y-84438611D01*
X53726400Y-84197114D01*
X53726400Y-83950886D01*
X53678363Y-83709389D01*
X53584135Y-83481903D01*
X53447338Y-83277172D01*
X53351400Y-83181234D01*
X53351400Y-79858394D01*
X55210000Y-79858394D01*
X55210000Y-80301606D01*
X55296466Y-80736301D01*
X55466076Y-81145775D01*
X55712311Y-81514292D01*
X56025708Y-81827689D01*
X56394225Y-82073924D01*
X56803699Y-82243534D01*
X57238394Y-82330000D01*
X57681606Y-82330000D01*
X58116301Y-82243534D01*
X58525775Y-82073924D01*
X58894292Y-81827689D01*
X59207689Y-81514292D01*
X59453924Y-81145775D01*
X59623534Y-80736301D01*
X59710000Y-80301606D01*
X59710000Y-79858394D01*
X59623534Y-79423699D01*
X59453924Y-79014225D01*
X59207689Y-78645708D01*
X58894292Y-78332311D01*
X58525775Y-78086076D01*
X58116301Y-77916466D01*
X57681606Y-77830000D01*
X57238394Y-77830000D01*
X56803699Y-77916466D01*
X56394225Y-78086076D01*
X56025708Y-78332311D01*
X55712311Y-78645708D01*
X55466076Y-79014225D01*
X55296466Y-79423699D01*
X55210000Y-79858394D01*
X53351400Y-79858394D01*
X53351400Y-75443590D01*
X53357448Y-75473995D01*
X53479943Y-75769726D01*
X53657780Y-76035877D01*
X53884123Y-76262220D01*
X54150274Y-76440057D01*
X54446005Y-76562552D01*
X54759951Y-76625000D01*
X55080049Y-76625000D01*
X55393995Y-76562552D01*
X55689726Y-76440057D01*
X55955877Y-76262220D01*
X56182220Y-76035877D01*
X56360057Y-75769726D01*
X56482552Y-75473995D01*
X56545000Y-75160049D01*
X56545000Y-74839951D01*
X56482552Y-74526005D01*
X56360057Y-74230274D01*
X56182220Y-73964123D01*
X55955877Y-73737780D01*
X55689726Y-73559943D01*
X55393995Y-73437448D01*
X55080049Y-73375000D01*
X54759951Y-73375000D01*
X54446005Y-73437448D01*
X54150274Y-73559943D01*
X53884123Y-73737780D01*
X53657780Y-73964123D01*
X53479943Y-74230274D01*
X53357448Y-74526005D01*
X53351400Y-74556410D01*
X53351400Y-73616036D01*
X54159636Y-72807800D01*
X58330991Y-72807800D01*
X58246977Y-72863936D01*
X57863936Y-73246977D01*
X57562982Y-73697387D01*
X57355681Y-74197855D01*
X57250000Y-74729149D01*
X57250000Y-75270851D01*
X57355681Y-75802145D01*
X57562982Y-76302613D01*
X57863936Y-76753023D01*
X58246977Y-77136064D01*
X58697387Y-77437018D01*
X59197855Y-77644319D01*
X59729149Y-77750000D01*
X60270851Y-77750000D01*
X60802145Y-77644319D01*
X61302613Y-77437018D01*
X61572240Y-77256859D01*
X61560000Y-77318394D01*
X61560000Y-77761606D01*
X61646466Y-78196301D01*
X61816076Y-78605775D01*
X62062311Y-78974292D01*
X62375708Y-79287689D01*
X62744225Y-79533924D01*
X63153699Y-79703534D01*
X63588394Y-79790000D01*
X64031606Y-79790000D01*
X64466301Y-79703534D01*
X64875775Y-79533924D01*
X65244292Y-79287689D01*
X65557689Y-78974292D01*
X65803924Y-78605775D01*
X65973534Y-78196301D01*
X66060000Y-77761606D01*
X66060000Y-77318394D01*
X65973534Y-76883699D01*
X65803924Y-76474225D01*
X65795971Y-76462323D01*
X65849726Y-76440057D01*
X66115877Y-76262220D01*
X66342220Y-76035877D01*
X66520057Y-75769726D01*
X66642552Y-75473995D01*
X66705000Y-75160049D01*
X66705000Y-74839951D01*
X66642552Y-74526005D01*
X66520057Y-74230274D01*
X66342220Y-73964123D01*
X66115877Y-73737780D01*
X65883932Y-73582799D01*
X74126068Y-73582799D01*
X73894123Y-73737780D01*
X73667780Y-73964123D01*
X73489943Y-74230274D01*
X73367448Y-74526005D01*
X73305000Y-74839951D01*
X73305000Y-75160049D01*
X73367448Y-75473995D01*
X73489943Y-75769726D01*
X73667780Y-76035877D01*
X73894123Y-76262220D01*
X74160274Y-76440057D01*
X74456005Y-76562552D01*
X74769951Y-76625000D01*
X75090049Y-76625000D01*
X75403995Y-76562552D01*
X75699726Y-76440057D01*
X75965877Y-76262220D01*
X76192220Y-76035877D01*
X76370057Y-75769726D01*
X76492552Y-75473995D01*
X76555000Y-75160049D01*
X76555000Y-74839951D01*
X76492552Y-74526005D01*
X76370057Y-74230274D01*
X76192220Y-73964123D01*
X75965877Y-73737780D01*
X75733932Y-73582799D01*
X77649547Y-73582799D01*
X77572982Y-73697387D01*
X77365681Y-74197855D01*
X77260000Y-74729149D01*
X77260000Y-75270851D01*
X77365681Y-75802145D01*
X77572982Y-76302613D01*
X77873936Y-76753023D01*
X78256977Y-77136064D01*
X78707387Y-77437018D01*
X79207855Y-77644319D01*
X79739149Y-77750000D01*
X80280851Y-77750000D01*
X80812145Y-77644319D01*
X81312613Y-77437018D01*
X81582240Y-77256859D01*
X81570000Y-77318394D01*
X81570000Y-77761606D01*
X81656466Y-78196301D01*
X81826076Y-78605775D01*
X82072311Y-78974292D01*
X82385708Y-79287689D01*
X82754225Y-79533924D01*
X83163699Y-79703534D01*
X83598394Y-79790000D01*
X83948634Y-79790000D01*
X82623941Y-81114693D01*
X82623936Y-81114697D01*
X81981434Y-81757200D01*
X78974781Y-81757200D01*
X79217689Y-81514292D01*
X79463924Y-81145775D01*
X79633534Y-80736301D01*
X79720000Y-80301606D01*
X79720000Y-79858394D01*
X79633534Y-79423699D01*
X79463924Y-79014225D01*
X79217689Y-78645708D01*
X78904292Y-78332311D01*
X78535775Y-78086076D01*
X78126301Y-77916466D01*
X77691606Y-77830000D01*
X77248394Y-77830000D01*
X76813699Y-77916466D01*
X76404225Y-78086076D01*
X76035708Y-78332311D01*
X75722311Y-78645708D01*
X75476076Y-79014225D01*
X75306466Y-79423699D01*
X75220000Y-79858394D01*
X75220000Y-80301606D01*
X75306466Y-80736301D01*
X75476076Y-81145775D01*
X75722311Y-81514292D01*
X76035708Y-81827689D01*
X76392423Y-82066038D01*
X76327840Y-82119040D01*
X76171634Y-82309377D01*
X76055563Y-82526531D01*
X75984087Y-82762157D01*
X75959952Y-83007200D01*
X75984087Y-83252243D01*
X76055563Y-83487869D01*
X76171634Y-83705023D01*
X76327840Y-83895360D01*
X76518177Y-84051566D01*
X76735331Y-84167637D01*
X76970957Y-84239113D01*
X77154595Y-84257200D01*
X82437802Y-84257200D01*
X82499200Y-84263247D01*
X82560598Y-84257200D01*
X82560605Y-84257200D01*
X82744243Y-84239113D01*
X82979869Y-84167637D01*
X83197023Y-84051566D01*
X83387360Y-83895360D01*
X83426508Y-83847658D01*
X84391703Y-82882464D01*
X84391707Y-82882459D01*
X87455465Y-79818702D01*
X87503161Y-79779559D01*
X87659367Y-79589222D01*
X87775438Y-79372068D01*
X87846914Y-79136442D01*
X87854128Y-79063200D01*
X87871049Y-78891399D01*
X87865001Y-78829994D01*
X87865001Y-73976398D01*
X87871048Y-73915000D01*
X87865001Y-73853602D01*
X87865001Y-73853596D01*
X87846914Y-73669958D01*
X87775438Y-73434332D01*
X87659367Y-73217178D01*
X87503161Y-73026841D01*
X87455464Y-72987697D01*
X84950506Y-70482740D01*
X84911360Y-70435040D01*
X84721022Y-70278835D01*
X84503868Y-70162763D01*
X84268243Y-70091287D01*
X84023200Y-70067152D01*
X83778157Y-70091287D01*
X83542531Y-70162763D01*
X83325377Y-70278835D01*
X83212178Y-70371735D01*
X83135040Y-70435040D01*
X83095898Y-70482735D01*
X82495835Y-71082799D01*
X82485000Y-71082799D01*
X82485000Y-68488065D01*
X82488749Y-68450000D01*
X82473786Y-68298074D01*
X82429470Y-68151986D01*
X82357506Y-68017350D01*
X82260659Y-67899341D01*
X82142650Y-67802494D01*
X82008014Y-67730530D01*
X81861926Y-67686214D01*
X81748065Y-67675000D01*
X81710000Y-67671251D01*
X81671935Y-67675000D01*
X78348065Y-67675000D01*
X78310000Y-67671251D01*
X78271935Y-67675000D01*
X78158074Y-67686214D01*
X78011986Y-67730530D01*
X77877350Y-67802494D01*
X77759341Y-67899341D01*
X77662494Y-68017350D01*
X77590530Y-68151986D01*
X77546214Y-68298074D01*
X77531251Y-68450000D01*
X77535001Y-68488075D01*
X77535000Y-71082799D01*
X76040656Y-71082799D01*
X76076116Y-71029729D01*
X76162806Y-70820443D01*
X76207000Y-70598265D01*
X76207000Y-70371735D01*
X76162806Y-70149557D01*
X76076116Y-69940271D01*
X75950263Y-69751918D01*
X75790082Y-69591737D01*
X75601729Y-69465884D01*
X75392443Y-69379194D01*
X75170265Y-69335000D01*
X74943735Y-69335000D01*
X74721557Y-69379194D01*
X74512271Y-69465884D01*
X74323918Y-69591737D01*
X74163737Y-69751918D01*
X74037884Y-69940271D01*
X73951194Y-70149557D01*
X73907000Y-70371735D01*
X73907000Y-70397564D01*
X73856364Y-70448200D01*
X66224637Y-70448200D01*
X65793000Y-70016564D01*
X65793000Y-69990735D01*
X65748806Y-69768557D01*
X65662116Y-69559271D01*
X65536263Y-69370918D01*
X65376082Y-69210737D01*
X65187729Y-69084884D01*
X64978443Y-68998194D01*
X64756265Y-68954000D01*
X64529735Y-68954000D01*
X64307557Y-68998194D01*
X64098271Y-69084884D01*
X63909918Y-69210737D01*
X63749737Y-69370918D01*
X63623884Y-69559271D01*
X63537194Y-69768557D01*
X63493000Y-69990735D01*
X63493000Y-70217265D01*
X63537194Y-70439443D01*
X63623884Y-70648729D01*
X63749737Y-70837082D01*
X63789347Y-70876692D01*
X63767378Y-70888435D01*
X63577040Y-71044640D01*
X63566240Y-71057800D01*
X62475000Y-71057800D01*
X62475000Y-68488065D01*
X62478749Y-68450000D01*
X62463786Y-68298074D01*
X62419470Y-68151986D01*
X62347506Y-68017350D01*
X62250659Y-67899341D01*
X62132650Y-67802494D01*
X61998014Y-67730530D01*
X61851926Y-67686214D01*
X61738065Y-67675000D01*
X61700000Y-67671251D01*
X61661935Y-67675000D01*
X58338065Y-67675000D01*
X58300000Y-67671251D01*
X58261935Y-67675000D01*
X58148074Y-67686214D01*
X58001986Y-67730530D01*
X57867350Y-67802494D01*
X57749341Y-67899341D01*
X57652494Y-68017350D01*
X57580530Y-68151986D01*
X57536214Y-68298074D01*
X57521251Y-68450000D01*
X57525001Y-68488075D01*
X57525000Y-71057800D01*
X53840178Y-71057800D01*
X53797199Y-71053567D01*
X53625669Y-71070461D01*
X53598546Y-71078689D01*
X53460732Y-71120495D01*
X53308724Y-71201744D01*
X53175488Y-71311088D01*
X53148083Y-71344481D01*
X51888081Y-72604483D01*
X51854688Y-72631888D01*
X51745344Y-72765125D01*
X51677343Y-72892348D01*
X51664095Y-72917133D01*
X51614061Y-73082071D01*
X51597167Y-73253600D01*
X51601400Y-73296579D01*
X51601401Y-83181233D01*
X51505462Y-83277172D01*
X51368665Y-83481903D01*
X51274437Y-83709389D01*
X51226400Y-83950886D01*
X50825000Y-83950886D01*
X50825000Y-65036743D01*
X50850254Y-64753772D01*
X52500000Y-64753772D01*
X52500000Y-65246228D01*
X52596074Y-65729223D01*
X52784529Y-66184194D01*
X53058124Y-66593657D01*
X53406343Y-66941876D01*
X53815806Y-67215471D01*
X54270777Y-67403926D01*
X54753772Y-67500000D01*
X55246228Y-67500000D01*
X55729223Y-67403926D01*
X56184194Y-67215471D01*
X56218123Y-67192800D01*
X64399000Y-67192800D01*
X64399000Y-67742800D01*
X64423952Y-67988147D01*
X64496290Y-68223912D01*
X64613233Y-68441034D01*
X64770288Y-68631170D01*
X64961419Y-68787012D01*
X65179280Y-68902572D01*
X65415500Y-68973409D01*
X65456256Y-68980680D01*
X65653000Y-68807293D01*
X65653000Y-67192800D01*
X64399000Y-67192800D01*
X56218123Y-67192800D01*
X56593657Y-66941876D01*
X56900733Y-66634800D01*
X64399000Y-66634800D01*
X64399000Y-67184800D01*
X65653000Y-67184800D01*
X65653000Y-65570307D01*
X65661000Y-65570307D01*
X65661000Y-67184800D01*
X65681000Y-67184800D01*
X65681000Y-67192800D01*
X65661000Y-67192800D01*
X65661000Y-68807293D01*
X65857744Y-68980680D01*
X65898500Y-68973409D01*
X66134720Y-68902572D01*
X66352581Y-68787012D01*
X66543712Y-68631170D01*
X66700767Y-68441034D01*
X66817710Y-68223912D01*
X66890048Y-67988147D01*
X66915000Y-67742800D01*
X66915000Y-67720647D01*
X66981122Y-67733800D01*
X67192878Y-67733800D01*
X67400566Y-67692488D01*
X67596203Y-67611452D01*
X67772272Y-67493807D01*
X67922007Y-67344072D01*
X68039652Y-67168003D01*
X68120688Y-66972366D01*
X68162000Y-66764678D01*
X68162000Y-66621935D01*
X68210329Y-66601916D01*
X68398682Y-66476063D01*
X68441945Y-66432800D01*
X71766055Y-66432800D01*
X71807625Y-66474370D01*
X71792000Y-66552922D01*
X71792000Y-66764678D01*
X71833312Y-66972366D01*
X71914348Y-67168003D01*
X72031993Y-67344072D01*
X72181728Y-67493807D01*
X72357797Y-67611452D01*
X72553434Y-67692488D01*
X72761122Y-67733800D01*
X72972878Y-67733800D01*
X73039000Y-67720647D01*
X73039000Y-67742800D01*
X73063952Y-67988147D01*
X73136290Y-68223912D01*
X73253233Y-68441034D01*
X73410288Y-68631170D01*
X73601419Y-68787012D01*
X73819280Y-68902572D01*
X74055500Y-68973409D01*
X74096256Y-68980680D01*
X74293000Y-68807293D01*
X74293000Y-67192800D01*
X74301000Y-67192800D01*
X74301000Y-68807293D01*
X74497744Y-68980680D01*
X74538500Y-68973409D01*
X74774720Y-68902572D01*
X74992581Y-68787012D01*
X75183712Y-68631170D01*
X75340767Y-68441034D01*
X75457710Y-68223912D01*
X75530048Y-67988147D01*
X75555000Y-67742800D01*
X75555000Y-67192800D01*
X74301000Y-67192800D01*
X74293000Y-67192800D01*
X74273000Y-67192800D01*
X74273000Y-67184800D01*
X74293000Y-67184800D01*
X74293000Y-65570307D01*
X74301000Y-65570307D01*
X74301000Y-67184800D01*
X75555000Y-67184800D01*
X75555000Y-66634800D01*
X75530048Y-66389453D01*
X75457710Y-66153688D01*
X75340767Y-65936566D01*
X75183712Y-65746430D01*
X74992581Y-65590588D01*
X74774720Y-65475028D01*
X74538500Y-65404191D01*
X74497744Y-65396920D01*
X74301000Y-65570307D01*
X74293000Y-65570307D01*
X74096256Y-65396920D01*
X74055500Y-65404191D01*
X73819280Y-65475028D01*
X73692400Y-65542329D01*
X73692400Y-65469535D01*
X73648206Y-65247357D01*
X73561516Y-65038071D01*
X73435663Y-64849718D01*
X73339717Y-64753772D01*
X97500000Y-64753772D01*
X97500000Y-65246228D01*
X97596074Y-65729223D01*
X97784529Y-66184194D01*
X98058124Y-66593657D01*
X98406343Y-66941876D01*
X98815806Y-67215471D01*
X99270777Y-67403926D01*
X99753772Y-67500000D01*
X100246228Y-67500000D01*
X100729223Y-67403926D01*
X101184194Y-67215471D01*
X101593657Y-66941876D01*
X101941876Y-66593657D01*
X102215471Y-66184194D01*
X102403926Y-65729223D01*
X102500000Y-65246228D01*
X102500000Y-64753772D01*
X142500000Y-64753772D01*
X142500000Y-65246228D01*
X142596074Y-65729223D01*
X142784529Y-66184194D01*
X143058124Y-66593657D01*
X143406343Y-66941876D01*
X143815806Y-67215471D01*
X144270777Y-67403926D01*
X144753772Y-67500000D01*
X145246228Y-67500000D01*
X145729223Y-67403926D01*
X146184194Y-67215471D01*
X146593657Y-66941876D01*
X146941876Y-66593657D01*
X147215471Y-66184194D01*
X147403926Y-65729223D01*
X147500000Y-65246228D01*
X147500000Y-64753772D01*
X147403926Y-64270777D01*
X147215471Y-63815806D01*
X146941876Y-63406343D01*
X146593657Y-63058124D01*
X146184194Y-62784529D01*
X145729223Y-62596074D01*
X145246228Y-62500000D01*
X144753772Y-62500000D01*
X144270777Y-62596074D01*
X143815806Y-62784529D01*
X143406343Y-63058124D01*
X143058124Y-63406343D01*
X142784529Y-63815806D01*
X142596074Y-64270777D01*
X142500000Y-64753772D01*
X102500000Y-64753772D01*
X102403926Y-64270777D01*
X102215471Y-63815806D01*
X101941876Y-63406343D01*
X101593657Y-63058124D01*
X101184194Y-62784529D01*
X100729223Y-62596074D01*
X100246228Y-62500000D01*
X99753772Y-62500000D01*
X99270777Y-62596074D01*
X98815806Y-62784529D01*
X98406343Y-63058124D01*
X98058124Y-63406343D01*
X97784529Y-63815806D01*
X97596074Y-64270777D01*
X97500000Y-64753772D01*
X73339717Y-64753772D01*
X73275482Y-64689537D01*
X73087129Y-64563684D01*
X72877843Y-64476994D01*
X72655665Y-64432800D01*
X72429135Y-64432800D01*
X72206957Y-64476994D01*
X71997671Y-64563684D01*
X71809318Y-64689537D01*
X71766055Y-64732800D01*
X68441945Y-64732800D01*
X68398682Y-64689537D01*
X68210329Y-64563684D01*
X68001043Y-64476994D01*
X67778865Y-64432800D01*
X67552335Y-64432800D01*
X67330157Y-64476994D01*
X67120871Y-64563684D01*
X66932518Y-64689537D01*
X66772337Y-64849718D01*
X66646484Y-65038071D01*
X66559794Y-65247357D01*
X66515600Y-65469535D01*
X66515600Y-65696065D01*
X66522116Y-65728821D01*
X66352581Y-65590588D01*
X66134720Y-65475028D01*
X65898500Y-65404191D01*
X65857744Y-65396920D01*
X65661000Y-65570307D01*
X65653000Y-65570307D01*
X65456256Y-65396920D01*
X65415500Y-65404191D01*
X65179280Y-65475028D01*
X64961419Y-65590588D01*
X64770288Y-65746430D01*
X64613233Y-65936566D01*
X64496290Y-66153688D01*
X64423952Y-66389453D01*
X64399000Y-66634800D01*
X56900733Y-66634800D01*
X56941876Y-66593657D01*
X57215471Y-66184194D01*
X57403926Y-65729223D01*
X57500000Y-65246228D01*
X57500000Y-64753772D01*
X57403926Y-64270777D01*
X57215471Y-63815806D01*
X56941876Y-63406343D01*
X56593657Y-63058124D01*
X56525825Y-63012800D01*
X64399000Y-63012800D01*
X64399000Y-63312800D01*
X64423952Y-63558147D01*
X64496290Y-63793912D01*
X64613233Y-64011034D01*
X64770288Y-64201170D01*
X64961419Y-64357012D01*
X65179280Y-64472572D01*
X65415500Y-64543409D01*
X65456256Y-64550680D01*
X65653000Y-64377293D01*
X65653000Y-63012800D01*
X65661000Y-63012800D01*
X65661000Y-64377293D01*
X65857744Y-64550680D01*
X65898500Y-64543409D01*
X66134720Y-64472572D01*
X66352581Y-64357012D01*
X66543712Y-64201170D01*
X66700767Y-64011034D01*
X66817710Y-63793912D01*
X66890048Y-63558147D01*
X66915000Y-63312800D01*
X66915000Y-63012800D01*
X73039000Y-63012800D01*
X73039000Y-63312800D01*
X73063952Y-63558147D01*
X73136290Y-63793912D01*
X73253233Y-64011034D01*
X73410288Y-64201170D01*
X73601419Y-64357012D01*
X73819280Y-64472572D01*
X74055500Y-64543409D01*
X74096256Y-64550680D01*
X74293000Y-64377293D01*
X74293000Y-63012800D01*
X74301000Y-63012800D01*
X74301000Y-64377293D01*
X74497744Y-64550680D01*
X74538500Y-64543409D01*
X74774720Y-64472572D01*
X74992581Y-64357012D01*
X75183712Y-64201170D01*
X75340767Y-64011034D01*
X75457710Y-63793912D01*
X75530048Y-63558147D01*
X75555000Y-63312800D01*
X75555000Y-63012800D01*
X74301000Y-63012800D01*
X74293000Y-63012800D01*
X73039000Y-63012800D01*
X66915000Y-63012800D01*
X65661000Y-63012800D01*
X65653000Y-63012800D01*
X64399000Y-63012800D01*
X56525825Y-63012800D01*
X56184194Y-62784529D01*
X55991712Y-62704800D01*
X64399000Y-62704800D01*
X64399000Y-63004800D01*
X65653000Y-63004800D01*
X65653000Y-61640307D01*
X65661000Y-61640307D01*
X65661000Y-63004800D01*
X66915000Y-63004800D01*
X66915000Y-62704800D01*
X73039000Y-62704800D01*
X73039000Y-63004800D01*
X74293000Y-63004800D01*
X74293000Y-61640307D01*
X74301000Y-61640307D01*
X74301000Y-63004800D01*
X75555000Y-63004800D01*
X75555000Y-62704800D01*
X75530048Y-62459453D01*
X75457710Y-62223688D01*
X75340767Y-62006566D01*
X75183712Y-61816430D01*
X74992581Y-61660588D01*
X74774720Y-61545028D01*
X74538500Y-61474191D01*
X74497744Y-61466920D01*
X74301000Y-61640307D01*
X74293000Y-61640307D01*
X74096256Y-61466920D01*
X74055500Y-61474191D01*
X73819280Y-61545028D01*
X73601419Y-61660588D01*
X73410288Y-61816430D01*
X73253233Y-62006566D01*
X73136290Y-62223688D01*
X73063952Y-62459453D01*
X73039000Y-62704800D01*
X66915000Y-62704800D01*
X66890048Y-62459453D01*
X66817710Y-62223688D01*
X66700767Y-62006566D01*
X66543712Y-61816430D01*
X66352581Y-61660588D01*
X66134720Y-61545028D01*
X65898500Y-61474191D01*
X65857744Y-61466920D01*
X65661000Y-61640307D01*
X65653000Y-61640307D01*
X65456256Y-61466920D01*
X65415500Y-61474191D01*
X65179280Y-61545028D01*
X64961419Y-61660588D01*
X64770288Y-61816430D01*
X64613233Y-62006566D01*
X64496290Y-62223688D01*
X64423952Y-62459453D01*
X64399000Y-62704800D01*
X55991712Y-62704800D01*
X55729223Y-62596074D01*
X55246228Y-62500000D01*
X54753772Y-62500000D01*
X54270777Y-62596074D01*
X53815806Y-62784529D01*
X53406343Y-63058124D01*
X53058124Y-63406343D01*
X52784529Y-63815806D01*
X52596074Y-64270777D01*
X52500000Y-64753772D01*
X50850254Y-64753772D01*
X50894211Y-64261251D01*
X51089921Y-63545855D01*
X51409225Y-62876422D01*
X51842030Y-62274109D01*
X52374649Y-61757966D01*
X52990262Y-61344291D01*
X53669393Y-61046174D01*
X54396931Y-60871507D01*
X55030245Y-60825000D01*
X144963257Y-60825000D01*
X145738749Y-60894211D01*
G37*
G04 #@! TD.AperFunction*
D22*
X74359802Y-90859579D02*
X74304304Y-90942638D01*
X74225152Y-91133726D01*
X74184802Y-91336584D01*
X74184802Y-91543416D01*
X74225152Y-91746274D01*
X74283291Y-91886633D01*
X74211868Y-92009551D01*
X74144329Y-92206712D01*
X74116552Y-92413260D01*
X74129603Y-92621258D01*
X74182983Y-92822714D01*
X74274639Y-93009884D01*
X74316574Y-93072645D01*
X74514472Y-93067132D01*
X74535840Y-93088500D01*
X74514472Y-93109868D01*
X74316574Y-93104355D01*
X74211868Y-93284551D01*
X74144329Y-93481712D01*
X74116552Y-93688260D01*
X74129603Y-93896258D01*
X74182983Y-94097714D01*
X74274639Y-94284884D01*
X74316574Y-94347645D01*
X74514472Y-94342132D01*
X74535840Y-94363500D01*
X74514472Y-94384868D01*
X74316574Y-94379355D01*
X74211868Y-94559551D01*
X74144329Y-94756712D01*
X74116552Y-94963260D01*
X74129603Y-95171258D01*
X74182983Y-95372714D01*
X74274639Y-95559884D01*
X74316574Y-95622645D01*
X74558436Y-95615907D01*
X75173343Y-95001000D01*
X75159201Y-94986858D01*
X75164858Y-94981201D01*
X75179000Y-94995343D01*
X75193142Y-94981201D01*
X75198799Y-94986858D01*
X75184657Y-95001000D01*
X75198799Y-95015142D01*
X75193142Y-95020799D01*
X75179000Y-95006657D01*
X74564093Y-95621564D01*
X74557355Y-95863426D01*
X74737551Y-95968132D01*
X74845206Y-96005010D01*
X74845206Y-96013816D01*
X74885556Y-96216674D01*
X74964708Y-96407762D01*
X74994400Y-96452200D01*
X74994401Y-97880103D01*
X74924097Y-97927078D01*
X74763916Y-98087259D01*
X74638063Y-98275612D01*
X74556604Y-98472269D01*
X74443882Y-98359547D01*
X74255529Y-98233694D01*
X74046243Y-98147004D01*
X73824065Y-98102810D01*
X73597535Y-98102810D01*
X73393075Y-98143480D01*
X73239529Y-98040884D01*
X73030243Y-97954194D01*
X72808065Y-97910000D01*
X72792693Y-97910000D01*
X72760065Y-97861169D01*
X72716802Y-97817906D01*
X72716802Y-90337276D01*
X74359803Y-88694276D01*
X74359802Y-90859579D01*
G04 #@! TA.AperFunction,Conductor*
D23*
G36*
X74359802Y-90859579D02*
G01*
X74304304Y-90942638D01*
X74225152Y-91133726D01*
X74184802Y-91336584D01*
X74184802Y-91543416D01*
X74225152Y-91746274D01*
X74283291Y-91886633D01*
X74211868Y-92009551D01*
X74144329Y-92206712D01*
X74116552Y-92413260D01*
X74129603Y-92621258D01*
X74182983Y-92822714D01*
X74274639Y-93009884D01*
X74316574Y-93072645D01*
X74514472Y-93067132D01*
X74535840Y-93088500D01*
X74514472Y-93109868D01*
X74316574Y-93104355D01*
X74211868Y-93284551D01*
X74144329Y-93481712D01*
X74116552Y-93688260D01*
X74129603Y-93896258D01*
X74182983Y-94097714D01*
X74274639Y-94284884D01*
X74316574Y-94347645D01*
X74514472Y-94342132D01*
X74535840Y-94363500D01*
X74514472Y-94384868D01*
X74316574Y-94379355D01*
X74211868Y-94559551D01*
X74144329Y-94756712D01*
X74116552Y-94963260D01*
X74129603Y-95171258D01*
X74182983Y-95372714D01*
X74274639Y-95559884D01*
X74316574Y-95622645D01*
X74558436Y-95615907D01*
X75173343Y-95001000D01*
X75159201Y-94986858D01*
X75164858Y-94981201D01*
X75179000Y-94995343D01*
X75193142Y-94981201D01*
X75198799Y-94986858D01*
X75184657Y-95001000D01*
X75198799Y-95015142D01*
X75193142Y-95020799D01*
X75179000Y-95006657D01*
X74564093Y-95621564D01*
X74557355Y-95863426D01*
X74737551Y-95968132D01*
X74845206Y-96005010D01*
X74845206Y-96013816D01*
X74885556Y-96216674D01*
X74964708Y-96407762D01*
X74994400Y-96452200D01*
X74994401Y-97880103D01*
X74924097Y-97927078D01*
X74763916Y-98087259D01*
X74638063Y-98275612D01*
X74556604Y-98472269D01*
X74443882Y-98359547D01*
X74255529Y-98233694D01*
X74046243Y-98147004D01*
X73824065Y-98102810D01*
X73597535Y-98102810D01*
X73393075Y-98143480D01*
X73239529Y-98040884D01*
X73030243Y-97954194D01*
X72808065Y-97910000D01*
X72792693Y-97910000D01*
X72760065Y-97861169D01*
X72716802Y-97817906D01*
X72716802Y-90337276D01*
X74359803Y-88694276D01*
X74359802Y-90859579D01*
G37*
G04 #@! TD.AperFunction*
D22*
X76473799Y-94986858D02*
X76459657Y-95001000D01*
X76473799Y-95015142D01*
X76468142Y-95020799D01*
X76454000Y-95006657D01*
X76445432Y-95015225D01*
X76438650Y-95010693D01*
X76448343Y-95001000D01*
X76434201Y-94986858D01*
X76439858Y-94981201D01*
X76454000Y-94995343D01*
X76468142Y-94981201D01*
X76473799Y-94986858D01*
G04 #@! TA.AperFunction,Conductor*
D23*
G36*
X76473799Y-94986858D02*
G01*
X76459657Y-95001000D01*
X76473799Y-95015142D01*
X76468142Y-95020799D01*
X76454000Y-95006657D01*
X76445432Y-95015225D01*
X76438650Y-95010693D01*
X76448343Y-95001000D01*
X76434201Y-94986858D01*
X76439858Y-94981201D01*
X76454000Y-94995343D01*
X76468142Y-94981201D01*
X76473799Y-94986858D01*
G37*
G04 #@! TD.AperFunction*
D22*
X75198799Y-93711858D02*
X75184657Y-93726000D01*
X75198799Y-93740142D01*
X75193142Y-93745799D01*
X75179000Y-93731657D01*
X75164858Y-93745799D01*
X75159201Y-93740142D01*
X75173343Y-93726000D01*
X75159201Y-93711858D01*
X75164858Y-93706201D01*
X75179000Y-93720343D01*
X75193142Y-93706201D01*
X75198799Y-93711858D01*
G04 #@! TA.AperFunction,Conductor*
D23*
G36*
X75198799Y-93711858D02*
G01*
X75184657Y-93726000D01*
X75198799Y-93740142D01*
X75193142Y-93745799D01*
X75179000Y-93731657D01*
X75164858Y-93745799D01*
X75159201Y-93740142D01*
X75173343Y-93726000D01*
X75159201Y-93711858D01*
X75164858Y-93706201D01*
X75179000Y-93720343D01*
X75193142Y-93706201D01*
X75198799Y-93711858D01*
G37*
G04 #@! TD.AperFunction*
D22*
X76473799Y-93711858D02*
X76459657Y-93726000D01*
X76473799Y-93740142D01*
X76468142Y-93745799D01*
X76454000Y-93731657D01*
X76439858Y-93745799D01*
X76434201Y-93740142D01*
X76448343Y-93726000D01*
X76434201Y-93711858D01*
X76439858Y-93706201D01*
X76454000Y-93720343D01*
X76468142Y-93706201D01*
X76473799Y-93711858D01*
G04 #@! TA.AperFunction,Conductor*
D23*
G36*
X76473799Y-93711858D02*
G01*
X76459657Y-93726000D01*
X76473799Y-93740142D01*
X76468142Y-93745799D01*
X76454000Y-93731657D01*
X76439858Y-93745799D01*
X76434201Y-93740142D01*
X76448343Y-93726000D01*
X76434201Y-93711858D01*
X76439858Y-93706201D01*
X76454000Y-93720343D01*
X76468142Y-93706201D01*
X76473799Y-93711858D01*
G37*
G04 #@! TD.AperFunction*
D22*
X77748799Y-93711858D02*
X77734657Y-93726000D01*
X77748799Y-93740142D01*
X77743142Y-93745799D01*
X77729000Y-93731657D01*
X77714858Y-93745799D01*
X77709201Y-93740142D01*
X77723343Y-93726000D01*
X77709201Y-93711858D01*
X77714858Y-93706201D01*
X77729000Y-93720343D01*
X77743142Y-93706201D01*
X77748799Y-93711858D01*
G04 #@! TA.AperFunction,Conductor*
D23*
G36*
X77748799Y-93711858D02*
G01*
X77734657Y-93726000D01*
X77748799Y-93740142D01*
X77743142Y-93745799D01*
X77729000Y-93731657D01*
X77714858Y-93745799D01*
X77709201Y-93740142D01*
X77723343Y-93726000D01*
X77709201Y-93711858D01*
X77714858Y-93706201D01*
X77729000Y-93720343D01*
X77743142Y-93706201D01*
X77748799Y-93711858D01*
G37*
G04 #@! TD.AperFunction*
D22*
X76473799Y-92436858D02*
X76459657Y-92451000D01*
X76473799Y-92465142D01*
X76468142Y-92470799D01*
X76454000Y-92456657D01*
X76439858Y-92470799D01*
X76434201Y-92465142D01*
X76448343Y-92451000D01*
X76434201Y-92436858D01*
X76439858Y-92431201D01*
X76454000Y-92445343D01*
X76468142Y-92431201D01*
X76473799Y-92436858D01*
G04 #@! TA.AperFunction,Conductor*
D23*
G36*
X76473799Y-92436858D02*
G01*
X76459657Y-92451000D01*
X76473799Y-92465142D01*
X76468142Y-92470799D01*
X76454000Y-92456657D01*
X76439858Y-92470799D01*
X76434201Y-92465142D01*
X76448343Y-92451000D01*
X76434201Y-92436858D01*
X76439858Y-92431201D01*
X76454000Y-92445343D01*
X76468142Y-92431201D01*
X76473799Y-92436858D01*
G37*
G04 #@! TD.AperFunction*
M02*
