G04 #@! TF.GenerationSoftware,KiCad,Pcbnew,(5.1.10)-1*
G04 #@! TF.CreationDate,2021-08-27T00:07:47-06:00*
G04 #@! TF.ProjectId,EncoderPad_RP2040,456e636f-6465-4725-9061-645f52503230,rev?*
G04 #@! TF.SameCoordinates,Original*
G04 #@! TF.FileFunction,Paste,Bot*
G04 #@! TF.FilePolarity,Positive*
%FSLAX46Y46*%
G04 Gerber Fmt 4.6, Leading zero omitted, Abs format (unit mm)*
G04 Created by KiCad (PCBNEW (5.1.10)-1) date 2021-08-27 00:07:47*
%MOMM*%
%LPD*%
G01*
G04 APERTURE LIST*
%ADD10R,1.060000X0.650000*%
%ADD11R,1.800000X0.900000*%
%ADD12R,2.550000X2.500000*%
%ADD13R,1.200000X1.400000*%
%ADD14R,1.800000X1.100000*%
%ADD15R,0.600000X1.450000*%
%ADD16R,0.300000X1.450000*%
%ADD17R,2.300000X2.300000*%
G04 APERTURE END LIST*
D10*
X65997000Y-86167000D03*
X65997000Y-84267000D03*
X63797000Y-84267000D03*
X63797000Y-85217000D03*
X63797000Y-86167000D03*
G36*
G01*
X56966800Y-91977800D02*
X56966800Y-92527800D01*
G75*
G02*
X56766800Y-92727800I-200000J0D01*
G01*
X56366800Y-92727800D01*
G75*
G02*
X56166800Y-92527800I0J200000D01*
G01*
X56166800Y-91977800D01*
G75*
G02*
X56366800Y-91777800I200000J0D01*
G01*
X56766800Y-91777800D01*
G75*
G02*
X56966800Y-91977800I0J-200000D01*
G01*
G37*
G36*
G01*
X58616800Y-91977800D02*
X58616800Y-92527800D01*
G75*
G02*
X58416800Y-92727800I-200000J0D01*
G01*
X58016800Y-92727800D01*
G75*
G02*
X57816800Y-92527800I0J200000D01*
G01*
X57816800Y-91977800D01*
G75*
G02*
X58016800Y-91777800I200000J0D01*
G01*
X58416800Y-91777800D01*
G75*
G02*
X58616800Y-91977800I0J-200000D01*
G01*
G37*
G36*
G01*
X61803900Y-62532550D02*
X61803900Y-63045050D01*
G75*
G02*
X61585150Y-63263800I-218750J0D01*
G01*
X61147650Y-63263800D01*
G75*
G02*
X60928900Y-63045050I0J218750D01*
G01*
X60928900Y-62532550D01*
G75*
G02*
X61147650Y-62313800I218750J0D01*
G01*
X61585150Y-62313800D01*
G75*
G02*
X61803900Y-62532550I0J-218750D01*
G01*
G37*
G36*
G01*
X63378900Y-62532550D02*
X63378900Y-63045050D01*
G75*
G02*
X63160150Y-63263800I-218750J0D01*
G01*
X62722650Y-63263800D01*
G75*
G02*
X62503900Y-63045050I0J218750D01*
G01*
X62503900Y-62532550D01*
G75*
G02*
X62722650Y-62313800I218750J0D01*
G01*
X63160150Y-62313800D01*
G75*
G02*
X63378900Y-62532550I0J-218750D01*
G01*
G37*
G36*
G01*
X128392600Y-121749000D02*
X127842600Y-121749000D01*
G75*
G02*
X127642600Y-121549000I0J200000D01*
G01*
X127642600Y-121149000D01*
G75*
G02*
X127842600Y-120949000I200000J0D01*
G01*
X128392600Y-120949000D01*
G75*
G02*
X128592600Y-121149000I0J-200000D01*
G01*
X128592600Y-121549000D01*
G75*
G02*
X128392600Y-121749000I-200000J0D01*
G01*
G37*
G36*
G01*
X128392600Y-123399000D02*
X127842600Y-123399000D01*
G75*
G02*
X127642600Y-123199000I0J200000D01*
G01*
X127642600Y-122799000D01*
G75*
G02*
X127842600Y-122599000I200000J0D01*
G01*
X128392600Y-122599000D01*
G75*
G02*
X128592600Y-122799000I0J-200000D01*
G01*
X128592600Y-123199000D01*
G75*
G02*
X128392600Y-123399000I-200000J0D01*
G01*
G37*
G36*
G01*
X127741000Y-129203000D02*
X128291000Y-129203000D01*
G75*
G02*
X128491000Y-129403000I0J-200000D01*
G01*
X128491000Y-129803000D01*
G75*
G02*
X128291000Y-130003000I-200000J0D01*
G01*
X127741000Y-130003000D01*
G75*
G02*
X127541000Y-129803000I0J200000D01*
G01*
X127541000Y-129403000D01*
G75*
G02*
X127741000Y-129203000I200000J0D01*
G01*
G37*
G36*
G01*
X127741000Y-127553000D02*
X128291000Y-127553000D01*
G75*
G02*
X128491000Y-127753000I0J-200000D01*
G01*
X128491000Y-128153000D01*
G75*
G02*
X128291000Y-128353000I-200000J0D01*
G01*
X127741000Y-128353000D01*
G75*
G02*
X127541000Y-128153000I0J200000D01*
G01*
X127541000Y-127753000D01*
G75*
G02*
X127741000Y-127553000I200000J0D01*
G01*
G37*
D11*
X137400000Y-109200000D03*
X137400000Y-110700000D03*
X142600000Y-109200000D03*
X142600000Y-110700000D03*
D12*
X133985000Y-120080000D03*
X147410000Y-117540000D03*
D11*
X137400000Y-89200000D03*
X137400000Y-90700000D03*
X142600000Y-89200000D03*
X142600000Y-90700000D03*
D12*
X133985000Y-100080000D03*
X147410000Y-97540000D03*
D11*
X137400000Y-69200000D03*
X137400000Y-70700000D03*
X142600000Y-69200000D03*
X142600000Y-70700000D03*
D12*
X133985000Y-80080000D03*
X147410000Y-77540000D03*
D11*
X117400000Y-69200000D03*
X117400000Y-70700000D03*
X122600000Y-69200000D03*
X122600000Y-70700000D03*
D12*
X113985000Y-80080000D03*
X127410000Y-77540000D03*
D11*
X97400000Y-69200000D03*
X97400000Y-70700000D03*
X102600000Y-69200000D03*
X102600000Y-70700000D03*
D12*
X93985000Y-80080000D03*
X107410000Y-77540000D03*
D11*
X77410000Y-69200000D03*
X77410000Y-70700000D03*
X82610000Y-69200000D03*
X82610000Y-70700000D03*
D12*
X73995000Y-80080000D03*
X87420000Y-77540000D03*
D11*
X57400000Y-69200000D03*
X57400000Y-70700000D03*
X62600000Y-69200000D03*
X62600000Y-70700000D03*
D12*
X53985000Y-80080000D03*
X67410000Y-77540000D03*
D11*
X57400000Y-89200000D03*
X57400000Y-90700000D03*
X62600000Y-89200000D03*
X62600000Y-90700000D03*
D12*
X53985000Y-100080000D03*
X67410000Y-97540000D03*
D11*
X57400000Y-109200000D03*
X57400000Y-110700000D03*
X62600000Y-109200000D03*
X62600000Y-110700000D03*
D12*
X53985000Y-120080000D03*
X67410000Y-117540000D03*
G36*
G01*
X135781200Y-112221200D02*
X135781200Y-112721200D01*
G75*
G02*
X135556200Y-112946200I-225000J0D01*
G01*
X135106200Y-112946200D01*
G75*
G02*
X134881200Y-112721200I0J225000D01*
G01*
X134881200Y-112221200D01*
G75*
G02*
X135106200Y-111996200I225000J0D01*
G01*
X135556200Y-111996200D01*
G75*
G02*
X135781200Y-112221200I0J-225000D01*
G01*
G37*
G36*
G01*
X137331200Y-112221200D02*
X137331200Y-112721200D01*
G75*
G02*
X137106200Y-112946200I-225000J0D01*
G01*
X136656200Y-112946200D01*
G75*
G02*
X136431200Y-112721200I0J225000D01*
G01*
X136431200Y-112221200D01*
G75*
G02*
X136656200Y-111996200I225000J0D01*
G01*
X137106200Y-111996200D01*
G75*
G02*
X137331200Y-112221200I0J-225000D01*
G01*
G37*
G36*
G01*
X134739200Y-92104400D02*
X134739200Y-92604400D01*
G75*
G02*
X134514200Y-92829400I-225000J0D01*
G01*
X134064200Y-92829400D01*
G75*
G02*
X133839200Y-92604400I0J225000D01*
G01*
X133839200Y-92104400D01*
G75*
G02*
X134064200Y-91879400I225000J0D01*
G01*
X134514200Y-91879400D01*
G75*
G02*
X134739200Y-92104400I0J-225000D01*
G01*
G37*
G36*
G01*
X136289200Y-92104400D02*
X136289200Y-92604400D01*
G75*
G02*
X136064200Y-92829400I-225000J0D01*
G01*
X135614200Y-92829400D01*
G75*
G02*
X135389200Y-92604400I0J225000D01*
G01*
X135389200Y-92104400D01*
G75*
G02*
X135614200Y-91879400I225000J0D01*
G01*
X136064200Y-91879400D01*
G75*
G02*
X136289200Y-92104400I0J-225000D01*
G01*
G37*
G36*
G01*
X127528200Y-71065200D02*
X127528200Y-70565200D01*
G75*
G02*
X127753200Y-70340200I225000J0D01*
G01*
X128203200Y-70340200D01*
G75*
G02*
X128428200Y-70565200I0J-225000D01*
G01*
X128428200Y-71065200D01*
G75*
G02*
X128203200Y-71290200I-225000J0D01*
G01*
X127753200Y-71290200D01*
G75*
G02*
X127528200Y-71065200I0J225000D01*
G01*
G37*
G36*
G01*
X125978200Y-71065200D02*
X125978200Y-70565200D01*
G75*
G02*
X126203200Y-70340200I225000J0D01*
G01*
X126653200Y-70340200D01*
G75*
G02*
X126878200Y-70565200I0J-225000D01*
G01*
X126878200Y-71065200D01*
G75*
G02*
X126653200Y-71290200I-225000J0D01*
G01*
X126203200Y-71290200D01*
G75*
G02*
X125978200Y-71065200I0J225000D01*
G01*
G37*
G36*
G01*
X107106600Y-70912800D02*
X107106600Y-70412800D01*
G75*
G02*
X107331600Y-70187800I225000J0D01*
G01*
X107781600Y-70187800D01*
G75*
G02*
X108006600Y-70412800I0J-225000D01*
G01*
X108006600Y-70912800D01*
G75*
G02*
X107781600Y-71137800I-225000J0D01*
G01*
X107331600Y-71137800D01*
G75*
G02*
X107106600Y-70912800I0J225000D01*
G01*
G37*
G36*
G01*
X105556600Y-70912800D02*
X105556600Y-70412800D01*
G75*
G02*
X105781600Y-70187800I225000J0D01*
G01*
X106231600Y-70187800D01*
G75*
G02*
X106456600Y-70412800I0J-225000D01*
G01*
X106456600Y-70912800D01*
G75*
G02*
X106231600Y-71137800I-225000J0D01*
G01*
X105781600Y-71137800D01*
G75*
G02*
X105556600Y-70912800I0J225000D01*
G01*
G37*
G36*
G01*
X67317200Y-109317600D02*
X67317200Y-108817600D01*
G75*
G02*
X67542200Y-108592600I225000J0D01*
G01*
X67992200Y-108592600D01*
G75*
G02*
X68217200Y-108817600I0J-225000D01*
G01*
X68217200Y-109317600D01*
G75*
G02*
X67992200Y-109542600I-225000J0D01*
G01*
X67542200Y-109542600D01*
G75*
G02*
X67317200Y-109317600I0J225000D01*
G01*
G37*
G36*
G01*
X65767200Y-109317600D02*
X65767200Y-108817600D01*
G75*
G02*
X65992200Y-108592600I225000J0D01*
G01*
X66442200Y-108592600D01*
G75*
G02*
X66667200Y-108817600I0J-225000D01*
G01*
X66667200Y-109317600D01*
G75*
G02*
X66442200Y-109542600I-225000J0D01*
G01*
X65992200Y-109542600D01*
G75*
G02*
X65767200Y-109317600I0J225000D01*
G01*
G37*
G36*
G01*
X86875200Y-71471600D02*
X86875200Y-70971600D01*
G75*
G02*
X87100200Y-70746600I225000J0D01*
G01*
X87550200Y-70746600D01*
G75*
G02*
X87775200Y-70971600I0J-225000D01*
G01*
X87775200Y-71471600D01*
G75*
G02*
X87550200Y-71696600I-225000J0D01*
G01*
X87100200Y-71696600D01*
G75*
G02*
X86875200Y-71471600I0J225000D01*
G01*
G37*
G36*
G01*
X85325200Y-71471600D02*
X85325200Y-70971600D01*
G75*
G02*
X85550200Y-70746600I225000J0D01*
G01*
X86000200Y-70746600D01*
G75*
G02*
X86225200Y-70971600I0J-225000D01*
G01*
X86225200Y-71471600D01*
G75*
G02*
X86000200Y-71696600I-225000J0D01*
G01*
X85550200Y-71696600D01*
G75*
G02*
X85325200Y-71471600I0J225000D01*
G01*
G37*
G36*
G01*
X69715200Y-87481600D02*
X69715200Y-87981600D01*
G75*
G02*
X69490200Y-88206600I-225000J0D01*
G01*
X69040200Y-88206600D01*
G75*
G02*
X68815200Y-87981600I0J225000D01*
G01*
X68815200Y-87481600D01*
G75*
G02*
X69040200Y-87256600I225000J0D01*
G01*
X69490200Y-87256600D01*
G75*
G02*
X69715200Y-87481600I0J-225000D01*
G01*
G37*
G36*
G01*
X71265200Y-87481600D02*
X71265200Y-87981600D01*
G75*
G02*
X71040200Y-88206600I-225000J0D01*
G01*
X70590200Y-88206600D01*
G75*
G02*
X70365200Y-87981600I0J225000D01*
G01*
X70365200Y-87481600D01*
G75*
G02*
X70590200Y-87256600I225000J0D01*
G01*
X71040200Y-87256600D01*
G75*
G02*
X71265200Y-87481600I0J-225000D01*
G01*
G37*
G36*
G01*
X85415000Y-91182000D02*
X85415000Y-90682000D01*
G75*
G02*
X85640000Y-90457000I225000J0D01*
G01*
X86090000Y-90457000D01*
G75*
G02*
X86315000Y-90682000I0J-225000D01*
G01*
X86315000Y-91182000D01*
G75*
G02*
X86090000Y-91407000I-225000J0D01*
G01*
X85640000Y-91407000D01*
G75*
G02*
X85415000Y-91182000I0J225000D01*
G01*
G37*
G36*
G01*
X83865000Y-91182000D02*
X83865000Y-90682000D01*
G75*
G02*
X84090000Y-90457000I225000J0D01*
G01*
X84540000Y-90457000D01*
G75*
G02*
X84765000Y-90682000I0J-225000D01*
G01*
X84765000Y-91182000D01*
G75*
G02*
X84540000Y-91407000I-225000J0D01*
G01*
X84090000Y-91407000D01*
G75*
G02*
X83865000Y-91182000I0J225000D01*
G01*
G37*
G36*
G01*
X69664400Y-94492000D02*
X69664400Y-94992000D01*
G75*
G02*
X69439400Y-95217000I-225000J0D01*
G01*
X68989400Y-95217000D01*
G75*
G02*
X68764400Y-94992000I0J225000D01*
G01*
X68764400Y-94492000D01*
G75*
G02*
X68989400Y-94267000I225000J0D01*
G01*
X69439400Y-94267000D01*
G75*
G02*
X69664400Y-94492000I0J-225000D01*
G01*
G37*
G36*
G01*
X71214400Y-94492000D02*
X71214400Y-94992000D01*
G75*
G02*
X70989400Y-95217000I-225000J0D01*
G01*
X70539400Y-95217000D01*
G75*
G02*
X70314400Y-94992000I0J225000D01*
G01*
X70314400Y-94492000D01*
G75*
G02*
X70539400Y-94267000I225000J0D01*
G01*
X70989400Y-94267000D01*
G75*
G02*
X71214400Y-94492000I0J-225000D01*
G01*
G37*
G36*
G01*
X69715200Y-89107200D02*
X69715200Y-89607200D01*
G75*
G02*
X69490200Y-89832200I-225000J0D01*
G01*
X69040200Y-89832200D01*
G75*
G02*
X68815200Y-89607200I0J225000D01*
G01*
X68815200Y-89107200D01*
G75*
G02*
X69040200Y-88882200I225000J0D01*
G01*
X69490200Y-88882200D01*
G75*
G02*
X69715200Y-89107200I0J-225000D01*
G01*
G37*
G36*
G01*
X71265200Y-89107200D02*
X71265200Y-89607200D01*
G75*
G02*
X71040200Y-89832200I-225000J0D01*
G01*
X70590200Y-89832200D01*
G75*
G02*
X70365200Y-89607200I0J225000D01*
G01*
X70365200Y-89107200D01*
G75*
G02*
X70590200Y-88882200I225000J0D01*
G01*
X71040200Y-88882200D01*
G75*
G02*
X71265200Y-89107200I0J-225000D01*
G01*
G37*
G36*
G01*
X79928600Y-83308000D02*
X79928600Y-82808000D01*
G75*
G02*
X80153600Y-82583000I225000J0D01*
G01*
X80603600Y-82583000D01*
G75*
G02*
X80828600Y-82808000I0J-225000D01*
G01*
X80828600Y-83308000D01*
G75*
G02*
X80603600Y-83533000I-225000J0D01*
G01*
X80153600Y-83533000D01*
G75*
G02*
X79928600Y-83308000I0J225000D01*
G01*
G37*
G36*
G01*
X78378600Y-83308000D02*
X78378600Y-82808000D01*
G75*
G02*
X78603600Y-82583000I225000J0D01*
G01*
X79053600Y-82583000D01*
G75*
G02*
X79278600Y-82808000I0J-225000D01*
G01*
X79278600Y-83308000D01*
G75*
G02*
X79053600Y-83533000I-225000J0D01*
G01*
X78603600Y-83533000D01*
G75*
G02*
X78378600Y-83308000I0J225000D01*
G01*
G37*
G36*
G01*
X73398800Y-101553200D02*
X73398800Y-102053200D01*
G75*
G02*
X73173800Y-102278200I-225000J0D01*
G01*
X72723800Y-102278200D01*
G75*
G02*
X72498800Y-102053200I0J225000D01*
G01*
X72498800Y-101553200D01*
G75*
G02*
X72723800Y-101328200I225000J0D01*
G01*
X73173800Y-101328200D01*
G75*
G02*
X73398800Y-101553200I0J-225000D01*
G01*
G37*
G36*
G01*
X74948800Y-101553200D02*
X74948800Y-102053200D01*
G75*
G02*
X74723800Y-102278200I-225000J0D01*
G01*
X74273800Y-102278200D01*
G75*
G02*
X74048800Y-102053200I0J225000D01*
G01*
X74048800Y-101553200D01*
G75*
G02*
X74273800Y-101328200I225000J0D01*
G01*
X74723800Y-101328200D01*
G75*
G02*
X74948800Y-101553200I0J-225000D01*
G01*
G37*
G36*
G01*
X69728200Y-90834400D02*
X69728200Y-91334400D01*
G75*
G02*
X69503200Y-91559400I-225000J0D01*
G01*
X69053200Y-91559400D01*
G75*
G02*
X68828200Y-91334400I0J225000D01*
G01*
X68828200Y-90834400D01*
G75*
G02*
X69053200Y-90609400I225000J0D01*
G01*
X69503200Y-90609400D01*
G75*
G02*
X69728200Y-90834400I0J-225000D01*
G01*
G37*
G36*
G01*
X71278200Y-90834400D02*
X71278200Y-91334400D01*
G75*
G02*
X71053200Y-91559400I-225000J0D01*
G01*
X70603200Y-91559400D01*
G75*
G02*
X70378200Y-91334400I0J225000D01*
G01*
X70378200Y-90834400D01*
G75*
G02*
X70603200Y-90609400I225000J0D01*
G01*
X71053200Y-90609400D01*
G75*
G02*
X71278200Y-90834400I0J-225000D01*
G01*
G37*
G36*
G01*
X85415000Y-94992000D02*
X85415000Y-94492000D01*
G75*
G02*
X85640000Y-94267000I225000J0D01*
G01*
X86090000Y-94267000D01*
G75*
G02*
X86315000Y-94492000I0J-225000D01*
G01*
X86315000Y-94992000D01*
G75*
G02*
X86090000Y-95217000I-225000J0D01*
G01*
X85640000Y-95217000D01*
G75*
G02*
X85415000Y-94992000I0J225000D01*
G01*
G37*
G36*
G01*
X83865000Y-94992000D02*
X83865000Y-94492000D01*
G75*
G02*
X84090000Y-94267000I225000J0D01*
G01*
X84540000Y-94267000D01*
G75*
G02*
X84765000Y-94492000I0J-225000D01*
G01*
X84765000Y-94992000D01*
G75*
G02*
X84540000Y-95217000I-225000J0D01*
G01*
X84090000Y-95217000D01*
G75*
G02*
X83865000Y-94992000I0J225000D01*
G01*
G37*
G36*
G01*
X79864800Y-85238400D02*
X79864800Y-84738400D01*
G75*
G02*
X80089800Y-84513400I225000J0D01*
G01*
X80539800Y-84513400D01*
G75*
G02*
X80764800Y-84738400I0J-225000D01*
G01*
X80764800Y-85238400D01*
G75*
G02*
X80539800Y-85463400I-225000J0D01*
G01*
X80089800Y-85463400D01*
G75*
G02*
X79864800Y-85238400I0J225000D01*
G01*
G37*
G36*
G01*
X78314800Y-85238400D02*
X78314800Y-84738400D01*
G75*
G02*
X78539800Y-84513400I225000J0D01*
G01*
X78989800Y-84513400D01*
G75*
G02*
X79214800Y-84738400I0J-225000D01*
G01*
X79214800Y-85238400D01*
G75*
G02*
X78989800Y-85463400I-225000J0D01*
G01*
X78539800Y-85463400D01*
G75*
G02*
X78314800Y-85238400I0J225000D01*
G01*
G37*
G36*
G01*
X73385800Y-99978400D02*
X73385800Y-100478400D01*
G75*
G02*
X73160800Y-100703400I-225000J0D01*
G01*
X72710800Y-100703400D01*
G75*
G02*
X72485800Y-100478400I0J225000D01*
G01*
X72485800Y-99978400D01*
G75*
G02*
X72710800Y-99753400I225000J0D01*
G01*
X73160800Y-99753400D01*
G75*
G02*
X73385800Y-99978400I0J-225000D01*
G01*
G37*
G36*
G01*
X74935800Y-99978400D02*
X74935800Y-100478400D01*
G75*
G02*
X74710800Y-100703400I-225000J0D01*
G01*
X74260800Y-100703400D01*
G75*
G02*
X74035800Y-100478400I0J225000D01*
G01*
X74035800Y-99978400D01*
G75*
G02*
X74260800Y-99753400I225000J0D01*
G01*
X74710800Y-99753400D01*
G75*
G02*
X74935800Y-99978400I0J-225000D01*
G01*
G37*
G36*
G01*
X72030400Y-84904400D02*
X71530400Y-84904400D01*
G75*
G02*
X71305400Y-84679400I0J225000D01*
G01*
X71305400Y-84229400D01*
G75*
G02*
X71530400Y-84004400I225000J0D01*
G01*
X72030400Y-84004400D01*
G75*
G02*
X72255400Y-84229400I0J-225000D01*
G01*
X72255400Y-84679400D01*
G75*
G02*
X72030400Y-84904400I-225000J0D01*
G01*
G37*
G36*
G01*
X72030400Y-86454400D02*
X71530400Y-86454400D01*
G75*
G02*
X71305400Y-86229400I0J225000D01*
G01*
X71305400Y-85779400D01*
G75*
G02*
X71530400Y-85554400I225000J0D01*
G01*
X72030400Y-85554400D01*
G75*
G02*
X72255400Y-85779400I0J-225000D01*
G01*
X72255400Y-86229400D01*
G75*
G02*
X72030400Y-86454400I-225000J0D01*
G01*
G37*
D13*
X71106400Y-105697200D03*
X71106400Y-103497200D03*
X69406400Y-103497200D03*
X69406400Y-105697200D03*
G36*
G01*
X74135800Y-103703800D02*
X74135800Y-103153800D01*
G75*
G02*
X74335800Y-102953800I200000J0D01*
G01*
X74735800Y-102953800D01*
G75*
G02*
X74935800Y-103153800I0J-200000D01*
G01*
X74935800Y-103703800D01*
G75*
G02*
X74735800Y-103903800I-200000J0D01*
G01*
X74335800Y-103903800D01*
G75*
G02*
X74135800Y-103703800I0J200000D01*
G01*
G37*
G36*
G01*
X72485800Y-103703800D02*
X72485800Y-103153800D01*
G75*
G02*
X72685800Y-102953800I200000J0D01*
G01*
X73085800Y-102953800D01*
G75*
G02*
X73285800Y-103153800I0J-200000D01*
G01*
X73285800Y-103703800D01*
G75*
G02*
X73085800Y-103903800I-200000J0D01*
G01*
X72685800Y-103903800D01*
G75*
G02*
X72485800Y-103703800I0J200000D01*
G01*
G37*
G36*
G01*
X69842800Y-101197600D02*
X69842800Y-101697600D01*
G75*
G02*
X69617800Y-101922600I-225000J0D01*
G01*
X69167800Y-101922600D01*
G75*
G02*
X68942800Y-101697600I0J225000D01*
G01*
X68942800Y-101197600D01*
G75*
G02*
X69167800Y-100972600I225000J0D01*
G01*
X69617800Y-100972600D01*
G75*
G02*
X69842800Y-101197600I0J-225000D01*
G01*
G37*
G36*
G01*
X71392800Y-101197600D02*
X71392800Y-101697600D01*
G75*
G02*
X71167800Y-101922600I-225000J0D01*
G01*
X70717800Y-101922600D01*
G75*
G02*
X70492800Y-101697600I0J225000D01*
G01*
X70492800Y-101197600D01*
G75*
G02*
X70717800Y-100972600I225000J0D01*
G01*
X71167800Y-100972600D01*
G75*
G02*
X71392800Y-101197600I0J-225000D01*
G01*
G37*
G36*
G01*
X70543600Y-107895200D02*
X70543600Y-107395200D01*
G75*
G02*
X70768600Y-107170200I225000J0D01*
G01*
X71218600Y-107170200D01*
G75*
G02*
X71443600Y-107395200I0J-225000D01*
G01*
X71443600Y-107895200D01*
G75*
G02*
X71218600Y-108120200I-225000J0D01*
G01*
X70768600Y-108120200D01*
G75*
G02*
X70543600Y-107895200I0J225000D01*
G01*
G37*
G36*
G01*
X68993600Y-107895200D02*
X68993600Y-107395200D01*
G75*
G02*
X69218600Y-107170200I225000J0D01*
G01*
X69668600Y-107170200D01*
G75*
G02*
X69893600Y-107395200I0J-225000D01*
G01*
X69893600Y-107895200D01*
G75*
G02*
X69668600Y-108120200I-225000J0D01*
G01*
X69218600Y-108120200D01*
G75*
G02*
X68993600Y-107895200I0J225000D01*
G01*
G37*
D14*
X106882000Y-66366000D03*
X113082000Y-66366000D03*
X106882000Y-62666000D03*
X113082000Y-62666000D03*
G36*
G01*
X95687200Y-84044200D02*
X95687200Y-83494200D01*
G75*
G02*
X95887200Y-83294200I200000J0D01*
G01*
X96287200Y-83294200D01*
G75*
G02*
X96487200Y-83494200I0J-200000D01*
G01*
X96487200Y-84044200D01*
G75*
G02*
X96287200Y-84244200I-200000J0D01*
G01*
X95887200Y-84244200D01*
G75*
G02*
X95687200Y-84044200I0J200000D01*
G01*
G37*
G36*
G01*
X94037200Y-84044200D02*
X94037200Y-83494200D01*
G75*
G02*
X94237200Y-83294200I200000J0D01*
G01*
X94637200Y-83294200D01*
G75*
G02*
X94837200Y-83494200I0J-200000D01*
G01*
X94837200Y-84044200D01*
G75*
G02*
X94637200Y-84244200I-200000J0D01*
G01*
X94237200Y-84244200D01*
G75*
G02*
X94037200Y-84044200I0J200000D01*
G01*
G37*
G36*
G01*
X94837200Y-85119800D02*
X94837200Y-85669800D01*
G75*
G02*
X94637200Y-85869800I-200000J0D01*
G01*
X94237200Y-85869800D01*
G75*
G02*
X94037200Y-85669800I0J200000D01*
G01*
X94037200Y-85119800D01*
G75*
G02*
X94237200Y-84919800I200000J0D01*
G01*
X94637200Y-84919800D01*
G75*
G02*
X94837200Y-85119800I0J-200000D01*
G01*
G37*
G36*
G01*
X96487200Y-85119800D02*
X96487200Y-85669800D01*
G75*
G02*
X96287200Y-85869800I-200000J0D01*
G01*
X95887200Y-85869800D01*
G75*
G02*
X95687200Y-85669800I0J200000D01*
G01*
X95687200Y-85119800D01*
G75*
G02*
X95887200Y-84919800I200000J0D01*
G01*
X96287200Y-84919800D01*
G75*
G02*
X96487200Y-85119800I0J-200000D01*
G01*
G37*
G36*
G01*
X87409200Y-82139600D02*
X87409200Y-81639600D01*
G75*
G02*
X87634200Y-81414600I225000J0D01*
G01*
X88084200Y-81414600D01*
G75*
G02*
X88309200Y-81639600I0J-225000D01*
G01*
X88309200Y-82139600D01*
G75*
G02*
X88084200Y-82364600I-225000J0D01*
G01*
X87634200Y-82364600D01*
G75*
G02*
X87409200Y-82139600I0J225000D01*
G01*
G37*
G36*
G01*
X85859200Y-82139600D02*
X85859200Y-81639600D01*
G75*
G02*
X86084200Y-81414600I225000J0D01*
G01*
X86534200Y-81414600D01*
G75*
G02*
X86759200Y-81639600I0J-225000D01*
G01*
X86759200Y-82139600D01*
G75*
G02*
X86534200Y-82364600I-225000J0D01*
G01*
X86084200Y-82364600D01*
G75*
G02*
X85859200Y-82139600I0J225000D01*
G01*
G37*
G36*
G01*
X79154000Y-89901000D02*
X79154000Y-90676000D01*
G75*
G02*
X79104000Y-90726000I-50000J0D01*
G01*
X79004000Y-90726000D01*
G75*
G02*
X78954000Y-90676000I0J50000D01*
G01*
X78954000Y-89901000D01*
G75*
G02*
X79004000Y-89851000I50000J0D01*
G01*
X79104000Y-89851000D01*
G75*
G02*
X79154000Y-89901000I0J-50000D01*
G01*
G37*
G36*
G01*
X78754000Y-89901000D02*
X78754000Y-90676000D01*
G75*
G02*
X78704000Y-90726000I-50000J0D01*
G01*
X78604000Y-90726000D01*
G75*
G02*
X78554000Y-90676000I0J50000D01*
G01*
X78554000Y-89901000D01*
G75*
G02*
X78604000Y-89851000I50000J0D01*
G01*
X78704000Y-89851000D01*
G75*
G02*
X78754000Y-89901000I0J-50000D01*
G01*
G37*
G36*
G01*
X78354000Y-89901000D02*
X78354000Y-90676000D01*
G75*
G02*
X78304000Y-90726000I-50000J0D01*
G01*
X78204000Y-90726000D01*
G75*
G02*
X78154000Y-90676000I0J50000D01*
G01*
X78154000Y-89901000D01*
G75*
G02*
X78204000Y-89851000I50000J0D01*
G01*
X78304000Y-89851000D01*
G75*
G02*
X78354000Y-89901000I0J-50000D01*
G01*
G37*
G36*
G01*
X77954000Y-89901000D02*
X77954000Y-90676000D01*
G75*
G02*
X77904000Y-90726000I-50000J0D01*
G01*
X77804000Y-90726000D01*
G75*
G02*
X77754000Y-90676000I0J50000D01*
G01*
X77754000Y-89901000D01*
G75*
G02*
X77804000Y-89851000I50000J0D01*
G01*
X77904000Y-89851000D01*
G75*
G02*
X77954000Y-89901000I0J-50000D01*
G01*
G37*
G36*
G01*
X77554000Y-89901000D02*
X77554000Y-90676000D01*
G75*
G02*
X77504000Y-90726000I-50000J0D01*
G01*
X77404000Y-90726000D01*
G75*
G02*
X77354000Y-90676000I0J50000D01*
G01*
X77354000Y-89901000D01*
G75*
G02*
X77404000Y-89851000I50000J0D01*
G01*
X77504000Y-89851000D01*
G75*
G02*
X77554000Y-89901000I0J-50000D01*
G01*
G37*
G36*
G01*
X77154000Y-89901000D02*
X77154000Y-90676000D01*
G75*
G02*
X77104000Y-90726000I-50000J0D01*
G01*
X77004000Y-90726000D01*
G75*
G02*
X76954000Y-90676000I0J50000D01*
G01*
X76954000Y-89901000D01*
G75*
G02*
X77004000Y-89851000I50000J0D01*
G01*
X77104000Y-89851000D01*
G75*
G02*
X77154000Y-89901000I0J-50000D01*
G01*
G37*
G36*
G01*
X76754000Y-89901000D02*
X76754000Y-90676000D01*
G75*
G02*
X76704000Y-90726000I-50000J0D01*
G01*
X76604000Y-90726000D01*
G75*
G02*
X76554000Y-90676000I0J50000D01*
G01*
X76554000Y-89901000D01*
G75*
G02*
X76604000Y-89851000I50000J0D01*
G01*
X76704000Y-89851000D01*
G75*
G02*
X76754000Y-89901000I0J-50000D01*
G01*
G37*
G36*
G01*
X76354000Y-89901000D02*
X76354000Y-90676000D01*
G75*
G02*
X76304000Y-90726000I-50000J0D01*
G01*
X76204000Y-90726000D01*
G75*
G02*
X76154000Y-90676000I0J50000D01*
G01*
X76154000Y-89901000D01*
G75*
G02*
X76204000Y-89851000I50000J0D01*
G01*
X76304000Y-89851000D01*
G75*
G02*
X76354000Y-89901000I0J-50000D01*
G01*
G37*
G36*
G01*
X75954000Y-89901000D02*
X75954000Y-90676000D01*
G75*
G02*
X75904000Y-90726000I-50000J0D01*
G01*
X75804000Y-90726000D01*
G75*
G02*
X75754000Y-90676000I0J50000D01*
G01*
X75754000Y-89901000D01*
G75*
G02*
X75804000Y-89851000I50000J0D01*
G01*
X75904000Y-89851000D01*
G75*
G02*
X75954000Y-89901000I0J-50000D01*
G01*
G37*
G36*
G01*
X75554000Y-89901000D02*
X75554000Y-90676000D01*
G75*
G02*
X75504000Y-90726000I-50000J0D01*
G01*
X75404000Y-90726000D01*
G75*
G02*
X75354000Y-90676000I0J50000D01*
G01*
X75354000Y-89901000D01*
G75*
G02*
X75404000Y-89851000I50000J0D01*
G01*
X75504000Y-89851000D01*
G75*
G02*
X75554000Y-89901000I0J-50000D01*
G01*
G37*
G36*
G01*
X75154000Y-89901000D02*
X75154000Y-90676000D01*
G75*
G02*
X75104000Y-90726000I-50000J0D01*
G01*
X75004000Y-90726000D01*
G75*
G02*
X74954000Y-90676000I0J50000D01*
G01*
X74954000Y-89901000D01*
G75*
G02*
X75004000Y-89851000I50000J0D01*
G01*
X75104000Y-89851000D01*
G75*
G02*
X75154000Y-89901000I0J-50000D01*
G01*
G37*
G36*
G01*
X74754000Y-89901000D02*
X74754000Y-90676000D01*
G75*
G02*
X74704000Y-90726000I-50000J0D01*
G01*
X74604000Y-90726000D01*
G75*
G02*
X74554000Y-90676000I0J50000D01*
G01*
X74554000Y-89901000D01*
G75*
G02*
X74604000Y-89851000I50000J0D01*
G01*
X74704000Y-89851000D01*
G75*
G02*
X74754000Y-89901000I0J-50000D01*
G01*
G37*
G36*
G01*
X74354000Y-89901000D02*
X74354000Y-90676000D01*
G75*
G02*
X74304000Y-90726000I-50000J0D01*
G01*
X74204000Y-90726000D01*
G75*
G02*
X74154000Y-90676000I0J50000D01*
G01*
X74154000Y-89901000D01*
G75*
G02*
X74204000Y-89851000I50000J0D01*
G01*
X74304000Y-89851000D01*
G75*
G02*
X74354000Y-89901000I0J-50000D01*
G01*
G37*
G36*
G01*
X73954000Y-89901000D02*
X73954000Y-90676000D01*
G75*
G02*
X73904000Y-90726000I-50000J0D01*
G01*
X73804000Y-90726000D01*
G75*
G02*
X73754000Y-90676000I0J50000D01*
G01*
X73754000Y-89901000D01*
G75*
G02*
X73804000Y-89851000I50000J0D01*
G01*
X73904000Y-89851000D01*
G75*
G02*
X73954000Y-89901000I0J-50000D01*
G01*
G37*
G36*
G01*
X73454000Y-91076000D02*
X73454000Y-91176000D01*
G75*
G02*
X73404000Y-91226000I-50000J0D01*
G01*
X72629000Y-91226000D01*
G75*
G02*
X72579000Y-91176000I0J50000D01*
G01*
X72579000Y-91076000D01*
G75*
G02*
X72629000Y-91026000I50000J0D01*
G01*
X73404000Y-91026000D01*
G75*
G02*
X73454000Y-91076000I0J-50000D01*
G01*
G37*
G36*
G01*
X73454000Y-91476000D02*
X73454000Y-91576000D01*
G75*
G02*
X73404000Y-91626000I-50000J0D01*
G01*
X72629000Y-91626000D01*
G75*
G02*
X72579000Y-91576000I0J50000D01*
G01*
X72579000Y-91476000D01*
G75*
G02*
X72629000Y-91426000I50000J0D01*
G01*
X73404000Y-91426000D01*
G75*
G02*
X73454000Y-91476000I0J-50000D01*
G01*
G37*
G36*
G01*
X73454000Y-91876000D02*
X73454000Y-91976000D01*
G75*
G02*
X73404000Y-92026000I-50000J0D01*
G01*
X72629000Y-92026000D01*
G75*
G02*
X72579000Y-91976000I0J50000D01*
G01*
X72579000Y-91876000D01*
G75*
G02*
X72629000Y-91826000I50000J0D01*
G01*
X73404000Y-91826000D01*
G75*
G02*
X73454000Y-91876000I0J-50000D01*
G01*
G37*
G36*
G01*
X73454000Y-92276000D02*
X73454000Y-92376000D01*
G75*
G02*
X73404000Y-92426000I-50000J0D01*
G01*
X72629000Y-92426000D01*
G75*
G02*
X72579000Y-92376000I0J50000D01*
G01*
X72579000Y-92276000D01*
G75*
G02*
X72629000Y-92226000I50000J0D01*
G01*
X73404000Y-92226000D01*
G75*
G02*
X73454000Y-92276000I0J-50000D01*
G01*
G37*
G36*
G01*
X73454000Y-92676000D02*
X73454000Y-92776000D01*
G75*
G02*
X73404000Y-92826000I-50000J0D01*
G01*
X72629000Y-92826000D01*
G75*
G02*
X72579000Y-92776000I0J50000D01*
G01*
X72579000Y-92676000D01*
G75*
G02*
X72629000Y-92626000I50000J0D01*
G01*
X73404000Y-92626000D01*
G75*
G02*
X73454000Y-92676000I0J-50000D01*
G01*
G37*
G36*
G01*
X73454000Y-93076000D02*
X73454000Y-93176000D01*
G75*
G02*
X73404000Y-93226000I-50000J0D01*
G01*
X72629000Y-93226000D01*
G75*
G02*
X72579000Y-93176000I0J50000D01*
G01*
X72579000Y-93076000D01*
G75*
G02*
X72629000Y-93026000I50000J0D01*
G01*
X73404000Y-93026000D01*
G75*
G02*
X73454000Y-93076000I0J-50000D01*
G01*
G37*
G36*
G01*
X73454000Y-93476000D02*
X73454000Y-93576000D01*
G75*
G02*
X73404000Y-93626000I-50000J0D01*
G01*
X72629000Y-93626000D01*
G75*
G02*
X72579000Y-93576000I0J50000D01*
G01*
X72579000Y-93476000D01*
G75*
G02*
X72629000Y-93426000I50000J0D01*
G01*
X73404000Y-93426000D01*
G75*
G02*
X73454000Y-93476000I0J-50000D01*
G01*
G37*
G36*
G01*
X73454000Y-93876000D02*
X73454000Y-93976000D01*
G75*
G02*
X73404000Y-94026000I-50000J0D01*
G01*
X72629000Y-94026000D01*
G75*
G02*
X72579000Y-93976000I0J50000D01*
G01*
X72579000Y-93876000D01*
G75*
G02*
X72629000Y-93826000I50000J0D01*
G01*
X73404000Y-93826000D01*
G75*
G02*
X73454000Y-93876000I0J-50000D01*
G01*
G37*
G36*
G01*
X73454000Y-94276000D02*
X73454000Y-94376000D01*
G75*
G02*
X73404000Y-94426000I-50000J0D01*
G01*
X72629000Y-94426000D01*
G75*
G02*
X72579000Y-94376000I0J50000D01*
G01*
X72579000Y-94276000D01*
G75*
G02*
X72629000Y-94226000I50000J0D01*
G01*
X73404000Y-94226000D01*
G75*
G02*
X73454000Y-94276000I0J-50000D01*
G01*
G37*
G36*
G01*
X73454000Y-94676000D02*
X73454000Y-94776000D01*
G75*
G02*
X73404000Y-94826000I-50000J0D01*
G01*
X72629000Y-94826000D01*
G75*
G02*
X72579000Y-94776000I0J50000D01*
G01*
X72579000Y-94676000D01*
G75*
G02*
X72629000Y-94626000I50000J0D01*
G01*
X73404000Y-94626000D01*
G75*
G02*
X73454000Y-94676000I0J-50000D01*
G01*
G37*
G36*
G01*
X73454000Y-95076000D02*
X73454000Y-95176000D01*
G75*
G02*
X73404000Y-95226000I-50000J0D01*
G01*
X72629000Y-95226000D01*
G75*
G02*
X72579000Y-95176000I0J50000D01*
G01*
X72579000Y-95076000D01*
G75*
G02*
X72629000Y-95026000I50000J0D01*
G01*
X73404000Y-95026000D01*
G75*
G02*
X73454000Y-95076000I0J-50000D01*
G01*
G37*
G36*
G01*
X73454000Y-95476000D02*
X73454000Y-95576000D01*
G75*
G02*
X73404000Y-95626000I-50000J0D01*
G01*
X72629000Y-95626000D01*
G75*
G02*
X72579000Y-95576000I0J50000D01*
G01*
X72579000Y-95476000D01*
G75*
G02*
X72629000Y-95426000I50000J0D01*
G01*
X73404000Y-95426000D01*
G75*
G02*
X73454000Y-95476000I0J-50000D01*
G01*
G37*
G36*
G01*
X73454000Y-95876000D02*
X73454000Y-95976000D01*
G75*
G02*
X73404000Y-96026000I-50000J0D01*
G01*
X72629000Y-96026000D01*
G75*
G02*
X72579000Y-95976000I0J50000D01*
G01*
X72579000Y-95876000D01*
G75*
G02*
X72629000Y-95826000I50000J0D01*
G01*
X73404000Y-95826000D01*
G75*
G02*
X73454000Y-95876000I0J-50000D01*
G01*
G37*
G36*
G01*
X73454000Y-96276000D02*
X73454000Y-96376000D01*
G75*
G02*
X73404000Y-96426000I-50000J0D01*
G01*
X72629000Y-96426000D01*
G75*
G02*
X72579000Y-96376000I0J50000D01*
G01*
X72579000Y-96276000D01*
G75*
G02*
X72629000Y-96226000I50000J0D01*
G01*
X73404000Y-96226000D01*
G75*
G02*
X73454000Y-96276000I0J-50000D01*
G01*
G37*
G36*
G01*
X73954000Y-96776000D02*
X73954000Y-97551000D01*
G75*
G02*
X73904000Y-97601000I-50000J0D01*
G01*
X73804000Y-97601000D01*
G75*
G02*
X73754000Y-97551000I0J50000D01*
G01*
X73754000Y-96776000D01*
G75*
G02*
X73804000Y-96726000I50000J0D01*
G01*
X73904000Y-96726000D01*
G75*
G02*
X73954000Y-96776000I0J-50000D01*
G01*
G37*
G36*
G01*
X74354000Y-96776000D02*
X74354000Y-97551000D01*
G75*
G02*
X74304000Y-97601000I-50000J0D01*
G01*
X74204000Y-97601000D01*
G75*
G02*
X74154000Y-97551000I0J50000D01*
G01*
X74154000Y-96776000D01*
G75*
G02*
X74204000Y-96726000I50000J0D01*
G01*
X74304000Y-96726000D01*
G75*
G02*
X74354000Y-96776000I0J-50000D01*
G01*
G37*
G36*
G01*
X74754000Y-96776000D02*
X74754000Y-97551000D01*
G75*
G02*
X74704000Y-97601000I-50000J0D01*
G01*
X74604000Y-97601000D01*
G75*
G02*
X74554000Y-97551000I0J50000D01*
G01*
X74554000Y-96776000D01*
G75*
G02*
X74604000Y-96726000I50000J0D01*
G01*
X74704000Y-96726000D01*
G75*
G02*
X74754000Y-96776000I0J-50000D01*
G01*
G37*
G36*
G01*
X75154000Y-96776000D02*
X75154000Y-97551000D01*
G75*
G02*
X75104000Y-97601000I-50000J0D01*
G01*
X75004000Y-97601000D01*
G75*
G02*
X74954000Y-97551000I0J50000D01*
G01*
X74954000Y-96776000D01*
G75*
G02*
X75004000Y-96726000I50000J0D01*
G01*
X75104000Y-96726000D01*
G75*
G02*
X75154000Y-96776000I0J-50000D01*
G01*
G37*
G36*
G01*
X75554000Y-96776000D02*
X75554000Y-97551000D01*
G75*
G02*
X75504000Y-97601000I-50000J0D01*
G01*
X75404000Y-97601000D01*
G75*
G02*
X75354000Y-97551000I0J50000D01*
G01*
X75354000Y-96776000D01*
G75*
G02*
X75404000Y-96726000I50000J0D01*
G01*
X75504000Y-96726000D01*
G75*
G02*
X75554000Y-96776000I0J-50000D01*
G01*
G37*
G36*
G01*
X75954000Y-96776000D02*
X75954000Y-97551000D01*
G75*
G02*
X75904000Y-97601000I-50000J0D01*
G01*
X75804000Y-97601000D01*
G75*
G02*
X75754000Y-97551000I0J50000D01*
G01*
X75754000Y-96776000D01*
G75*
G02*
X75804000Y-96726000I50000J0D01*
G01*
X75904000Y-96726000D01*
G75*
G02*
X75954000Y-96776000I0J-50000D01*
G01*
G37*
G36*
G01*
X76354000Y-96776000D02*
X76354000Y-97551000D01*
G75*
G02*
X76304000Y-97601000I-50000J0D01*
G01*
X76204000Y-97601000D01*
G75*
G02*
X76154000Y-97551000I0J50000D01*
G01*
X76154000Y-96776000D01*
G75*
G02*
X76204000Y-96726000I50000J0D01*
G01*
X76304000Y-96726000D01*
G75*
G02*
X76354000Y-96776000I0J-50000D01*
G01*
G37*
G36*
G01*
X76754000Y-96776000D02*
X76754000Y-97551000D01*
G75*
G02*
X76704000Y-97601000I-50000J0D01*
G01*
X76604000Y-97601000D01*
G75*
G02*
X76554000Y-97551000I0J50000D01*
G01*
X76554000Y-96776000D01*
G75*
G02*
X76604000Y-96726000I50000J0D01*
G01*
X76704000Y-96726000D01*
G75*
G02*
X76754000Y-96776000I0J-50000D01*
G01*
G37*
G36*
G01*
X77154000Y-96776000D02*
X77154000Y-97551000D01*
G75*
G02*
X77104000Y-97601000I-50000J0D01*
G01*
X77004000Y-97601000D01*
G75*
G02*
X76954000Y-97551000I0J50000D01*
G01*
X76954000Y-96776000D01*
G75*
G02*
X77004000Y-96726000I50000J0D01*
G01*
X77104000Y-96726000D01*
G75*
G02*
X77154000Y-96776000I0J-50000D01*
G01*
G37*
G36*
G01*
X77554000Y-96776000D02*
X77554000Y-97551000D01*
G75*
G02*
X77504000Y-97601000I-50000J0D01*
G01*
X77404000Y-97601000D01*
G75*
G02*
X77354000Y-97551000I0J50000D01*
G01*
X77354000Y-96776000D01*
G75*
G02*
X77404000Y-96726000I50000J0D01*
G01*
X77504000Y-96726000D01*
G75*
G02*
X77554000Y-96776000I0J-50000D01*
G01*
G37*
G36*
G01*
X77954000Y-96776000D02*
X77954000Y-97551000D01*
G75*
G02*
X77904000Y-97601000I-50000J0D01*
G01*
X77804000Y-97601000D01*
G75*
G02*
X77754000Y-97551000I0J50000D01*
G01*
X77754000Y-96776000D01*
G75*
G02*
X77804000Y-96726000I50000J0D01*
G01*
X77904000Y-96726000D01*
G75*
G02*
X77954000Y-96776000I0J-50000D01*
G01*
G37*
G36*
G01*
X78354000Y-96776000D02*
X78354000Y-97551000D01*
G75*
G02*
X78304000Y-97601000I-50000J0D01*
G01*
X78204000Y-97601000D01*
G75*
G02*
X78154000Y-97551000I0J50000D01*
G01*
X78154000Y-96776000D01*
G75*
G02*
X78204000Y-96726000I50000J0D01*
G01*
X78304000Y-96726000D01*
G75*
G02*
X78354000Y-96776000I0J-50000D01*
G01*
G37*
G36*
G01*
X78754000Y-96776000D02*
X78754000Y-97551000D01*
G75*
G02*
X78704000Y-97601000I-50000J0D01*
G01*
X78604000Y-97601000D01*
G75*
G02*
X78554000Y-97551000I0J50000D01*
G01*
X78554000Y-96776000D01*
G75*
G02*
X78604000Y-96726000I50000J0D01*
G01*
X78704000Y-96726000D01*
G75*
G02*
X78754000Y-96776000I0J-50000D01*
G01*
G37*
G36*
G01*
X79154000Y-96776000D02*
X79154000Y-97551000D01*
G75*
G02*
X79104000Y-97601000I-50000J0D01*
G01*
X79004000Y-97601000D01*
G75*
G02*
X78954000Y-97551000I0J50000D01*
G01*
X78954000Y-96776000D01*
G75*
G02*
X79004000Y-96726000I50000J0D01*
G01*
X79104000Y-96726000D01*
G75*
G02*
X79154000Y-96776000I0J-50000D01*
G01*
G37*
G36*
G01*
X80329000Y-96276000D02*
X80329000Y-96376000D01*
G75*
G02*
X80279000Y-96426000I-50000J0D01*
G01*
X79504000Y-96426000D01*
G75*
G02*
X79454000Y-96376000I0J50000D01*
G01*
X79454000Y-96276000D01*
G75*
G02*
X79504000Y-96226000I50000J0D01*
G01*
X80279000Y-96226000D01*
G75*
G02*
X80329000Y-96276000I0J-50000D01*
G01*
G37*
G36*
G01*
X80329000Y-95876000D02*
X80329000Y-95976000D01*
G75*
G02*
X80279000Y-96026000I-50000J0D01*
G01*
X79504000Y-96026000D01*
G75*
G02*
X79454000Y-95976000I0J50000D01*
G01*
X79454000Y-95876000D01*
G75*
G02*
X79504000Y-95826000I50000J0D01*
G01*
X80279000Y-95826000D01*
G75*
G02*
X80329000Y-95876000I0J-50000D01*
G01*
G37*
G36*
G01*
X80329000Y-95476000D02*
X80329000Y-95576000D01*
G75*
G02*
X80279000Y-95626000I-50000J0D01*
G01*
X79504000Y-95626000D01*
G75*
G02*
X79454000Y-95576000I0J50000D01*
G01*
X79454000Y-95476000D01*
G75*
G02*
X79504000Y-95426000I50000J0D01*
G01*
X80279000Y-95426000D01*
G75*
G02*
X80329000Y-95476000I0J-50000D01*
G01*
G37*
G36*
G01*
X80329000Y-95076000D02*
X80329000Y-95176000D01*
G75*
G02*
X80279000Y-95226000I-50000J0D01*
G01*
X79504000Y-95226000D01*
G75*
G02*
X79454000Y-95176000I0J50000D01*
G01*
X79454000Y-95076000D01*
G75*
G02*
X79504000Y-95026000I50000J0D01*
G01*
X80279000Y-95026000D01*
G75*
G02*
X80329000Y-95076000I0J-50000D01*
G01*
G37*
G36*
G01*
X80329000Y-94676000D02*
X80329000Y-94776000D01*
G75*
G02*
X80279000Y-94826000I-50000J0D01*
G01*
X79504000Y-94826000D01*
G75*
G02*
X79454000Y-94776000I0J50000D01*
G01*
X79454000Y-94676000D01*
G75*
G02*
X79504000Y-94626000I50000J0D01*
G01*
X80279000Y-94626000D01*
G75*
G02*
X80329000Y-94676000I0J-50000D01*
G01*
G37*
G36*
G01*
X80329000Y-94276000D02*
X80329000Y-94376000D01*
G75*
G02*
X80279000Y-94426000I-50000J0D01*
G01*
X79504000Y-94426000D01*
G75*
G02*
X79454000Y-94376000I0J50000D01*
G01*
X79454000Y-94276000D01*
G75*
G02*
X79504000Y-94226000I50000J0D01*
G01*
X80279000Y-94226000D01*
G75*
G02*
X80329000Y-94276000I0J-50000D01*
G01*
G37*
G36*
G01*
X80329000Y-93876000D02*
X80329000Y-93976000D01*
G75*
G02*
X80279000Y-94026000I-50000J0D01*
G01*
X79504000Y-94026000D01*
G75*
G02*
X79454000Y-93976000I0J50000D01*
G01*
X79454000Y-93876000D01*
G75*
G02*
X79504000Y-93826000I50000J0D01*
G01*
X80279000Y-93826000D01*
G75*
G02*
X80329000Y-93876000I0J-50000D01*
G01*
G37*
G36*
G01*
X80329000Y-93476000D02*
X80329000Y-93576000D01*
G75*
G02*
X80279000Y-93626000I-50000J0D01*
G01*
X79504000Y-93626000D01*
G75*
G02*
X79454000Y-93576000I0J50000D01*
G01*
X79454000Y-93476000D01*
G75*
G02*
X79504000Y-93426000I50000J0D01*
G01*
X80279000Y-93426000D01*
G75*
G02*
X80329000Y-93476000I0J-50000D01*
G01*
G37*
G36*
G01*
X80329000Y-93076000D02*
X80329000Y-93176000D01*
G75*
G02*
X80279000Y-93226000I-50000J0D01*
G01*
X79504000Y-93226000D01*
G75*
G02*
X79454000Y-93176000I0J50000D01*
G01*
X79454000Y-93076000D01*
G75*
G02*
X79504000Y-93026000I50000J0D01*
G01*
X80279000Y-93026000D01*
G75*
G02*
X80329000Y-93076000I0J-50000D01*
G01*
G37*
G36*
G01*
X80329000Y-92676000D02*
X80329000Y-92776000D01*
G75*
G02*
X80279000Y-92826000I-50000J0D01*
G01*
X79504000Y-92826000D01*
G75*
G02*
X79454000Y-92776000I0J50000D01*
G01*
X79454000Y-92676000D01*
G75*
G02*
X79504000Y-92626000I50000J0D01*
G01*
X80279000Y-92626000D01*
G75*
G02*
X80329000Y-92676000I0J-50000D01*
G01*
G37*
G36*
G01*
X80329000Y-92276000D02*
X80329000Y-92376000D01*
G75*
G02*
X80279000Y-92426000I-50000J0D01*
G01*
X79504000Y-92426000D01*
G75*
G02*
X79454000Y-92376000I0J50000D01*
G01*
X79454000Y-92276000D01*
G75*
G02*
X79504000Y-92226000I50000J0D01*
G01*
X80279000Y-92226000D01*
G75*
G02*
X80329000Y-92276000I0J-50000D01*
G01*
G37*
G36*
G01*
X80329000Y-91876000D02*
X80329000Y-91976000D01*
G75*
G02*
X80279000Y-92026000I-50000J0D01*
G01*
X79504000Y-92026000D01*
G75*
G02*
X79454000Y-91976000I0J50000D01*
G01*
X79454000Y-91876000D01*
G75*
G02*
X79504000Y-91826000I50000J0D01*
G01*
X80279000Y-91826000D01*
G75*
G02*
X80329000Y-91876000I0J-50000D01*
G01*
G37*
G36*
G01*
X80329000Y-91476000D02*
X80329000Y-91576000D01*
G75*
G02*
X80279000Y-91626000I-50000J0D01*
G01*
X79504000Y-91626000D01*
G75*
G02*
X79454000Y-91576000I0J50000D01*
G01*
X79454000Y-91476000D01*
G75*
G02*
X79504000Y-91426000I50000J0D01*
G01*
X80279000Y-91426000D01*
G75*
G02*
X80329000Y-91476000I0J-50000D01*
G01*
G37*
G36*
G01*
X80329000Y-91076000D02*
X80329000Y-91176000D01*
G75*
G02*
X80279000Y-91226000I-50000J0D01*
G01*
X79504000Y-91226000D01*
G75*
G02*
X79454000Y-91176000I0J50000D01*
G01*
X79454000Y-91076000D01*
G75*
G02*
X79504000Y-91026000I50000J0D01*
G01*
X80279000Y-91026000D01*
G75*
G02*
X80329000Y-91076000I0J-50000D01*
G01*
G37*
G36*
G01*
X76358717Y-94071283D02*
X76358717Y-94655717D01*
G75*
G02*
X76108717Y-94905717I-250000J0D01*
G01*
X75524283Y-94905717D01*
G75*
G02*
X75274283Y-94655717I0J250000D01*
G01*
X75274283Y-94071283D01*
G75*
G02*
X75524283Y-93821283I250000J0D01*
G01*
X76108717Y-93821283D01*
G75*
G02*
X76358717Y-94071283I0J-250000D01*
G01*
G37*
G36*
G01*
X76358717Y-92796283D02*
X76358717Y-93380717D01*
G75*
G02*
X76108717Y-93630717I-250000J0D01*
G01*
X75524283Y-93630717D01*
G75*
G02*
X75274283Y-93380717I0J250000D01*
G01*
X75274283Y-92796283D01*
G75*
G02*
X75524283Y-92546283I250000J0D01*
G01*
X76108717Y-92546283D01*
G75*
G02*
X76358717Y-92796283I0J-250000D01*
G01*
G37*
G36*
G01*
X77633717Y-94071283D02*
X77633717Y-94655717D01*
G75*
G02*
X77383717Y-94905717I-250000J0D01*
G01*
X76799283Y-94905717D01*
G75*
G02*
X76549283Y-94655717I0J250000D01*
G01*
X76549283Y-94071283D01*
G75*
G02*
X76799283Y-93821283I250000J0D01*
G01*
X77383717Y-93821283D01*
G75*
G02*
X77633717Y-94071283I0J-250000D01*
G01*
G37*
G36*
G01*
X77633717Y-92796283D02*
X77633717Y-93380717D01*
G75*
G02*
X77383717Y-93630717I-250000J0D01*
G01*
X76799283Y-93630717D01*
G75*
G02*
X76549283Y-93380717I0J250000D01*
G01*
X76549283Y-92796283D01*
G75*
G02*
X76799283Y-92546283I250000J0D01*
G01*
X77383717Y-92546283D01*
G75*
G02*
X77633717Y-92796283I0J-250000D01*
G01*
G37*
G36*
G01*
X84372800Y-83695400D02*
X84372800Y-83995400D01*
G75*
G02*
X84222800Y-84145400I-150000J0D01*
G01*
X82922800Y-84145400D01*
G75*
G02*
X82772800Y-83995400I0J150000D01*
G01*
X82772800Y-83695400D01*
G75*
G02*
X82922800Y-83545400I150000J0D01*
G01*
X84222800Y-83545400D01*
G75*
G02*
X84372800Y-83695400I0J-150000D01*
G01*
G37*
G36*
G01*
X84372800Y-84965400D02*
X84372800Y-85265400D01*
G75*
G02*
X84222800Y-85415400I-150000J0D01*
G01*
X82922800Y-85415400D01*
G75*
G02*
X82772800Y-85265400I0J150000D01*
G01*
X82772800Y-84965400D01*
G75*
G02*
X82922800Y-84815400I150000J0D01*
G01*
X84222800Y-84815400D01*
G75*
G02*
X84372800Y-84965400I0J-150000D01*
G01*
G37*
G36*
G01*
X84372800Y-86235400D02*
X84372800Y-86535400D01*
G75*
G02*
X84222800Y-86685400I-150000J0D01*
G01*
X82922800Y-86685400D01*
G75*
G02*
X82772800Y-86535400I0J150000D01*
G01*
X82772800Y-86235400D01*
G75*
G02*
X82922800Y-86085400I150000J0D01*
G01*
X84222800Y-86085400D01*
G75*
G02*
X84372800Y-86235400I0J-150000D01*
G01*
G37*
G36*
G01*
X84372800Y-87505400D02*
X84372800Y-87805400D01*
G75*
G02*
X84222800Y-87955400I-150000J0D01*
G01*
X82922800Y-87955400D01*
G75*
G02*
X82772800Y-87805400I0J150000D01*
G01*
X82772800Y-87505400D01*
G75*
G02*
X82922800Y-87355400I150000J0D01*
G01*
X84222800Y-87355400D01*
G75*
G02*
X84372800Y-87505400I0J-150000D01*
G01*
G37*
G36*
G01*
X91572800Y-87505400D02*
X91572800Y-87805400D01*
G75*
G02*
X91422800Y-87955400I-150000J0D01*
G01*
X90122800Y-87955400D01*
G75*
G02*
X89972800Y-87805400I0J150000D01*
G01*
X89972800Y-87505400D01*
G75*
G02*
X90122800Y-87355400I150000J0D01*
G01*
X91422800Y-87355400D01*
G75*
G02*
X91572800Y-87505400I0J-150000D01*
G01*
G37*
G36*
G01*
X91572800Y-86235400D02*
X91572800Y-86535400D01*
G75*
G02*
X91422800Y-86685400I-150000J0D01*
G01*
X90122800Y-86685400D01*
G75*
G02*
X89972800Y-86535400I0J150000D01*
G01*
X89972800Y-86235400D01*
G75*
G02*
X90122800Y-86085400I150000J0D01*
G01*
X91422800Y-86085400D01*
G75*
G02*
X91572800Y-86235400I0J-150000D01*
G01*
G37*
G36*
G01*
X91572800Y-84965400D02*
X91572800Y-85265400D01*
G75*
G02*
X91422800Y-85415400I-150000J0D01*
G01*
X90122800Y-85415400D01*
G75*
G02*
X89972800Y-85265400I0J150000D01*
G01*
X89972800Y-84965400D01*
G75*
G02*
X90122800Y-84815400I150000J0D01*
G01*
X91422800Y-84815400D01*
G75*
G02*
X91572800Y-84965400I0J-150000D01*
G01*
G37*
G36*
G01*
X91572800Y-83695400D02*
X91572800Y-83995400D01*
G75*
G02*
X91422800Y-84145400I-150000J0D01*
G01*
X90122800Y-84145400D01*
G75*
G02*
X89972800Y-83995400I0J150000D01*
G01*
X89972800Y-83695400D01*
G75*
G02*
X90122800Y-83545400I150000J0D01*
G01*
X91422800Y-83545400D01*
G75*
G02*
X91572800Y-83695400I0J-150000D01*
G01*
G37*
G36*
G01*
X62553400Y-65197400D02*
X62553400Y-64647400D01*
G75*
G02*
X62753400Y-64447400I200000J0D01*
G01*
X63153400Y-64447400D01*
G75*
G02*
X63353400Y-64647400I0J-200000D01*
G01*
X63353400Y-65197400D01*
G75*
G02*
X63153400Y-65397400I-200000J0D01*
G01*
X62753400Y-65397400D01*
G75*
G02*
X62553400Y-65197400I0J200000D01*
G01*
G37*
G36*
G01*
X60903400Y-65197400D02*
X60903400Y-64647400D01*
G75*
G02*
X61103400Y-64447400I200000J0D01*
G01*
X61503400Y-64447400D01*
G75*
G02*
X61703400Y-64647400I0J-200000D01*
G01*
X61703400Y-65197400D01*
G75*
G02*
X61503400Y-65397400I-200000J0D01*
G01*
X61103400Y-65397400D01*
G75*
G02*
X60903400Y-65197400I0J200000D01*
G01*
G37*
G36*
G01*
X75509800Y-84754400D02*
X74959800Y-84754400D01*
G75*
G02*
X74759800Y-84554400I0J200000D01*
G01*
X74759800Y-84154400D01*
G75*
G02*
X74959800Y-83954400I200000J0D01*
G01*
X75509800Y-83954400D01*
G75*
G02*
X75709800Y-84154400I0J-200000D01*
G01*
X75709800Y-84554400D01*
G75*
G02*
X75509800Y-84754400I-200000J0D01*
G01*
G37*
G36*
G01*
X75509800Y-86404400D02*
X74959800Y-86404400D01*
G75*
G02*
X74759800Y-86204400I0J200000D01*
G01*
X74759800Y-85804400D01*
G75*
G02*
X74959800Y-85604400I200000J0D01*
G01*
X75509800Y-85604400D01*
G75*
G02*
X75709800Y-85804400I0J-200000D01*
G01*
X75709800Y-86204400D01*
G75*
G02*
X75509800Y-86404400I-200000J0D01*
G01*
G37*
G36*
G01*
X73884200Y-84805200D02*
X73334200Y-84805200D01*
G75*
G02*
X73134200Y-84605200I0J200000D01*
G01*
X73134200Y-84205200D01*
G75*
G02*
X73334200Y-84005200I200000J0D01*
G01*
X73884200Y-84005200D01*
G75*
G02*
X74084200Y-84205200I0J-200000D01*
G01*
X74084200Y-84605200D01*
G75*
G02*
X73884200Y-84805200I-200000J0D01*
G01*
G37*
G36*
G01*
X73884200Y-86455200D02*
X73334200Y-86455200D01*
G75*
G02*
X73134200Y-86255200I0J200000D01*
G01*
X73134200Y-85855200D01*
G75*
G02*
X73334200Y-85655200I200000J0D01*
G01*
X73884200Y-85655200D01*
G75*
G02*
X74084200Y-85855200I0J-200000D01*
G01*
X74084200Y-86255200D01*
G75*
G02*
X73884200Y-86455200I-200000J0D01*
G01*
G37*
G36*
G01*
X77451400Y-64164800D02*
X77451400Y-64714800D01*
G75*
G02*
X77251400Y-64914800I-200000J0D01*
G01*
X76851400Y-64914800D01*
G75*
G02*
X76651400Y-64714800I0J200000D01*
G01*
X76651400Y-64164800D01*
G75*
G02*
X76851400Y-63964800I200000J0D01*
G01*
X77251400Y-63964800D01*
G75*
G02*
X77451400Y-64164800I0J-200000D01*
G01*
G37*
G36*
G01*
X79101400Y-64164800D02*
X79101400Y-64714800D01*
G75*
G02*
X78901400Y-64914800I-200000J0D01*
G01*
X78501400Y-64914800D01*
G75*
G02*
X78301400Y-64714800I0J200000D01*
G01*
X78301400Y-64164800D01*
G75*
G02*
X78501400Y-63964800I200000J0D01*
G01*
X78901400Y-63964800D01*
G75*
G02*
X79101400Y-64164800I0J-200000D01*
G01*
G37*
D15*
X73227000Y-68103800D03*
X72427000Y-68103800D03*
X67527000Y-68103800D03*
X66727000Y-68103800D03*
X66727000Y-68103800D03*
X67527000Y-68103800D03*
X72427000Y-68103800D03*
X73227000Y-68103800D03*
D16*
X68227000Y-68103800D03*
X68727000Y-68103800D03*
X69227000Y-68103800D03*
X70227000Y-68103800D03*
X70727000Y-68103800D03*
X71227000Y-68103800D03*
X71727000Y-68103800D03*
X69727000Y-68103800D03*
G36*
G01*
X68576000Y-84879000D02*
X68076000Y-84879000D01*
G75*
G02*
X67851000Y-84654000I0J225000D01*
G01*
X67851000Y-84204000D01*
G75*
G02*
X68076000Y-83979000I225000J0D01*
G01*
X68576000Y-83979000D01*
G75*
G02*
X68801000Y-84204000I0J-225000D01*
G01*
X68801000Y-84654000D01*
G75*
G02*
X68576000Y-84879000I-225000J0D01*
G01*
G37*
G36*
G01*
X68576000Y-86429000D02*
X68076000Y-86429000D01*
G75*
G02*
X67851000Y-86204000I0J225000D01*
G01*
X67851000Y-85754000D01*
G75*
G02*
X68076000Y-85529000I225000J0D01*
G01*
X68576000Y-85529000D01*
G75*
G02*
X68801000Y-85754000I0J-225000D01*
G01*
X68801000Y-86204000D01*
G75*
G02*
X68576000Y-86429000I-225000J0D01*
G01*
G37*
G36*
G01*
X61845000Y-84752000D02*
X61345000Y-84752000D01*
G75*
G02*
X61120000Y-84527000I0J225000D01*
G01*
X61120000Y-84077000D01*
G75*
G02*
X61345000Y-83852000I225000J0D01*
G01*
X61845000Y-83852000D01*
G75*
G02*
X62070000Y-84077000I0J-225000D01*
G01*
X62070000Y-84527000D01*
G75*
G02*
X61845000Y-84752000I-225000J0D01*
G01*
G37*
G36*
G01*
X61845000Y-86302000D02*
X61345000Y-86302000D01*
G75*
G02*
X61120000Y-86077000I0J225000D01*
G01*
X61120000Y-85627000D01*
G75*
G02*
X61345000Y-85402000I225000J0D01*
G01*
X61845000Y-85402000D01*
G75*
G02*
X62070000Y-85627000I0J-225000D01*
G01*
X62070000Y-86077000D01*
G75*
G02*
X61845000Y-86302000I-225000J0D01*
G01*
G37*
D17*
X65532000Y-129745600D03*
X65532000Y-142745600D03*
D14*
X93117600Y-62666000D03*
X86917600Y-62666000D03*
X93117600Y-66366000D03*
X86917600Y-66366000D03*
M02*
