G04 #@! TF.GenerationSoftware,KiCad,Pcbnew,(5.1.10)-1*
G04 #@! TF.CreationDate,2021-08-27T00:07:47-06:00*
G04 #@! TF.ProjectId,EncoderPad_RP2040,456e636f-6465-4725-9061-645f52503230,rev?*
G04 #@! TF.SameCoordinates,Original*
G04 #@! TF.FileFunction,Legend,Bot*
G04 #@! TF.FilePolarity,Positive*
%FSLAX46Y46*%
G04 Gerber Fmt 4.6, Leading zero omitted, Abs format (unit mm)*
G04 Created by KiCad (PCBNEW (5.1.10)-1) date 2021-08-27 00:07:47*
%MOMM*%
%LPD*%
G01*
G04 APERTURE LIST*
%ADD10C,0.150000*%
%ADD11C,0.100000*%
%ADD12C,0.120000*%
G04 APERTURE END LIST*
D10*
X114480809Y-147391380D02*
X114957000Y-147391380D01*
X114957000Y-146391380D01*
X114147476Y-147391380D02*
X114147476Y-146724714D01*
X114147476Y-146391380D02*
X114195095Y-146439000D01*
X114147476Y-146486619D01*
X114099857Y-146439000D01*
X114147476Y-146391380D01*
X114147476Y-146486619D01*
X113242714Y-147343761D02*
X113337952Y-147391380D01*
X113528428Y-147391380D01*
X113623666Y-147343761D01*
X113671285Y-147296142D01*
X113718904Y-147200904D01*
X113718904Y-146915190D01*
X113671285Y-146819952D01*
X113623666Y-146772333D01*
X113528428Y-146724714D01*
X113337952Y-146724714D01*
X113242714Y-146772333D01*
X112433190Y-147343761D02*
X112528428Y-147391380D01*
X112718904Y-147391380D01*
X112814142Y-147343761D01*
X112861761Y-147248523D01*
X112861761Y-146867571D01*
X112814142Y-146772333D01*
X112718904Y-146724714D01*
X112528428Y-146724714D01*
X112433190Y-146772333D01*
X112385571Y-146867571D01*
X112385571Y-146962809D01*
X112861761Y-147058047D01*
X111957000Y-146724714D02*
X111957000Y-147391380D01*
X111957000Y-146819952D02*
X111909380Y-146772333D01*
X111814142Y-146724714D01*
X111671285Y-146724714D01*
X111576047Y-146772333D01*
X111528428Y-146867571D01*
X111528428Y-147391380D01*
X111099857Y-147343761D02*
X111004619Y-147391380D01*
X110814142Y-147391380D01*
X110718904Y-147343761D01*
X110671285Y-147248523D01*
X110671285Y-147200904D01*
X110718904Y-147105666D01*
X110814142Y-147058047D01*
X110957000Y-147058047D01*
X111052238Y-147010428D01*
X111099857Y-146915190D01*
X111099857Y-146867571D01*
X111052238Y-146772333D01*
X110957000Y-146724714D01*
X110814142Y-146724714D01*
X110718904Y-146772333D01*
X109861761Y-147343761D02*
X109957000Y-147391380D01*
X110147476Y-147391380D01*
X110242714Y-147343761D01*
X110290333Y-147248523D01*
X110290333Y-146867571D01*
X110242714Y-146772333D01*
X110147476Y-146724714D01*
X109957000Y-146724714D01*
X109861761Y-146772333D01*
X109814142Y-146867571D01*
X109814142Y-146962809D01*
X110290333Y-147058047D01*
X109385571Y-147296142D02*
X109337952Y-147343761D01*
X109385571Y-147391380D01*
X109433190Y-147343761D01*
X109385571Y-147296142D01*
X109385571Y-147391380D01*
X109385571Y-146772333D02*
X109337952Y-146819952D01*
X109385571Y-146867571D01*
X109433190Y-146819952D01*
X109385571Y-146772333D01*
X109385571Y-146867571D01*
X107576047Y-147296142D02*
X107623666Y-147343761D01*
X107766523Y-147391380D01*
X107861761Y-147391380D01*
X108004619Y-147343761D01*
X108099857Y-147248523D01*
X108147476Y-147153285D01*
X108195095Y-146962809D01*
X108195095Y-146819952D01*
X108147476Y-146629476D01*
X108099857Y-146534238D01*
X108004619Y-146439000D01*
X107861761Y-146391380D01*
X107766523Y-146391380D01*
X107623666Y-146439000D01*
X107576047Y-146486619D01*
X107147476Y-146867571D02*
X106814142Y-146867571D01*
X106671285Y-147391380D02*
X107147476Y-147391380D01*
X107147476Y-146391380D01*
X106671285Y-146391380D01*
X105671285Y-147391380D02*
X106004619Y-146915190D01*
X106242714Y-147391380D02*
X106242714Y-146391380D01*
X105861761Y-146391380D01*
X105766523Y-146439000D01*
X105718904Y-146486619D01*
X105671285Y-146581857D01*
X105671285Y-146724714D01*
X105718904Y-146819952D01*
X105766523Y-146867571D01*
X105861761Y-146915190D01*
X106242714Y-146915190D01*
X105242714Y-147391380D02*
X105242714Y-146391380D01*
X104671285Y-147391380D01*
X104671285Y-146391380D01*
X104195095Y-147010428D02*
X103433190Y-147010428D01*
X102766523Y-146391380D02*
X102576047Y-146391380D01*
X102480809Y-146439000D01*
X102385571Y-146534238D01*
X102337952Y-146724714D01*
X102337952Y-147058047D01*
X102385571Y-147248523D01*
X102480809Y-147343761D01*
X102576047Y-147391380D01*
X102766523Y-147391380D01*
X102861761Y-147343761D01*
X102957000Y-147248523D01*
X103004619Y-147058047D01*
X103004619Y-146724714D01*
X102957000Y-146534238D01*
X102861761Y-146439000D01*
X102766523Y-146391380D01*
X101909380Y-147391380D02*
X101909380Y-146391380D01*
X101909380Y-146867571D02*
X101337952Y-146867571D01*
X101337952Y-147391380D02*
X101337952Y-146391380D01*
X100385571Y-147391380D02*
X100861761Y-147391380D01*
X100861761Y-146391380D01*
X100052238Y-147010428D02*
X99290333Y-147010428D01*
X98909380Y-146391380D02*
X98671285Y-147391380D01*
X98480809Y-146677095D01*
X98290333Y-147391380D01*
X98052238Y-146391380D01*
X96623666Y-147772333D02*
X96671285Y-147724714D01*
X96766523Y-147581857D01*
X96814142Y-147486619D01*
X96861761Y-147343761D01*
X96909380Y-147105666D01*
X96909380Y-146915190D01*
X96861761Y-146677095D01*
X96814142Y-146534238D01*
X96766523Y-146439000D01*
X96671285Y-146296142D01*
X96623666Y-146248523D01*
X95671285Y-147296142D02*
X95718904Y-147343761D01*
X95861761Y-147391380D01*
X95957000Y-147391380D01*
X96099857Y-147343761D01*
X96195095Y-147248523D01*
X96242714Y-147153285D01*
X96290333Y-146962809D01*
X96290333Y-146819952D01*
X96242714Y-146629476D01*
X96195095Y-146534238D01*
X96099857Y-146439000D01*
X95957000Y-146391380D01*
X95861761Y-146391380D01*
X95718904Y-146439000D01*
X95671285Y-146486619D01*
X95242714Y-146867571D02*
X94909380Y-146867571D01*
X94766523Y-147391380D02*
X95242714Y-147391380D01*
X95242714Y-146391380D01*
X94766523Y-146391380D01*
X93766523Y-147391380D02*
X94099857Y-146915190D01*
X94337952Y-147391380D02*
X94337952Y-146391380D01*
X93957000Y-146391380D01*
X93861761Y-146439000D01*
X93814142Y-146486619D01*
X93766523Y-146581857D01*
X93766523Y-146724714D01*
X93814142Y-146819952D01*
X93861761Y-146867571D01*
X93957000Y-146915190D01*
X94337952Y-146915190D01*
X93337952Y-147391380D02*
X93337952Y-146391380D01*
X92766523Y-147391380D01*
X92766523Y-146391380D01*
X91337952Y-146391380D02*
X91147476Y-146391380D01*
X91052238Y-146439000D01*
X90957000Y-146534238D01*
X90909380Y-146724714D01*
X90909380Y-147058047D01*
X90957000Y-147248523D01*
X91052238Y-147343761D01*
X91147476Y-147391380D01*
X91337952Y-147391380D01*
X91433190Y-147343761D01*
X91528428Y-147248523D01*
X91576047Y-147058047D01*
X91576047Y-146724714D01*
X91528428Y-146534238D01*
X91433190Y-146439000D01*
X91337952Y-146391380D01*
X90480809Y-147391380D02*
X90480809Y-146391380D01*
X90480809Y-146867571D02*
X89909380Y-146867571D01*
X89909380Y-147391380D02*
X89909380Y-146391380D01*
X88957000Y-147391380D02*
X89433190Y-147391380D01*
X89433190Y-146391380D01*
X87957000Y-146724714D02*
X87718904Y-147391380D01*
X87480809Y-146724714D01*
X87147476Y-146486619D02*
X87099857Y-146439000D01*
X87004619Y-146391380D01*
X86766523Y-146391380D01*
X86671285Y-146439000D01*
X86623666Y-146486619D01*
X86576047Y-146581857D01*
X86576047Y-146677095D01*
X86623666Y-146819952D01*
X87195095Y-147391380D01*
X86576047Y-147391380D01*
X86242714Y-147772333D02*
X86195095Y-147724714D01*
X86099857Y-147581857D01*
X86052238Y-147486619D01*
X86004619Y-147343761D01*
X85957000Y-147105666D01*
X85957000Y-146915190D01*
X86004619Y-146677095D01*
X86052238Y-146534238D01*
X86099857Y-146439000D01*
X86195095Y-146296142D01*
X86242714Y-146248523D01*
X122655476Y-145359380D02*
X122655476Y-144359380D01*
X122226904Y-145359380D02*
X122226904Y-144835571D01*
X122274523Y-144740333D01*
X122369761Y-144692714D01*
X122512619Y-144692714D01*
X122607857Y-144740333D01*
X122655476Y-144787952D01*
X121893571Y-144692714D02*
X121512619Y-144692714D01*
X121750714Y-144359380D02*
X121750714Y-145216523D01*
X121703095Y-145311761D01*
X121607857Y-145359380D01*
X121512619Y-145359380D01*
X121322142Y-144692714D02*
X120941190Y-144692714D01*
X121179285Y-144359380D02*
X121179285Y-145216523D01*
X121131666Y-145311761D01*
X121036428Y-145359380D01*
X120941190Y-145359380D01*
X120607857Y-144692714D02*
X120607857Y-145692714D01*
X120607857Y-144740333D02*
X120512619Y-144692714D01*
X120322142Y-144692714D01*
X120226904Y-144740333D01*
X120179285Y-144787952D01*
X120131666Y-144883190D01*
X120131666Y-145168904D01*
X120179285Y-145264142D01*
X120226904Y-145311761D01*
X120322142Y-145359380D01*
X120512619Y-145359380D01*
X120607857Y-145311761D01*
X119750714Y-145311761D02*
X119655476Y-145359380D01*
X119465000Y-145359380D01*
X119369761Y-145311761D01*
X119322142Y-145216523D01*
X119322142Y-145168904D01*
X119369761Y-145073666D01*
X119465000Y-145026047D01*
X119607857Y-145026047D01*
X119703095Y-144978428D01*
X119750714Y-144883190D01*
X119750714Y-144835571D01*
X119703095Y-144740333D01*
X119607857Y-144692714D01*
X119465000Y-144692714D01*
X119369761Y-144740333D01*
X118893571Y-145264142D02*
X118845952Y-145311761D01*
X118893571Y-145359380D01*
X118941190Y-145311761D01*
X118893571Y-145264142D01*
X118893571Y-145359380D01*
X118893571Y-144740333D02*
X118845952Y-144787952D01*
X118893571Y-144835571D01*
X118941190Y-144787952D01*
X118893571Y-144740333D01*
X118893571Y-144835571D01*
X117703095Y-144311761D02*
X118560238Y-145597476D01*
X116655476Y-144311761D02*
X117512619Y-145597476D01*
X115893571Y-144692714D02*
X115893571Y-145502238D01*
X115941190Y-145597476D01*
X115988809Y-145645095D01*
X116084047Y-145692714D01*
X116226904Y-145692714D01*
X116322142Y-145645095D01*
X115893571Y-145311761D02*
X115988809Y-145359380D01*
X116179285Y-145359380D01*
X116274523Y-145311761D01*
X116322142Y-145264142D01*
X116369761Y-145168904D01*
X116369761Y-144883190D01*
X116322142Y-144787952D01*
X116274523Y-144740333D01*
X116179285Y-144692714D01*
X115988809Y-144692714D01*
X115893571Y-144740333D01*
X115417380Y-145359380D02*
X115417380Y-144692714D01*
X115417380Y-144359380D02*
X115465000Y-144407000D01*
X115417380Y-144454619D01*
X115369761Y-144407000D01*
X115417380Y-144359380D01*
X115417380Y-144454619D01*
X115084047Y-144692714D02*
X114703095Y-144692714D01*
X114941190Y-144359380D02*
X114941190Y-145216523D01*
X114893571Y-145311761D01*
X114798333Y-145359380D01*
X114703095Y-145359380D01*
X114369761Y-145359380D02*
X114369761Y-144359380D01*
X113941190Y-145359380D02*
X113941190Y-144835571D01*
X113988809Y-144740333D01*
X114084047Y-144692714D01*
X114226904Y-144692714D01*
X114322142Y-144740333D01*
X114369761Y-144787952D01*
X113036428Y-144692714D02*
X113036428Y-145359380D01*
X113465000Y-144692714D02*
X113465000Y-145216523D01*
X113417380Y-145311761D01*
X113322142Y-145359380D01*
X113179285Y-145359380D01*
X113084047Y-145311761D01*
X113036428Y-145264142D01*
X112560238Y-145359380D02*
X112560238Y-144359380D01*
X112560238Y-144740333D02*
X112465000Y-144692714D01*
X112274523Y-144692714D01*
X112179285Y-144740333D01*
X112131666Y-144787952D01*
X112084047Y-144883190D01*
X112084047Y-145168904D01*
X112131666Y-145264142D01*
X112179285Y-145311761D01*
X112274523Y-145359380D01*
X112465000Y-145359380D01*
X112560238Y-145311761D01*
X111655476Y-145264142D02*
X111607857Y-145311761D01*
X111655476Y-145359380D01*
X111703095Y-145311761D01*
X111655476Y-145264142D01*
X111655476Y-145359380D01*
X110750714Y-145311761D02*
X110845952Y-145359380D01*
X111036428Y-145359380D01*
X111131666Y-145311761D01*
X111179285Y-145264142D01*
X111226904Y-145168904D01*
X111226904Y-144883190D01*
X111179285Y-144787952D01*
X111131666Y-144740333D01*
X111036428Y-144692714D01*
X110845952Y-144692714D01*
X110750714Y-144740333D01*
X110179285Y-145359380D02*
X110274523Y-145311761D01*
X110322142Y-145264142D01*
X110369761Y-145168904D01*
X110369761Y-144883190D01*
X110322142Y-144787952D01*
X110274523Y-144740333D01*
X110179285Y-144692714D01*
X110036428Y-144692714D01*
X109941190Y-144740333D01*
X109893571Y-144787952D01*
X109845952Y-144883190D01*
X109845952Y-145168904D01*
X109893571Y-145264142D01*
X109941190Y-145311761D01*
X110036428Y-145359380D01*
X110179285Y-145359380D01*
X109417380Y-145359380D02*
X109417380Y-144692714D01*
X109417380Y-144787952D02*
X109369761Y-144740333D01*
X109274523Y-144692714D01*
X109131666Y-144692714D01*
X109036428Y-144740333D01*
X108988809Y-144835571D01*
X108988809Y-145359380D01*
X108988809Y-144835571D02*
X108941190Y-144740333D01*
X108845952Y-144692714D01*
X108703095Y-144692714D01*
X108607857Y-144740333D01*
X108560238Y-144835571D01*
X108560238Y-145359380D01*
X107369761Y-144311761D02*
X108226904Y-145597476D01*
X107036428Y-144692714D02*
X107036428Y-145549857D01*
X107084047Y-145645095D01*
X107179285Y-145692714D01*
X107226904Y-145692714D01*
X107036428Y-144359380D02*
X107084047Y-144407000D01*
X107036428Y-144454619D01*
X106988809Y-144407000D01*
X107036428Y-144359380D01*
X107036428Y-144454619D01*
X106560238Y-144692714D02*
X106560238Y-145692714D01*
X106560238Y-144740333D02*
X106465000Y-144692714D01*
X106274523Y-144692714D01*
X106179285Y-144740333D01*
X106131666Y-144787952D01*
X106084047Y-144883190D01*
X106084047Y-145168904D01*
X106131666Y-145264142D01*
X106179285Y-145311761D01*
X106274523Y-145359380D01*
X106465000Y-145359380D01*
X106560238Y-145311761D01*
X105226904Y-145311761D02*
X105322142Y-145359380D01*
X105512619Y-145359380D01*
X105607857Y-145311761D01*
X105655476Y-145264142D01*
X105703095Y-145168904D01*
X105703095Y-144883190D01*
X105655476Y-144787952D01*
X105607857Y-144740333D01*
X105512619Y-144692714D01*
X105322142Y-144692714D01*
X105226904Y-144740333D01*
X104655476Y-145359380D02*
X104750714Y-145311761D01*
X104798333Y-145264142D01*
X104845952Y-145168904D01*
X104845952Y-144883190D01*
X104798333Y-144787952D01*
X104750714Y-144740333D01*
X104655476Y-144692714D01*
X104512619Y-144692714D01*
X104417380Y-144740333D01*
X104369761Y-144787952D01*
X104322142Y-144883190D01*
X104322142Y-145168904D01*
X104369761Y-145264142D01*
X104417380Y-145311761D01*
X104512619Y-145359380D01*
X104655476Y-145359380D01*
X103893571Y-144692714D02*
X103893571Y-145359380D01*
X103893571Y-144787952D02*
X103845952Y-144740333D01*
X103750714Y-144692714D01*
X103607857Y-144692714D01*
X103512619Y-144740333D01*
X103465000Y-144835571D01*
X103465000Y-145359380D01*
X103036428Y-145311761D02*
X102941190Y-145359380D01*
X102750714Y-145359380D01*
X102655476Y-145311761D01*
X102607857Y-145216523D01*
X102607857Y-145168904D01*
X102655476Y-145073666D01*
X102750714Y-145026047D01*
X102893571Y-145026047D01*
X102988809Y-144978428D01*
X103036428Y-144883190D01*
X103036428Y-144835571D01*
X102988809Y-144740333D01*
X102893571Y-144692714D01*
X102750714Y-144692714D01*
X102655476Y-144740333D01*
X102322142Y-144692714D02*
X101941190Y-144692714D01*
X102179285Y-144359380D02*
X102179285Y-145216523D01*
X102131666Y-145311761D01*
X102036428Y-145359380D01*
X101941190Y-145359380D01*
X101179285Y-145359380D02*
X101179285Y-144835571D01*
X101226904Y-144740333D01*
X101322142Y-144692714D01*
X101512619Y-144692714D01*
X101607857Y-144740333D01*
X101179285Y-145311761D02*
X101274523Y-145359380D01*
X101512619Y-145359380D01*
X101607857Y-145311761D01*
X101655476Y-145216523D01*
X101655476Y-145121285D01*
X101607857Y-145026047D01*
X101512619Y-144978428D01*
X101274523Y-144978428D01*
X101179285Y-144930809D01*
X100703095Y-144692714D02*
X100703095Y-145359380D01*
X100703095Y-144787952D02*
X100655476Y-144740333D01*
X100560238Y-144692714D01*
X100417380Y-144692714D01*
X100322142Y-144740333D01*
X100274523Y-144835571D01*
X100274523Y-145359380D01*
X99941190Y-144692714D02*
X99560238Y-144692714D01*
X99798333Y-144359380D02*
X99798333Y-145216523D01*
X99750714Y-145311761D01*
X99655476Y-145359380D01*
X99560238Y-145359380D01*
X99226904Y-145359380D02*
X99226904Y-144692714D01*
X99226904Y-144359380D02*
X99274523Y-144407000D01*
X99226904Y-144454619D01*
X99179285Y-144407000D01*
X99226904Y-144359380D01*
X99226904Y-144454619D01*
X98750714Y-144692714D02*
X98750714Y-145359380D01*
X98750714Y-144787952D02*
X98703095Y-144740333D01*
X98607857Y-144692714D01*
X98465000Y-144692714D01*
X98369761Y-144740333D01*
X98322142Y-144835571D01*
X98322142Y-145359380D01*
X97465000Y-145311761D02*
X97560238Y-145359380D01*
X97750714Y-145359380D01*
X97845952Y-145311761D01*
X97893571Y-145216523D01*
X97893571Y-144835571D01*
X97845952Y-144740333D01*
X97750714Y-144692714D01*
X97560238Y-144692714D01*
X97465000Y-144740333D01*
X97417380Y-144835571D01*
X97417380Y-144930809D01*
X97893571Y-145026047D01*
X96560238Y-145359380D02*
X96560238Y-144835571D01*
X96607857Y-144740333D01*
X96703095Y-144692714D01*
X96893571Y-144692714D01*
X96988809Y-144740333D01*
X96560238Y-145311761D02*
X96655476Y-145359380D01*
X96893571Y-145359380D01*
X96988809Y-145311761D01*
X97036428Y-145216523D01*
X97036428Y-145121285D01*
X96988809Y-145026047D01*
X96893571Y-144978428D01*
X96655476Y-144978428D01*
X96560238Y-144930809D01*
X95655476Y-144692714D02*
X95655476Y-145359380D01*
X96084047Y-144692714D02*
X96084047Y-145216523D01*
X96036428Y-145311761D01*
X95941190Y-145359380D01*
X95798333Y-145359380D01*
X95703095Y-145311761D01*
X95655476Y-145264142D01*
X94465000Y-144311761D02*
X95322142Y-145597476D01*
X94131666Y-144835571D02*
X93798333Y-144835571D01*
X93655476Y-145359380D02*
X94131666Y-145359380D01*
X94131666Y-144359380D01*
X93655476Y-144359380D01*
X93226904Y-144692714D02*
X93226904Y-145359380D01*
X93226904Y-144787952D02*
X93179285Y-144740333D01*
X93084047Y-144692714D01*
X92941190Y-144692714D01*
X92845952Y-144740333D01*
X92798333Y-144835571D01*
X92798333Y-145359380D01*
X91893571Y-145311761D02*
X91988809Y-145359380D01*
X92179285Y-145359380D01*
X92274523Y-145311761D01*
X92322142Y-145264142D01*
X92369761Y-145168904D01*
X92369761Y-144883190D01*
X92322142Y-144787952D01*
X92274523Y-144740333D01*
X92179285Y-144692714D01*
X91988809Y-144692714D01*
X91893571Y-144740333D01*
X91322142Y-145359380D02*
X91417380Y-145311761D01*
X91465000Y-145264142D01*
X91512619Y-145168904D01*
X91512619Y-144883190D01*
X91465000Y-144787952D01*
X91417380Y-144740333D01*
X91322142Y-144692714D01*
X91179285Y-144692714D01*
X91084047Y-144740333D01*
X91036428Y-144787952D01*
X90988809Y-144883190D01*
X90988809Y-145168904D01*
X91036428Y-145264142D01*
X91084047Y-145311761D01*
X91179285Y-145359380D01*
X91322142Y-145359380D01*
X90131666Y-145359380D02*
X90131666Y-144359380D01*
X90131666Y-145311761D02*
X90226904Y-145359380D01*
X90417380Y-145359380D01*
X90512619Y-145311761D01*
X90560238Y-145264142D01*
X90607857Y-145168904D01*
X90607857Y-144883190D01*
X90560238Y-144787952D01*
X90512619Y-144740333D01*
X90417380Y-144692714D01*
X90226904Y-144692714D01*
X90131666Y-144740333D01*
X89274523Y-145311761D02*
X89369761Y-145359380D01*
X89560238Y-145359380D01*
X89655476Y-145311761D01*
X89703095Y-145216523D01*
X89703095Y-144835571D01*
X89655476Y-144740333D01*
X89560238Y-144692714D01*
X89369761Y-144692714D01*
X89274523Y-144740333D01*
X89226904Y-144835571D01*
X89226904Y-144930809D01*
X89703095Y-145026047D01*
X88798333Y-145359380D02*
X88798333Y-144692714D01*
X88798333Y-144883190D02*
X88750714Y-144787952D01*
X88703095Y-144740333D01*
X88607857Y-144692714D01*
X88512619Y-144692714D01*
X88179285Y-145359380D02*
X88179285Y-144359380D01*
X87798333Y-144359380D01*
X87703095Y-144407000D01*
X87655476Y-144454619D01*
X87607857Y-144549857D01*
X87607857Y-144692714D01*
X87655476Y-144787952D01*
X87703095Y-144835571D01*
X87798333Y-144883190D01*
X88179285Y-144883190D01*
X86750714Y-145359380D02*
X86750714Y-144835571D01*
X86798333Y-144740333D01*
X86893571Y-144692714D01*
X87084047Y-144692714D01*
X87179285Y-144740333D01*
X86750714Y-145311761D02*
X86845952Y-145359380D01*
X87084047Y-145359380D01*
X87179285Y-145311761D01*
X87226904Y-145216523D01*
X87226904Y-145121285D01*
X87179285Y-145026047D01*
X87084047Y-144978428D01*
X86845952Y-144978428D01*
X86750714Y-144930809D01*
X85845952Y-145359380D02*
X85845952Y-144359380D01*
X85845952Y-145311761D02*
X85941190Y-145359380D01*
X86131666Y-145359380D01*
X86226904Y-145311761D01*
X86274523Y-145264142D01*
X86322142Y-145168904D01*
X86322142Y-144883190D01*
X86274523Y-144787952D01*
X86226904Y-144740333D01*
X86131666Y-144692714D01*
X85941190Y-144692714D01*
X85845952Y-144740333D01*
X85607857Y-145454619D02*
X84845952Y-145454619D01*
X84036428Y-145359380D02*
X84369761Y-144883190D01*
X84607857Y-145359380D02*
X84607857Y-144359380D01*
X84226904Y-144359380D01*
X84131666Y-144407000D01*
X84084047Y-144454619D01*
X84036428Y-144549857D01*
X84036428Y-144692714D01*
X84084047Y-144787952D01*
X84131666Y-144835571D01*
X84226904Y-144883190D01*
X84607857Y-144883190D01*
X83607857Y-145359380D02*
X83607857Y-144359380D01*
X83226904Y-144359380D01*
X83131666Y-144407000D01*
X83084047Y-144454619D01*
X83036428Y-144549857D01*
X83036428Y-144692714D01*
X83084047Y-144787952D01*
X83131666Y-144835571D01*
X83226904Y-144883190D01*
X83607857Y-144883190D01*
X82655476Y-144454619D02*
X82607857Y-144407000D01*
X82512619Y-144359380D01*
X82274523Y-144359380D01*
X82179285Y-144407000D01*
X82131666Y-144454619D01*
X82084047Y-144549857D01*
X82084047Y-144645095D01*
X82131666Y-144787952D01*
X82703095Y-145359380D01*
X82084047Y-145359380D01*
X81465000Y-144359380D02*
X81369761Y-144359380D01*
X81274523Y-144407000D01*
X81226904Y-144454619D01*
X81179285Y-144549857D01*
X81131666Y-144740333D01*
X81131666Y-144978428D01*
X81179285Y-145168904D01*
X81226904Y-145264142D01*
X81274523Y-145311761D01*
X81369761Y-145359380D01*
X81465000Y-145359380D01*
X81560238Y-145311761D01*
X81607857Y-145264142D01*
X81655476Y-145168904D01*
X81703095Y-144978428D01*
X81703095Y-144740333D01*
X81655476Y-144549857D01*
X81607857Y-144454619D01*
X81560238Y-144407000D01*
X81465000Y-144359380D01*
X80274523Y-144692714D02*
X80274523Y-145359380D01*
X80512619Y-144311761D02*
X80750714Y-145026047D01*
X80131666Y-145026047D01*
X79560238Y-144359380D02*
X79465000Y-144359380D01*
X79369761Y-144407000D01*
X79322142Y-144454619D01*
X79274523Y-144549857D01*
X79226904Y-144740333D01*
X79226904Y-144978428D01*
X79274523Y-145168904D01*
X79322142Y-145264142D01*
X79369761Y-145311761D01*
X79465000Y-145359380D01*
X79560238Y-145359380D01*
X79655476Y-145311761D01*
X79703095Y-145264142D01*
X79750714Y-145168904D01*
X79798333Y-144978428D01*
X79798333Y-144740333D01*
X79750714Y-144549857D01*
X79703095Y-144454619D01*
X79655476Y-144407000D01*
X79560238Y-144359380D01*
D11*
X55965600Y-83902785D02*
X55715600Y-84652785D01*
X55465600Y-83902785D01*
X54787028Y-84581357D02*
X54822742Y-84617071D01*
X54929885Y-84652785D01*
X55001314Y-84652785D01*
X55108457Y-84617071D01*
X55179885Y-84545642D01*
X55215600Y-84474214D01*
X55251314Y-84331357D01*
X55251314Y-84224214D01*
X55215600Y-84081357D01*
X55179885Y-84009928D01*
X55108457Y-83938500D01*
X55001314Y-83902785D01*
X54929885Y-83902785D01*
X54822742Y-83938500D01*
X54787028Y-83974214D01*
X54037028Y-84581357D02*
X54072742Y-84617071D01*
X54179885Y-84652785D01*
X54251314Y-84652785D01*
X54358457Y-84617071D01*
X54429885Y-84545642D01*
X54465600Y-84474214D01*
X54501314Y-84331357D01*
X54501314Y-84224214D01*
X54465600Y-84081357D01*
X54429885Y-84009928D01*
X54358457Y-83938500D01*
X54251314Y-83902785D01*
X54179885Y-83902785D01*
X54072742Y-83938500D01*
X54037028Y-83974214D01*
X55537028Y-85163500D02*
X55608457Y-85127785D01*
X55715600Y-85127785D01*
X55822742Y-85163500D01*
X55894171Y-85234928D01*
X55929885Y-85306357D01*
X55965600Y-85449214D01*
X55965600Y-85556357D01*
X55929885Y-85699214D01*
X55894171Y-85770642D01*
X55822742Y-85842071D01*
X55715600Y-85877785D01*
X55644171Y-85877785D01*
X55537028Y-85842071D01*
X55501314Y-85806357D01*
X55501314Y-85556357D01*
X55644171Y-85556357D01*
X55179885Y-85877785D02*
X55179885Y-85127785D01*
X54751314Y-85877785D01*
X54751314Y-85127785D01*
X54394171Y-85877785D02*
X54394171Y-85127785D01*
X54215600Y-85127785D01*
X54108457Y-85163500D01*
X54037028Y-85234928D01*
X54001314Y-85306357D01*
X53965600Y-85449214D01*
X53965600Y-85556357D01*
X54001314Y-85699214D01*
X54037028Y-85770642D01*
X54108457Y-85842071D01*
X54215600Y-85877785D01*
X54394171Y-85877785D01*
X55090600Y-87031357D02*
X55126314Y-87067071D01*
X55233457Y-87102785D01*
X55304885Y-87102785D01*
X55412028Y-87067071D01*
X55483457Y-86995642D01*
X55519171Y-86924214D01*
X55554885Y-86781357D01*
X55554885Y-86674214D01*
X55519171Y-86531357D01*
X55483457Y-86459928D01*
X55412028Y-86388500D01*
X55304885Y-86352785D01*
X55233457Y-86352785D01*
X55126314Y-86388500D01*
X55090600Y-86424214D01*
X54804885Y-87067071D02*
X54697742Y-87102785D01*
X54519171Y-87102785D01*
X54447742Y-87067071D01*
X54412028Y-87031357D01*
X54376314Y-86959928D01*
X54376314Y-86888500D01*
X54412028Y-86817071D01*
X54447742Y-86781357D01*
X54519171Y-86745642D01*
X54662028Y-86709928D01*
X54733457Y-86674214D01*
X54769171Y-86638500D01*
X54804885Y-86567071D01*
X54804885Y-86495642D01*
X54769171Y-86424214D01*
X54733457Y-86388500D01*
X54662028Y-86352785D01*
X54483457Y-86352785D01*
X54376314Y-86388500D01*
X56144171Y-88327785D02*
X56144171Y-87577785D01*
X55894171Y-88113500D01*
X55644171Y-87577785D01*
X55644171Y-88327785D01*
X55287028Y-88327785D02*
X55287028Y-87577785D01*
X54965600Y-88292071D02*
X54858457Y-88327785D01*
X54679885Y-88327785D01*
X54608457Y-88292071D01*
X54572742Y-88256357D01*
X54537028Y-88184928D01*
X54537028Y-88113500D01*
X54572742Y-88042071D01*
X54608457Y-88006357D01*
X54679885Y-87970642D01*
X54822742Y-87934928D01*
X54894171Y-87899214D01*
X54929885Y-87863500D01*
X54965600Y-87792071D01*
X54965600Y-87720642D01*
X54929885Y-87649214D01*
X54894171Y-87613500D01*
X54822742Y-87577785D01*
X54644171Y-87577785D01*
X54537028Y-87613500D01*
X54072742Y-87577785D02*
X53929885Y-87577785D01*
X53858457Y-87613500D01*
X53787028Y-87684928D01*
X53751314Y-87827785D01*
X53751314Y-88077785D01*
X53787028Y-88220642D01*
X53858457Y-88292071D01*
X53929885Y-88327785D01*
X54072742Y-88327785D01*
X54144171Y-88292071D01*
X54215600Y-88220642D01*
X54251314Y-88077785D01*
X54251314Y-87827785D01*
X54215600Y-87684928D01*
X54144171Y-87613500D01*
X54072742Y-87577785D01*
X56144171Y-89552785D02*
X56144171Y-88802785D01*
X55894171Y-89338500D01*
X55644171Y-88802785D01*
X55644171Y-89552785D01*
X55144171Y-88802785D02*
X55001314Y-88802785D01*
X54929885Y-88838500D01*
X54858457Y-88909928D01*
X54822742Y-89052785D01*
X54822742Y-89302785D01*
X54858457Y-89445642D01*
X54929885Y-89517071D01*
X55001314Y-89552785D01*
X55144171Y-89552785D01*
X55215600Y-89517071D01*
X55287028Y-89445642D01*
X55322742Y-89302785D01*
X55322742Y-89052785D01*
X55287028Y-88909928D01*
X55215600Y-88838500D01*
X55144171Y-88802785D01*
X54537028Y-89517071D02*
X54429885Y-89552785D01*
X54251314Y-89552785D01*
X54179885Y-89517071D01*
X54144171Y-89481357D01*
X54108457Y-89409928D01*
X54108457Y-89338500D01*
X54144171Y-89267071D01*
X54179885Y-89231357D01*
X54251314Y-89195642D01*
X54394171Y-89159928D01*
X54465600Y-89124214D01*
X54501314Y-89088500D01*
X54537028Y-89017071D01*
X54537028Y-88945642D01*
X54501314Y-88874214D01*
X54465600Y-88838500D01*
X54394171Y-88802785D01*
X54215600Y-88802785D01*
X54108457Y-88838500D01*
X53787028Y-89552785D02*
X53787028Y-88802785D01*
X55929885Y-90742071D02*
X55822742Y-90777785D01*
X55644171Y-90777785D01*
X55572742Y-90742071D01*
X55537028Y-90706357D01*
X55501314Y-90634928D01*
X55501314Y-90563500D01*
X55537028Y-90492071D01*
X55572742Y-90456357D01*
X55644171Y-90420642D01*
X55787028Y-90384928D01*
X55858457Y-90349214D01*
X55894171Y-90313500D01*
X55929885Y-90242071D01*
X55929885Y-90170642D01*
X55894171Y-90099214D01*
X55858457Y-90063500D01*
X55787028Y-90027785D01*
X55608457Y-90027785D01*
X55501314Y-90063500D01*
X54751314Y-90706357D02*
X54787028Y-90742071D01*
X54894171Y-90777785D01*
X54965600Y-90777785D01*
X55072742Y-90742071D01*
X55144171Y-90670642D01*
X55179885Y-90599214D01*
X55215600Y-90456357D01*
X55215600Y-90349214D01*
X55179885Y-90206357D01*
X55144171Y-90134928D01*
X55072742Y-90063500D01*
X54965600Y-90027785D01*
X54894171Y-90027785D01*
X54787028Y-90063500D01*
X54751314Y-90099214D01*
X54429885Y-90777785D02*
X54429885Y-90027785D01*
X54001314Y-90777785D02*
X54322742Y-90349214D01*
X54001314Y-90027785D02*
X54429885Y-90456357D01*
D10*
X131594076Y-129400161D02*
X131451219Y-129447780D01*
X131213123Y-129447780D01*
X131117885Y-129400161D01*
X131070266Y-129352542D01*
X131022647Y-129257304D01*
X131022647Y-129162066D01*
X131070266Y-129066828D01*
X131117885Y-129019209D01*
X131213123Y-128971590D01*
X131403600Y-128923971D01*
X131498838Y-128876352D01*
X131546457Y-128828733D01*
X131594076Y-128733495D01*
X131594076Y-128638257D01*
X131546457Y-128543019D01*
X131498838Y-128495400D01*
X131403600Y-128447780D01*
X131165504Y-128447780D01*
X131022647Y-128495400D01*
X130022647Y-129352542D02*
X130070266Y-129400161D01*
X130213123Y-129447780D01*
X130308361Y-129447780D01*
X130451219Y-129400161D01*
X130546457Y-129304923D01*
X130594076Y-129209685D01*
X130641695Y-129019209D01*
X130641695Y-128876352D01*
X130594076Y-128685876D01*
X130546457Y-128590638D01*
X130451219Y-128495400D01*
X130308361Y-128447780D01*
X130213123Y-128447780D01*
X130070266Y-128495400D01*
X130022647Y-128543019D01*
X129117885Y-129447780D02*
X129594076Y-129447780D01*
X129594076Y-128447780D01*
X131617885Y-131050161D02*
X131475028Y-131097780D01*
X131236933Y-131097780D01*
X131141695Y-131050161D01*
X131094076Y-131002542D01*
X131046457Y-130907304D01*
X131046457Y-130812066D01*
X131094076Y-130716828D01*
X131141695Y-130669209D01*
X131236933Y-130621590D01*
X131427409Y-130573971D01*
X131522647Y-130526352D01*
X131570266Y-130478733D01*
X131617885Y-130383495D01*
X131617885Y-130288257D01*
X131570266Y-130193019D01*
X131522647Y-130145400D01*
X131427409Y-130097780D01*
X131189314Y-130097780D01*
X131046457Y-130145400D01*
X130617885Y-131097780D02*
X130617885Y-130097780D01*
X130379790Y-130097780D01*
X130236933Y-130145400D01*
X130141695Y-130240638D01*
X130094076Y-130335876D01*
X130046457Y-130526352D01*
X130046457Y-130669209D01*
X130094076Y-130859685D01*
X130141695Y-130954923D01*
X130236933Y-131050161D01*
X130379790Y-131097780D01*
X130617885Y-131097780D01*
X129665504Y-130812066D02*
X129189314Y-130812066D01*
X129760742Y-131097780D02*
X129427409Y-130097780D01*
X129094076Y-131097780D01*
X131641695Y-131747780D02*
X131022647Y-131747780D01*
X131355980Y-132128733D01*
X131213123Y-132128733D01*
X131117885Y-132176352D01*
X131070266Y-132223971D01*
X131022647Y-132319209D01*
X131022647Y-132557304D01*
X131070266Y-132652542D01*
X131117885Y-132700161D01*
X131213123Y-132747780D01*
X131498838Y-132747780D01*
X131594076Y-132700161D01*
X131641695Y-132652542D01*
X130736933Y-131747780D02*
X130403600Y-132747780D01*
X130070266Y-131747780D01*
X129832171Y-131747780D02*
X129213123Y-131747780D01*
X129546457Y-132128733D01*
X129403600Y-132128733D01*
X129308361Y-132176352D01*
X129260742Y-132223971D01*
X129213123Y-132319209D01*
X129213123Y-132557304D01*
X129260742Y-132652542D01*
X129308361Y-132700161D01*
X129403600Y-132747780D01*
X129689314Y-132747780D01*
X129784552Y-132700161D01*
X129832171Y-132652542D01*
X131165504Y-133445400D02*
X131260742Y-133397780D01*
X131403600Y-133397780D01*
X131546457Y-133445400D01*
X131641695Y-133540638D01*
X131689314Y-133635876D01*
X131736933Y-133826352D01*
X131736933Y-133969209D01*
X131689314Y-134159685D01*
X131641695Y-134254923D01*
X131546457Y-134350161D01*
X131403600Y-134397780D01*
X131308361Y-134397780D01*
X131165504Y-134350161D01*
X131117885Y-134302542D01*
X131117885Y-133969209D01*
X131308361Y-133969209D01*
X130689314Y-134397780D02*
X130689314Y-133397780D01*
X130117885Y-134397780D01*
X130117885Y-133397780D01*
X129641695Y-134397780D02*
X129641695Y-133397780D01*
X129403600Y-133397780D01*
X129260742Y-133445400D01*
X129165504Y-133540638D01*
X129117885Y-133635876D01*
X129070266Y-133826352D01*
X129070266Y-133969209D01*
X129117885Y-134159685D01*
X129165504Y-134254923D01*
X129260742Y-134350161D01*
X129403600Y-134397780D01*
X129641695Y-134397780D01*
X58415614Y-125689200D02*
X58510852Y-125641580D01*
X58653709Y-125641580D01*
X58796566Y-125689200D01*
X58891804Y-125784438D01*
X58939423Y-125879676D01*
X58987042Y-126070152D01*
X58987042Y-126213009D01*
X58939423Y-126403485D01*
X58891804Y-126498723D01*
X58796566Y-126593961D01*
X58653709Y-126641580D01*
X58558471Y-126641580D01*
X58415614Y-126593961D01*
X58367995Y-126546342D01*
X58367995Y-126213009D01*
X58558471Y-126213009D01*
X57939423Y-126641580D02*
X57939423Y-125641580D01*
X57367995Y-126641580D01*
X57367995Y-125641580D01*
X56891804Y-126641580D02*
X56891804Y-125641580D01*
X56653709Y-125641580D01*
X56510852Y-125689200D01*
X56415614Y-125784438D01*
X56367995Y-125879676D01*
X56320376Y-126070152D01*
X56320376Y-126213009D01*
X56367995Y-126403485D01*
X56415614Y-126498723D01*
X56510852Y-126593961D01*
X56653709Y-126641580D01*
X56891804Y-126641580D01*
X60558471Y-129893961D02*
X60415614Y-129941580D01*
X60177519Y-129941580D01*
X60082280Y-129893961D01*
X60034661Y-129846342D01*
X59987042Y-129751104D01*
X59987042Y-129655866D01*
X60034661Y-129560628D01*
X60082280Y-129513009D01*
X60177519Y-129465390D01*
X60367995Y-129417771D01*
X60463233Y-129370152D01*
X60510852Y-129322533D01*
X60558471Y-129227295D01*
X60558471Y-129132057D01*
X60510852Y-129036819D01*
X60463233Y-128989200D01*
X60367995Y-128941580D01*
X60129900Y-128941580D01*
X59987042Y-128989200D01*
X59653709Y-128941580D02*
X59415614Y-129941580D01*
X59225138Y-129227295D01*
X59034661Y-129941580D01*
X58796566Y-128941580D01*
X58415614Y-129941580D02*
X58415614Y-128941580D01*
X58177519Y-128941580D01*
X58034661Y-128989200D01*
X57939423Y-129084438D01*
X57891804Y-129179676D01*
X57844185Y-129370152D01*
X57844185Y-129513009D01*
X57891804Y-129703485D01*
X57939423Y-129798723D01*
X58034661Y-129893961D01*
X58177519Y-129941580D01*
X58415614Y-129941580D01*
X57415614Y-129941580D02*
X57415614Y-128941580D01*
X56748947Y-128941580D02*
X56558471Y-128941580D01*
X56463233Y-128989200D01*
X56367995Y-129084438D01*
X56320376Y-129274914D01*
X56320376Y-129608247D01*
X56367995Y-129798723D01*
X56463233Y-129893961D01*
X56558471Y-129941580D01*
X56748947Y-129941580D01*
X56844185Y-129893961D01*
X56939423Y-129798723D01*
X56987042Y-129608247D01*
X56987042Y-129274914D01*
X56939423Y-129084438D01*
X56844185Y-128989200D01*
X56748947Y-128941580D01*
X61844185Y-133193961D02*
X61701328Y-133241580D01*
X61463233Y-133241580D01*
X61367995Y-133193961D01*
X61320376Y-133146342D01*
X61272757Y-133051104D01*
X61272757Y-132955866D01*
X61320376Y-132860628D01*
X61367995Y-132813009D01*
X61463233Y-132765390D01*
X61653709Y-132717771D01*
X61748947Y-132670152D01*
X61796566Y-132622533D01*
X61844185Y-132527295D01*
X61844185Y-132432057D01*
X61796566Y-132336819D01*
X61748947Y-132289200D01*
X61653709Y-132241580D01*
X61415614Y-132241580D01*
X61272757Y-132289200D01*
X60939423Y-132241580D02*
X60701328Y-133241580D01*
X60510852Y-132527295D01*
X60320376Y-133241580D01*
X60082280Y-132241580D01*
X59701328Y-133241580D02*
X59701328Y-132241580D01*
X59463233Y-132241580D01*
X59320376Y-132289200D01*
X59225138Y-132384438D01*
X59177519Y-132479676D01*
X59129900Y-132670152D01*
X59129900Y-132813009D01*
X59177519Y-133003485D01*
X59225138Y-133098723D01*
X59320376Y-133193961D01*
X59463233Y-133241580D01*
X59701328Y-133241580D01*
X58129900Y-133146342D02*
X58177519Y-133193961D01*
X58320376Y-133241580D01*
X58415614Y-133241580D01*
X58558471Y-133193961D01*
X58653709Y-133098723D01*
X58701328Y-133003485D01*
X58748947Y-132813009D01*
X58748947Y-132670152D01*
X58701328Y-132479676D01*
X58653709Y-132384438D01*
X58558471Y-132289200D01*
X58415614Y-132241580D01*
X58320376Y-132241580D01*
X58177519Y-132289200D01*
X58129900Y-132336819D01*
X57225138Y-133241580D02*
X57701328Y-133241580D01*
X57701328Y-132241580D01*
X56891804Y-133241580D02*
X56891804Y-132241580D01*
X56320376Y-133241580D02*
X56748947Y-132670152D01*
X56320376Y-132241580D02*
X56891804Y-132813009D01*
X116178533Y-97982019D02*
X116511866Y-96982019D01*
X116845200Y-97982019D01*
X117607104Y-97029638D02*
X117511866Y-96982019D01*
X117321390Y-96982019D01*
X117226152Y-97029638D01*
X117178533Y-97077257D01*
X117130914Y-97172495D01*
X117130914Y-97458209D01*
X117178533Y-97553447D01*
X117226152Y-97601066D01*
X117321390Y-97648685D01*
X117511866Y-97648685D01*
X117607104Y-97601066D01*
X118464247Y-97029638D02*
X118369009Y-96982019D01*
X118178533Y-96982019D01*
X118083295Y-97029638D01*
X118035676Y-97077257D01*
X117988057Y-97172495D01*
X117988057Y-97458209D01*
X118035676Y-97553447D01*
X118083295Y-97601066D01*
X118178533Y-97648685D01*
X118369009Y-97648685D01*
X118464247Y-97601066D01*
X119845200Y-97982019D02*
X119940438Y-97982019D01*
X120035676Y-97934400D01*
X120083295Y-97886780D01*
X120130914Y-97791542D01*
X120178533Y-97601066D01*
X120178533Y-97362971D01*
X120130914Y-97172495D01*
X120083295Y-97077257D01*
X120035676Y-97029638D01*
X119940438Y-96982019D01*
X119845200Y-96982019D01*
X119749961Y-97029638D01*
X119702342Y-97077257D01*
X119654723Y-97172495D01*
X119607104Y-97362971D01*
X119607104Y-97601066D01*
X119654723Y-97791542D01*
X119702342Y-97886780D01*
X119749961Y-97934400D01*
X119845200Y-97982019D01*
X120464247Y-97982019D02*
X120797580Y-96982019D01*
X121130914Y-97982019D01*
X122559485Y-97505828D02*
X122702342Y-97458209D01*
X122749961Y-97410590D01*
X122797580Y-97315352D01*
X122797580Y-97172495D01*
X122749961Y-97077257D01*
X122702342Y-97029638D01*
X122607104Y-96982019D01*
X122226152Y-96982019D01*
X122226152Y-97982019D01*
X122559485Y-97982019D01*
X122654723Y-97934400D01*
X122702342Y-97886780D01*
X122749961Y-97791542D01*
X122749961Y-97696304D01*
X122702342Y-97601066D01*
X122654723Y-97553447D01*
X122559485Y-97505828D01*
X122226152Y-97505828D01*
X123940438Y-97267733D02*
X124416628Y-97267733D01*
X123845200Y-96982019D02*
X124178533Y-97982019D01*
X124511866Y-96982019D01*
D12*
X63997000Y-83607000D02*
X65797000Y-83607000D01*
X65797000Y-86827000D02*
X63347000Y-86827000D01*
X131867600Y-136102400D02*
X133197600Y-136102400D01*
X131867600Y-134772400D02*
X131867600Y-136102400D01*
X131867600Y-133502400D02*
X134527600Y-133502400D01*
X134527600Y-133502400D02*
X134527600Y-125822400D01*
X131867600Y-133502400D02*
X131867600Y-125822400D01*
X131867600Y-125822400D02*
X134527600Y-125822400D01*
X57629058Y-92775300D02*
X57154542Y-92775300D01*
X57629058Y-91730300D02*
X57154542Y-91730300D01*
X63638900Y-63523800D02*
X61353900Y-63523800D01*
X63638900Y-62053800D02*
X63638900Y-63523800D01*
X61353900Y-62053800D02*
X63638900Y-62053800D01*
X51366400Y-91184000D02*
X52476400Y-91184000D01*
X51366400Y-90424000D02*
X51366400Y-91184000D01*
X53039871Y-89664000D02*
X53586400Y-89664000D01*
X51366400Y-89664000D02*
X51912929Y-89664000D01*
X53586400Y-89664000D02*
X53586400Y-83379000D01*
X51366400Y-89664000D02*
X51366400Y-83379000D01*
X52783930Y-83379000D02*
X53586400Y-83379000D01*
X51366400Y-83379000D02*
X52168870Y-83379000D01*
X128640100Y-122411258D02*
X128640100Y-121936742D01*
X127595100Y-122411258D02*
X127595100Y-121936742D01*
X127493500Y-128540742D02*
X127493500Y-129015258D01*
X128538500Y-128540742D02*
X128538500Y-129015258D01*
X53432400Y-125619200D02*
X56092400Y-125619200D01*
X53432400Y-130759200D02*
X53432400Y-125619200D01*
X56092400Y-130759200D02*
X56092400Y-125619200D01*
X53432400Y-130759200D02*
X56092400Y-130759200D01*
X53432400Y-132029200D02*
X53432400Y-133359200D01*
X53432400Y-133359200D02*
X54762400Y-133359200D01*
X138000000Y-108150000D02*
X138000000Y-108450000D01*
X138300000Y-108150000D02*
X138000000Y-108150000D01*
X138000000Y-88150000D02*
X138000000Y-88450000D01*
X138300000Y-88150000D02*
X138000000Y-88150000D01*
X138000000Y-68150000D02*
X138000000Y-68450000D01*
X138300000Y-68150000D02*
X138000000Y-68150000D01*
X118000000Y-68150000D02*
X118000000Y-68450000D01*
X118300000Y-68150000D02*
X118000000Y-68150000D01*
X98000000Y-68150000D02*
X98000000Y-68450000D01*
X98300000Y-68150000D02*
X98000000Y-68150000D01*
X78010000Y-68150000D02*
X78010000Y-68450000D01*
X78310000Y-68150000D02*
X78010000Y-68150000D01*
X58000000Y-68150000D02*
X58000000Y-68450000D01*
X58300000Y-68150000D02*
X58000000Y-68150000D01*
X58000000Y-88150000D02*
X58000000Y-88450000D01*
X58300000Y-88150000D02*
X58000000Y-88150000D01*
X58000000Y-108150000D02*
X58000000Y-108450000D01*
X58300000Y-108150000D02*
X58000000Y-108150000D01*
X136246780Y-112981200D02*
X135965620Y-112981200D01*
X136246780Y-111961200D02*
X135965620Y-111961200D01*
X135204780Y-92864400D02*
X134923620Y-92864400D01*
X135204780Y-91844400D02*
X134923620Y-91844400D01*
X127062620Y-70305200D02*
X127343780Y-70305200D01*
X127062620Y-71325200D02*
X127343780Y-71325200D01*
X106641020Y-70152800D02*
X106922180Y-70152800D01*
X106641020Y-71172800D02*
X106922180Y-71172800D01*
X66851620Y-108557600D02*
X67132780Y-108557600D01*
X66851620Y-109577600D02*
X67132780Y-109577600D01*
X86409620Y-70711600D02*
X86690780Y-70711600D01*
X86409620Y-71731600D02*
X86690780Y-71731600D01*
X70180780Y-88241600D02*
X69899620Y-88241600D01*
X70180780Y-87221600D02*
X69899620Y-87221600D01*
X84949420Y-90422000D02*
X85230580Y-90422000D01*
X84949420Y-91442000D02*
X85230580Y-91442000D01*
X70129980Y-95252000D02*
X69848820Y-95252000D01*
X70129980Y-94232000D02*
X69848820Y-94232000D01*
X70180780Y-89867200D02*
X69899620Y-89867200D01*
X70180780Y-88847200D02*
X69899620Y-88847200D01*
X79463020Y-82548000D02*
X79744180Y-82548000D01*
X79463020Y-83568000D02*
X79744180Y-83568000D01*
X73864380Y-102313200D02*
X73583220Y-102313200D01*
X73864380Y-101293200D02*
X73583220Y-101293200D01*
X70193780Y-91594400D02*
X69912620Y-91594400D01*
X70193780Y-90574400D02*
X69912620Y-90574400D01*
X84949420Y-94232000D02*
X85230580Y-94232000D01*
X84949420Y-95252000D02*
X85230580Y-95252000D01*
X79399220Y-84478400D02*
X79680380Y-84478400D01*
X79399220Y-85498400D02*
X79680380Y-85498400D01*
X73851380Y-100738400D02*
X73570220Y-100738400D01*
X73851380Y-99718400D02*
X73570220Y-99718400D01*
X71270400Y-85369980D02*
X71270400Y-85088820D01*
X72290400Y-85369980D02*
X72290400Y-85088820D01*
X68606400Y-106597200D02*
X68606400Y-102597200D01*
X71906400Y-106597200D02*
X68606400Y-106597200D01*
X73473542Y-102906300D02*
X73948058Y-102906300D01*
X73473542Y-103951300D02*
X73948058Y-103951300D01*
X125501400Y-96596200D02*
X125501400Y-95326200D01*
X124231400Y-96596200D02*
X125501400Y-96596200D01*
X116231400Y-94283271D02*
X116231400Y-93886200D01*
X116991400Y-94283271D02*
X116991400Y-93886200D01*
X116231400Y-85226200D02*
X116231400Y-91226200D01*
X116991400Y-85226200D02*
X116231400Y-85226200D01*
X116991400Y-91226200D02*
X116991400Y-85226200D01*
X117881400Y-93886200D02*
X117881400Y-91226200D01*
X118771400Y-94283271D02*
X118771400Y-93886200D01*
X119531400Y-94283271D02*
X119531400Y-93886200D01*
X118771400Y-85226200D02*
X118771400Y-91226200D01*
X119531400Y-85226200D02*
X118771400Y-85226200D01*
X119531400Y-91226200D02*
X119531400Y-85226200D01*
X120421400Y-93886200D02*
X120421400Y-91226200D01*
X121311400Y-94283271D02*
X121311400Y-93886200D01*
X122071400Y-94283271D02*
X122071400Y-93886200D01*
X121311400Y-85226200D02*
X121311400Y-91226200D01*
X122071400Y-85226200D02*
X121311400Y-85226200D01*
X122071400Y-91226200D02*
X122071400Y-85226200D01*
X122961400Y-93886200D02*
X122961400Y-91226200D01*
X123851400Y-94216200D02*
X123851400Y-93886200D01*
X124611400Y-94216200D02*
X124611400Y-93886200D01*
X123951400Y-91226200D02*
X123951400Y-85226200D01*
X124071400Y-91226200D02*
X124071400Y-85226200D01*
X124191400Y-91226200D02*
X124191400Y-85226200D01*
X124311400Y-91226200D02*
X124311400Y-85226200D01*
X124431400Y-91226200D02*
X124431400Y-85226200D01*
X124551400Y-91226200D02*
X124551400Y-85226200D01*
X123851400Y-85226200D02*
X123851400Y-91226200D01*
X124611400Y-85226200D02*
X123851400Y-85226200D01*
X124611400Y-91226200D02*
X124611400Y-85226200D01*
X125561400Y-91226200D02*
X125561400Y-93886200D01*
X115281400Y-91226200D02*
X125561400Y-91226200D01*
X115281400Y-93886200D02*
X115281400Y-91226200D01*
X125561400Y-93886200D02*
X115281400Y-93886200D01*
X70308380Y-101957600D02*
X70027220Y-101957600D01*
X70308380Y-100937600D02*
X70027220Y-100937600D01*
X70078020Y-107135200D02*
X70359180Y-107135200D01*
X70078020Y-108155200D02*
X70359180Y-108155200D01*
X111232000Y-61766000D02*
X108732000Y-61766000D01*
X112732000Y-63516000D02*
X112732000Y-65516000D01*
X111232000Y-67266000D02*
X108732000Y-67266000D01*
X107232000Y-63516000D02*
X107232000Y-65516000D01*
X111682000Y-62216000D02*
X111232000Y-61766000D01*
X108282000Y-62216000D02*
X108732000Y-61766000D01*
X108282000Y-66816000D02*
X108732000Y-67266000D01*
X111682000Y-66816000D02*
X111232000Y-67266000D01*
X95024942Y-83246700D02*
X95499458Y-83246700D01*
X95024942Y-84291700D02*
X95499458Y-84291700D01*
X95499458Y-85917300D02*
X95024942Y-85917300D01*
X95499458Y-84872300D02*
X95024942Y-84872300D01*
X86943620Y-81379600D02*
X87224780Y-81379600D01*
X86943620Y-82399600D02*
X87224780Y-82399600D01*
X79414000Y-90116000D02*
X80064000Y-90116000D01*
X72844000Y-97336000D02*
X72844000Y-96686000D01*
X73494000Y-97336000D02*
X72844000Y-97336000D01*
X80064000Y-97336000D02*
X80064000Y-96686000D01*
X79414000Y-97336000D02*
X80064000Y-97336000D01*
X72844000Y-90116000D02*
X72844000Y-90766000D01*
X73494000Y-90116000D02*
X72844000Y-90116000D01*
X89897800Y-83285400D02*
X91572800Y-83285400D01*
X89897800Y-83025400D02*
X89897800Y-83285400D01*
X87172800Y-83025400D02*
X89897800Y-83025400D01*
X84447800Y-83025400D02*
X84447800Y-83285400D01*
X87172800Y-83025400D02*
X84447800Y-83025400D01*
X89897800Y-88475400D02*
X89897800Y-88215400D01*
X87172800Y-88475400D02*
X89897800Y-88475400D01*
X84447800Y-88475400D02*
X84447800Y-88215400D01*
X87172800Y-88475400D02*
X84447800Y-88475400D01*
X61891142Y-64399900D02*
X62365658Y-64399900D01*
X61891142Y-65444900D02*
X62365658Y-65444900D01*
X74712300Y-85416658D02*
X74712300Y-84942142D01*
X75757300Y-85416658D02*
X75757300Y-84942142D01*
X73086700Y-85467458D02*
X73086700Y-84992942D01*
X74131700Y-85467458D02*
X74131700Y-84992942D01*
X78113658Y-64962300D02*
X77639142Y-64962300D01*
X78113658Y-63917300D02*
X77639142Y-63917300D01*
X65277000Y-60158800D02*
X74677000Y-60158800D01*
X74677000Y-65958800D02*
X74677000Y-63958800D01*
X74677000Y-62058800D02*
X74677000Y-60158800D01*
X65277000Y-65958800D02*
X65277000Y-63958800D01*
X65277000Y-62058800D02*
X65277000Y-60158800D01*
X67816000Y-85344580D02*
X67816000Y-85063420D01*
X68836000Y-85344580D02*
X68836000Y-85063420D01*
X61085000Y-85217580D02*
X61085000Y-84936420D01*
X62105000Y-85217580D02*
X62105000Y-84936420D01*
X70142000Y-130635600D02*
X60922000Y-130635600D01*
X60922000Y-130635600D02*
X60922000Y-141855600D01*
X60922000Y-141855600D02*
X70142000Y-141855600D01*
X70142000Y-141855600D02*
X70142000Y-130635600D01*
X88317600Y-62216000D02*
X88767600Y-61766000D01*
X91717600Y-62216000D02*
X91267600Y-61766000D01*
X91717600Y-66816000D02*
X91267600Y-67266000D01*
X88317600Y-66816000D02*
X88767600Y-67266000D01*
X92767600Y-65516000D02*
X92767600Y-63516000D01*
X88767600Y-61766000D02*
X91267600Y-61766000D01*
X87267600Y-65516000D02*
X87267600Y-63516000D01*
X88767600Y-67266000D02*
X91267600Y-67266000D01*
D10*
X66135095Y-87569380D02*
X66135095Y-88378904D01*
X66087476Y-88474142D01*
X66039857Y-88521761D01*
X65944619Y-88569380D01*
X65754142Y-88569380D01*
X65658904Y-88521761D01*
X65611285Y-88474142D01*
X65563666Y-88378904D01*
X65563666Y-87569380D01*
X64563666Y-88569380D02*
X65135095Y-88569380D01*
X64849380Y-88569380D02*
X64849380Y-87569380D01*
X64944619Y-87712238D01*
X65039857Y-87807476D01*
X65135095Y-87855095D01*
X63944619Y-87569380D02*
X63849380Y-87569380D01*
X63754142Y-87617000D01*
X63706523Y-87664619D01*
X63658904Y-87759857D01*
X63611285Y-87950333D01*
X63611285Y-88188428D01*
X63658904Y-88378904D01*
X63706523Y-88474142D01*
X63754142Y-88521761D01*
X63849380Y-88569380D01*
X63944619Y-88569380D01*
X64039857Y-88521761D01*
X64087476Y-88474142D01*
X64135095Y-88378904D01*
X64182714Y-88188428D01*
X64182714Y-87950333D01*
X64135095Y-87759857D01*
X64087476Y-87664619D01*
X64039857Y-87617000D01*
X63944619Y-87569380D01*
X133530933Y-136554780D02*
X133530933Y-137269066D01*
X133578552Y-137411923D01*
X133673790Y-137507161D01*
X133816647Y-137554780D01*
X133911885Y-137554780D01*
X132626171Y-136554780D02*
X132816647Y-136554780D01*
X132911885Y-136602400D01*
X132959504Y-136650019D01*
X133054742Y-136792876D01*
X133102361Y-136983352D01*
X133102361Y-137364304D01*
X133054742Y-137459542D01*
X133007123Y-137507161D01*
X132911885Y-137554780D01*
X132721409Y-137554780D01*
X132626171Y-137507161D01*
X132578552Y-137459542D01*
X132530933Y-137364304D01*
X132530933Y-137126209D01*
X132578552Y-137030971D01*
X132626171Y-136983352D01*
X132721409Y-136935733D01*
X132911885Y-136935733D01*
X133007123Y-136983352D01*
X133054742Y-137030971D01*
X133102361Y-137126209D01*
X111288342Y-61040971D02*
X111145485Y-61088590D01*
X111097866Y-61136209D01*
X111050247Y-61231447D01*
X111050247Y-61374304D01*
X111097866Y-61469542D01*
X111145485Y-61517161D01*
X111240723Y-61564780D01*
X111621676Y-61564780D01*
X111621676Y-60564780D01*
X111288342Y-60564780D01*
X111193104Y-60612400D01*
X111145485Y-60660019D01*
X111097866Y-60755257D01*
X111097866Y-60850495D01*
X111145485Y-60945733D01*
X111193104Y-60993352D01*
X111288342Y-61040971D01*
X111621676Y-61040971D01*
X110431200Y-60564780D02*
X110240723Y-60564780D01*
X110145485Y-60612400D01*
X110050247Y-60707638D01*
X110002628Y-60898114D01*
X110002628Y-61231447D01*
X110050247Y-61421923D01*
X110145485Y-61517161D01*
X110240723Y-61564780D01*
X110431200Y-61564780D01*
X110526438Y-61517161D01*
X110621676Y-61421923D01*
X110669295Y-61231447D01*
X110669295Y-60898114D01*
X110621676Y-60707638D01*
X110526438Y-60612400D01*
X110431200Y-60564780D01*
X109383580Y-60564780D02*
X109193104Y-60564780D01*
X109097866Y-60612400D01*
X109002628Y-60707638D01*
X108955009Y-60898114D01*
X108955009Y-61231447D01*
X109002628Y-61421923D01*
X109097866Y-61517161D01*
X109193104Y-61564780D01*
X109383580Y-61564780D01*
X109478819Y-61517161D01*
X109574057Y-61421923D01*
X109621676Y-61231447D01*
X109621676Y-60898114D01*
X109574057Y-60707638D01*
X109478819Y-60612400D01*
X109383580Y-60564780D01*
X108669295Y-60564780D02*
X108097866Y-60564780D01*
X108383580Y-61564780D02*
X108383580Y-60564780D01*
X91469980Y-61463180D02*
X91803314Y-60986990D01*
X92041409Y-61463180D02*
X92041409Y-60463180D01*
X91660457Y-60463180D01*
X91565219Y-60510800D01*
X91517600Y-60558419D01*
X91469980Y-60653657D01*
X91469980Y-60796514D01*
X91517600Y-60891752D01*
X91565219Y-60939371D01*
X91660457Y-60986990D01*
X92041409Y-60986990D01*
X91041409Y-60939371D02*
X90708076Y-60939371D01*
X90565219Y-61463180D02*
X91041409Y-61463180D01*
X91041409Y-60463180D01*
X90565219Y-60463180D01*
X90184266Y-61415561D02*
X90041409Y-61463180D01*
X89803314Y-61463180D01*
X89708076Y-61415561D01*
X89660457Y-61367942D01*
X89612838Y-61272704D01*
X89612838Y-61177466D01*
X89660457Y-61082228D01*
X89708076Y-61034609D01*
X89803314Y-60986990D01*
X89993790Y-60939371D01*
X90089028Y-60891752D01*
X90136647Y-60844133D01*
X90184266Y-60748895D01*
X90184266Y-60653657D01*
X90136647Y-60558419D01*
X90089028Y-60510800D01*
X89993790Y-60463180D01*
X89755695Y-60463180D01*
X89612838Y-60510800D01*
X89184266Y-60939371D02*
X88850933Y-60939371D01*
X88708076Y-61463180D02*
X89184266Y-61463180D01*
X89184266Y-60463180D01*
X88708076Y-60463180D01*
X88422361Y-60463180D02*
X87850933Y-60463180D01*
X88136647Y-61463180D02*
X88136647Y-60463180D01*
M02*
