M48
; DRILL file {KiCad (5.1.10)-1} date 08/27/21 00:07:49
; FORMAT={-:-/ absolute / inch / decimal}
; #@! TF.CreationDate,2021-08-27T00:07:49-06:00
; #@! TF.GenerationSoftware,Kicad,Pcbnew,(5.1.10)-1
; #@! TF.FileFunction,Plated,1,2,PTH
FMAT,2
INCH
T1C0.0138
T2C0.0157
T3C0.0236
T4C0.0256
T5C0.0394
%
G90
G05
T1
X2.9598Y-3.6398
X2.9598Y-3.69
X2.9598Y-3.7402
X2.962Y-3.6
X2.988Y-3.776
X3.01Y-3.6398
X3.01Y-3.69
X3.01Y-3.7402
X3.0602Y-3.6398
X3.0602Y-3.69
X3.0602Y-3.7402
T2
X2.26Y-3.276
X2.284Y-4.214
X2.424Y-3.252
X2.496Y-4.454
X2.518Y-4.23
X2.538Y-2.832
X2.5423Y-4.3583
X2.545Y-2.76
X2.554Y-3.6
X2.6107Y-3.6233
X2.616Y-3.158
X2.62Y-3.518
X2.6485Y-3.4726
X2.6544Y-3.5859
X2.664Y-2.582
X2.676Y-3.694
X2.678Y-3.518
X2.678Y-3.758
X2.69Y-3.266
X2.7444Y-3.3859
X2.77Y-3.8146
X2.802Y-3.788
X2.81Y-3.15
X2.8294Y-3.8817
X2.856Y-2.582
X2.862Y-3.9
X2.902Y-3.9076
X2.955Y-2.775
X2.962Y-3.248
X2.9786Y-3.8906
X3.03Y-3.3976
X3.04Y-3.268
X3.286Y-3.23
X3.308Y-2.808
X3.422Y-3.726
X3.44Y-3.578
X3.448Y-3.452
X3.49Y-2.966
X3.492Y-2.802
X3.514Y-3.222
X3.544Y-2.668
X3.768Y-3.3659
X3.824Y-3.314
X4.108Y-2.828
X4.284Y-2.782
X4.328Y-2.654
X4.404Y-2.914
X4.896Y-2.836
X5.082Y-4.776
X5.094Y-2.788
X5.118Y-5.038
X5.292Y-3.416
X5.34Y-2.728
X5.436Y-3.426
X5.606Y-2.846
X5.636Y-3.63
X5.65Y-4.418
T4
X2.066Y-3.31
X2.066Y-3.36
X2.066Y-3.41
X2.066Y-3.46
X2.066Y-3.51
X2.066Y-3.56
T5
X2.156Y-4.998
X2.156Y-5.098
X2.156Y-5.198
X4.591Y-3.753
X4.691Y-3.753
X4.791Y-3.753
X4.891Y-3.753
X5.244Y-5.006
X5.244Y-5.106
X5.244Y-5.206
X5.244Y-5.306
T3
G00X2.5849Y-2.4689
M15
G01X2.5849Y-2.4925
M16
G05
G00X2.5849Y-2.6236
M15
G01X2.5849Y-2.6669
M16
G05
G00X2.9251Y-2.4689
M15
G01X2.9251Y-2.4925
M16
G05
G00X2.9251Y-2.6236
M15
G01X2.9251Y-2.6669
M16
G05
T0
M30
