G04 #@! TF.GenerationSoftware,KiCad,Pcbnew,(5.1.10)-1*
G04 #@! TF.CreationDate,2021-08-27T00:07:47-06:00*
G04 #@! TF.ProjectId,EncoderPad_RP2040,456e636f-6465-4725-9061-645f52503230,rev?*
G04 #@! TF.SameCoordinates,Original*
G04 #@! TF.FileFunction,Legend,Top*
G04 #@! TF.FilePolarity,Positive*
%FSLAX46Y46*%
G04 Gerber Fmt 4.6, Leading zero omitted, Abs format (unit mm)*
G04 Created by KiCad (PCBNEW (5.1.10)-1) date 2021-08-27 00:07:47*
%MOMM*%
%LPD*%
G01*
G04 APERTURE LIST*
%ADD10C,0.150000*%
%ADD11C,0.250000*%
%ADD12C,0.120000*%
G04 APERTURE END LIST*
D10*
X113571928Y-142359571D02*
X113714785Y-142407190D01*
X113762404Y-142454809D01*
X113810023Y-142550047D01*
X113810023Y-142692904D01*
X113762404Y-142788142D01*
X113714785Y-142835761D01*
X113619547Y-142883380D01*
X113238595Y-142883380D01*
X113238595Y-141883380D01*
X113571928Y-141883380D01*
X113667166Y-141931000D01*
X113714785Y-141978619D01*
X113762404Y-142073857D01*
X113762404Y-142169095D01*
X113714785Y-142264333D01*
X113667166Y-142311952D01*
X113571928Y-142359571D01*
X113238595Y-142359571D01*
X114143357Y-142216714D02*
X114381452Y-142883380D01*
X114619547Y-142216714D02*
X114381452Y-142883380D01*
X114286214Y-143121476D01*
X114238595Y-143169095D01*
X114143357Y-143216714D01*
X116048119Y-141883380D02*
X116048119Y-142597666D01*
X116000500Y-142740523D01*
X115905261Y-142835761D01*
X115762404Y-142883380D01*
X115667166Y-142883380D01*
X116524309Y-142883380D02*
X116524309Y-141883380D01*
X116905261Y-141883380D01*
X117000500Y-141931000D01*
X117048119Y-141978619D01*
X117095738Y-142073857D01*
X117095738Y-142216714D01*
X117048119Y-142311952D01*
X117000500Y-142359571D01*
X116905261Y-142407190D01*
X116524309Y-142407190D01*
X118095738Y-142788142D02*
X118048119Y-142835761D01*
X117905261Y-142883380D01*
X117810023Y-142883380D01*
X117667166Y-142835761D01*
X117571928Y-142740523D01*
X117524309Y-142645285D01*
X117476690Y-142454809D01*
X117476690Y-142311952D01*
X117524309Y-142121476D01*
X117571928Y-142026238D01*
X117667166Y-141931000D01*
X117810023Y-141883380D01*
X117905261Y-141883380D01*
X118048119Y-141931000D01*
X118095738Y-141978619D01*
X118667166Y-142883380D02*
X118571928Y-142835761D01*
X118524309Y-142788142D01*
X118476690Y-142692904D01*
X118476690Y-142407190D01*
X118524309Y-142311952D01*
X118571928Y-142264333D01*
X118667166Y-142216714D01*
X118810023Y-142216714D01*
X118905261Y-142264333D01*
X118952880Y-142311952D01*
X119000500Y-142407190D01*
X119000500Y-142692904D01*
X118952880Y-142788142D01*
X118905261Y-142835761D01*
X118810023Y-142883380D01*
X118667166Y-142883380D01*
X119429071Y-142216714D02*
X119429071Y-142883380D01*
X119429071Y-142311952D02*
X119476690Y-142264333D01*
X119571928Y-142216714D01*
X119714785Y-142216714D01*
X119810023Y-142264333D01*
X119857642Y-142359571D01*
X119857642Y-142883380D01*
X120286214Y-142835761D02*
X120381452Y-142883380D01*
X120571928Y-142883380D01*
X120667166Y-142835761D01*
X120714785Y-142740523D01*
X120714785Y-142692904D01*
X120667166Y-142597666D01*
X120571928Y-142550047D01*
X120429071Y-142550047D01*
X120333833Y-142502428D01*
X120286214Y-142407190D01*
X120286214Y-142359571D01*
X120333833Y-142264333D01*
X120429071Y-142216714D01*
X120571928Y-142216714D01*
X120667166Y-142264333D01*
X121000500Y-142216714D02*
X121381452Y-142216714D01*
X121143357Y-141883380D02*
X121143357Y-142740523D01*
X121190976Y-142835761D01*
X121286214Y-142883380D01*
X121381452Y-142883380D01*
X122143357Y-142883380D02*
X122143357Y-142359571D01*
X122095738Y-142264333D01*
X122000500Y-142216714D01*
X121810023Y-142216714D01*
X121714785Y-142264333D01*
X122143357Y-142835761D02*
X122048119Y-142883380D01*
X121810023Y-142883380D01*
X121714785Y-142835761D01*
X121667166Y-142740523D01*
X121667166Y-142645285D01*
X121714785Y-142550047D01*
X121810023Y-142502428D01*
X122048119Y-142502428D01*
X122143357Y-142454809D01*
X122619547Y-142216714D02*
X122619547Y-142883380D01*
X122619547Y-142311952D02*
X122667166Y-142264333D01*
X122762404Y-142216714D01*
X122905261Y-142216714D01*
X123000500Y-142264333D01*
X123048119Y-142359571D01*
X123048119Y-142883380D01*
X123381452Y-142216714D02*
X123762404Y-142216714D01*
X123524309Y-141883380D02*
X123524309Y-142740523D01*
X123571928Y-142835761D01*
X123667166Y-142883380D01*
X123762404Y-142883380D01*
X124095738Y-142883380D02*
X124095738Y-142216714D01*
X124095738Y-141883380D02*
X124048119Y-141931000D01*
X124095738Y-141978619D01*
X124143357Y-141931000D01*
X124095738Y-141883380D01*
X124095738Y-141978619D01*
X124571928Y-142216714D02*
X124571928Y-142883380D01*
X124571928Y-142311952D02*
X124619547Y-142264333D01*
X124714785Y-142216714D01*
X124857642Y-142216714D01*
X124952880Y-142264333D01*
X125000500Y-142359571D01*
X125000500Y-142883380D01*
X125857642Y-142835761D02*
X125762404Y-142883380D01*
X125571928Y-142883380D01*
X125476690Y-142835761D01*
X125429071Y-142740523D01*
X125429071Y-142359571D01*
X125476690Y-142264333D01*
X125571928Y-142216714D01*
X125762404Y-142216714D01*
X125857642Y-142264333D01*
X125905261Y-142359571D01*
X125905261Y-142454809D01*
X125429071Y-142550047D01*
X126762404Y-142883380D02*
X126762404Y-142359571D01*
X126714785Y-142264333D01*
X126619547Y-142216714D01*
X126429071Y-142216714D01*
X126333833Y-142264333D01*
X126762404Y-142835761D02*
X126667166Y-142883380D01*
X126429071Y-142883380D01*
X126333833Y-142835761D01*
X126286214Y-142740523D01*
X126286214Y-142645285D01*
X126333833Y-142550047D01*
X126429071Y-142502428D01*
X126667166Y-142502428D01*
X126762404Y-142454809D01*
X127667166Y-142216714D02*
X127667166Y-142883380D01*
X127238595Y-142216714D02*
X127238595Y-142740523D01*
X127286214Y-142835761D01*
X127381452Y-142883380D01*
X127524309Y-142883380D01*
X127619547Y-142835761D01*
X127667166Y-142788142D01*
X113190976Y-143628619D02*
X113238595Y-143581000D01*
X113333833Y-143533380D01*
X113571928Y-143533380D01*
X113667166Y-143581000D01*
X113714785Y-143628619D01*
X113762404Y-143723857D01*
X113762404Y-143819095D01*
X113714785Y-143961952D01*
X113143357Y-144533380D01*
X113762404Y-144533380D01*
X114381452Y-143533380D02*
X114476690Y-143533380D01*
X114571928Y-143581000D01*
X114619547Y-143628619D01*
X114667166Y-143723857D01*
X114714785Y-143914333D01*
X114714785Y-144152428D01*
X114667166Y-144342904D01*
X114619547Y-144438142D01*
X114571928Y-144485761D01*
X114476690Y-144533380D01*
X114381452Y-144533380D01*
X114286214Y-144485761D01*
X114238595Y-144438142D01*
X114190976Y-144342904D01*
X114143357Y-144152428D01*
X114143357Y-143914333D01*
X114190976Y-143723857D01*
X114238595Y-143628619D01*
X114286214Y-143581000D01*
X114381452Y-143533380D01*
X115095738Y-143628619D02*
X115143357Y-143581000D01*
X115238595Y-143533380D01*
X115476690Y-143533380D01*
X115571928Y-143581000D01*
X115619547Y-143628619D01*
X115667166Y-143723857D01*
X115667166Y-143819095D01*
X115619547Y-143961952D01*
X115048119Y-144533380D01*
X115667166Y-144533380D01*
X116619547Y-144533380D02*
X116048119Y-144533380D01*
X116333833Y-144533380D02*
X116333833Y-143533380D01*
X116238595Y-143676238D01*
X116143357Y-143771476D01*
X116048119Y-143819095D01*
X117048119Y-144152428D02*
X117810023Y-144152428D01*
X118476690Y-143533380D02*
X118571928Y-143533380D01*
X118667166Y-143581000D01*
X118714785Y-143628619D01*
X118762404Y-143723857D01*
X118810023Y-143914333D01*
X118810023Y-144152428D01*
X118762404Y-144342904D01*
X118714785Y-144438142D01*
X118667166Y-144485761D01*
X118571928Y-144533380D01*
X118476690Y-144533380D01*
X118381452Y-144485761D01*
X118333833Y-144438142D01*
X118286214Y-144342904D01*
X118238595Y-144152428D01*
X118238595Y-143914333D01*
X118286214Y-143723857D01*
X118333833Y-143628619D01*
X118381452Y-143581000D01*
X118476690Y-143533380D01*
X119381452Y-143961952D02*
X119286214Y-143914333D01*
X119238595Y-143866714D01*
X119190976Y-143771476D01*
X119190976Y-143723857D01*
X119238595Y-143628619D01*
X119286214Y-143581000D01*
X119381452Y-143533380D01*
X119571928Y-143533380D01*
X119667166Y-143581000D01*
X119714785Y-143628619D01*
X119762404Y-143723857D01*
X119762404Y-143771476D01*
X119714785Y-143866714D01*
X119667166Y-143914333D01*
X119571928Y-143961952D01*
X119381452Y-143961952D01*
X119286214Y-144009571D01*
X119238595Y-144057190D01*
X119190976Y-144152428D01*
X119190976Y-144342904D01*
X119238595Y-144438142D01*
X119286214Y-144485761D01*
X119381452Y-144533380D01*
X119571928Y-144533380D01*
X119667166Y-144485761D01*
X119714785Y-144438142D01*
X119762404Y-144342904D01*
X119762404Y-144152428D01*
X119714785Y-144057190D01*
X119667166Y-144009571D01*
X119571928Y-143961952D01*
X120190976Y-144152428D02*
X120952880Y-144152428D01*
X121381452Y-143628619D02*
X121429071Y-143581000D01*
X121524309Y-143533380D01*
X121762404Y-143533380D01*
X121857642Y-143581000D01*
X121905261Y-143628619D01*
X121952880Y-143723857D01*
X121952880Y-143819095D01*
X121905261Y-143961952D01*
X121333833Y-144533380D01*
X121952880Y-144533380D01*
X122810023Y-143533380D02*
X122619547Y-143533380D01*
X122524309Y-143581000D01*
X122476690Y-143628619D01*
X122381452Y-143771476D01*
X122333833Y-143961952D01*
X122333833Y-144342904D01*
X122381452Y-144438142D01*
X122429071Y-144485761D01*
X122524309Y-144533380D01*
X122714785Y-144533380D01*
X122810023Y-144485761D01*
X122857642Y-144438142D01*
X122905261Y-144342904D01*
X122905261Y-144104809D01*
X122857642Y-144009571D01*
X122810023Y-143961952D01*
X122714785Y-143914333D01*
X122524309Y-143914333D01*
X122429071Y-143961952D01*
X122381452Y-144009571D01*
X122333833Y-144104809D01*
D11*
X113160690Y-139938142D02*
X113827357Y-139938142D01*
X114113071Y-140985761D02*
X113160690Y-140985761D01*
X113160690Y-138985761D01*
X114113071Y-138985761D01*
X114970214Y-139652428D02*
X114970214Y-140985761D01*
X114970214Y-139842904D02*
X115065452Y-139747666D01*
X115255928Y-139652428D01*
X115541642Y-139652428D01*
X115732119Y-139747666D01*
X115827357Y-139938142D01*
X115827357Y-140985761D01*
X117636880Y-140890523D02*
X117446404Y-140985761D01*
X117065452Y-140985761D01*
X116874976Y-140890523D01*
X116779738Y-140795285D01*
X116684500Y-140604809D01*
X116684500Y-140033380D01*
X116779738Y-139842904D01*
X116874976Y-139747666D01*
X117065452Y-139652428D01*
X117446404Y-139652428D01*
X117636880Y-139747666D01*
X118779738Y-140985761D02*
X118589261Y-140890523D01*
X118494023Y-140795285D01*
X118398785Y-140604809D01*
X118398785Y-140033380D01*
X118494023Y-139842904D01*
X118589261Y-139747666D01*
X118779738Y-139652428D01*
X119065452Y-139652428D01*
X119255928Y-139747666D01*
X119351166Y-139842904D01*
X119446404Y-140033380D01*
X119446404Y-140604809D01*
X119351166Y-140795285D01*
X119255928Y-140890523D01*
X119065452Y-140985761D01*
X118779738Y-140985761D01*
X121160690Y-140985761D02*
X121160690Y-138985761D01*
X121160690Y-140890523D02*
X120970214Y-140985761D01*
X120589261Y-140985761D01*
X120398785Y-140890523D01*
X120303547Y-140795285D01*
X120208309Y-140604809D01*
X120208309Y-140033380D01*
X120303547Y-139842904D01*
X120398785Y-139747666D01*
X120589261Y-139652428D01*
X120970214Y-139652428D01*
X121160690Y-139747666D01*
X122874976Y-140890523D02*
X122684500Y-140985761D01*
X122303547Y-140985761D01*
X122113071Y-140890523D01*
X122017833Y-140700047D01*
X122017833Y-139938142D01*
X122113071Y-139747666D01*
X122303547Y-139652428D01*
X122684500Y-139652428D01*
X122874976Y-139747666D01*
X122970214Y-139938142D01*
X122970214Y-140128619D01*
X122017833Y-140319095D01*
X123827357Y-140985761D02*
X123827357Y-139652428D01*
X123827357Y-140033380D02*
X123922595Y-139842904D01*
X124017833Y-139747666D01*
X124208309Y-139652428D01*
X124398785Y-139652428D01*
X125065452Y-140985761D02*
X125065452Y-138985761D01*
X125827357Y-138985761D01*
X126017833Y-139081000D01*
X126113071Y-139176238D01*
X126208309Y-139366714D01*
X126208309Y-139652428D01*
X126113071Y-139842904D01*
X126017833Y-139938142D01*
X125827357Y-140033380D01*
X125065452Y-140033380D01*
X127922595Y-140985761D02*
X127922595Y-139938142D01*
X127827357Y-139747666D01*
X127636880Y-139652428D01*
X127255928Y-139652428D01*
X127065452Y-139747666D01*
X127922595Y-140890523D02*
X127732119Y-140985761D01*
X127255928Y-140985761D01*
X127065452Y-140890523D01*
X126970214Y-140700047D01*
X126970214Y-140509571D01*
X127065452Y-140319095D01*
X127255928Y-140223857D01*
X127732119Y-140223857D01*
X127922595Y-140128619D01*
X129732119Y-140985761D02*
X129732119Y-138985761D01*
X129732119Y-140890523D02*
X129541642Y-140985761D01*
X129160690Y-140985761D01*
X128970214Y-140890523D01*
X128874976Y-140795285D01*
X128779738Y-140604809D01*
X128779738Y-140033380D01*
X128874976Y-139842904D01*
X128970214Y-139747666D01*
X129160690Y-139652428D01*
X129541642Y-139652428D01*
X129732119Y-139747666D01*
X133351166Y-140985761D02*
X132684500Y-140033380D01*
X132208309Y-140985761D02*
X132208309Y-138985761D01*
X132970214Y-138985761D01*
X133160690Y-139081000D01*
X133255928Y-139176238D01*
X133351166Y-139366714D01*
X133351166Y-139652428D01*
X133255928Y-139842904D01*
X133160690Y-139938142D01*
X132970214Y-140033380D01*
X132208309Y-140033380D01*
X134208309Y-140985761D02*
X134208309Y-138985761D01*
X134970214Y-138985761D01*
X135160690Y-139081000D01*
X135255928Y-139176238D01*
X135351166Y-139366714D01*
X135351166Y-139652428D01*
X135255928Y-139842904D01*
X135160690Y-139938142D01*
X134970214Y-140033380D01*
X134208309Y-140033380D01*
X136113071Y-139176238D02*
X136208309Y-139081000D01*
X136398785Y-138985761D01*
X136874976Y-138985761D01*
X137065452Y-139081000D01*
X137160690Y-139176238D01*
X137255928Y-139366714D01*
X137255928Y-139557190D01*
X137160690Y-139842904D01*
X136017833Y-140985761D01*
X137255928Y-140985761D01*
X138494023Y-138985761D02*
X138684500Y-138985761D01*
X138874976Y-139081000D01*
X138970214Y-139176238D01*
X139065452Y-139366714D01*
X139160690Y-139747666D01*
X139160690Y-140223857D01*
X139065452Y-140604809D01*
X138970214Y-140795285D01*
X138874976Y-140890523D01*
X138684500Y-140985761D01*
X138494023Y-140985761D01*
X138303547Y-140890523D01*
X138208309Y-140795285D01*
X138113071Y-140604809D01*
X138017833Y-140223857D01*
X138017833Y-139747666D01*
X138113071Y-139366714D01*
X138208309Y-139176238D01*
X138303547Y-139081000D01*
X138494023Y-138985761D01*
X140874976Y-139652428D02*
X140874976Y-140985761D01*
X140398785Y-138890523D02*
X139922595Y-140319095D01*
X141160690Y-140319095D01*
X142303547Y-138985761D02*
X142494023Y-138985761D01*
X142684500Y-139081000D01*
X142779738Y-139176238D01*
X142874976Y-139366714D01*
X142970214Y-139747666D01*
X142970214Y-140223857D01*
X142874976Y-140604809D01*
X142779738Y-140795285D01*
X142684500Y-140890523D01*
X142494023Y-140985761D01*
X142303547Y-140985761D01*
X142113071Y-140890523D01*
X142017833Y-140795285D01*
X141922595Y-140604809D01*
X141827357Y-140223857D01*
X141827357Y-139747666D01*
X141922595Y-139366714D01*
X142017833Y-139176238D01*
X142113071Y-139081000D01*
X142303547Y-138985761D01*
D10*
X96066552Y-140803380D02*
X96066552Y-141517666D01*
X96018933Y-141660523D01*
X95923695Y-141755761D01*
X95780838Y-141803380D01*
X95685600Y-141803380D01*
X97018933Y-141803380D02*
X96542742Y-141803380D01*
X96542742Y-140803380D01*
X97923695Y-141708142D02*
X97876076Y-141755761D01*
X97733219Y-141803380D01*
X97637980Y-141803380D01*
X97495123Y-141755761D01*
X97399885Y-141660523D01*
X97352266Y-141565285D01*
X97304647Y-141374809D01*
X97304647Y-141231952D01*
X97352266Y-141041476D01*
X97399885Y-140946238D01*
X97495123Y-140851000D01*
X97637980Y-140803380D01*
X97733219Y-140803380D01*
X97876076Y-140851000D01*
X97923695Y-140898619D01*
X98637980Y-140803380D02*
X98637980Y-141517666D01*
X98590361Y-141660523D01*
X98495123Y-141755761D01*
X98352266Y-141803380D01*
X98257028Y-141803380D01*
X99590361Y-141803380D02*
X99114171Y-141803380D01*
X99114171Y-140803380D01*
X100495123Y-141708142D02*
X100447504Y-141755761D01*
X100304647Y-141803380D01*
X100209409Y-141803380D01*
X100066552Y-141755761D01*
X99971314Y-141660523D01*
X99923695Y-141565285D01*
X99876076Y-141374809D01*
X99876076Y-141231952D01*
X99923695Y-141041476D01*
X99971314Y-140946238D01*
X100066552Y-140851000D01*
X100209409Y-140803380D01*
X100304647Y-140803380D01*
X100447504Y-140851000D01*
X100495123Y-140898619D01*
X101209409Y-140803380D02*
X101209409Y-141517666D01*
X101161790Y-141660523D01*
X101066552Y-141755761D01*
X100923695Y-141803380D01*
X100828457Y-141803380D01*
X102161790Y-141803380D02*
X101685600Y-141803380D01*
X101685600Y-140803380D01*
X103066552Y-141708142D02*
X103018933Y-141755761D01*
X102876076Y-141803380D01*
X102780838Y-141803380D01*
X102637980Y-141755761D01*
X102542742Y-141660523D01*
X102495123Y-141565285D01*
X102447504Y-141374809D01*
X102447504Y-141231952D01*
X102495123Y-141041476D01*
X102542742Y-140946238D01*
X102637980Y-140851000D01*
X102780838Y-140803380D01*
X102876076Y-140803380D01*
X103018933Y-140851000D01*
X103066552Y-140898619D01*
X103780838Y-140803380D02*
X103780838Y-141517666D01*
X103733219Y-141660523D01*
X103637980Y-141755761D01*
X103495123Y-141803380D01*
X103399885Y-141803380D01*
X104733219Y-141803380D02*
X104257028Y-141803380D01*
X104257028Y-140803380D01*
X105637980Y-141708142D02*
X105590361Y-141755761D01*
X105447504Y-141803380D01*
X105352266Y-141803380D01*
X105209409Y-141755761D01*
X105114171Y-141660523D01*
X105066552Y-141565285D01*
X105018933Y-141374809D01*
X105018933Y-141231952D01*
X105066552Y-141041476D01*
X105114171Y-140946238D01*
X105209409Y-140851000D01*
X105352266Y-140803380D01*
X105447504Y-140803380D01*
X105590361Y-140851000D01*
X105637980Y-140898619D01*
D12*
X147000000Y-122000000D02*
X147000000Y-108000000D01*
X147000000Y-122000000D02*
X133000000Y-122000000D01*
X133000000Y-122000000D02*
X133000000Y-108000000D01*
X133000000Y-108000000D02*
X147000000Y-108000000D01*
X147000000Y-102000000D02*
X147000000Y-88000000D01*
X147000000Y-102000000D02*
X133000000Y-102000000D01*
X133000000Y-102000000D02*
X133000000Y-88000000D01*
X133000000Y-88000000D02*
X147000000Y-88000000D01*
X147000000Y-82000000D02*
X147000000Y-68000000D01*
X147000000Y-82000000D02*
X133000000Y-82000000D01*
X133000000Y-82000000D02*
X133000000Y-68000000D01*
X133000000Y-68000000D02*
X147000000Y-68000000D01*
X127000000Y-82000000D02*
X127000000Y-68000000D01*
X127000000Y-82000000D02*
X113000000Y-82000000D01*
X113000000Y-82000000D02*
X113000000Y-68000000D01*
X113000000Y-68000000D02*
X127000000Y-68000000D01*
X107000000Y-82000000D02*
X107000000Y-68000000D01*
X107000000Y-82000000D02*
X93000000Y-82000000D01*
X93000000Y-82000000D02*
X93000000Y-68000000D01*
X93000000Y-68000000D02*
X107000000Y-68000000D01*
X87010000Y-82000000D02*
X87010000Y-68000000D01*
X87010000Y-82000000D02*
X73010000Y-82000000D01*
X73010000Y-82000000D02*
X73010000Y-68000000D01*
X73010000Y-68000000D02*
X87010000Y-68000000D01*
X67000000Y-82000000D02*
X67000000Y-68000000D01*
X67000000Y-82000000D02*
X53000000Y-82000000D01*
X53000000Y-82000000D02*
X53000000Y-68000000D01*
X53000000Y-68000000D02*
X67000000Y-68000000D01*
X67000000Y-102000000D02*
X67000000Y-88000000D01*
X67000000Y-102000000D02*
X53000000Y-102000000D01*
X53000000Y-102000000D02*
X53000000Y-88000000D01*
X53000000Y-88000000D02*
X67000000Y-88000000D01*
X67000000Y-122000000D02*
X67000000Y-108000000D01*
X67000000Y-122000000D02*
X53000000Y-122000000D01*
X53000000Y-122000000D02*
X53000000Y-108000000D01*
X53000000Y-108000000D02*
X67000000Y-108000000D01*
D10*
X139238095Y-123114880D02*
X139238095Y-123924404D01*
X139285714Y-124019642D01*
X139333333Y-124067261D01*
X139428571Y-124114880D01*
X139619047Y-124114880D01*
X139714285Y-124067261D01*
X139761904Y-124019642D01*
X139809523Y-123924404D01*
X139809523Y-123114880D01*
X140333333Y-124114880D02*
X140523809Y-124114880D01*
X140619047Y-124067261D01*
X140666666Y-124019642D01*
X140761904Y-123876785D01*
X140809523Y-123686309D01*
X140809523Y-123305357D01*
X140761904Y-123210119D01*
X140714285Y-123162500D01*
X140619047Y-123114880D01*
X140428571Y-123114880D01*
X140333333Y-123162500D01*
X140285714Y-123210119D01*
X140238095Y-123305357D01*
X140238095Y-123543452D01*
X140285714Y-123638690D01*
X140333333Y-123686309D01*
X140428571Y-123733928D01*
X140619047Y-123733928D01*
X140714285Y-123686309D01*
X140761904Y-123638690D01*
X140809523Y-123543452D01*
X139238095Y-103114880D02*
X139238095Y-103924404D01*
X139285714Y-104019642D01*
X139333333Y-104067261D01*
X139428571Y-104114880D01*
X139619047Y-104114880D01*
X139714285Y-104067261D01*
X139761904Y-104019642D01*
X139809523Y-103924404D01*
X139809523Y-103114880D01*
X140428571Y-103543452D02*
X140333333Y-103495833D01*
X140285714Y-103448214D01*
X140238095Y-103352976D01*
X140238095Y-103305357D01*
X140285714Y-103210119D01*
X140333333Y-103162500D01*
X140428571Y-103114880D01*
X140619047Y-103114880D01*
X140714285Y-103162500D01*
X140761904Y-103210119D01*
X140809523Y-103305357D01*
X140809523Y-103352976D01*
X140761904Y-103448214D01*
X140714285Y-103495833D01*
X140619047Y-103543452D01*
X140428571Y-103543452D01*
X140333333Y-103591071D01*
X140285714Y-103638690D01*
X140238095Y-103733928D01*
X140238095Y-103924404D01*
X140285714Y-104019642D01*
X140333333Y-104067261D01*
X140428571Y-104114880D01*
X140619047Y-104114880D01*
X140714285Y-104067261D01*
X140761904Y-104019642D01*
X140809523Y-103924404D01*
X140809523Y-103733928D01*
X140761904Y-103638690D01*
X140714285Y-103591071D01*
X140619047Y-103543452D01*
X139238095Y-83114880D02*
X139238095Y-83924404D01*
X139285714Y-84019642D01*
X139333333Y-84067261D01*
X139428571Y-84114880D01*
X139619047Y-84114880D01*
X139714285Y-84067261D01*
X139761904Y-84019642D01*
X139809523Y-83924404D01*
X139809523Y-83114880D01*
X140190476Y-83114880D02*
X140857142Y-83114880D01*
X140428571Y-84114880D01*
X119238095Y-83114880D02*
X119238095Y-83924404D01*
X119285714Y-84019642D01*
X119333333Y-84067261D01*
X119428571Y-84114880D01*
X119619047Y-84114880D01*
X119714285Y-84067261D01*
X119761904Y-84019642D01*
X119809523Y-83924404D01*
X119809523Y-83114880D01*
X120714285Y-83114880D02*
X120523809Y-83114880D01*
X120428571Y-83162500D01*
X120380952Y-83210119D01*
X120285714Y-83352976D01*
X120238095Y-83543452D01*
X120238095Y-83924404D01*
X120285714Y-84019642D01*
X120333333Y-84067261D01*
X120428571Y-84114880D01*
X120619047Y-84114880D01*
X120714285Y-84067261D01*
X120761904Y-84019642D01*
X120809523Y-83924404D01*
X120809523Y-83686309D01*
X120761904Y-83591071D01*
X120714285Y-83543452D01*
X120619047Y-83495833D01*
X120428571Y-83495833D01*
X120333333Y-83543452D01*
X120285714Y-83591071D01*
X120238095Y-83686309D01*
X99238095Y-83114880D02*
X99238095Y-83924404D01*
X99285714Y-84019642D01*
X99333333Y-84067261D01*
X99428571Y-84114880D01*
X99619047Y-84114880D01*
X99714285Y-84067261D01*
X99761904Y-84019642D01*
X99809523Y-83924404D01*
X99809523Y-83114880D01*
X100761904Y-83114880D02*
X100285714Y-83114880D01*
X100238095Y-83591071D01*
X100285714Y-83543452D01*
X100380952Y-83495833D01*
X100619047Y-83495833D01*
X100714285Y-83543452D01*
X100761904Y-83591071D01*
X100809523Y-83686309D01*
X100809523Y-83924404D01*
X100761904Y-84019642D01*
X100714285Y-84067261D01*
X100619047Y-84114880D01*
X100380952Y-84114880D01*
X100285714Y-84067261D01*
X100238095Y-84019642D01*
X79248095Y-83114880D02*
X79248095Y-83924404D01*
X79295714Y-84019642D01*
X79343333Y-84067261D01*
X79438571Y-84114880D01*
X79629047Y-84114880D01*
X79724285Y-84067261D01*
X79771904Y-84019642D01*
X79819523Y-83924404D01*
X79819523Y-83114880D01*
X80724285Y-83448214D02*
X80724285Y-84114880D01*
X80486190Y-83067261D02*
X80248095Y-83781547D01*
X80867142Y-83781547D01*
X59238095Y-83114880D02*
X59238095Y-83924404D01*
X59285714Y-84019642D01*
X59333333Y-84067261D01*
X59428571Y-84114880D01*
X59619047Y-84114880D01*
X59714285Y-84067261D01*
X59761904Y-84019642D01*
X59809523Y-83924404D01*
X59809523Y-83114880D01*
X60190476Y-83114880D02*
X60809523Y-83114880D01*
X60476190Y-83495833D01*
X60619047Y-83495833D01*
X60714285Y-83543452D01*
X60761904Y-83591071D01*
X60809523Y-83686309D01*
X60809523Y-83924404D01*
X60761904Y-84019642D01*
X60714285Y-84067261D01*
X60619047Y-84114880D01*
X60333333Y-84114880D01*
X60238095Y-84067261D01*
X60190476Y-84019642D01*
X59238095Y-103114880D02*
X59238095Y-103924404D01*
X59285714Y-104019642D01*
X59333333Y-104067261D01*
X59428571Y-104114880D01*
X59619047Y-104114880D01*
X59714285Y-104067261D01*
X59761904Y-104019642D01*
X59809523Y-103924404D01*
X59809523Y-103114880D01*
X60238095Y-103210119D02*
X60285714Y-103162500D01*
X60380952Y-103114880D01*
X60619047Y-103114880D01*
X60714285Y-103162500D01*
X60761904Y-103210119D01*
X60809523Y-103305357D01*
X60809523Y-103400595D01*
X60761904Y-103543452D01*
X60190476Y-104114880D01*
X60809523Y-104114880D01*
X59238095Y-123114880D02*
X59238095Y-123924404D01*
X59285714Y-124019642D01*
X59333333Y-124067261D01*
X59428571Y-124114880D01*
X59619047Y-124114880D01*
X59714285Y-124067261D01*
X59761904Y-124019642D01*
X59809523Y-123924404D01*
X59809523Y-123114880D01*
X60809523Y-124114880D02*
X60238095Y-124114880D01*
X60523809Y-124114880D02*
X60523809Y-123114880D01*
X60428571Y-123257738D01*
X60333333Y-123352976D01*
X60238095Y-123400595D01*
M02*
