M48
; DRILL file {KiCad (5.1.10)-1} date 08/27/21 00:07:49
; FORMAT={-:-/ absolute / inch / decimal}
; #@! TF.CreationDate,2021-08-27T00:07:49-06:00
; #@! TF.GenerationSoftware,Kicad,Pcbnew,(5.1.10)-1
; #@! TF.FileFunction,NonPlated,1,2,NPTH
FMAT,2
INCH
T1C0.0256
T2C0.0689
T3C0.1181
T4C0.1378
T5C0.1575
T6C1.7323
%
G90
G05
T1
X2.6412Y-2.6244
X2.8688Y-2.6244
T2
X2.1622Y-2.9528
X2.1622Y-3.7402
X2.1622Y-4.5276
X2.5622Y-2.9528
X2.5622Y-3.7402
X2.5622Y-4.5276
X2.95Y-2.9528
X3.35Y-2.9528
X3.737Y-2.9528
X4.137Y-2.9528
X4.5244Y-2.9528
X4.9244Y-2.9528
X5.3118Y-2.9528
X5.3118Y-3.7402
X5.3118Y-4.5276
X5.7118Y-2.9528
X5.7118Y-3.7402
X5.7118Y-4.5276
T3
X2.2622Y-3.1528
X2.2622Y-3.9402
X2.2622Y-4.7276
X2.5122Y-3.0528
X2.5122Y-3.8402
X2.5122Y-4.6276
X3.05Y-3.1528
X3.3Y-3.0528
X3.837Y-3.1528
X4.087Y-3.0528
X4.6244Y-3.1528
X4.8744Y-3.0528
X5.4118Y-3.1528
X5.4118Y-3.9402
X5.4118Y-4.7276
X5.6618Y-3.0528
X5.6618Y-3.8402
X5.6618Y-4.6276
T4
X2.1654Y-2.5591
X2.1654Y-4.1339
X2.1654Y-5.7087
X3.071Y-5.126
X3.937Y-2.5591
X3.937Y-3.626
X4.803Y-5.126
X5.7087Y-2.5591
X5.7087Y-4.1339
X5.7087Y-5.7087
T5
X2.3622Y-2.9528
X2.3622Y-3.7402
X2.3622Y-4.5276
X3.15Y-2.9528
X3.937Y-2.9528
X4.7244Y-2.9528
X5.5118Y-2.9528
X5.5118Y-3.7402
X5.5118Y-4.5276
T6
X3.937Y-4.626
T0
M30
